<?xml version="1.0" encoding="UTF-8"?>
<!DOCTYPE svg PUBLIC "-//W3C//DTD SVG 1.1//EN" "http://www.w3.org/Graphics/SVG/1.1/DTD/svg11.dtd">
<svg xmlns="http://www.w3.org/2000/svg" version="1.1" width="500px" height="500px" style="shape-rendering:geometricPrecision; text-rendering:geometricPrecision; image-rendering:optimizeQuality; fill-rule:evenodd; clip-rule:evenodd" xmlns:xlink="http://www.w3.org/1999/xlink">
<g><path style="opacity:1" fill="#595385" d="M 267.5,89.5 C 247.286,90.4562 226.952,90.7896 206.5,90.5C 206.5,92.5 206.5,94.5 206.5,96.5C 199.167,97.8333 191.833,97.8333 184.5,96.5C 191.167,96.5 197.833,96.5 204.5,96.5C 204.232,93.8806 204.565,91.3806 205.5,89C 226.337,88.1707 247.004,88.3374 267.5,89.5 Z"/></g>
<g><path style="opacity:1" fill="#9790ee" d="M 267.5,89.5 C 267.555,93.1817 268.555,96.515 270.5,99.5C 276.509,99.3338 282.509,99.5005 288.5,100C 289.167,102.333 289.833,104.667 290.5,107C 293.292,108.597 296.292,109.597 299.5,110C 300.071,111.205 300.738,112.372 301.5,113.5C 302.107,113.376 302.44,113.043 302.5,112.5C 302.833,112.5 303.167,112.5 303.5,112.5C 303.5,113.167 303.5,113.833 303.5,114.5C 299.627,115.968 295.627,116.468 291.5,116C 290.133,113.699 289.466,111.199 289.5,108.5C 282.8,108.83 276.134,108.497 269.5,107.5C 268.593,104.579 268.26,101.579 268.5,98.5C 247.601,99.1371 226.934,98.4704 206.5,96.5C 206.5,94.5 206.5,92.5 206.5,90.5C 226.952,90.7896 247.286,90.4562 267.5,89.5 Z"/></g>
<g><path style="opacity:1" fill="#b5b4f2" d="M 184.5,96.5 C 191.833,97.8333 199.167,97.8333 206.5,96.5C 226.934,98.4704 247.601,99.1371 268.5,98.5C 268.26,101.579 268.593,104.579 269.5,107.5C 276.134,108.497 282.8,108.83 289.5,108.5C 289.466,111.199 290.133,113.699 291.5,116C 295.627,116.468 299.627,115.968 303.5,114.5C 304.167,114.5 304.833,114.5 305.5,114.5C 304.791,115.404 303.791,115.737 302.5,115.5C 301.949,118.807 301.616,122.14 301.5,125.5C 304.833,125.5 308.167,125.5 311.5,125.5C 311.368,134.188 311.202,142.855 311,151.5C 314.076,152.288 317.242,152.788 320.5,153C 321.191,154.067 321.691,155.234 322,156.5C 321.733,168.685 321.9,180.851 322.5,193C 320.077,198.831 318.744,198.331 318.5,191.5C 317.5,191.5 316.5,191.5 315.5,191.5C 316.121,195.409 317.788,198.742 320.5,201.5C 320.205,205.228 319.539,208.895 318.5,212.5C 317.745,208.623 315.412,206.956 311.5,207.5C 311.82,204.102 311.487,200.768 310.5,197.5C 309.024,195.58 308.024,193.413 307.5,191C 308.232,189.235 309.565,188.068 311.5,187.5C 310.372,186.738 309.205,186.071 308,185.5C 306.152,177.302 304.985,168.968 304.5,160.5C 303.522,160.023 302.689,159.357 302,158.5C 301.667,159.833 301.333,161.167 301,162.5C 300.667,161.833 300.333,161.167 300,160.5C 299.333,170.5 299.333,180.5 300,190.5C 304.447,192.545 303.947,193.545 298.5,193.5C 298.667,182.495 298.5,171.495 298,160.5C 297.009,159.57 296.509,158.404 296.5,157C 298.579,153.304 299.912,149.304 300.5,145C 299.009,142.106 297.009,141.773 294.5,144C 294.833,144.333 295.167,144.667 295.5,145C 294.24,147.213 293.574,149.713 293.5,152.5C 293.307,166.533 292.307,180.2 290.5,193.5C 276.496,193.333 262.496,193.5 248.5,194C 247.565,196.381 247.232,198.881 247.5,201.5C 243.818,201.335 240.152,201.501 236.5,202C 235.556,204.719 235.223,207.552 235.5,210.5C 235.167,210.5 234.833,210.5 234.5,210.5C 234.5,207.167 234.5,203.833 234.5,200.5C 238.5,200.5 242.5,200.5 246.5,200.5C 246.232,197.881 246.565,195.381 247.5,193C 250.482,192.502 253.482,192.335 256.5,192.5C 267.748,192.821 278.915,192.487 290,191.5C 290.667,179.833 290.667,168.167 290,156.5C 289.781,155.062 289.281,153.729 288.5,152.5C 285.63,151.878 282.796,151.211 280,150.5C 278.539,142.209 278.372,133.876 279.5,125.5C 273.348,125.733 267.514,126.4 262,127.5C 260.122,126.947 258.622,125.947 257.5,124.5C 257.5,119.167 257.5,113.833 257.5,108.5C 232.5,108.5 207.5,108.5 182.5,108.5C 182.813,104.958 182.479,101.625 181.5,98.5C 181.973,97.0937 182.973,96.427 184.5,96.5 Z"/></g>
<g><path style="opacity:1" fill="#938bf1" d="M 185.5,98.5 C 191.833,98.5 198.167,98.5 204.5,98.5C 204.777,101.448 204.444,104.281 203.5,107C 196.842,107.5 190.175,107.666 183.5,107.5C 183.091,104.145 183.758,101.145 185.5,98.5 Z"/></g>
<g><path style="opacity:1" fill="#615d8d" d="M 267.5,89.5 C 268.705,92.2272 270.372,94.7272 272.5,97C 278.085,98.1856 283.751,98.8522 289.5,99C 290.723,101.052 291.723,103.219 292.5,105.5C 295.003,106.964 297.67,108.131 300.5,109C 301.085,110.302 301.751,111.469 302.5,112.5C 302.44,113.043 302.107,113.376 301.5,113.5C 300.738,112.372 300.071,111.205 299.5,110C 296.292,109.597 293.292,108.597 290.5,107C 289.833,104.667 289.167,102.333 288.5,100C 282.509,99.5005 276.509,99.3338 270.5,99.5C 268.555,96.515 267.555,93.1817 267.5,89.5 Z"/></g>
<g><path style="opacity:1" fill="#d2d3f4" d="M 182.5,108.5 C 207.5,108.5 232.5,108.5 257.5,108.5C 257.5,113.833 257.5,119.167 257.5,124.5C 256.751,123.469 256.085,122.302 255.5,121C 256.46,117.27 256.793,113.437 256.5,109.5C 239.903,109.288 223.569,110.954 207.5,114.5C 207.703,116.39 207.037,117.89 205.5,119C 206.308,119.308 206.975,119.808 207.5,120.5C 202.88,121.493 198.214,121.827 193.5,121.5C 193.617,123.484 192.95,125.15 191.5,126.5C 189.094,128.386 186.594,130.053 184,131.5C 182.736,135.381 182.569,139.381 183.5,143.5C 182.127,143.343 180.793,143.51 179.5,144C 180.253,145.487 181.086,145.654 182,144.5C 183.454,146.244 183.621,147.911 182.5,149.5C 177.833,149.5 173.167,149.5 168.5,149.5C 168.44,148.957 168.107,148.624 167.5,148.5C 166.416,149.665 165.583,150.998 165,152.5C 164.667,152.167 164.333,151.833 164,151.5C 161.836,153.148 159.669,154.815 157.5,156.5C 158.781,165.871 158.781,175.538 157.5,185.5C 157.818,186.647 158.484,187.481 159.5,188C 158.549,188.718 158.383,189.551 159,190.5C 160.028,188.639 161.528,187.305 163.5,186.5C 164.711,187.274 164.711,188.107 163.5,189C 164.667,189.5 165.5,190.333 166,191.5C 166.333,191.167 166.667,190.833 167,190.5C 167.67,195.994 165.17,198.327 159.5,197.5C 159.657,196.127 159.49,194.793 159,193.5C 153.525,194.493 148.358,196.326 143.5,199C 144.167,199.333 144.833,199.667 145.5,200C 143.808,201.401 143.141,203.234 143.5,205.5C 137.335,205.966 131.335,205.299 125.5,203.5C 122.483,206.554 118.817,207.887 114.5,207.5C 114.657,208.873 114.49,210.207 114,211.5C 113,212.833 112,212.833 111,211.5C 108.361,214.281 106.861,217.614 106.5,221.5C 105.833,222.167 105.167,222.833 104.5,223.5C 103.167,228.833 103.167,234.167 104.5,239.5C 105.167,240.167 105.833,240.833 106.5,241.5C 107.524,240.147 108.857,239.48 110.5,239.5C 110.5,241.167 110.5,242.833 110.5,244.5C 109.127,244.343 107.793,244.51 106.5,245C 108.922,247.112 108.922,249.112 106.5,251C 104.5,251.333 102.5,251.667 100.5,252C 105.204,252.648 109.871,252.481 114.5,251.5C 114.714,249.856 114.38,248.356 113.5,247C 116.167,244.667 116.167,242.333 113.5,240C 113.996,238.004 114.996,236.337 116.5,235C 115.294,233.982 115.627,233.482 117.5,233.5C 118.647,233.818 119.481,234.484 120,235.5C 121.011,234.663 122.178,234.33 123.5,234.5C 122.835,226.133 126.168,223.133 133.5,225.5C 134.737,225.444 135.737,224.944 136.5,224C 135.932,221.316 134.932,218.816 133.5,216.5C 137.767,215.701 141.934,215.368 146,215.5C 145.553,211.605 145.386,207.772 145.5,204C 146.13,202.69 147.13,201.856 148.5,201.5C 148.5,207.167 148.5,212.833 148.5,218.5C 145.482,218.335 142.482,218.502 139.5,219C 138.556,221.719 138.223,224.552 138.5,227.5C 134.774,227.177 131.107,227.511 127.5,228.5C 126.885,231.039 126.218,233.539 125.5,236C 122.832,236.567 120.166,237.067 117.5,237.5C 117.781,242.565 117.448,247.565 116.5,252.5C 105.854,253.499 95.1874,253.832 84.5,253.5C 84.5,253.167 84.5,252.833 84.5,252.5C 84.168,241.813 84.5013,231.146 85.5,220.5C 86.086,220.709 86.586,221.043 87,221.5C 89,220.833 91,220.167 93,219.5C 93.2174,214.447 93.7174,209.447 94.5,204.5C 98.1224,203.675 101.789,203.175 105.5,203C 106.167,202.333 106.833,201.667 107.5,201C 106.577,198.959 106.244,196.792 106.5,194.5C 120.833,194.5 135.167,194.5 149.5,194.5C 149.5,177.167 149.5,159.833 149.5,142.5C 153.167,142.5 156.833,142.5 160.5,142.5C 160.5,137.167 160.5,131.833 160.5,126.5C 160.5,125.833 160.833,125.5 161.5,125.5C 164.119,125.768 166.619,125.435 169,124.5C 169.498,121.518 169.665,118.518 169.5,115.5C 173.571,115.766 177.571,115.433 181.5,114.5C 182.466,112.604 182.799,110.604 182.5,108.5 Z"/></g>
<g><path style="opacity:1" fill="#cdd3f2" d="M 257.5,124.5 C 258.622,125.947 260.122,126.947 262,127.5C 267.514,126.4 273.348,125.733 279.5,125.5C 278.372,133.876 278.539,142.209 280,150.5C 282.796,151.211 285.63,151.878 288.5,152.5C 289.281,153.729 289.781,155.062 290,156.5C 290.667,168.167 290.667,179.833 290,191.5C 278.915,192.487 267.748,192.821 256.5,192.5C 256.489,190.983 255.823,189.816 254.5,189C 255.747,187.506 255.747,186.006 254.5,184.5C 253.877,186.966 253.043,189.299 252,191.5C 251.15,190.576 250.15,190.576 249,191.5C 247.779,190.728 246.779,189.728 246,188.5C 244.883,188.665 243.716,188.998 242.5,189.5C 240.729,188.965 240.396,188.131 241.5,187C 232.324,186.83 223.324,186.33 214.5,185.5C 225.679,185.828 236.679,185.495 247.5,184.5C 247.5,178.833 247.5,173.167 247.5,167.5C 243.5,167.5 239.5,167.5 235.5,167.5C 235.5,164.167 235.5,160.833 235.5,157.5C 232.167,157.5 228.833,157.5 225.5,157.5C 225.5,155.167 225.5,152.833 225.5,150.5C 221.833,150.5 218.167,150.5 214.5,150.5C 213.505,161.654 213.172,172.988 213.5,184.5C 212.671,176.343 212.171,168.01 212,159.5C 211.667,164.833 211.333,170.167 211,175.5C 210.333,170.167 209.667,170.167 209,175.5C 209.053,172.344 207.886,169.844 205.5,168C 206.308,167.692 206.975,167.192 207.5,166.5C 202.208,165.505 196.875,165.172 191.5,165.5C 191.529,171.21 191.029,176.877 190,182.5C 189.503,180.19 189.337,177.857 189.5,175.5C 188.167,175.5 186.833,175.5 185.5,175.5C 185.664,178.187 185.497,180.854 185,183.5C 184.453,172.323 183.62,161.323 182.5,150.5C 182.5,150.167 182.5,149.833 182.5,149.5C 183.621,147.911 183.454,146.244 182,144.5C 181.086,145.654 180.253,145.487 179.5,144C 180.793,143.51 182.127,143.343 183.5,143.5C 182.569,139.381 182.736,135.381 184,131.5C 186.594,130.053 189.094,128.386 191.5,126.5C 192.95,125.15 193.617,123.484 193.5,121.5C 198.214,121.827 202.88,121.493 207.5,120.5C 206.975,119.808 206.308,119.308 205.5,119C 207.037,117.89 207.703,116.39 207.5,114.5C 223.569,110.954 239.903,109.288 256.5,109.5C 256.793,113.437 256.46,117.27 255.5,121C 256.085,122.302 256.751,123.469 257.5,124.5 Z"/></g>
<g><path style="opacity:1" fill="#9a94eb" d="M 182.5,108.5 C 182.799,110.604 182.466,112.604 181.5,114.5C 177.571,115.433 173.571,115.766 169.5,115.5C 169.665,118.518 169.498,121.518 169,124.5C 166.619,125.435 164.119,125.768 161.5,125.5C 159.049,119.402 161.049,115.735 167.5,114.5C 168.466,112.604 168.799,110.604 168.5,108.5C 173.167,108.5 177.833,108.5 182.5,108.5 Z"/></g>
<g><path style="opacity:1" fill="#757294" d="M 303.5,112.5 C 305.341,113.673 307.174,113.673 309,112.5C 310.395,112.78 311.562,113.447 312.5,114.5C 313.213,117.096 313.213,119.763 312.5,122.5C 313.959,122.433 315.292,122.766 316.5,123.5C 315.081,124.451 313.415,124.784 311.5,124.5C 311.5,121.167 311.5,117.833 311.5,114.5C 309.5,114.5 307.5,114.5 305.5,114.5C 304.833,114.5 304.167,114.5 303.5,114.5C 303.5,113.833 303.5,113.167 303.5,112.5 Z"/></g>
<g><path style="opacity:1" fill="#6b689b" d="M 181.5,98.5 C 182.479,101.625 182.813,104.958 182.5,108.5C 177.833,108.5 173.167,108.5 168.5,108.5C 168.799,110.604 168.466,112.604 167.5,114.5C 161.049,115.735 159.049,119.402 161.5,125.5C 160.833,125.5 160.5,125.833 160.5,126.5C 156.936,125.577 153.269,125.244 149.5,125.5C 149.666,130.844 149.499,136.177 149,141.5C 145.943,142.451 142.777,142.784 139.5,142.5C 141.948,141.527 144.615,141.194 147.5,141.5C 147.334,136.156 147.501,130.823 148,125.5C 151.267,123.899 154.767,123.066 158.5,123C 158.661,120.208 158.994,117.375 159.5,114.5C 161.747,113.626 164.08,113.292 166.5,113.5C 166.261,111.533 166.594,109.699 167.5,108C 172.155,107.501 176.821,107.334 181.5,107.5C 181.5,104.5 181.5,101.5 181.5,98.5 Z"/></g>
<g><path style="opacity:1" fill="#aba9ed" d="M 160.5,126.5 C 160.5,131.833 160.5,137.167 160.5,142.5C 156.833,142.5 153.167,142.5 149.5,142.5C 149.5,159.833 149.5,177.167 149.5,194.5C 135.167,194.5 120.833,194.5 106.5,194.5C 106.244,196.792 106.577,198.959 107.5,201C 106.833,201.667 106.167,202.333 105.5,203C 101.789,203.175 98.1224,203.675 94.5,204.5C 93.7174,209.447 93.2174,214.447 93,219.5C 91,220.167 89,220.833 87,221.5C 86.586,221.043 86.086,220.709 85.5,220.5C 84.5013,231.146 84.168,241.813 84.5,252.5C 83.7611,252.631 83.0944,252.464 82.5,252C 83.6515,242.244 83.8181,232.411 83,222.5C 82.2828,221.956 81.7828,221.289 81.5,220.5C 82.3382,220.158 82.6716,219.492 82.5,218.5C 83.2583,216.019 83.2583,213.352 82.5,210.5C 83.1174,210.611 83.6174,210.944 84,211.5C 84.4974,214.146 84.6641,216.813 84.5,219.5C 87.1194,219.768 89.6194,219.435 92,218.5C 92.4992,213.845 92.6658,209.179 92.5,204.5C 92.3284,203.508 92.6618,202.842 93.5,202.5C 97.1817,202.665 100.848,202.499 104.5,202C 105.435,199.619 105.768,197.119 105.5,194.5C 105.5,193.833 105.167,193.5 104.5,193.5C 104.5,193.167 104.5,192.833 104.5,192.5C 105.75,192.423 106.583,191.756 107,190.5C 107.483,191.448 107.649,192.448 107.5,193.5C 120.171,193.667 132.838,193.5 145.5,193C 146.416,192.626 147.25,192.126 148,191.5C 148.5,175.503 148.667,159.503 148.5,143.5C 145.289,143.012 142.456,143.679 140,145.5C 139.517,144.552 139.351,143.552 139.5,142.5C 142.777,142.784 145.943,142.451 149,141.5C 149.499,136.177 149.666,130.844 149.5,125.5C 153.269,125.244 156.936,125.577 160.5,126.5 Z"/></g>
<g><path style="opacity:1" fill="#948af3" d="M 151.5,126.5 C 153.681,126.914 156.015,127.081 158.5,127C 159.457,131.506 159.124,136.006 157.5,140.5C 155.206,139.294 152.873,138.294 150.5,137.5C 150.244,133.731 150.577,130.064 151.5,126.5 Z"/></g>
<g><path style="opacity:1" fill="#0a1016" d="M 214.5,150.5 C 218.167,150.5 221.833,150.5 225.5,150.5C 225.5,152.833 225.5,155.167 225.5,157.5C 228.833,157.5 232.167,157.5 235.5,157.5C 235.5,160.833 235.5,164.167 235.5,167.5C 239.5,167.5 243.5,167.5 247.5,167.5C 247.5,173.167 247.5,178.833 247.5,184.5C 236.5,184.5 225.5,184.5 214.5,184.5C 214.5,173.167 214.5,161.833 214.5,150.5 Z"/></g>
<g><path style="opacity:1" fill="#696e82" d="M 168.5,150.5 C 168.5,150.167 168.5,149.833 168.5,149.5C 173.167,149.5 177.833,149.5 182.5,149.5C 182.5,149.833 182.5,150.167 182.5,150.5C 182.5,162.167 182.5,173.833 182.5,185.5C 174.981,185.825 167.648,185.492 160.5,184.5C 167.5,184.5 174.5,184.5 181.5,184.5C 181.5,173.167 181.5,161.833 181.5,150.5C 177.167,150.5 172.833,150.5 168.5,150.5 Z"/></g>
<g><path style="opacity:1" fill="#938bf1" d="M 325.5,152.5 C 328.833,152.5 332.167,152.5 335.5,152.5C 335.187,164.913 335.521,177.247 336.5,189.5C 336.5,191.167 336.5,192.833 336.5,194.5C 332.818,194.665 329.152,194.499 325.5,194C 325,193.5 324.5,193 324,192.5C 323.333,179.5 323.333,166.5 324,153.5C 324.383,152.944 324.883,152.611 325.5,152.5 Z"/></g>
<g><path style="opacity:1" fill="#7571a7" d="M 317.5,123.5 C 319.746,124.21 322.08,124.71 324.5,125C 325.022,125.561 325.355,126.228 325.5,127C 324.386,134.129 324.219,141.296 325,148.5C 328.426,150.815 332.259,151.815 336.5,151.5C 337.588,162.763 337.588,173.93 336.5,185C 337.836,187.678 338.67,190.511 339,193.5C 340.302,194.085 341.469,194.751 342.5,195.5C 340.95,196.72 339.284,196.72 337.5,195.5C 337.795,193.265 337.461,191.265 336.5,189.5C 335.521,177.247 335.187,164.913 335.5,152.5C 332.167,152.5 328.833,152.5 325.5,152.5C 325.189,151.522 324.522,150.855 323.5,150.5C 322.502,142.193 322.169,133.86 322.5,125.5C 320.219,125.923 318.552,125.256 317.5,123.5 Z"/></g>
<g><path style="opacity:1" fill="#76798f" d="M 214.5,150.5 C 214.5,161.833 214.5,173.167 214.5,184.5C 225.5,184.5 236.5,184.5 247.5,184.5C 236.679,185.495 225.679,185.828 214.5,185.5C 213.833,185.5 213.5,185.167 213.5,184.5C 213.172,172.988 213.505,161.654 214.5,150.5 Z"/></g>
<g><path style="opacity:1" fill="#645d8f" d="M 138.5,151.5 C 139.495,162.988 139.828,174.655 139.5,186.5C 128.493,186.342 117.493,186.008 106.5,185.5C 106.741,187.898 106.074,189.898 104.5,191.5C 104.244,189.208 104.577,187.041 105.5,185C 116.375,183.726 127.208,183.226 138,183.5C 138.5,172.839 138.667,162.172 138.5,151.5 Z"/></g>
<g><path style="opacity:1" fill="#ced3f3" d="M 168.5,149.5 C 168.5,149.833 168.5,150.167 168.5,150.5C 168.5,152.833 168.5,155.167 168.5,157.5C 165.833,157.5 163.167,157.5 160.5,157.5C 160.5,166.5 160.5,175.5 160.5,184.5C 167.648,185.492 174.981,185.825 182.5,185.5C 182.5,173.833 182.5,162.167 182.5,150.5C 183.62,161.323 184.453,172.323 185,183.5C 185.497,180.854 185.664,178.187 185.5,175.5C 186.833,175.5 188.167,175.5 189.5,175.5C 189.337,177.857 189.503,180.19 190,182.5C 191.029,176.877 191.529,171.21 191.5,165.5C 196.875,165.172 202.208,165.505 207.5,166.5C 206.975,167.192 206.308,167.692 205.5,168C 207.886,169.844 209.053,172.344 209,175.5C 209.667,170.167 210.333,170.167 211,175.5C 211.333,170.167 211.667,164.833 212,159.5C 212.171,168.01 212.671,176.343 213.5,184.5C 213.5,185.167 213.833,185.5 214.5,185.5C 223.324,186.33 232.324,186.83 241.5,187C 240.396,188.131 240.729,188.965 242.5,189.5C 243.716,188.998 244.883,188.665 246,188.5C 246.779,189.728 247.779,190.728 249,191.5C 250.15,190.576 251.15,190.576 252,191.5C 253.043,189.299 253.877,186.966 254.5,184.5C 255.747,186.006 255.747,187.506 254.5,189C 255.823,189.816 256.489,190.983 256.5,192.5C 253.482,192.335 250.482,192.502 247.5,193C 246.565,195.381 246.232,197.881 246.5,200.5C 242.5,200.5 238.5,200.5 234.5,200.5C 234.5,203.833 234.5,207.167 234.5,210.5C 231.482,210.335 228.482,210.502 225.5,211C 224.565,213.381 224.232,215.881 224.5,218.5C 220.894,218.211 217.394,218.544 214,219.5C 213.196,228.215 213.363,236.882 214.5,245.5C 217.768,246.487 221.102,246.82 224.5,246.5C 224.334,251.844 224.501,257.177 225,262.5C 228.057,263.451 231.223,263.784 234.5,263.5C 234.5,266.167 234.5,268.833 234.5,271.5C 231.5,271.5 228.5,271.5 225.5,271.5C 225.333,289.503 225.5,307.503 226,325.5C 228.333,326.833 230.667,326.833 233,325.5C 235.372,326.317 235.872,327.65 234.5,329.5C 234.779,341.562 234.446,353.562 233.5,365.5C 231.727,366.087 229.894,366.42 228,366.5C 224.834,365.695 221.667,365.028 218.5,364.5C 216.83,358.641 212.83,355.641 206.5,355.5C 206.359,347.954 206.526,340.287 207,332.5C 206.028,330.695 204.861,329.028 203.5,327.5C 201.379,329.898 199.045,330.065 196.5,328C 195.73,325.433 194.73,322.933 193.5,320.5C 193.262,300.201 193.596,279.868 194.5,259.5C 193.864,255.751 192.364,252.417 190,249.5C 187.135,251.471 184.135,252.137 181,251.5C 179.866,252.425 178.699,253.425 177.5,254.5C 177.482,256.373 177.982,256.706 179,255.5C 179.664,259.696 179.497,263.862 178.5,268C 178.625,269.627 179.125,271.127 180,272.5C 180.021,298.846 180.188,325.18 180.5,351.5C 178.436,351.687 176.436,352.187 174.5,353C 176.869,353.536 178.869,354.703 180.5,356.5C 176.683,357.915 173.016,357.748 169.5,356C 171.285,354.407 171.452,352.907 170,351.5C 169.667,348.167 169.333,344.833 169,341.5C 166.808,339.765 164.308,338.598 161.5,338C 162.454,298.352 162.788,258.686 162.5,219C 162.333,215.167 162.167,211.333 162,207.5C 161.768,208.737 161.268,209.737 160.5,210.5C 160.777,207.552 160.444,204.719 159.5,202C 155.848,201.501 152.182,201.335 148.5,201.5C 147.13,201.856 146.13,202.69 145.5,204C 145.386,207.772 145.553,211.605 146,215.5C 141.934,215.368 137.767,215.701 133.5,216.5C 134.932,218.816 135.932,221.316 136.5,224C 135.737,224.944 134.737,225.444 133.5,225.5C 126.168,223.133 122.835,226.133 123.5,234.5C 122.178,234.33 121.011,234.663 120,235.5C 119.481,234.484 118.647,233.818 117.5,233.5C 115.627,233.482 115.294,233.982 116.5,235C 114.996,236.337 113.996,238.004 113.5,240C 116.167,242.333 116.167,244.667 113.5,247C 114.38,248.356 114.714,249.856 114.5,251.5C 109.871,252.481 105.204,252.648 100.5,252C 102.5,251.667 104.5,251.333 106.5,251C 108.922,249.112 108.922,247.112 106.5,245C 107.793,244.51 109.127,244.343 110.5,244.5C 110.5,242.833 110.5,241.167 110.5,239.5C 108.857,239.48 107.524,240.147 106.5,241.5C 105.833,240.833 105.167,240.167 104.5,239.5C 103.167,234.167 103.167,228.833 104.5,223.5C 105.167,222.833 105.833,222.167 106.5,221.5C 106.861,217.614 108.361,214.281 111,211.5C 112,212.833 113,212.833 114,211.5C 114.49,210.207 114.657,208.873 114.5,207.5C 118.817,207.887 122.483,206.554 125.5,203.5C 131.335,205.299 137.335,205.966 143.5,205.5C 143.141,203.234 143.808,201.401 145.5,200C 144.833,199.667 144.167,199.333 143.5,199C 148.358,196.326 153.525,194.493 159,193.5C 159.49,194.793 159.657,196.127 159.5,197.5C 165.17,198.327 167.67,195.994 167,190.5C 166.667,190.833 166.333,191.167 166,191.5C 165.5,190.333 164.667,189.5 163.5,189C 164.711,188.107 164.711,187.274 163.5,186.5C 161.528,187.305 160.028,188.639 159,190.5C 158.383,189.551 158.549,188.718 159.5,188C 158.484,187.481 157.818,186.647 157.5,185.5C 158.781,175.538 158.781,165.871 157.5,156.5C 159.669,154.815 161.836,153.148 164,151.5C 164.333,151.833 164.667,152.167 165,152.5C 165.583,150.998 166.416,149.665 167.5,148.5C 168.107,148.624 168.44,148.957 168.5,149.5 Z"/></g>
<g><path style="opacity:1" fill="#090e16" d="M 168.5,150.5 C 172.833,150.5 177.167,150.5 181.5,150.5C 181.5,161.833 181.5,173.167 181.5,184.5C 174.5,184.5 167.5,184.5 160.5,184.5C 160.5,175.5 160.5,166.5 160.5,157.5C 163.167,157.5 165.833,157.5 168.5,157.5C 168.5,155.167 168.5,152.833 168.5,150.5 Z"/></g>
<g><path style="opacity:1" fill="#928aed" d="M 139.5,142.5 C 139.351,143.552 139.517,144.552 140,145.5C 142.456,143.679 145.289,143.012 148.5,143.5C 148.667,159.503 148.5,175.503 148,191.5C 147.25,192.126 146.416,192.626 145.5,193C 132.838,193.5 120.171,193.667 107.5,193.5C 107.649,192.448 107.483,191.448 107,190.5C 106.583,191.756 105.75,192.423 104.5,192.5C 104.5,192.167 104.5,191.833 104.5,191.5C 106.074,189.898 106.741,187.898 106.5,185.5C 117.493,186.008 128.493,186.342 139.5,186.5C 139.828,174.655 139.495,162.988 138.5,151.5C 138.19,148.287 138.523,145.287 139.5,142.5 Z"/></g>
<g><path style="opacity:1" fill="#b4b3f2" d="M 320.5,201.5 C 320.709,200.078 321.209,198.745 322,197.5C 323.016,198.634 323.683,198.301 324,196.5C 327.415,197.049 331.248,197.049 335.5,196.5C 335.649,197.552 335.483,198.552 335,199.5C 330.333,201.5 330.333,203.5 335,205.5C 335.52,214.166 336.02,222.832 336.5,231.5C 335.53,242.359 335.197,253.192 335.5,264C 335.667,264.833 335.833,265.667 336,266.5C 337.865,264.327 340.031,263.993 342.5,265.5C 343.834,267.818 343.168,269.485 340.5,270.5C 341.325,271.386 342.325,271.719 343.5,271.5C 343.811,282.552 343.478,293.552 342.5,304.5C 342.833,305.167 343.167,305.833 343.5,306.5C 346.704,307.204 349.871,307.87 353,308.5C 354.767,318.002 354.934,327.502 353.5,337C 354.127,339.343 355.127,341.51 356.5,343.5C 357.086,343.291 357.586,342.957 358,342.5C 360.333,343.5 362.667,344.5 365,345.5C 364.714,348.445 364.214,351.445 363.5,354.5C 363.288,357.011 363.955,359.178 365.5,361C 369.01,361.972 371.51,363.472 373,365.5C 373.546,364.711 374.213,363.711 375,362.5C 376.333,362.5 377.667,362.5 379,362.5C 379.263,366.835 379.097,371.168 378.5,375.5C 388.602,375.763 392.435,380.763 390,390.5C 389.816,386.352 388.982,383.686 387.5,382.5C 385.891,382.094 384.557,382.094 383.5,382.5C 385.029,387.277 386.862,391.943 389,396.5C 391.947,396.951 395.113,397.617 398.5,398.5C 398.5,399.5 398.5,400.5 398.5,401.5C 359.5,401.5 320.5,401.5 281.5,401.5C 281.975,398.918 281.308,396.918 279.5,395.5C 262.008,394.503 244.341,394.17 226.5,394.5C 226.223,391.552 226.556,388.719 227.5,386C 230.854,385.545 234.187,385.045 237.5,384.5C 240.177,385.614 242.844,385.614 245.5,384.5C 243.955,383.548 242.288,383.215 240.5,383.5C 240.477,380.543 239.477,378.043 237.5,376C 238.271,374.002 237.605,372.335 235.5,371C 239.747,365.961 241.08,366.461 239.5,372.5C 242.272,372.22 244.772,372.887 247,374.5C 248.18,373.316 249.68,372.649 251.5,372.5C 261.504,373.107 271.504,374.107 281.5,375.5C 281.5,378.167 281.5,380.833 281.5,383.5C 283.912,383.244 285.579,384.244 286.5,386.5C 287.452,384.955 287.785,383.288 287.5,381.5C 295.686,382.047 303.686,383.547 311.5,386C 321.121,387.519 330.288,386.353 339,382.5C 339.772,382.645 340.439,382.978 341,383.5C 341.465,382.069 342.299,380.903 343.5,380C 348.898,379.151 354.231,377.984 359.5,376.5C 357.333,374.17 355.666,371.503 354.5,368.5C 355.025,367.808 355.692,367.308 356.5,367C 355.013,364.78 353.346,362.78 351.5,361C 357.624,351.184 354.957,346.017 343.5,345.5C 342.561,342.197 341.561,338.864 340.5,335.5C 339.5,335.5 338.5,335.5 337.5,335.5C 336.825,329.463 335.825,323.463 334.5,317.5C 335.156,315.547 335.489,313.547 335.5,311.5C 336.5,311.5 337.5,311.5 338.5,311.5C 338.762,310.022 338.429,308.689 337.5,307.5C 335.833,306.5 334.5,305.167 333.5,303.5C 331.997,304.052 330.331,304.052 328.5,303.5C 328.507,300.962 328.841,298.462 329.5,296C 329.491,294.596 328.991,293.43 328,292.5C 326.322,295.555 323.989,297.888 321,299.5C 318.017,298.083 314.85,297.25 311.5,297C 310.697,292.586 310.197,288.086 310,283.5C 309.333,282.833 308.667,282.167 308,281.5C 306.644,282.38 305.144,282.714 303.5,282.5C 303.333,295.837 303.5,309.171 304,322.5C 304.308,323.308 304.808,323.975 305.5,324.5C 308.32,324.654 311.154,324.654 314,324.5C 314.419,325.672 315.085,326.672 316,327.5C 314.654,331.427 314.154,336.76 314.5,343.5C 316.35,347.948 318.517,348.281 321,344.5C 322.15,345.424 323.15,345.424 324,344.5C 324.731,346.899 325.898,349.065 327.5,351C 326.808,355.801 326.142,360.635 325.5,365.5C 329.796,366.328 334.129,366.828 338.5,367C 339.939,367.991 340.939,369.324 341.5,371C 340.965,373.416 340.632,375.916 340.5,378.5C 338.993,379.739 337.826,379.405 337,377.5C 331.995,382.408 326.495,383.241 320.5,380C 322.026,378.113 324.026,377.113 326.5,377C 321.492,376.499 316.492,375.999 311.5,375.5C 311.777,370.767 311.443,366.1 310.5,361.5C 307.592,360.593 304.758,360.927 302,362.5C 301.306,358.759 300.139,355.259 298.5,352C 295.5,351.667 292.5,351.333 289.5,351C 289.218,343.194 289.551,335.36 290.5,327.5C 290.334,334.175 290.5,340.842 291,347.5C 294.205,349.181 297.705,350.181 301.5,350.5C 302.484,353.428 302.817,356.428 302.5,359.5C 305.833,359.5 309.167,359.5 312.5,359.5C 312.223,364.233 312.557,368.9 313.5,373.5C 321.472,374.498 329.472,374.831 337.5,374.5C 337.5,372.833 337.5,371.167 337.5,369.5C 332.352,370.074 327.518,369.407 323,367.5C 322.667,367.833 322.333,368.167 322,368.5C 322.568,362.911 322.568,357.244 322,351.5C 320.667,350.833 319.333,350.167 318,349.5C 316.192,349.888 314.525,349.888 313,349.5C 312.5,341.841 312.334,334.174 312.5,326.5C 309.813,326.664 307.146,326.497 304.5,326C 303.333,325.5 302.5,324.667 302,323.5C 301.333,308.833 301.333,294.167 302,279.5C 305.131,280.206 308.298,280.873 311.5,281.5C 312.328,285.796 312.828,290.129 313,294.5C 316.23,296.691 319.73,297.024 323.5,295.5C 324.647,282.546 324.814,269.546 324,256.5C 323.5,256 323,255.5 322.5,255C 319.242,254.788 316.076,254.288 313,253.5C 312.667,242.5 312.333,231.5 312,220.5C 308.606,219.544 305.106,219.211 301.5,219.5C 301.5,216.833 301.5,214.167 301.5,211.5C 302.468,213.607 302.802,215.941 302.5,218.5C 305.85,218.665 309.183,218.498 312.5,218C 313.845,215.676 314.178,213.342 313.5,211C 310.183,210.502 306.85,210.335 303.5,210.5C 303.956,202.124 300.123,199.458 292,202.5C 291.503,205.146 291.336,207.813 291.5,210.5C 290.527,208.052 290.194,205.385 290.5,202.5C 276.5,202.5 262.5,202.5 248.5,202.5C 262.327,201.669 276.327,201.169 290.5,201C 291.811,198.726 291.811,196.56 290.5,194.5C 290.5,194.167 290.5,193.833 290.5,193.5C 292.307,180.2 293.307,166.533 293.5,152.5C 293.574,149.713 294.24,147.213 295.5,145C 295.167,144.667 294.833,144.333 294.5,144C 297.009,141.773 299.009,142.106 300.5,145C 299.912,149.304 298.579,153.304 296.5,157C 296.509,158.404 297.009,159.57 298,160.5C 298.5,171.495 298.667,182.495 298.5,193.5C 303.947,193.545 304.447,192.545 300,190.5C 299.333,180.5 299.333,170.5 300,160.5C 300.333,161.167 300.667,161.833 301,162.5C 301.333,161.167 301.667,159.833 302,158.5C 302.689,159.357 303.522,160.023 304.5,160.5C 304.985,168.968 306.152,177.302 308,185.5C 309.205,186.071 310.372,186.738 311.5,187.5C 309.565,188.068 308.232,189.235 307.5,191C 308.024,193.413 309.024,195.58 310.5,197.5C 311.487,200.768 311.82,204.102 311.5,207.5C 315.412,206.956 317.745,208.623 318.5,212.5C 319.539,208.895 320.205,205.228 320.5,201.5 Z"/></g>
<g><path style="opacity:1" fill="#9791eb" d="M 105.5,194.5 C 105.768,197.119 105.435,199.619 104.5,202C 100.848,202.499 97.1817,202.665 93.5,202.5C 93.5,199.833 93.5,197.167 93.5,194.5C 97.577,195.243 101.577,195.243 105.5,194.5 Z"/></g>
<g><path style="opacity:1" fill="#746ea4" d="M 104.5,193.5 C 105.167,193.5 105.5,193.833 105.5,194.5C 101.577,195.243 97.577,195.243 93.5,194.5C 93.5,197.167 93.5,199.833 93.5,202.5C 92.6618,202.842 92.3284,203.508 92.5,204.5C 90.2362,203.781 87.9029,203.448 85.5,203.5C 85.628,205.655 85.128,207.655 84,209.5C 83.6012,209.272 83.4346,208.938 83.5,208.5C 82.169,202.066 84.5023,199.733 90.5,201.5C 91.2733,199.187 91.9399,196.854 92.5,194.5C 96.459,192.83 100.459,192.497 104.5,193.5 Z"/></g>
<g><path style="opacity:1" fill="#cdd2f4" d="M 248.5,202.5 C 262.5,202.5 276.5,202.5 290.5,202.5C 290.194,205.385 290.527,208.052 291.5,210.5C 294.625,211.479 297.958,211.813 301.5,211.5C 301.5,214.167 301.5,216.833 301.5,219.5C 305.106,219.211 308.606,219.544 312,220.5C 312.333,231.5 312.667,242.5 313,253.5C 316.076,254.288 319.242,254.788 322.5,255C 323,255.5 323.5,256 324,256.5C 324.814,269.546 324.647,282.546 323.5,295.5C 319.73,297.024 316.23,296.691 313,294.5C 312.828,290.129 312.328,285.796 311.5,281.5C 308.298,280.873 305.131,280.206 302,279.5C 301.333,294.167 301.333,308.833 302,323.5C 302.5,324.667 303.333,325.5 304.5,326C 307.146,326.497 309.813,326.664 312.5,326.5C 312.334,334.174 312.5,341.841 313,349.5C 314.525,349.888 316.192,349.888 318,349.5C 319.333,350.167 320.667,350.833 322,351.5C 322.568,357.244 322.568,362.911 322,368.5C 322.333,368.167 322.667,367.833 323,367.5C 327.518,369.407 332.352,370.074 337.5,369.5C 337.5,371.167 337.5,372.833 337.5,374.5C 329.472,374.831 321.472,374.498 313.5,373.5C 312.557,368.9 312.223,364.233 312.5,359.5C 309.167,359.5 305.833,359.5 302.5,359.5C 302.817,356.428 302.484,353.428 301.5,350.5C 297.705,350.181 294.205,349.181 291,347.5C 290.5,340.842 290.334,334.175 290.5,327.5C 291.486,323.03 291.819,318.363 291.5,313.5C 288.167,313.5 284.833,313.5 281.5,313.5C 281.5,299.5 281.5,285.5 281.5,271.5C 277.5,271.5 273.5,271.5 269.5,271.5C 269.806,268.615 269.473,265.948 268.5,263.5C 265.167,262.833 261.833,262.167 258.5,261.5C 258.5,255.833 258.5,250.167 258.5,244.5C 255.167,244.5 251.833,244.5 248.5,244.5C 248.768,241.881 248.435,239.381 247.5,237C 240.508,236.5 233.508,236.334 226.5,236.5C 226.5,230.833 226.5,225.167 226.5,219.5C 227.5,219.5 228.5,219.5 229.5,219.5C 231.833,219.5 234.167,219.5 236.5,219.5C 236.5,216.833 236.5,214.167 236.5,211.5C 239.85,211.665 243.183,211.498 246.5,211C 247.128,208.061 247.795,205.228 248.5,202.5 Z"/></g>
<g><path style="opacity:1" fill="#575d6f" d="M 182.5,202.5 C 189.648,201.508 196.981,201.175 204.5,201.5C 204.5,204.833 204.5,208.167 204.5,211.5C 196.833,211.5 189.167,211.5 181.5,211.5C 181.19,208.287 181.523,205.287 182.5,202.5 Z"/></g>
<g><path style="opacity:1" fill="#0a101a" d="M 182.5,202.5 C 189.5,202.5 196.5,202.5 203.5,202.5C 203.5,205.167 203.5,207.833 203.5,210.5C 196.5,210.5 189.5,210.5 182.5,210.5C 182.5,207.833 182.5,205.167 182.5,202.5 Z"/></g>
<g><path style="opacity:1" fill="#9089ef" d="M 301.5,211.5 C 297.958,211.813 294.625,211.479 291.5,210.5C 291.336,207.813 291.503,205.146 292,202.5C 300.123,199.458 303.956,202.124 303.5,210.5C 306.85,210.335 310.183,210.502 313.5,211C 314.178,213.342 313.845,215.676 312.5,218C 309.183,218.498 305.85,218.665 302.5,218.5C 302.802,215.941 302.468,213.607 301.5,211.5 Z"/></g>
<g><path style="opacity:1" fill="#948eec" d="M 290.5,193.5 C 290.5,193.833 290.5,194.167 290.5,194.5C 291.811,196.56 291.811,198.726 290.5,201C 276.327,201.169 262.327,201.669 248.5,202.5C 247.795,205.228 247.128,208.061 246.5,211C 243.183,211.498 239.85,211.665 236.5,211.5C 236.5,214.167 236.5,216.833 236.5,219.5C 234.167,219.5 231.833,219.5 229.5,219.5C 228.432,218.566 227.099,218.232 225.5,218.5C 225.318,216.409 225.652,214.409 226.5,212.5C 229.642,211.833 232.642,211.166 235.5,210.5C 235.223,207.552 235.556,204.719 236.5,202C 240.152,201.501 243.818,201.335 247.5,201.5C 247.232,198.881 247.565,196.381 248.5,194C 262.496,193.5 276.496,193.333 290.5,193.5 Z"/></g>
<g><path style="opacity:1" fill="#857cf2" d="M 290.5,194.5 C 290.859,196.766 290.192,198.599 288.5,200C 275.504,200.5 262.504,200.667 249.5,200.5C 249.5,198.5 249.5,196.5 249.5,194.5C 263.167,194.5 276.833,194.5 290.5,194.5 Z"/></g>
<g><path style="opacity:1" fill="#948eeb" d="M 92.5,204.5 C 92.6658,209.179 92.4992,213.845 92,218.5C 89.6194,219.435 87.1194,219.768 84.5,219.5C 84.6641,216.813 84.4974,214.146 84,211.5C 83.6174,210.944 83.1174,210.611 82.5,210.5C 82.3284,209.508 82.6618,208.842 83.5,208.5C 83.4346,208.938 83.6012,209.272 84,209.5C 85.128,207.655 85.628,205.655 85.5,203.5C 87.9029,203.448 90.2362,203.781 92.5,204.5 Z"/></g>
<g><path style="opacity:1" fill="#918aee" d="M 337.5,195.5 C 339.284,196.72 340.95,196.72 342.5,195.5C 344.834,197.176 345.834,199.509 345.5,202.5C 344.503,221.659 344.17,240.993 344.5,260.5C 346.054,261.895 345.721,262.561 343.5,262.5C 341.541,262.125 339.707,261.459 338,260.5C 337.5,238.836 337.333,217.169 337.5,195.5 Z"/></g>
<g><path style="opacity:1" fill="#463b87" d="M 82.5,218.5 C 82.6716,219.492 82.3382,220.158 81.5,220.5C 78.8806,220.232 76.3806,220.565 74,221.5C 73.5002,231.494 73.3335,241.494 73.5,251.5C 71.7777,242.375 71.2777,233.042 72,223.5C 72.3095,222.234 72.8095,221.067 73.5,220C 76.5867,219.741 79.5867,219.241 82.5,218.5 Z"/></g>
<g><path style="opacity:1" fill="#474678" d="M 345.5,202.5 C 345.18,221.909 345.513,241.243 346.5,260.5C 345.833,260.5 345.167,260.5 344.5,260.5C 344.17,240.993 344.503,221.659 345.5,202.5 Z"/></g>
<g><path style="opacity:1" fill="#9892e9" d="M 81.5,220.5 C 81.7828,221.289 82.2828,221.956 83,222.5C 83.8181,232.411 83.6515,242.244 82.5,252C 83.0944,252.464 83.7611,252.631 84.5,252.5C 84.5,252.833 84.5,253.167 84.5,253.5C 94.9869,254.494 105.654,254.828 116.5,254.5C 107.342,255.33 98.009,255.83 88.5,256C 87.8333,256.667 87.1667,257.333 86.5,258C 88.7006,259.043 91.0339,259.877 93.5,260.5C 94.1153,263.039 94.7819,265.539 95.5,268C 98.4781,268.696 101.478,269.196 104.5,269.5C 103.864,266.894 103.864,264.394 104.5,262C 111.803,260.17 119.136,260.003 126.5,261.5C 127.594,255.095 124.927,252.762 118.5,254.5C 121.287,253.523 124.287,253.19 127.5,253.5C 127.5,256.167 127.5,258.833 127.5,261.5C 131.24,261.241 134.906,261.574 138.5,262.5C 139.5,291.159 139.833,319.826 139.5,348.5C 136.287,348.19 133.287,348.523 130.5,349.5C 129.167,349.5 128.5,348.833 128.5,347.5C 128.83,327.993 128.497,308.659 127.5,289.5C 125.5,288.833 123.5,288.167 121.5,287.5C 124.119,287.232 126.619,287.565 129,288.5C 129.483,308.169 129.983,327.836 130.5,347.5C 132.792,347.756 134.959,347.423 137,346.5C 137.333,344.167 137.667,341.833 138,339.5C 138.5,314.169 138.667,288.836 138.5,263.5C 134.833,263.5 131.167,263.5 127.5,263.5C 127.822,269.358 127.489,275.025 126.5,280.5C 126.5,274.833 126.5,269.167 126.5,263.5C 119.524,262.768 112.524,262.435 105.5,262.5C 105.736,265.609 105.403,268.609 104.5,271.5C 101.214,270.793 97.8806,270.46 94.5,270.5C 92.9385,268.628 91.9385,266.295 91.5,263.5C 89.2534,262.626 86.9201,262.292 84.5,262.5C 84.6633,260.143 84.4966,257.81 84,255.5C 81.2595,254.718 78.4262,254.218 75.5,254C 74.244,253.583 73.5774,252.75 73.5,251.5C 73.3335,241.494 73.5002,231.494 74,221.5C 76.3806,220.565 78.8806,220.232 81.5,220.5 Z"/></g>
<g><path style="opacity:1" fill="#8f85f2" d="M 116.5,254.5 C 117.167,254.5 117.833,254.5 118.5,254.5C 124.927,252.762 127.594,255.095 126.5,261.5C 119.136,260.003 111.803,260.17 104.5,262C 103.864,264.394 103.864,266.894 104.5,269.5C 101.478,269.196 98.4781,268.696 95.5,268C 94.7819,265.539 94.1153,263.039 93.5,260.5C 91.0339,259.877 88.7006,259.043 86.5,258C 87.1667,257.333 87.8333,256.667 88.5,256C 98.009,255.83 107.342,255.33 116.5,254.5 Z"/></g>
<g><path style="opacity:1" fill="#b2b2f2" d="M 148.5,201.5 C 152.182,201.335 155.848,201.501 159.5,202C 160.444,204.719 160.777,207.552 160.5,210.5C 160.822,252.857 160.489,295.19 159.5,337.5C 159.608,338.442 159.941,339.275 160.5,340C 163.334,340.045 165.834,340.879 168,342.5C 168.499,347.823 168.666,353.156 168.5,358.5C 172.833,358.5 177.167,358.5 181.5,358.5C 181.5,323.833 181.5,289.167 181.5,254.5C 185.106,254.211 188.606,254.544 192,255.5C 192.333,280.833 192.667,306.167 193,331.5C 196.473,332.043 199.806,333.043 203,334.5C 203.333,342.167 203.667,349.833 204,357.5C 207.131,358.206 210.298,358.873 213.5,359.5C 214.48,362.086 214.813,364.753 214.5,367.5C 213.532,365.393 213.198,363.059 213.5,360.5C 203.844,359.908 194.178,359.575 184.5,359.5C 177.13,359.467 169.797,359.301 162.5,359C 161.584,359.374 160.75,359.874 160,360.5C 159.503,362.81 159.337,365.143 159.5,367.5C 156.167,367.5 152.833,367.5 149.5,367.5C 149.5,361.5 149.5,355.5 149.5,349.5C 146.167,349.5 142.833,349.5 139.5,349.5C 139.5,349.167 139.5,348.833 139.5,348.5C 139.833,319.826 139.5,291.159 138.5,262.5C 134.906,261.574 131.24,261.241 127.5,261.5C 127.5,258.833 127.5,256.167 127.5,253.5C 124.287,253.19 121.287,253.523 118.5,254.5C 117.833,254.5 117.167,254.5 116.5,254.5C 105.654,254.828 94.9869,254.494 84.5,253.5C 95.1874,253.832 105.854,253.499 116.5,252.5C 117.448,247.565 117.781,242.565 117.5,237.5C 120.166,237.067 122.832,236.567 125.5,236C 126.218,233.539 126.885,231.039 127.5,228.5C 131.107,227.511 134.774,227.177 138.5,227.5C 138.223,224.552 138.556,221.719 139.5,219C 142.482,218.502 145.482,218.335 148.5,218.5C 148.5,212.833 148.5,207.167 148.5,201.5 Z"/></g>
<g><path style="opacity:1" fill="#aeaef2" d="M 234.5,210.5 C 234.833,210.5 235.167,210.5 235.5,210.5C 232.642,211.166 229.642,211.833 226.5,212.5C 225.652,214.409 225.318,216.409 225.5,218.5C 227.099,218.232 228.432,218.566 229.5,219.5C 228.5,219.5 227.5,219.5 226.5,219.5C 226.5,225.167 226.5,230.833 226.5,236.5C 233.508,236.334 240.508,236.5 247.5,237C 248.435,239.381 248.768,241.881 248.5,244.5C 251.833,244.5 255.167,244.5 258.5,244.5C 258.5,250.167 258.5,255.833 258.5,261.5C 257.512,256.36 257.179,251.026 257.5,245.5C 254.167,245.5 250.833,245.5 247.5,245.5C 247.5,251.167 247.5,256.833 247.5,262.5C 243.833,262.5 240.167,262.5 236.5,262.5C 235.821,268.551 235.821,274.551 236.5,280.5C 239.768,281.487 243.102,281.82 246.5,281.5C 246.334,286.179 246.501,290.845 247,295.5C 247.5,296 248,296.5 248.5,297C 251.167,297.333 253.833,297.667 256.5,298C 257.12,300.473 257.786,302.973 258.5,305.5C 261.443,306.244 264.443,306.744 267.5,307C 268.435,309.381 268.768,311.881 268.5,314.5C 272.182,314.335 275.848,314.501 279.5,315C 280.456,318.394 280.789,321.894 280.5,325.5C 289.49,327.014 292.49,323.514 289.5,315C 286.635,314.817 283.969,314.317 281.5,313.5C 284.833,313.5 288.167,313.5 291.5,313.5C 291.819,318.363 291.486,323.03 290.5,327.5C 289.551,335.36 289.218,343.194 289.5,351C 292.5,351.333 295.5,351.667 298.5,352C 300.139,355.259 301.306,358.759 302,362.5C 304.758,360.927 307.592,360.593 310.5,361.5C 311.443,366.1 311.777,370.767 311.5,375.5C 316.492,375.999 321.492,376.499 326.5,377C 324.026,377.113 322.026,378.113 320.5,380C 326.495,383.241 331.995,382.408 337,377.5C 337.826,379.405 338.993,379.739 340.5,378.5C 340.632,375.916 340.965,373.416 341.5,371C 340.939,369.324 339.939,367.991 338.5,367C 334.129,366.828 329.796,366.328 325.5,365.5C 326.142,360.635 326.808,355.801 327.5,351C 325.898,349.065 324.731,346.899 324,344.5C 323.15,345.424 322.15,345.424 321,344.5C 318.517,348.281 316.35,347.948 314.5,343.5C 314.154,336.76 314.654,331.427 316,327.5C 315.085,326.672 314.419,325.672 314,324.5C 311.154,324.654 308.32,324.654 305.5,324.5C 304.808,323.975 304.308,323.308 304,322.5C 303.5,309.171 303.333,295.837 303.5,282.5C 305.144,282.714 306.644,282.38 308,281.5C 308.667,282.167 309.333,282.833 310,283.5C 310.197,288.086 310.697,292.586 311.5,297C 314.85,297.25 318.017,298.083 321,299.5C 323.989,297.888 326.322,295.555 328,292.5C 328.991,293.43 329.491,294.596 329.5,296C 328.841,298.462 328.507,300.962 328.5,303.5C 330.331,304.052 331.997,304.052 333.5,303.5C 334.5,305.167 335.833,306.5 337.5,307.5C 338.429,308.689 338.762,310.022 338.5,311.5C 337.5,311.5 336.5,311.5 335.5,311.5C 335.489,313.547 335.156,315.547 334.5,317.5C 335.825,323.463 336.825,329.463 337.5,335.5C 338.5,335.5 339.5,335.5 340.5,335.5C 341.561,338.864 342.561,342.197 343.5,345.5C 354.957,346.017 357.624,351.184 351.5,361C 353.346,362.78 355.013,364.78 356.5,367C 355.692,367.308 355.025,367.808 354.5,368.5C 355.666,371.503 357.333,374.17 359.5,376.5C 354.231,377.984 348.898,379.151 343.5,380C 342.299,380.903 341.465,382.069 341,383.5C 340.439,382.978 339.772,382.645 339,382.5C 330.288,386.353 321.121,387.519 311.5,386C 303.686,383.547 295.686,382.047 287.5,381.5C 287.785,383.288 287.452,384.955 286.5,386.5C 285.579,384.244 283.912,383.244 281.5,383.5C 281.5,380.833 281.5,378.167 281.5,375.5C 271.504,374.107 261.504,373.107 251.5,372.5C 249.68,372.649 248.18,373.316 247,374.5C 244.772,372.887 242.272,372.22 239.5,372.5C 241.08,366.461 239.747,365.961 235.5,371C 237.605,372.335 238.271,374.002 237.5,376C 239.477,378.043 240.477,380.543 240.5,383.5C 242.288,383.215 243.955,383.548 245.5,384.5C 242.844,385.614 240.177,385.614 237.5,384.5C 236.586,381.272 236.253,377.939 236.5,374.5C 233.167,374.5 229.833,374.5 226.5,374.5C 225.659,372.621 225.325,370.621 225.5,368.5C 221.629,368.815 217.962,368.482 214.5,367.5C 221.5,367.5 228.5,367.5 235.5,367.5C 235.18,356.585 235.513,345.752 236.5,335C 235.891,333.052 235.224,331.218 234.5,329.5C 235.872,327.65 235.372,326.317 233,325.5C 230.667,326.833 228.333,326.833 226,325.5C 225.5,307.503 225.333,289.503 225.5,271.5C 228.5,271.5 231.5,271.5 234.5,271.5C 234.5,268.833 234.5,266.167 234.5,263.5C 231.223,263.784 228.057,263.451 225,262.5C 224.501,257.177 224.334,251.844 224.5,246.5C 221.102,246.82 217.768,246.487 214.5,245.5C 213.363,236.882 213.196,228.215 214,219.5C 217.394,218.544 220.894,218.211 224.5,218.5C 224.232,215.881 224.565,213.381 225.5,211C 228.482,210.502 231.482,210.335 234.5,210.5 Z"/></g>
<g><path style="opacity:1" fill="#847ef1" d="M 216.5,220.5 C 219.167,220.5 221.833,220.5 224.5,220.5C 224.192,226.425 224.525,232.259 225.5,238C 232.492,238.5 239.492,238.666 246.5,238.5C 246.5,240.833 246.5,243.167 246.5,245.5C 243.167,245.5 239.833,245.5 236.5,245.5C 236.5,250.833 236.5,256.167 236.5,261.5C 232.833,261.5 229.167,261.5 225.5,261.5C 225.666,256.156 225.499,250.823 225,245.5C 221.943,244.549 218.777,244.216 215.5,244.5C 215.199,236.414 215.533,228.414 216.5,220.5 Z"/></g>
<g><path style="opacity:1" fill="#adacf4" d="M 268.5,263.5 C 269.473,265.948 269.806,268.615 269.5,271.5C 273.5,271.5 277.5,271.5 281.5,271.5C 281.5,285.5 281.5,299.5 281.5,313.5C 280.762,299.982 280.095,286.315 279.5,272.5C 276.167,272.5 272.833,272.5 269.5,272.5C 269.5,280.5 269.5,288.5 269.5,296.5C 265.833,296.5 262.167,296.5 258.5,296.5C 258.5,291.167 258.5,285.833 258.5,280.5C 255.223,280.784 252.057,280.451 249,279.5C 248.219,274.446 248.386,269.446 249.5,264.5C 256.459,261.789 259.126,264.122 257.5,271.5C 261.167,271.5 264.833,271.5 268.5,271.5C 268.5,268.833 268.5,266.167 268.5,263.5 Z"/></g>
<g><path style="opacity:1" fill="#aaa8f3" d="M 126.5,280.5 C 124.143,280.337 121.81,280.503 119.5,281C 118.594,282.699 118.261,284.533 118.5,286.5C 117.368,282.122 116.368,277.622 115.5,273C 114.668,272.312 114.002,272.479 113.5,273.5C 114.04,274.748 114.707,275.915 115.5,277C 112.722,278.392 109.722,278.892 106.5,278.5C 104.896,277.191 104.23,274.857 104.5,271.5C 105.403,268.609 105.736,265.609 105.5,262.5C 112.524,262.435 119.524,262.768 126.5,263.5C 126.5,269.167 126.5,274.833 126.5,280.5 Z"/></g>
<g><path style="opacity:1" fill="#8983f0" d="M 258.5,261.5 C 261.833,262.167 265.167,262.833 268.5,263.5C 268.5,266.167 268.5,268.833 268.5,271.5C 264.833,271.5 261.167,271.5 257.5,271.5C 259.126,264.122 256.459,261.789 249.5,264.5C 248.386,269.446 248.219,274.446 249,279.5C 252.057,280.451 255.223,280.784 258.5,280.5C 258.5,285.833 258.5,291.167 258.5,296.5C 262.167,296.5 265.833,296.5 269.5,296.5C 269.5,288.5 269.5,280.5 269.5,272.5C 272.833,272.5 276.167,272.5 279.5,272.5C 280.095,286.315 280.762,299.982 281.5,313.5C 283.969,314.317 286.635,314.817 289.5,315C 292.49,323.514 289.49,327.014 280.5,325.5C 280.789,321.894 280.456,318.394 279.5,315C 275.848,314.501 272.182,314.335 268.5,314.5C 268.768,311.881 268.435,309.381 267.5,307C 264.443,306.744 261.443,306.244 258.5,305.5C 257.786,302.973 257.12,300.473 256.5,298C 253.833,297.667 251.167,297.333 248.5,297C 248,296.5 247.5,296 247,295.5C 246.501,290.845 246.334,286.179 246.5,281.5C 243.102,281.82 239.768,281.487 236.5,280.5C 235.821,274.551 235.821,268.551 236.5,262.5C 240.167,262.5 243.833,262.5 247.5,262.5C 247.5,256.833 247.5,251.167 247.5,245.5C 250.833,245.5 254.167,245.5 257.5,245.5C 257.179,251.026 257.512,256.36 258.5,261.5 Z"/></g>
<g><path style="opacity:1" fill="#615c92" d="M 94.5,270.5 C 97.8806,270.46 101.214,270.793 104.5,271.5C 104.23,274.857 104.896,277.191 106.5,278.5C 109.722,278.892 112.722,278.392 115.5,277C 114.707,275.915 114.04,274.748 113.5,273.5C 114.002,272.479 114.668,272.312 115.5,273C 116.368,277.622 117.368,282.122 118.5,286.5C 119.209,287.404 120.209,287.737 121.5,287.5C 123.5,288.167 125.5,288.833 127.5,289.5C 123.161,290.154 119.327,289.154 116,286.5C 115.505,284.527 115.338,282.527 115.5,280.5C 112.15,280.665 108.817,280.498 105.5,280C 103.887,277.772 103.22,275.272 103.5,272.5C 100.171,272.785 97.1709,272.118 94.5,270.5 Z"/></g>
<g><path style="opacity:1" fill="#666198" d="M 347.5,260.5 C 350.343,261.172 352.843,262.505 355,264.5C 355.333,277.167 355.667,289.833 356,302.5C 358.723,304.751 361.889,306.251 365.5,307C 366.126,307.75 366.626,308.584 367,309.5C 367.5,318.827 367.666,328.161 367.5,337.5C 366.778,337.082 366.278,336.416 366,335.5C 365.832,326.814 365.332,318.148 364.5,309.5C 361.85,307.506 358.85,306.506 355.5,306.5C 354.702,292.878 354.202,279.211 354,265.5C 351.054,264.707 348.887,263.04 347.5,260.5 Z"/></g>
<g><path style="opacity:1" fill="#5e5184" d="M 127.5,289.5 C 128.497,308.659 128.83,327.993 128.5,347.5C 127.106,339.543 126.439,331.376 126.5,323C 127.05,311.838 127.383,300.672 127.5,289.5 Z"/></g>
<g><path style="opacity:1" fill="#c9ccf7" d="M 234.5,329.5 C 235.224,331.218 235.891,333.052 236.5,335C 235.513,345.752 235.18,356.585 235.5,367.5C 228.5,367.5 221.5,367.5 214.5,367.5C 214.813,364.753 214.48,362.086 213.5,359.5C 210.298,358.873 207.131,358.206 204,357.5C 203.667,349.833 203.333,342.167 203,334.5C 199.806,333.043 196.473,332.043 193,331.5C 192.667,306.167 192.333,280.833 192,255.5C 188.606,254.544 185.106,254.211 181.5,254.5C 181.5,289.167 181.5,323.833 181.5,358.5C 177.167,358.5 172.833,358.5 168.5,358.5C 168.666,353.156 168.499,347.823 168,342.5C 165.834,340.879 163.334,340.045 160.5,340C 159.941,339.275 159.608,338.442 159.5,337.5C 160.489,295.19 160.822,252.857 160.5,210.5C 161.268,209.737 161.768,208.737 162,207.5C 162.167,211.333 162.333,215.167 162.5,219C 162.788,258.686 162.454,298.352 161.5,338C 164.308,338.598 166.808,339.765 169,341.5C 169.333,344.833 169.667,348.167 170,351.5C 171.452,352.907 171.285,354.407 169.5,356C 173.016,357.748 176.683,357.915 180.5,356.5C 178.869,354.703 176.869,353.536 174.5,353C 176.436,352.187 178.436,351.687 180.5,351.5C 180.188,325.18 180.021,298.846 180,272.5C 179.125,271.127 178.625,269.627 178.5,268C 179.497,263.862 179.664,259.696 179,255.5C 177.982,256.706 177.482,256.373 177.5,254.5C 178.699,253.425 179.866,252.425 181,251.5C 184.135,252.137 187.135,251.471 190,249.5C 192.364,252.417 193.864,255.751 194.5,259.5C 193.596,279.868 193.262,300.201 193.5,320.5C 194.73,322.933 195.73,325.433 196.5,328C 199.045,330.065 201.379,329.898 203.5,327.5C 204.861,329.028 206.028,330.695 207,332.5C 206.526,340.287 206.359,347.954 206.5,355.5C 212.83,355.641 216.83,358.641 218.5,364.5C 221.667,365.028 224.834,365.695 228,366.5C 229.894,366.42 231.727,366.087 233.5,365.5C 234.446,353.562 234.779,341.562 234.5,329.5 Z"/></g>
<g><path style="opacity:1" fill="#9188f2" d="M 121.5,287.5 C 120.209,287.737 119.209,287.404 118.5,286.5C 118.261,284.533 118.594,282.699 119.5,281C 121.81,280.503 124.143,280.337 126.5,280.5C 127.489,275.025 127.822,269.358 127.5,263.5C 131.167,263.5 134.833,263.5 138.5,263.5C 138.667,288.836 138.5,314.169 138,339.5C 137.667,341.833 137.333,344.167 137,346.5C 134.959,347.423 132.792,347.756 130.5,347.5C 129.983,327.836 129.483,308.169 129,288.5C 126.619,287.565 124.119,287.232 121.5,287.5 Z"/></g>
<g><path style="opacity:1" fill="#948df0" d="M 355.5,306.5 C 358.85,306.506 361.85,307.506 364.5,309.5C 365.332,318.148 365.832,326.814 366,335.5C 366.278,336.416 366.778,337.082 367.5,337.5C 367.5,338.5 367.5,339.5 367.5,340.5C 363.5,340.5 359.5,340.5 355.5,340.5C 355.5,329.167 355.5,317.833 355.5,306.5 Z"/></g>
<g><path style="opacity:1" fill="#9289f1" d="M 370.5,341.5 C 372.948,342.473 375.615,342.806 378.5,342.5C 378.334,346.514 378.501,350.514 379,354.5C 380.688,355.325 380.855,356.325 379.5,357.5C 376.241,358.766 372.907,359.266 369.5,359C 368.872,356.061 368.205,353.228 367.5,350.5C 367.336,347.813 367.503,345.146 368,342.5C 368.671,341.748 369.504,341.414 370.5,341.5 Z"/></g>
<g><path style="opacity:1" fill="#aca9f4" d="M 305.5,114.5 C 307.5,114.5 309.5,114.5 311.5,114.5C 311.5,117.833 311.5,121.167 311.5,124.5C 313.415,124.784 315.081,124.451 316.5,123.5C 316.833,123.5 317.167,123.5 317.5,123.5C 318.552,125.256 320.219,125.923 322.5,125.5C 322.169,133.86 322.502,142.193 323.5,150.5C 324.522,150.855 325.189,151.522 325.5,152.5C 324.883,152.611 324.383,152.944 324,153.5C 323.333,166.5 323.333,179.5 324,192.5C 324.5,193 325,193.5 325.5,194C 329.152,194.499 332.818,194.665 336.5,194.5C 336.5,192.833 336.5,191.167 336.5,189.5C 337.461,191.265 337.795,193.265 337.5,195.5C 337.333,217.169 337.5,238.836 338,260.5C 339.707,261.459 341.541,262.125 343.5,262.5C 345.721,262.561 346.054,261.895 344.5,260.5C 345.167,260.5 345.833,260.5 346.5,260.5C 346.833,260.5 347.167,260.5 347.5,260.5C 348.887,263.04 351.054,264.707 354,265.5C 354.202,279.211 354.702,292.878 355.5,306.5C 355.5,317.833 355.5,329.167 355.5,340.5C 359.5,340.5 363.5,340.5 367.5,340.5C 367.5,339.5 367.5,338.5 367.5,337.5C 368.995,337.989 370.329,338.655 371.5,339.5C 370.662,339.842 370.328,340.508 370.5,341.5C 369.504,341.414 368.671,341.748 368,342.5C 367.503,345.146 367.336,347.813 367.5,350.5C 367.216,353.777 367.549,356.943 368.5,360C 372.821,360.499 377.154,360.666 381.5,360.5C 380.537,364.796 380.371,369.129 381,373.5C 383.997,374.866 387.164,375.533 390.5,375.5C 390.366,373.708 390.699,372.042 391.5,370.5C 392.338,370.842 392.672,371.508 392.5,372.5C 391.315,379.829 391.315,387.162 392.5,394.5C 397.719,394.716 400.053,397.383 399.5,402.5C 374.833,402.5 350.167,402.5 325.5,402.5C 311.163,402.333 296.829,402.5 282.5,403C 281.577,405.041 281.244,407.208 281.5,409.5C 295.797,410.449 310.131,410.782 324.5,410.5C 322.167,411.167 319.833,411.833 317.5,412.5C 315.735,413.461 313.735,413.795 311.5,413.5C 301.889,411.526 291.889,410.859 281.5,411.5C 279.973,411.573 278.973,410.906 278.5,409.5C 279.477,406.713 279.81,403.713 279.5,400.5C 280.72,398.95 280.72,397.284 279.5,395.5C 281.308,396.918 281.975,398.918 281.5,401.5C 320.5,401.5 359.5,401.5 398.5,401.5C 398.5,400.5 398.5,399.5 398.5,398.5C 395.113,397.617 391.947,396.951 389,396.5C 386.862,391.943 385.029,387.277 383.5,382.5C 384.557,382.094 385.891,382.094 387.5,382.5C 388.982,383.686 389.816,386.352 390,390.5C 392.435,380.763 388.602,375.763 378.5,375.5C 379.097,371.168 379.263,366.835 379,362.5C 377.667,362.5 376.333,362.5 375,362.5C 374.213,363.711 373.546,364.711 373,365.5C 371.51,363.472 369.01,361.972 365.5,361C 363.955,359.178 363.288,357.011 363.5,354.5C 364.214,351.445 364.714,348.445 365,345.5C 362.667,344.5 360.333,343.5 358,342.5C 357.586,342.957 357.086,343.291 356.5,343.5C 355.127,341.51 354.127,339.343 353.5,337C 354.934,327.502 354.767,318.002 353,308.5C 349.871,307.87 346.704,307.204 343.5,306.5C 343.167,305.833 342.833,305.167 342.5,304.5C 343.478,293.552 343.811,282.552 343.5,271.5C 342.325,271.719 341.325,271.386 340.5,270.5C 343.168,269.485 343.834,267.818 342.5,265.5C 340.031,263.993 337.865,264.327 336,266.5C 335.833,265.667 335.667,264.833 335.5,264C 335.197,253.192 335.53,242.359 336.5,231.5C 336.02,222.832 335.52,214.166 335,205.5C 330.333,203.5 330.333,201.5 335,199.5C 335.483,198.552 335.649,197.552 335.5,196.5C 331.248,197.049 327.415,197.049 324,196.5C 323.683,198.301 323.016,198.634 322,197.5C 321.209,198.745 320.709,200.078 320.5,201.5C 317.788,198.742 316.121,195.409 315.5,191.5C 316.5,191.5 317.5,191.5 318.5,191.5C 318.744,198.331 320.077,198.831 322.5,193C 321.9,180.851 321.733,168.685 322,156.5C 321.691,155.234 321.191,154.067 320.5,153C 317.242,152.788 314.076,152.288 311,151.5C 311.202,142.855 311.368,134.188 311.5,125.5C 308.167,125.5 304.833,125.5 301.5,125.5C 301.616,122.14 301.949,118.807 302.5,115.5C 303.791,115.737 304.791,115.404 305.5,114.5 Z"/></g>
<g><path style="opacity:1" fill="#918af2" d="M 347.5,265.5 C 349.467,265.261 351.301,265.594 353,266.5C 353.667,278.833 353.667,291.167 353,303.5C 352.692,304.308 352.192,304.975 351.5,305.5C 349.833,304.833 348.167,304.167 346.5,303.5C 346.167,301.833 345.833,300.167 345.5,298.5C 346.069,287.435 346.736,276.435 347.5,265.5 Z"/></g>
<g><path style="opacity:1" fill="#9289f3" d="M 313.5,126.5 C 316.167,126.5 318.833,126.5 321.5,126.5C 321.5,134.167 321.5,141.833 321.5,149.5C 318.833,149.5 316.167,149.5 313.5,149.5C 313.5,141.833 313.5,134.167 313.5,126.5 Z"/></g>
<g><path style="opacity:1" fill="#8980f2" d="M 184.5,359.5 C 194.178,359.575 203.844,359.908 213.5,360.5C 213.198,363.059 213.532,365.393 214.5,367.5C 217.962,368.482 221.629,368.815 225.5,368.5C 225.325,370.621 225.659,372.621 226.5,374.5C 222.116,374.174 217.783,374.508 213.5,375.5C 212.77,378.109 212.27,380.776 212,383.5C 211.288,385.847 210.121,387.847 208.5,389.5C 206.224,388.787 203.891,388.287 201.5,388C 202.756,387.583 203.423,386.75 203.5,385.5C 204.794,383.952 205.461,381.952 205.5,379.5C 205.657,376.186 204.991,373.186 203.5,370.5C 203.5,370.167 203.5,369.833 203.5,369.5C 189.539,367.517 175.206,366.85 160.5,367.5C 160.244,365.208 160.577,363.041 161.5,361C 169.344,360.829 177.011,360.329 184.5,359.5 Z"/></g>
<g><path style="opacity:1" fill="#908bdb" d="M 139.5,349.5 C 142.833,349.5 146.167,349.5 149.5,349.5C 149.5,355.5 149.5,361.5 149.5,367.5C 152.833,367.5 156.167,367.5 159.5,367.5C 159.337,365.143 159.503,362.81 160,360.5C 160.75,359.874 161.584,359.374 162.5,359C 169.797,359.301 177.13,359.467 184.5,359.5C 177.011,360.329 169.344,360.829 161.5,361C 160.577,363.041 160.244,365.208 160.5,367.5C 175.206,366.85 189.539,367.517 203.5,369.5C 189.575,368.352 175.575,368.186 161.5,369C 160.529,374.072 160.195,379.238 160.5,384.5C 174.833,384.5 189.167,384.5 203.5,384.5C 203.5,379.833 203.5,375.167 203.5,370.5C 204.991,373.186 205.657,376.186 205.5,379.5C 205.461,381.952 204.794,383.952 203.5,385.5C 188.833,385.5 174.167,385.5 159.5,385.5C 159.5,379.833 159.5,374.167 159.5,368.5C 155.5,368.5 151.5,368.5 147.5,368.5C 147.5,362.833 147.5,357.167 147.5,351.5C 144.921,351.083 142.754,351.75 141,353.5C 140.5,363.161 140.334,372.828 140.5,382.5C 143.5,382.5 146.5,382.5 149.5,382.5C 149.249,385.909 149.583,389.242 150.5,392.5C 160.833,393.167 171.167,393.833 181.5,394.5C 181.376,395.107 181.043,395.44 180.5,395.5C 170.494,395.666 160.494,395.5 150.5,395C 149.302,391.634 147.969,388.468 146.5,385.5C 146.389,384.883 146.056,384.383 145.5,384C 143.527,383.505 141.527,383.338 139.5,383.5C 139.5,372.167 139.5,360.833 139.5,349.5 Z"/></g>
<g><path style="opacity:1" fill="#9089e1" d="M 371.5,339.5 C 374.477,340.063 377.311,341.063 380,342.5C 379.927,348.131 381.094,353.465 383.5,358.5C 389.746,360.084 392.413,364.084 391.5,370.5C 390.699,372.042 390.366,373.708 390.5,375.5C 387.164,375.533 383.997,374.866 381,373.5C 380.371,369.129 380.537,364.796 381.5,360.5C 377.154,360.666 372.821,360.499 368.5,360C 367.549,356.943 367.216,353.777 367.5,350.5C 368.205,353.228 368.872,356.061 369.5,359C 372.907,359.266 376.241,358.766 379.5,357.5C 380.855,356.325 380.688,355.325 379,354.5C 378.501,350.514 378.334,346.514 378.5,342.5C 375.615,342.806 372.948,342.473 370.5,341.5C 370.328,340.508 370.662,339.842 371.5,339.5 Z"/></g>
<g><path style="opacity:1" fill="#49466b" d="M 130.5,349.5 C 133.287,348.523 136.287,348.19 139.5,348.5C 139.5,348.833 139.5,349.167 139.5,349.5C 139.5,360.833 139.5,372.167 139.5,383.5C 141.527,383.338 143.527,383.505 145.5,384C 146.056,384.383 146.389,384.883 146.5,385.5C 143.315,385.98 140.481,385.314 138,383.5C 138.383,372.203 138.55,360.87 138.5,349.5C 135.833,349.5 133.167,349.5 130.5,349.5 Z"/></g>
<g><path style="opacity:1" fill="#b3b2f3" d="M 203.5,369.5 C 203.5,369.833 203.5,370.167 203.5,370.5C 203.5,375.167 203.5,379.833 203.5,384.5C 189.167,384.5 174.833,384.5 160.5,384.5C 160.195,379.238 160.529,374.072 161.5,369C 175.575,368.186 189.575,368.352 203.5,369.5 Z"/></g>
<g><path style="opacity:1" fill="#948bf0" d="M 203.5,385.5 C 203.423,386.75 202.756,387.583 201.5,388C 203.891,388.287 206.224,388.787 208.5,389.5C 210.121,387.847 211.288,385.847 212,383.5C 212.27,380.776 212.77,378.109 213.5,375.5C 217.783,374.508 222.116,374.174 226.5,374.5C 229.833,374.5 233.167,374.5 236.5,374.5C 236.253,377.939 236.586,381.272 237.5,384.5C 234.187,385.045 230.854,385.545 227.5,386C 226.556,388.719 226.223,391.552 226.5,394.5C 244.341,394.17 262.008,394.503 279.5,395.5C 280.72,397.284 280.72,398.95 279.5,400.5C 262.163,400.333 244.83,400.5 227.5,401C 224.543,403.025 223.21,405.858 223.5,409.5C 209.833,409.5 196.167,409.5 182.5,409.5C 182.817,405.298 182.483,401.298 181.5,397.5C 180.662,397.158 180.328,396.492 180.5,395.5C 181.043,395.44 181.376,395.107 181.5,394.5C 171.167,393.833 160.833,393.167 150.5,392.5C 149.583,389.242 149.249,385.909 149.5,382.5C 146.5,382.5 143.5,382.5 140.5,382.5C 140.334,372.828 140.5,363.161 141,353.5C 142.754,351.75 144.921,351.083 147.5,351.5C 147.5,357.167 147.5,362.833 147.5,368.5C 151.5,368.5 155.5,368.5 159.5,368.5C 159.5,374.167 159.5,379.833 159.5,385.5C 174.167,385.5 188.833,385.5 203.5,385.5 Z"/></g>
<g><path style="opacity:1" fill="#b1b0f5" d="M 192.5,395.5 C 199.508,395.334 206.508,395.5 213.5,396C 215.391,399.775 214.391,402.275 210.5,403.5C 204.198,402.627 197.865,402.294 191.5,402.5C 191.448,400.097 191.781,397.764 192.5,395.5 Z"/></g>
<g><path style="opacity:1" fill="#423e72" d="M 279.5,400.5 C 279.81,403.713 279.477,406.713 278.5,409.5C 278.5,407.167 278.5,404.833 278.5,402.5C 261.497,402.333 244.497,402.5 227.5,403C 225.988,405.438 224.654,407.938 223.5,410.5C 223.5,410.167 223.5,409.833 223.5,409.5C 223.21,405.858 224.543,403.025 227.5,401C 244.83,400.5 262.163,400.333 279.5,400.5 Z"/></g>
<g><path style="opacity:1" fill="#968eec" d="M 392.5,372.5 C 394.422,374.101 396.589,375.435 399,376.5C 398.003,381.543 398.336,386.543 400,391.5C 400.995,392.066 401.828,392.733 402.5,393.5C 405.977,394.323 409.644,394.823 413.5,395C 413.986,397.027 413.986,399.193 413.5,401.5C 417.182,401.335 420.848,401.501 424.5,402C 425.122,403.569 425.456,405.236 425.5,407C 425.431,408.986 424.765,410.486 423.5,411.5C 411.962,410.793 400.296,410.127 388.5,409.5C 389.641,408.661 390.974,407.994 392.5,407.5C 394.993,407.6 397.493,407.933 400,408.5C 400.658,406.892 400.158,405.725 398.5,405C 374.018,403.952 349.685,403.119 325.5,402.5C 350.167,402.5 374.833,402.5 399.5,402.5C 400.053,397.383 397.719,394.716 392.5,394.5C 391.315,387.162 391.315,379.829 392.5,372.5 Z"/></g>
<g><path style="opacity:1" fill="#9187f2" d="M 325.5,402.5 C 349.685,403.119 374.018,403.952 398.5,405C 400.158,405.725 400.658,406.892 400,408.5C 397.493,407.933 394.993,407.6 392.5,407.5C 390.974,407.994 389.641,408.661 388.5,409.5C 367.091,409.178 345.758,409.512 324.5,410.5C 310.131,410.782 295.797,410.449 281.5,409.5C 281.244,407.208 281.577,405.041 282.5,403C 296.829,402.5 311.163,402.333 325.5,402.5 Z"/></g>
<g><path style="opacity:1" fill="#565475" d="M 402.5,393.5 C 406.514,393.334 410.514,393.501 414.5,394C 415.423,396.041 415.756,398.208 415.5,400.5C 419.24,400.241 422.906,400.574 426.5,401.5C 427.657,404.784 427.824,408.118 427,411.5C 422.599,412.467 418.099,412.8 413.5,412.5C 416.625,411.521 419.958,411.187 423.5,411.5C 424.765,410.486 425.431,408.986 425.5,407C 425.456,405.236 425.122,403.569 424.5,402C 420.848,401.501 417.182,401.335 413.5,401.5C 413.986,399.193 413.986,397.027 413.5,395C 409.644,394.823 405.977,394.323 402.5,393.5 Z"/></g>
<g><path style="opacity:1" fill="#706aa1" d="M 181.5,397.5 C 182.483,401.298 182.817,405.298 182.5,409.5C 196.167,409.5 209.833,409.5 223.5,409.5C 223.5,409.833 223.5,410.167 223.5,410.5C 210.313,411.806 196.98,411.806 183.5,410.5C 182.353,410.182 181.519,409.516 181,408.5C 180.55,404.812 180.717,401.146 181.5,397.5 Z"/></g>
<g><path style="opacity:1" fill="#746ead" d="M 388.5,409.5 C 400.296,410.127 411.962,410.793 423.5,411.5C 419.958,411.187 416.625,411.521 413.5,412.5C 381.588,411.392 349.588,411.392 317.5,412.5C 319.833,411.833 322.167,411.167 324.5,410.5C 345.758,409.512 367.091,409.178 388.5,409.5 Z"/></g>
<g><path style="opacity:1" fill="#6151ad" d="M 281.5,411.5 C 291.889,410.859 301.889,411.526 311.5,413.5C 303.16,413.666 294.827,413.5 286.5,413C 284.618,412.802 282.952,412.302 281.5,411.5 Z"/></g>
</svg>
