<?xml version="1.0" encoding="UTF-8"?>
<!DOCTYPE svg PUBLIC "-//W3C//DTD SVG 1.1//EN" "http://www.w3.org/Graphics/SVG/1.1/DTD/svg11.dtd">
<svg xmlns="http://www.w3.org/2000/svg" version="1.1" width="414px" height="602px" style="shape-rendering:geometricPrecision; text-rendering:geometricPrecision; image-rendering:optimizeQuality; fill-rule:evenodd; clip-rule:evenodd" xmlns:xlink="http://www.w3.org/1999/xlink">
<g><path style="opacity:1" fill="#6e6e6e" d="M 190.5,213.5 C 189.735,213.923 188.902,214.257 188,214.5C 183.501,213.006 179.001,212.006 174.5,211.5C 177.867,211.543 181.201,211.21 184.5,210.5C 187.102,210.467 189.102,211.467 190.5,213.5 Z"/></g>
<g><path style="opacity:1" fill="#7e7e7e" d="M 174.5,211.5 C 173.761,211.369 173.094,211.536 172.5,212C 173.696,212.654 173.696,213.154 172.5,213.5C 171.583,212.873 170.583,212.539 169.5,212.5C 170.995,210.655 172.662,210.322 174.5,211.5 Z"/></g>
<g><path style="opacity:1" fill="#5a5a5a" d="M 169.5,212.5 C 166.62,213.132 163.786,214.132 161,215.5C 159.541,215.192 158.374,214.525 157.5,213.5C 159.129,211.94 160.296,212.273 161,214.5C 163.456,212.679 166.289,212.012 169.5,212.5 Z"/></g>
<g><path style="opacity:1" fill="#040304" d="M 174.5,211.5 C 179.001,212.006 183.501,213.006 188,214.5C 188.902,214.257 189.735,213.923 190.5,213.5C 192.098,213.61 193.765,213.943 195.5,214.5C 196.263,215.268 197.263,215.768 198.5,216C 201.817,216.498 205.15,216.665 208.5,216.5C 209.5,216.5 210.5,216.5 211.5,216.5C 213.089,218.306 215.089,219.639 217.5,220.5C 218.287,221.242 218.953,222.075 219.5,223C 219.272,223.399 218.938,223.565 218.5,223.5C 216.473,223.338 214.473,223.505 212.5,224C 210.789,225.776 208.789,226.942 206.5,227.5C 205.081,228.451 203.415,228.784 201.5,228.5C 197.389,227.085 193.389,227.418 189.5,229.5C 190.348,231.409 190.682,233.409 190.5,235.5C 190.5,235.833 190.5,236.167 190.5,236.5C 189.063,237.725 187.396,238.725 185.5,239.5C 186.167,240.5 186.833,241.5 187.5,242.5C 187.649,244.504 186.982,246.504 185.5,248.5C 185.595,250.869 186.595,252.536 188.5,253.5C 188.523,255.927 189.023,258.26 190,260.5C 192.129,261.863 192.629,261.529 191.5,259.5C 192.274,258.289 193.107,258.289 194,259.5C 194.579,255.614 195.412,255.614 196.5,259.5C 195.624,260.251 194.624,260.751 193.5,261C 194.766,261.309 195.933,261.809 197,262.5C 197.333,261.833 197.667,261.167 198,260.5C 200.782,263.225 202.949,266.392 204.5,270C 203.664,276.078 203.664,282.578 204.5,289.5C 205.833,289.5 207.167,289.5 208.5,289.5C 208.343,288.127 208.51,286.793 209,285.5C 210.152,288.44 211.152,291.44 212,294.5C 212.333,293.5 212.667,292.5 213,291.5C 213.232,292.737 213.732,293.737 214.5,294.5C 215.575,299.095 216.409,303.762 217,308.5C 217.333,308.167 217.667,307.833 218,307.5C 218.333,310.167 218.667,312.833 219,315.5C 219.383,316.056 219.883,316.389 220.5,316.5C 220.675,318.621 220.341,320.621 219.5,322.5C 218.778,322.918 218.278,323.584 218,324.5C 217.019,318.136 216.519,318.469 216.5,325.5C 217.5,325.5 218.5,325.5 219.5,325.5C 219.649,326.552 219.483,327.552 219,328.5C 218.29,327.027 217.124,326.36 215.5,326.5C 215.833,328.5 216.167,330.5 216.5,332.5C 214.689,332.572 213.356,333.405 212.5,335C 213.459,337.12 213.626,339.287 213,341.5C 212.751,340.376 212.251,339.376 211.5,338.5C 210.534,340.396 210.201,342.396 210.5,344.5C 210.532,347.076 209.865,349.409 208.5,351.5C 208.5,352.5 208.5,353.5 208.5,354.5C 207.778,355.551 206.778,356.218 205.5,356.5C 204.566,355.432 204.232,354.099 204.5,352.5C 204.306,350.088 202.973,349.088 200.5,349.5C 200.232,351.099 200.566,352.432 201.5,353.5C 201.068,357.945 200.068,362.279 198.5,366.5C 197.596,367.209 197.263,368.209 197.5,369.5C 196.603,368.402 195.77,368.402 195,369.5C 194.501,374.155 194.334,378.821 194.5,383.5C 193.313,386.946 192.646,390.613 192.5,394.5C 192.5,397.167 192.5,399.833 192.5,402.5C 191.209,402.263 190.209,402.596 189.5,403.5C 188.993,406.431 187.993,409.098 186.5,411.5C 185.833,411.167 185.167,410.833 184.5,410.5C 184.195,408.081 184.195,405.414 184.5,402.5C 184.827,397.456 184.494,392.456 183.5,387.5C 182.526,389.743 182.192,392.076 182.5,394.5C 182.5,394.833 182.5,395.167 182.5,395.5C 180.002,401.455 178.669,407.789 178.5,414.5C 178.5,415.167 178.5,415.833 178.5,416.5C 177.522,418.456 176.522,420.456 175.5,422.5C 174.508,422.328 173.842,422.662 173.5,423.5C 172.624,423.631 171.957,423.298 171.5,422.5C 172.167,421.5 172.833,420.5 173.5,419.5C 171.319,416.737 170.985,413.737 172.5,410.5C 171.7,403.216 171.2,395.883 171,388.5C 169.341,391.43 169.008,394.43 170,397.5C 169.692,396.692 169.192,396.025 168.5,395.5C 167.546,400.803 165.546,405.637 162.5,410C 163.337,411.011 163.67,412.178 163.5,413.5C 163.5,413.833 163.5,414.167 163.5,414.5C 162.51,420.645 162.177,426.978 162.5,433.5C 162.5,433.833 162.5,434.167 162.5,434.5C 161.318,440.301 160.652,446.301 160.5,452.5C 159.597,455.391 159.264,458.391 159.5,461.5C 158.839,460.282 158.172,458.949 157.5,457.5C 156.571,458.689 156.238,460.022 156.5,461.5C 156.5,461.833 156.5,462.167 156.5,462.5C 155.962,464.117 155.629,465.784 155.5,467.5C 155.5,467.833 155.5,468.167 155.5,468.5C 154.523,471.287 154.19,474.287 154.5,477.5C 153.167,477.5 151.833,477.5 150.5,477.5C 150.875,480.397 150.375,483.063 149,485.5C 148.796,482.203 147.963,479.203 146.5,476.5C 146.867,472.033 146.367,467.7 145,463.5C 144.501,467.486 144.334,471.486 144.5,475.5C 144.5,475.833 144.5,476.167 144.5,476.5C 144.004,481.857 143.004,487.191 141.5,492.5C 141.5,493.167 141.5,493.833 141.5,494.5C 140.463,495.93 139.796,497.597 139.5,499.5C 138.89,500.391 138.557,501.391 138.5,502.5C 136.801,502.473 135.467,501.806 134.5,500.5C 133.57,496.6 133.237,492.6 133.5,488.5C 133.5,480.833 133.5,473.167 133.5,465.5C 131.821,465.715 130.821,465.048 130.5,463.5C 131.904,456.886 132.571,450.053 132.5,443C 132.499,438.985 132.165,435.151 131.5,431.5C 131.141,429.234 131.808,427.401 133.5,426C 132.09,425.632 131.09,424.799 130.5,423.5C 130.846,422.304 131.346,422.304 132,423.5C 132.464,422.906 132.631,422.239 132.5,421.5C 132.5,420.833 132.5,420.167 132.5,419.5C 131.053,418.115 130.053,418.448 129.5,420.5C 129.167,420.5 128.833,420.5 128.5,420.5C 128.843,418.517 128.176,417.183 126.5,416.5C 127.714,415.374 128.714,414.041 129.5,412.5C 129.167,411.833 128.833,411.167 128.5,410.5C 126.447,411.939 125.447,413.939 125.5,416.5C 124.326,417.514 123.66,418.847 123.5,420.5C 123.167,421.167 122.833,421.833 122.5,422.5C 121.85,422.804 121.183,423.137 120.5,423.5C 119.831,421.369 119.165,419.369 118.5,417.5C 118.974,406.378 118.307,395.378 116.5,384.5C 118.04,382.162 118.706,379.495 118.5,376.5C 119.407,367.697 119.407,359.364 118.5,351.5C 118.5,351.167 118.5,350.833 118.5,350.5C 116.028,349.358 115.028,347.358 115.5,344.5C 115.663,342.143 115.497,339.81 115,337.5C 113.701,337.034 112.201,337.034 110.5,337.5C 110.5,332.167 110.5,326.833 110.5,321.5C 110.5,321.167 110.5,320.833 110.5,320.5C 110.421,319.07 110.754,317.736 111.5,316.5C 110.388,315.735 109.721,314.735 109.5,313.5C 109.216,311.585 109.549,309.919 110.5,308.5C 111.497,308.53 112.164,308.03 112.5,307C 114.044,301.201 113.711,295.535 111.5,290C 111.667,289.5 111.833,289 112,288.5C 112.998,291.028 113.831,291.028 114.5,288.5C 112.151,286.796 111.151,284.463 111.5,281.5C 111.5,281.167 111.5,280.833 111.5,280.5C 111.597,277.021 112.931,274.188 115.5,272C 115.043,271.586 114.709,271.086 114.5,270.5C 116.396,269.534 118.396,269.201 120.5,269.5C 121.167,269.5 121.5,269.833 121.5,270.5C 122.527,271.848 123.86,272.348 125.5,272C 122.768,267.985 123.768,264.985 128.5,263C 127.833,262 127.167,261 126.5,260C 127.667,259.5 128.5,258.667 129,257.5C 129.333,257.833 129.667,258.167 130,258.5C 130.595,257.101 130.428,255.768 129.5,254.5C 130.5,253.667 131.5,252.833 132.5,252C 130.327,249.108 129.994,245.941 131.5,242.5C 132.72,241.289 133.887,241.289 135,242.5C 135.195,241.181 135.028,239.847 134.5,238.5C 136.263,239.954 137.597,239.62 138.5,237.5C 140.074,235.898 140.741,233.898 140.5,231.5C 145.461,230.875 147.128,228.208 145.5,223.5C 146.401,222.71 147.068,221.71 147.5,220.5C 148.167,219.833 148.833,219.167 149.5,218.5C 151.017,218.489 152.184,217.823 153,216.5C 153.333,216.833 153.667,217.167 154,217.5C 154.791,216.255 155.291,214.922 155.5,213.5C 156.167,213.5 156.833,213.5 157.5,213.5C 158.374,214.525 159.541,215.192 161,215.5C 163.786,214.132 166.62,213.132 169.5,212.5C 170.583,212.539 171.583,212.873 172.5,213.5C 173.696,213.154 173.696,212.654 172.5,212C 173.094,211.536 173.761,211.369 174.5,211.5 Z M 151.5,347.5 C 152.167,349.167 152.833,350.833 153.5,352.5C 153.167,353.167 152.833,353.833 152.5,354.5C 151.532,352.393 151.198,350.059 151.5,347.5 Z M 161.5,352.5 C 161.833,352.5 162.167,352.5 162.5,352.5C 162.799,354.455 163.799,355.789 165.5,356.5C 164.833,357.167 164.167,357.833 163.5,358.5C 162.833,357.5 162.167,356.5 161.5,355.5C 161.5,354.833 161.5,354.167 161.5,353.5C 161.5,353.167 161.5,352.833 161.5,352.5 Z"/></g>
<g><path style="opacity:1" fill="#939192" d="M 208.5,216.5 C 205.15,216.665 201.817,216.498 198.5,216C 197.263,215.768 196.263,215.268 195.5,214.5C 196.15,214.196 196.817,213.863 197.5,213.5C 201.094,215.001 204.761,216.001 208.5,216.5 Z"/></g>
<g><path style="opacity:1" fill="#636363" d="M 155.5,213.5 C 155.291,214.922 154.791,216.255 154,217.5C 153.667,217.167 153.333,216.833 153,216.5C 152.184,217.823 151.017,218.489 149.5,218.5C 151.091,216.367 153.091,214.701 155.5,213.5 Z"/></g>
<g><path style="opacity:1" fill="#808080" d="M 211.5,216.5 C 215.733,218.451 220.066,220.117 224.5,221.5C 224.5,222.5 224.5,223.5 224.5,224.5C 222.5,224.5 220.5,224.5 218.5,224.5C 218.5,224.167 218.5,223.833 218.5,223.5C 218.938,223.565 219.272,223.399 219.5,223C 218.953,222.075 218.287,221.242 217.5,220.5C 215.089,219.639 213.089,218.306 211.5,216.5 Z"/></g>
<g><path style="opacity:1" fill="#7e7e7e" d="M 147.5,220.5 C 147.068,221.71 146.401,222.71 145.5,223.5C 144.468,225.378 143.134,227.045 141.5,228.5C 141.588,224.411 143.588,221.744 147.5,220.5 Z"/></g>
<g><path style="opacity:1" fill="#696969" d="M 218.5,223.5 C 218.5,223.833 218.5,224.167 218.5,224.5C 214.991,227.115 210.991,228.115 206.5,227.5C 208.789,226.942 210.789,225.776 212.5,224C 214.473,223.505 216.473,223.338 218.5,223.5 Z"/></g>
<g><path style="opacity:1" fill="#656565" d="M 201.5,228.5 C 198.79,230.108 195.79,231.275 192.5,232C 191.915,233.302 191.249,234.469 190.5,235.5C 190.682,233.409 190.348,231.409 189.5,229.5C 193.389,227.418 197.389,227.085 201.5,228.5 Z"/></g>
<g><path style="opacity:1" fill="#434141" d="M 145.5,223.5 C 147.128,228.208 145.461,230.875 140.5,231.5C 140.741,233.898 140.074,235.898 138.5,237.5C 138.672,236.508 138.338,235.842 137.5,235.5C 138.079,232.669 139.412,230.336 141.5,228.5C 143.134,227.045 144.468,225.378 145.5,223.5 Z"/></g>
<g><path style="opacity:1" fill="#545455" d="M 337.5,239.5 C 336.508,239.328 335.842,239.662 335.5,240.5C 333.787,241.635 333.12,243.302 333.5,245.5C 331.801,245.66 330.134,245.494 328.5,245C 329.252,244.329 329.586,243.496 329.5,242.5C 331.193,238.628 333.526,235.128 336.5,232C 337.944,231.219 339.277,231.386 340.5,232.5C 338.98,234.662 337.98,236.995 337.5,239.5 Z"/></g>
<g><path style="opacity:1" fill="#aeacae" d="M 137.5,235.5 C 138.338,235.842 138.672,236.508 138.5,237.5C 137.597,239.62 136.263,239.954 134.5,238.5C 134.167,238.5 133.833,238.5 133.5,238.5C 134.436,237.026 135.77,236.026 137.5,235.5 Z"/></g>
<g><path style="opacity:1" fill="#cdcdcd" d="M 132.5,238.5 C 132.573,240.027 131.906,241.027 130.5,241.5C 130.427,239.973 131.094,238.973 132.5,238.5 Z"/></g>
<g><path style="opacity:1" fill="#7a7979" d="M 190.5,236.5 C 190.091,240.228 189.091,244.061 187.5,248C 188.833,249 188.833,250 187.5,251C 188.244,252.039 189.244,252.539 190.5,252.5C 191.847,256.11 191.18,256.443 188.5,253.5C 186.595,252.536 185.595,250.869 185.5,248.5C 186.982,246.504 187.649,244.504 187.5,242.5C 186.833,241.5 186.167,240.5 185.5,239.5C 187.396,238.725 189.063,237.725 190.5,236.5 Z"/></g>
<g><path style="opacity:1" fill="#888889" d="M 314.5,265.5 C 313.791,266.404 312.791,266.737 311.5,266.5C 311.598,263.752 310.598,263.086 308.5,264.5C 309.525,256.639 313.525,250.806 320.5,247C 323.806,246.014 326.806,244.514 329.5,242.5C 329.586,243.496 329.252,244.329 328.5,245C 330.134,245.494 331.801,245.66 333.5,245.5C 333.12,243.302 333.787,241.635 335.5,240.5C 336.492,240.672 337.158,240.338 337.5,239.5C 342.316,236.252 346.982,232.752 351.5,229C 352.448,228.517 353.448,228.351 354.5,228.5C 354.657,229.873 354.49,231.207 354,232.5C 349.712,234.958 345.879,237.958 342.5,241.5C 334.281,245.05 326.281,249.05 318.5,253.5C 315.341,256.315 313.341,259.815 312.5,264C 312.836,265.03 313.503,265.53 314.5,265.5 Z"/></g>
<g><path style="opacity:1" fill="#808080" d="M 331.5,258.5 C 331.137,256.089 332.137,254.589 334.5,254C 333.207,253.51 331.873,253.343 330.5,253.5C 332.378,252.792 334.045,251.626 335.5,250C 336.793,249.51 338.127,249.343 339.5,249.5C 338.292,253.713 335.625,256.713 331.5,258.5 Z"/></g>
<g><path style="opacity:1" fill="#4a4849" d="M 210.5,278.5 C 210.67,279.822 210.337,280.989 209.5,282C 210.066,282.995 210.733,283.828 211.5,284.5C 212.735,284.279 213.735,283.612 214.5,282.5C 214.833,283.167 215.167,283.833 215.5,284.5C 215.197,287.863 214.864,291.196 214.5,294.5C 213.732,293.737 213.232,292.737 213,291.5C 212.667,292.5 212.333,293.5 212,294.5C 211.152,291.44 210.152,288.44 209,285.5C 208.51,286.793 208.343,288.127 208.5,289.5C 207.167,289.5 205.833,289.5 204.5,289.5C 203.664,282.578 203.664,276.078 204.5,270C 202.949,266.392 200.782,263.225 198,260.5C 197.667,261.167 197.333,261.833 197,262.5C 195.933,261.809 194.766,261.309 193.5,261C 194.624,260.751 195.624,260.251 196.5,259.5C 195.412,255.614 194.579,255.614 194,259.5C 193.107,258.289 192.274,258.289 191.5,259.5C 192.629,261.529 192.129,261.863 190,260.5C 189.023,258.26 188.523,255.927 188.5,253.5C 191.18,256.443 191.847,256.11 190.5,252.5C 191.097,251.861 191.93,251.528 193,251.5C 195.714,253.023 198.547,253.856 201.5,254C 198.619,257.61 199.119,260.777 203,263.5C 205.045,268.923 207.545,273.923 210.5,278.5 Z"/></g>
<g><path style="opacity:1" fill="#545456" d="M 330.5,253.5 C 331.873,253.343 333.207,253.51 334.5,254C 332.137,254.589 331.137,256.089 331.5,258.5C 328.062,261.435 324.729,264.601 321.5,268C 317.608,269.64 313.608,270.973 309.5,272C 309.833,272.333 310.167,272.667 310.5,273C 308.642,275.624 307.309,278.457 306.5,281.5C 306.657,280.127 306.49,278.793 306,277.5C 303.667,278.413 301.834,279.913 300.5,282C 298.866,282.494 297.199,282.66 295.5,282.5C 298.431,280.752 301.264,278.752 304,276.5C 304.905,272.163 306.405,268.163 308.5,264.5C 310.598,263.086 311.598,263.752 311.5,266.5C 312.791,266.737 313.791,266.404 314.5,265.5C 315.609,264.71 316.942,264.21 318.5,264C 322.05,259.947 326.05,256.447 330.5,253.5 Z"/></g>
<g><path style="opacity:1" fill="#595959" d="M 132.5,238.5 C 132.833,238.5 133.167,238.5 133.5,238.5C 133.833,238.5 134.167,238.5 134.5,238.5C 135.028,239.847 135.195,241.181 135,242.5C 133.887,241.289 132.72,241.289 131.5,242.5C 129.994,245.941 130.327,249.108 132.5,252C 131.5,252.833 130.5,253.667 129.5,254.5C 130.428,255.768 130.595,257.101 130,258.5C 129.667,258.167 129.333,257.833 129,257.5C 128.5,258.667 127.667,259.5 126.5,260C 127.167,261 127.833,262 128.5,263C 123.768,264.985 122.768,267.985 125.5,272C 123.86,272.348 122.527,271.848 121.5,270.5C 122.043,270.44 122.376,270.107 122.5,269.5C 121.5,267.833 120.167,266.5 118.5,265.5C 119.471,264.038 119.138,262.705 117.5,261.5C 118.242,260.713 119.075,260.047 120,259.5C 121.767,260.817 123.101,262.484 124,264.5C 125.756,263.579 125.923,262.412 124.5,261C 126.439,259.084 127.773,256.751 128.5,254C 128.167,253 127.833,252 127.5,251C 128.907,247.843 129.907,244.676 130.5,241.5C 131.906,241.027 132.573,240.027 132.5,238.5 Z"/></g>
<g><path style="opacity:1" fill="#dddddd" d="M 391.5,270.5 C 393.5,271.167 395.5,271.833 397.5,272.5C 394.813,272.664 392.146,272.497 389.5,272C 390.044,271.283 390.711,270.783 391.5,270.5 Z"/></g>
<g><path style="opacity:1" fill="#ebebeb" d="M 376.5,272.5 C 377.434,273.568 377.768,274.901 377.5,276.5C 376.833,276.167 376.167,275.833 375.5,275.5C 376.11,274.609 376.443,273.609 376.5,272.5 Z"/></g>
<g><path style="opacity:1" fill="#222222" d="M 390.5,277.5 C 390.167,277.5 389.833,277.5 389.5,277.5C 387.62,277.229 386.287,277.896 385.5,279.5C 381.638,279.167 380.805,277.501 383,274.5C 384.693,273.816 386.193,272.816 387.5,271.5C 389.556,273.019 391.89,273.853 394.5,274C 393.207,274.49 391.873,274.657 390.5,274.5C 390.5,275.5 390.5,276.5 390.5,277.5 Z"/></g>
<g><path style="opacity:1" fill="#595959" d="M 391.5,270.5 C 390.711,270.783 390.044,271.283 389.5,272C 392.146,272.497 394.813,272.664 397.5,272.5C 399.652,273.077 399.985,274.244 398.5,276C 395.746,276.272 393.079,276.772 390.5,277.5C 390.5,276.5 390.5,275.5 390.5,274.5C 391.873,274.657 393.207,274.49 394.5,274C 391.89,273.853 389.556,273.019 387.5,271.5C 386.193,272.816 384.693,273.816 383,274.5C 380.805,277.501 381.638,279.167 385.5,279.5C 383.557,282.471 380.891,284.471 377.5,285.5C 378.473,283.851 379.473,282.184 380.5,280.5C 380.167,279.833 379.833,279.167 379.5,278.5C 377.827,280.086 375.827,280.753 373.5,280.5C 375.041,279.333 376.375,278 377.5,276.5C 382.736,273.766 387.236,270.1 391,265.5C 391.741,266.641 392.575,266.641 393.5,265.5C 395.09,268.17 394.423,269.837 391.5,270.5 Z"/></g>
<g><path style="opacity:1" fill="#767676" d="M 120.5,269.5 C 118.396,269.201 116.396,269.534 114.5,270.5C 114.709,271.086 115.043,271.586 115.5,272C 112.931,274.188 111.597,277.021 111.5,280.5C 110.832,278.537 110.498,276.537 110.5,274.5C 111.986,272.698 112.986,270.698 113.5,268.5C 116.059,268.198 118.393,268.532 120.5,269.5 Z"/></g>
<g><path style="opacity:1" fill="#f1f1f1" d="M 366.5,277.5 C 366.027,278.906 365.027,279.573 363.5,279.5C 363.973,278.094 364.973,277.427 366.5,277.5 Z"/></g>
<g><path style="opacity:1" fill="#59595a" d="M 376.5,272.5 C 376.443,273.609 376.11,274.609 375.5,275.5C 374.028,277.134 372.362,278.634 370.5,280C 371.448,280.483 372.448,280.649 373.5,280.5C 373.389,281.117 373.056,281.617 372.5,282C 369.571,282.777 366.737,282.61 364,281.5C 360.89,283.305 357.723,284.971 354.5,286.5C 356.918,283.453 359.918,281.12 363.5,279.5C 365.027,279.573 366.027,278.906 366.5,277.5C 369.262,275.275 372.262,273.275 375.5,271.5C 376.107,271.624 376.44,271.957 376.5,272.5 Z"/></g>
<g><path style="opacity:1" fill="#d4d4d4" d="M 389.5,277.5 C 388.486,278.674 387.153,279.34 385.5,279.5C 386.287,277.896 387.62,277.229 389.5,277.5 Z"/></g>
<g><path style="opacity:1" fill="#d3d3d3" d="M 210.5,278.5 C 212.654,280.158 212.987,282.158 211.5,284.5C 210.733,283.828 210.066,282.995 209.5,282C 210.337,280.989 210.67,279.822 210.5,278.5 Z"/></g>
<g><path style="opacity:1" fill="#606060" d="M 304.5,282.5 C 302.59,284.562 300.257,286.062 297.5,287C 295.598,288.73 293.931,290.563 292.5,292.5C 292.247,290.173 292.914,288.173 294.5,286.5C 297.461,284.259 300.794,282.925 304.5,282.5 Z"/></g>
<g><path style="opacity:1" fill="#747474" d="M 273.5,291.5 C 273.539,290.417 273.873,289.417 274.5,288.5C 273.667,288.167 272.833,287.833 272,287.5C 270.393,288.074 268.893,288.74 267.5,289.5C 268.786,286.883 270.453,284.55 272.5,282.5C 273.281,283.729 273.781,285.062 274,286.5C 277.518,282.639 281.685,280.972 286.5,281.5C 283.077,286.042 278.743,289.375 273.5,291.5 Z"/></g>
<g><path style="opacity:1" fill="#d2d2d2" d="M 289.5,285.5 C 288.047,288.394 287.047,291.394 286.5,294.5C 286.336,291.813 286.503,289.146 287,286.5C 287.671,285.748 288.504,285.414 289.5,285.5 Z"/></g>
<g><path style="opacity:1" fill="#979595" d="M 354.5,286.5 C 354.262,288.404 353.262,289.738 351.5,290.5C 351.738,288.596 352.738,287.262 354.5,286.5 Z"/></g>
<g><path style="opacity:1" fill="#7c7b7c" d="M 377.5,285.5 C 369.81,286.177 362.81,288.844 356.5,293.5C 356.586,292.504 356.252,291.671 355.5,291C 359.211,289.334 362.877,287.667 366.5,286C 370.152,285.501 373.818,285.335 377.5,285.5 Z"/></g>
<g><path style="opacity:1" fill="#b0b0b0" d="M 344.5,290.5 C 344.735,289.903 345.235,289.57 346,289.5C 347.174,290.544 348.341,291.544 349.5,292.5C 348.828,293.267 347.995,293.934 347,294.5C 346.878,292.563 346.045,291.23 344.5,290.5 Z"/></g>
<g><path style="opacity:1" fill="#c9c9c9" d="M 273.5,291.5 C 272.486,292.674 271.153,293.34 269.5,293.5C 270.287,291.896 271.62,291.229 273.5,291.5 Z"/></g>
<g><path style="opacity:1" fill="#3c3c3c" d="M 273.5,291.5 C 271.62,291.229 270.287,291.896 269.5,293.5C 268.833,294.167 268.167,294.833 267.5,295.5C 265.804,295.685 264.471,296.519 263.5,298C 264.171,298.986 264.171,300.153 263.5,301.5C 262.488,302.872 261.488,304.205 260.5,305.5C 259.5,305.5 258.5,305.5 257.5,305.5C 257.5,304.167 257.5,302.833 257.5,301.5C 258.31,295.36 261.643,291.36 267.5,289.5C 268.893,288.74 270.393,288.074 272,287.5C 272.833,287.833 273.667,288.167 274.5,288.5C 273.873,289.417 273.539,290.417 273.5,291.5 Z"/></g>
<g><path style="opacity:1" fill="#d8d8d8" d="M 269.5,296.5 C 270.209,295.596 271.209,295.263 272.5,295.5C 272.5,296.833 272.5,298.167 272.5,299.5C 271.5,299.5 270.5,299.5 269.5,299.5C 270.091,298.849 270.757,298.182 271.5,297.5C 271.043,296.702 270.376,296.369 269.5,296.5 Z"/></g>
<g><path style="opacity:1" fill="#727272" d="M 344.5,291.5 C 343.449,295.585 341.115,298.585 337.5,300.5C 339.482,297.19 341.815,294.19 344.5,291.5 Z"/></g>
<g><path style="opacity:1" fill="#1f1f20" d="M 377.5,285.5 C 373.818,285.335 370.152,285.501 366.5,286C 362.877,287.667 359.211,289.334 355.5,291C 356.252,291.671 356.586,292.504 356.5,293.5C 355.833,293.5 355.5,293.833 355.5,294.5C 353.692,294.491 352.025,294.991 350.5,296C 345.296,299.711 340.63,303.878 336.5,308.5C 333.995,310.459 331.662,311.959 329.5,313C 330.252,313.671 330.586,314.504 330.5,315.5C 330.167,315.5 329.833,315.5 329.5,315.5C 326.204,315.55 324.871,314.217 325.5,311.5C 327.795,310.864 329.461,309.531 330.5,307.5C 335.222,307.445 337.555,305.112 337.5,300.5C 341.115,298.585 343.449,295.585 344.5,291.5C 344.5,291.167 344.5,290.833 344.5,290.5C 346.045,291.23 346.878,292.563 347,294.5C 347.995,293.934 348.828,293.267 349.5,292.5C 349.5,291.167 350.167,290.5 351.5,290.5C 353.262,289.738 354.262,288.404 354.5,286.5C 357.723,284.971 360.89,283.305 364,281.5C 366.737,282.61 369.571,282.777 372.5,282C 373.056,281.617 373.389,281.117 373.5,280.5C 375.827,280.753 377.827,280.086 379.5,278.5C 379.833,279.167 380.167,279.833 380.5,280.5C 379.473,282.184 378.473,283.851 377.5,285.5 Z"/></g>
<g><path style="opacity:1" fill="#525253" d="M 111.5,281.5 C 111.151,284.463 112.151,286.796 114.5,288.5C 113.831,291.028 112.998,291.028 112,288.5C 111.833,289 111.667,289.5 111.5,290C 113.711,295.535 114.044,301.201 112.5,307C 112.164,308.03 111.497,308.53 110.5,308.5C 109.066,303.958 108.066,299.291 107.5,294.5C 108.297,292.868 109.297,291.368 110.5,290C 109.162,286.889 109.495,284.055 111.5,281.5 Z"/></g>
<g><path style="opacity:1" fill="#818181" d="M 267.5,295.5 C 267.842,296.338 268.508,296.672 269.5,296.5C 270.376,296.369 271.043,296.702 271.5,297.5C 270.757,298.182 270.091,298.849 269.5,299.5C 267.5,300.167 265.5,300.833 263.5,301.5C 264.171,300.153 264.171,298.986 263.5,298C 264.471,296.519 265.804,295.685 267.5,295.5 Z"/></g>
<g><path style="opacity:1" fill="#676767" d="M 337.5,300.5 C 337.555,305.112 335.222,307.445 330.5,307.5C 332.605,304.973 334.939,302.64 337.5,300.5 Z"/></g>
<g><path style="opacity:1" fill="#5e5e5e" d="M 355.5,294.5 C 346.611,300.786 338.278,307.786 330.5,315.5C 330.586,314.504 330.252,313.671 329.5,313C 331.662,311.959 333.995,310.459 336.5,308.5C 340.63,303.878 345.296,299.711 350.5,296C 352.025,294.991 353.692,294.491 355.5,294.5 Z"/></g>
<g><path style="opacity:1" fill="#616162" d="M 257.5,301.5 C 257.5,302.833 257.5,304.167 257.5,305.5C 258.5,305.5 259.5,305.5 260.5,305.5C 258.225,309.615 255.725,313.615 253,317.5C 252.329,318.252 251.496,318.586 250.5,318.5C 250.344,314.865 249.178,314.532 247,317.5C 246.536,316.906 246.369,316.239 246.5,315.5C 248.755,314.352 250.588,312.686 252,310.5C 253.697,307.328 255.53,304.328 257.5,301.5 Z"/></g>
<g><path style="opacity:1" fill="#9e9e9e" d="M 284.5,307.5 C 284.573,309.027 283.906,310.027 282.5,310.5C 282.427,308.973 283.094,307.973 284.5,307.5 Z"/></g>
<g><path style="opacity:1" fill="#7d7c7c" d="M 292.5,292.5 C 291.298,299.982 291.298,307.316 292.5,314.5C 292.719,315.675 292.386,316.675 291.5,317.5C 290.335,310.189 290.169,302.856 291,295.5C 291.232,294.263 291.732,293.263 292.5,292.5 Z"/></g>
<g><path style="opacity:1" fill="#969696" d="M 330.5,307.5 C 329.461,309.531 327.795,310.864 325.5,311.5C 326.579,309.457 328.246,308.124 330.5,307.5 Z"/></g>
<g><path style="opacity:1" fill="#414142" d="M 246.5,315.5 C 246.369,316.239 246.536,316.906 247,317.5C 249.178,314.532 250.344,314.865 250.5,318.5C 249.889,320.775 248.555,322.441 246.5,323.5C 244.91,323.628 243.577,324.295 242.5,325.5C 241.234,329.043 239.234,332.043 236.5,334.5C 236.158,333.662 235.492,333.328 234.5,333.5C 235.542,330.532 237.375,328.199 240,326.5C 240.608,324.846 241.108,323.179 241.5,321.5C 241.087,315.951 241.92,310.618 244,305.5C 244.667,304.833 245.333,304.167 246,303.5C 246.499,307.486 246.666,311.486 246.5,315.5 Z"/></g>
<g><path style="opacity:1" fill="#737373" d="M 295.5,316.5 C 295.631,315.761 295.464,315.094 295,314.5C 294.23,315.598 293.397,315.598 292.5,314.5C 293.002,312.915 294.002,312.415 295.5,313C 296.791,314.292 296.791,315.458 295.5,316.5 Z"/></g>
<g><path style="opacity:1" fill="#6f6e70" d="M 75.5,326.5 C 74.8423,325.602 74.1757,324.602 73.5,323.5C 72.1408,324.624 71.1408,325.958 70.5,327.5C 69.3779,322.13 68.0446,316.797 66.5,311.5C 66.947,306.694 68.2804,306.36 70.5,310.5C 72.1909,315.902 73.8575,321.235 75.5,326.5 Z"/></g>
<g><path style="opacity:1" fill="#555555" d="M 214.5,294.5 C 216.506,299.056 218.506,303.722 220.5,308.5C 219.193,309.865 219.193,311.198 220.5,312.5C 220.5,313.833 220.5,315.167 220.5,316.5C 219.883,316.389 219.383,316.056 219,315.5C 218.667,312.833 218.333,310.167 218,307.5C 217.667,307.833 217.333,308.167 217,308.5C 216.409,303.762 215.575,299.095 214.5,294.5 Z"/></g>
<g><path style="opacity:1" fill="#e7e7e7" d="M 350.5,314.5 C 351.833,314.5 353.167,314.5 354.5,314.5C 354.737,315.791 354.404,316.791 353.5,317.5C 352.9,316.1 351.9,315.1 350.5,314.5 Z"/></g>
<g><path style="opacity:1" fill="#e3e3e3" d="M 220.5,312.5 C 221.16,313.964 221.493,315.631 221.5,317.5C 221.444,319.64 220.777,321.306 219.5,322.5C 220.341,320.621 220.675,318.621 220.5,316.5C 220.5,315.167 220.5,313.833 220.5,312.5 Z"/></g>
<g><path style="opacity:1" fill="#6d6d6d" d="M 342.5,317.5 C 342.285,319.179 342.952,320.179 344.5,320.5C 344.38,321.586 343.713,322.253 342.5,322.5C 339.195,320.826 335.862,320.492 332.5,321.5C 333.874,319.622 335.874,318.622 338.5,318.5C 339.442,318.608 340.275,318.941 341,319.5C 341.278,318.584 341.778,317.918 342.5,317.5 Z"/></g>
<g><path style="opacity:1" fill="#c7c7c7" d="M 342.5,317.5 C 346.167,317.5 349.833,317.5 353.5,317.5C 350.359,318.321 347.025,318.821 343.5,319C 344.056,319.383 344.389,319.883 344.5,320.5C 342.952,320.179 342.285,319.179 342.5,317.5 Z"/></g>
<g><path style="opacity:1" fill="#706d6f" d="M 134.5,316.5 C 137.361,317.237 138.361,318.904 137.5,321.5C 136.808,320.975 136.308,320.308 136,319.5C 135.173,320.662 134.34,321.829 133.5,323C 134.943,325.078 134.276,325.911 131.5,325.5C 131.677,322.163 132.677,319.163 134.5,316.5 Z"/></g>
<g><path style="opacity:1" fill="#7b797a" d="M 109.5,313.5 C 109.721,314.735 110.388,315.735 111.5,316.5C 110.754,317.736 110.421,319.07 110.5,320.5C 109.167,320.833 109.167,321.167 110.5,321.5C 110.5,326.833 110.5,332.167 110.5,337.5C 111.5,342.5 109.5,344.5 104.5,343.5C 105.833,342.067 107.333,340.733 109,339.5C 110.979,332.595 109.313,326.928 104,322.5C 101.411,318.148 100.411,313.481 101,308.5C 101.718,307.549 102.551,307.383 103.5,308C 104.754,311.618 106.254,315.118 108,318.5C 108.198,316.618 108.698,314.952 109.5,313.5 Z"/></g>
<g><path style="opacity:1" fill="#b4b4b4" d="M 122.5,317.5 C 124.28,318.99 124.946,320.99 124.5,323.5C 123.5,323.5 122.5,323.5 121.5,323.5C 121.833,321.5 122.167,319.5 122.5,317.5 Z"/></g>
<g><path style="opacity:1" fill="#7f7f81" d="M 264.5,319.5 C 265.209,318.596 266.209,318.263 267.5,318.5C 267.343,319.873 267.51,321.207 268,322.5C 269.241,320.579 270.741,320.246 272.5,321.5C 271.965,323.261 270.965,324.594 269.5,325.5C 268.791,324.596 267.791,324.263 266.5,324.5C 266.923,322.219 266.256,320.552 264.5,319.5 Z"/></g>
<g><path style="opacity:1" fill="#9c9a9a" d="M 219.5,322.5 C 219.5,323.5 219.5,324.5 219.5,325.5C 218.5,325.5 217.5,325.5 216.5,325.5C 216.519,318.469 217.019,318.136 218,324.5C 218.278,323.584 218.778,322.918 219.5,322.5 Z"/></g>
<g><path style="opacity:1" fill="#474749" d="M 75.5,326.5 C 76.0431,326.56 76.3764,326.893 76.5,327.5C 74.3025,333.023 70.9692,337.689 66.5,341.5C 66.3893,340.883 66.056,340.383 65.5,340C 68.1805,336.656 70.8471,333.322 73.5,330C 73.1667,329.5 72.8333,329 72.5,328.5C 70.1698,330.993 67.5031,332.993 64.5,334.5C 66.5293,332.142 68.5293,329.808 70.5,327.5C 71.1408,325.958 72.1408,324.624 73.5,323.5C 74.1757,324.602 74.8423,325.602 75.5,326.5 Z"/></g>
<g><path style="opacity:1" fill="#676464" d="M 222.5,328.5 C 220.952,328.179 220.285,327.179 220.5,325.5C 223.237,324.593 223.904,325.593 222.5,328.5 Z"/></g>
<g><path style="opacity:1" fill="#a9a9aa" d="M 293.5,325.5 C 293.771,327.38 293.104,328.713 291.5,329.5C 291.66,327.847 292.326,326.514 293.5,325.5 Z"/></g>
<g><path style="opacity:1" fill="#9c9899" d="M 219.5,325.5 C 219.833,325.5 220.167,325.5 220.5,325.5C 220.285,327.179 220.952,328.179 222.5,328.5C 224.852,329.543 225.019,330.876 223,332.5C 220.875,328.513 219.041,328.513 217.5,332.5C 217.167,332.5 216.833,332.5 216.5,332.5C 216.167,330.5 215.833,328.5 215.5,326.5C 217.124,326.36 218.29,327.027 219,328.5C 219.483,327.552 219.649,326.552 219.5,325.5 Z"/></g>
<g><path style="opacity:1" fill="#b3b3b4" d="M 262.5,329.5 C 262.975,332.082 262.308,334.082 260.5,335.5C 261.048,333.374 261.715,331.374 262.5,329.5 Z"/></g>
<g><path style="opacity:1" fill="#323133" d="M 325.5,311.5 C 324.871,314.217 326.204,315.55 329.5,315.5C 329.047,316.458 328.381,317.292 327.5,318C 329.535,318.599 331.201,318.099 332.5,316.5C 338.162,313.71 344.162,313.043 350.5,314.5C 351.9,315.1 352.9,316.1 353.5,317.5C 349.833,317.5 346.167,317.5 342.5,317.5C 341.778,317.918 341.278,318.584 341,319.5C 340.275,318.941 339.442,318.608 338.5,318.5C 335.874,318.622 333.874,319.622 332.5,321.5C 324.136,321.518 317.469,325.018 312.5,332C 317.183,335.022 322.183,336.855 327.5,337.5C 330.813,338.343 333.813,339.677 336.5,341.5C 331.311,342.702 325.977,342.702 320.5,341.5C 320.5,342.5 320.5,343.5 320.5,344.5C 318.712,344.785 317.045,344.452 315.5,343.5C 309.865,337.594 304.198,337.26 298.5,342.5C 298.141,340.234 298.808,338.401 300.5,337C 298.464,336.546 296.63,335.713 295,334.5C 293.862,334.989 292.695,335.322 291.5,335.5C 291.953,334.542 292.619,333.708 293.5,333C 298.59,330.524 303.59,327.857 308.5,325C 314.085,320.232 319.751,315.732 325.5,311.5 Z"/></g>
<g><path style="opacity:1" fill="#a3a3a6" d="M 329.5,315.5 C 329.833,315.5 330.167,315.5 330.5,315.5C 330.842,316.338 331.508,316.672 332.5,316.5C 331.201,318.099 329.535,318.599 327.5,318C 328.381,317.292 329.047,316.458 329.5,315.5 Z"/></g>
<g><path style="opacity:1" fill="#19191c" d="M 66.5,341.5 C 64.8561,341.286 63.3561,341.62 62,342.5C 61.8333,342 61.6667,341.5 61.5,341C 63.4292,339.306 64.4292,337.139 64.5,334.5C 67.5031,332.993 70.1698,330.993 72.5,328.5C 72.8333,329 73.1667,329.5 73.5,330C 70.8471,333.322 68.1805,336.656 65.5,340C 66.056,340.383 66.3893,340.883 66.5,341.5 Z"/></g>
<g><path style="opacity:1" fill="#a6a6a9" d="M 327.5,337.5 C 330.833,337.833 334.167,338.167 337.5,338.5C 337.737,339.791 337.404,340.791 336.5,341.5C 333.813,339.677 330.813,338.343 327.5,337.5 Z"/></g>
<g><path style="opacity:1" fill="#757575" d="M 246.5,323.5 C 243.093,328.641 239.926,333.974 237,339.5C 236.157,345.368 234.99,351.035 233.5,356.5C 233.708,354.08 233.374,351.747 232.5,349.5C 233.523,344.294 234.856,339.294 236.5,334.5C 239.234,332.043 241.234,329.043 242.5,325.5C 243.577,324.295 244.91,323.628 246.5,323.5 Z"/></g>
<g><path style="opacity:1" fill="#454445" d="M 64.5,334.5 C 64.4292,337.139 63.4292,339.306 61.5,341C 61.6667,341.5 61.8333,342 62,342.5C 63.3561,341.62 64.8561,341.286 66.5,341.5C 65.8333,342.833 64.8333,343.833 63.5,344.5C 62.9569,344.56 62.6236,344.893 62.5,345.5C 64.7427,346.474 67.076,346.808 69.5,346.5C 76.6803,346.74 83.5136,348.407 90,351.5C 94.9521,348.943 99.7854,346.276 104.5,343.5C 101.419,349.551 96.4192,352.885 89.5,353.5C 86.3608,353.293 83.8608,351.959 82,349.5C 80,350.167 78,350.833 76,351.5C 75.1667,350.667 74.3333,349.833 73.5,349C 68.6824,348.321 64.0158,347.321 59.5,346C 62.028,344.983 62.028,343.816 59.5,342.5C 57.9052,341.566 56.2385,341.566 54.5,342.5C 58.0974,340.244 61.4307,337.577 64.5,334.5 Z"/></g>
<g><path style="opacity:1" fill="#464243" d="M 216.5,332.5 C 216.833,332.5 217.167,332.5 217.5,332.5C 215.76,334.804 214.76,337.471 214.5,340.5C 214.66,342.199 214.494,343.866 214,345.5C 212.989,344.663 211.822,344.33 210.5,344.5C 210.201,342.396 210.534,340.396 211.5,338.5C 212.251,339.376 212.751,340.376 213,341.5C 213.626,339.287 213.459,337.12 212.5,335C 213.356,333.405 214.689,332.572 216.5,332.5 Z"/></g>
<g><path style="opacity:1" fill="#9c9a9b" d="M 214.5,340.5 C 215.5,340.5 216.5,340.5 217.5,340.5C 217.785,342.288 217.452,343.955 216.5,345.5C 213.34,346.941 210.673,348.941 208.5,351.5C 209.865,349.409 210.532,347.076 210.5,344.5C 211.822,344.33 212.989,344.663 214,345.5C 214.494,343.866 214.66,342.199 214.5,340.5 Z"/></g>
<g><path style="opacity:1" fill="#79787c" d="M 50.5,344.5 C 41.4879,345.962 32.3213,347.296 23,348.5C 21.2341,347.767 19.4008,347.433 17.5,347.5C 18.6085,346.71 19.9419,346.21 21.5,346C 31.1548,345.212 40.8215,344.712 50.5,344.5 Z"/></g>
<g><path style="opacity:1" fill="#c2bfc0" d="M 153.5,352.5 C 152.833,350.833 152.167,349.167 151.5,347.5C 151.215,345.712 151.548,344.045 152.5,342.5C 153.487,345.768 153.82,349.102 153.5,352.5 Z"/></g>
<g><path style="opacity:1" fill="#4c494b" d="M 115.5,344.5 C 115.028,347.358 116.028,349.358 118.5,350.5C 116.857,350.48 115.524,351.147 114.5,352.5C 113.614,351.675 113.281,350.675 113.5,349.5C 114.028,348.153 114.195,346.819 114,345.5C 111.337,347.334 108.837,349.334 106.5,351.5C 104.824,352.183 104.157,353.517 104.5,355.5C 103.5,355.5 102.5,355.5 101.5,355.5C 101.491,353.692 101.991,352.025 103,350.5C 105.634,348.441 108.134,346.275 110.5,344C 112.557,341.919 114.223,342.086 115.5,344.5 Z"/></g>
<g><path style="opacity:1" fill="#e3e3e3" d="M 163.5,351.5 C 162.833,351.5 162.5,351.833 162.5,352.5C 162.167,352.5 161.833,352.5 161.5,352.5C 162.485,346.959 163.152,346.625 163.5,351.5 Z"/></g>
<g><path style="opacity:1" fill="#666569" d="M 16.5,347.5 C 16.5394,348.583 16.8728,349.583 17.5,350.5C 15.3416,352.593 13.0082,354.259 10.5,355.5C 10.5,356.5 10.5,357.5 10.5,358.5C 9.41383,358.38 8.74716,357.713 8.5,356.5C 10.5559,352.787 13.2225,349.787 16.5,347.5 Z"/></g>
<g><path style="opacity:1" fill="#252325" d="M 115.5,344.5 C 114.223,342.086 112.557,341.919 110.5,344C 108.134,346.275 105.634,348.441 103,350.5C 101.991,352.025 101.491,353.692 101.5,355.5C 102.5,355.5 103.5,355.5 104.5,355.5C 108.163,355.048 111.83,354.548 115.5,354C 116.126,353.25 116.626,352.416 117,351.5C 117.399,351.728 117.565,352.062 117.5,352.5C 117.833,353.833 118.167,353.833 118.5,352.5C 118.5,352.167 118.5,351.833 118.5,351.5C 119.407,359.364 119.407,367.697 118.5,376.5C 118.167,376.5 117.833,376.5 117.5,376.5C 116.713,374.896 115.38,374.229 113.5,374.5C 109.853,373.343 106.52,371.677 103.5,369.5C 103.586,368.504 103.252,367.671 102.5,367C 100.382,366.74 98.7158,365.74 97.5,364C 94.9528,363.34 92.4528,363.507 90,364.5C 87.0395,362.621 83.8728,361.121 80.5,360C 77.1832,359.502 73.8499,359.335 70.5,359.5C 63.1202,358.906 55.7869,358.24 48.5,357.5C 45.0381,356.518 41.3714,356.185 37.5,356.5C 34.9242,356.468 32.5909,357.135 30.5,358.5C 29.8333,358.5 29.1667,358.5 28.5,358.5C 22.6878,358.042 16.6878,358.042 10.5,358.5C 10.5,357.5 10.5,356.5 10.5,355.5C 13.0082,354.259 15.3416,352.593 17.5,350.5C 16.8728,349.583 16.5394,348.583 16.5,347.5C 16.8333,347.5 17.1667,347.5 17.5,347.5C 19.4008,347.433 21.2341,347.767 23,348.5C 32.3213,347.296 41.4879,345.962 50.5,344.5C 51.6715,343.655 53.0048,342.989 54.5,342.5C 56.2385,341.566 57.9052,341.566 59.5,342.5C 62.028,343.816 62.028,344.983 59.5,346C 64.0158,347.321 68.6824,348.321 73.5,349C 74.3333,349.833 75.1667,350.667 76,351.5C 78,350.833 80,350.167 82,349.5C 83.8608,351.959 86.3608,353.293 89.5,353.5C 96.4192,352.885 101.419,349.551 104.5,343.5C 109.5,344.5 111.5,342.5 110.5,337.5C 112.201,337.034 113.701,337.034 115,337.5C 115.497,339.81 115.663,342.143 115.5,344.5 Z"/></g>
<g><path style="opacity:1" fill="#a2a2a3" d="M 63.5,344.5 C 65.5,345.167 67.5,345.833 69.5,346.5C 67.076,346.808 64.7427,346.474 62.5,345.5C 62.6236,344.893 62.9569,344.56 63.5,344.5 Z"/></g>
<g><path style="opacity:1" fill="#939393" d="M 204.5,352.5 C 203.542,352.047 202.708,351.381 202,350.5C 201.517,351.448 201.351,352.448 201.5,353.5C 200.566,352.432 200.232,351.099 200.5,349.5C 202.973,349.088 204.306,350.088 204.5,352.5 Z"/></g>
<g><path style="opacity:1" fill="#afaeb5" d="M 163.5,351.5 C 163.833,351.5 164.167,351.5 164.5,351.5C 165.038,353.117 165.371,354.784 165.5,356.5C 163.799,355.789 162.799,354.455 162.5,352.5C 163.167,352.5 163.5,352.167 163.5,351.5 Z"/></g>
<g><path style="opacity:1" fill="#3b3a3b" d="M 167.5,360.5 C 166.778,360.918 166.278,361.584 166,362.5C 165.329,361.748 164.496,361.414 163.5,361.5C 164.833,360.5 164.833,359.5 163.5,358.5C 164.167,357.833 164.833,357.167 165.5,356.5C 165.371,354.784 165.038,353.117 164.5,351.5C 164.215,349.712 164.548,348.045 165.5,346.5C 165.833,347.333 166.167,348.167 166.5,349C 166.748,352.842 167.081,356.675 167.5,360.5 Z"/></g>
<g><path style="opacity:1" fill="#867f84" d="M 113.5,349.5 C 113.281,350.675 113.614,351.675 114.5,352.5C 115.524,351.147 116.857,350.48 118.5,350.5C 118.5,350.833 118.5,351.167 118.5,351.5C 118.5,351.833 118.5,352.167 118.5,352.5C 118.167,352.5 117.833,352.5 117.5,352.5C 117.565,352.062 117.399,351.728 117,351.5C 116.626,352.416 116.126,353.25 115.5,354C 111.83,354.548 108.163,355.048 104.5,355.5C 104.157,353.517 104.824,352.183 106.5,351.5C 108.214,352.738 110.214,353.405 112.5,353.5C 112.232,351.901 112.566,350.568 113.5,349.5 Z"/></g>
<g><path style="opacity:1" fill="#ebebeb" d="M 161.5,353.5 C 161.5,354.167 161.5,354.833 161.5,355.5C 158.452,355.506 157.952,354.506 160,352.5C 160.383,353.056 160.883,353.389 161.5,353.5 Z"/></g>
<g><path style="opacity:1" fill="#bfbfbf" d="M 151.5,347.5 C 151.198,350.059 151.532,352.393 152.5,354.5C 152.631,355.376 152.298,356.043 151.5,356.5C 150.197,353.355 150.197,350.355 151.5,347.5 Z"/></g>
<g><path style="opacity:1" fill="#676668" d="M 241.5,321.5 C 241.108,323.179 240.608,324.846 240,326.5C 237.375,328.199 235.542,330.532 234.5,333.5C 232.326,340.635 230.159,347.968 228,355.5C 225.581,359.593 222.748,363.427 219.5,367C 212.877,370.144 205.877,371.311 198.5,370.5C 198.66,372.199 198.494,373.866 198,375.5C 197.505,373.527 197.338,371.527 197.5,369.5C 197.263,368.209 197.596,367.209 198.5,366.5C 198.5,366.833 198.5,367.167 198.5,367.5C 205.395,368.157 212.229,367.157 219,364.5C 225.484,354.717 229.817,344.051 232,332.5C 235.032,328.641 238.198,324.974 241.5,321.5 Z"/></g>
<g><path style="opacity:1" fill="#bababa" d="M 37.5,356.5 C 41.3714,356.185 45.0381,356.518 48.5,357.5C 44.9581,357.187 41.6248,357.521 38.5,358.5C 37.6618,358.158 37.3284,357.492 37.5,356.5 Z"/></g>
<g><path style="opacity:1" fill="#a5a5a5" d="M 208.5,354.5 C 208.5,355.5 208.5,356.5 208.5,357.5C 207.209,357.737 206.209,357.404 205.5,356.5C 206.778,356.218 207.778,355.551 208.5,354.5 Z"/></g>
<g><path style="opacity:1" fill="#6e6d6f" d="M 28.5,358.5 C 22.3396,359.527 16.3396,359.527 10.5,358.5C 16.6878,358.042 22.6878,358.042 28.5,358.5 Z"/></g>
<g><path style="opacity:1" fill="#dbdbdb" d="M 161.5,355.5 C 162.167,356.5 162.833,357.5 163.5,358.5C 164.833,359.5 164.833,360.5 163.5,361.5C 162.833,360.833 162.167,360.167 161.5,359.5C 161.5,358.167 161.5,356.833 161.5,355.5 Z"/></g>
<g><path style="opacity:1" fill="#d8d8da" d="M 295.5,359.5 C 296.097,358.861 296.93,358.528 298,358.5C 299.376,358.684 300.209,359.351 300.5,360.5C 300.44,361.043 300.107,361.376 299.5,361.5C 298.304,361.154 298.304,360.654 299.5,360C 298.207,359.51 296.873,359.343 295.5,359.5 Z"/></g>
<g><path style="opacity:1" fill="#ebebeb" d="M 304.5,359.5 C 305.209,358.596 306.209,358.263 307.5,358.5C 307.737,359.791 307.404,360.791 306.5,361.5C 306.5,360.167 305.833,359.5 304.5,359.5 Z"/></g>
<g><path style="opacity:1" fill="#525151" d="M 37.5,356.5 C 37.3284,357.492 37.6618,358.158 38.5,358.5C 39.4013,359.29 40.0679,360.29 40.5,361.5C 42.1376,362.705 42.4709,364.038 41.5,365.5C 40.609,364.89 39.609,364.557 38.5,364.5C 35.5265,362.853 32.8599,360.853 30.5,358.5C 32.5909,357.135 34.9242,356.468 37.5,356.5 Z"/></g>
<g><path style="opacity:1" fill="#b5b5b5" d="M 201.5,353.5 C 202.994,358.616 201.994,363.282 198.5,367.5C 198.5,367.167 198.5,366.833 198.5,366.5C 200.068,362.279 201.068,357.945 201.5,353.5 Z"/></g>
<g><path style="opacity:1" fill="#dcdcdc" d="M 40.5,361.5 C 42.2517,361.418 43.2517,362.251 43.5,364C 43.1639,365.03 42.4972,365.53 41.5,365.5C 42.4709,364.038 42.1376,362.705 40.5,361.5 Z"/></g>
<g><path style="opacity:1" fill="#7d777d" d="M 161.5,359.5 C 162.167,360.167 162.833,360.833 163.5,361.5C 164.496,361.414 165.329,361.748 166,362.5C 166.278,361.584 166.778,360.918 167.5,360.5C 168.028,361.847 168.195,363.181 168,364.5C 163.651,362.747 162.818,363.58 165.5,367C 165.167,367.167 164.833,367.333 164.5,367.5C 162.204,364.982 161.204,362.315 161.5,359.5 Z"/></g>
<g><path style="opacity:1" fill="#acacaf" d="M 292.5,361.5 C 292.027,362.906 291.027,363.573 289.5,363.5C 289.973,362.094 290.973,361.427 292.5,361.5 Z"/></g>
<g><path style="opacity:1" fill="#525052" d="M 70.5,359.5 C 73.8499,359.335 77.1832,359.502 80.5,360C 83.8728,361.121 87.0395,362.621 90,364.5C 92.4528,363.507 94.9528,363.34 97.5,364C 98.7158,365.74 100.382,366.74 102.5,367C 103.252,367.671 103.586,368.504 103.5,369.5C 100.646,369.076 97.9793,368.076 95.5,366.5C 94.6721,367.415 93.6721,368.081 92.5,368.5C 90.4371,367.488 88.4371,366.488 86.5,365.5C 86.0269,364.094 85.0269,363.427 83.5,363.5C 78.9855,362.39 74.6522,361.056 70.5,359.5 Z"/></g>
<g><path style="opacity:1" fill="#c5c5c5" d="M 38.5,364.5 C 39.609,364.557 40.609,364.89 41.5,365.5C 40.221,366.715 39.221,366.382 38.5,364.5 Z"/></g>
<g><path style="opacity:1" fill="#b9b9b9" d="M 83.5,363.5 C 85.0269,363.427 86.0269,364.094 86.5,365.5C 84.9731,365.573 83.9731,364.906 83.5,363.5 Z"/></g>
<g><path style="opacity:1" fill="#282729" d="M 306.5,281.5 C 306.158,282.338 305.492,282.672 304.5,282.5C 300.794,282.925 297.461,284.259 294.5,286.5C 292.914,288.173 292.247,290.173 292.5,292.5C 291.732,293.263 291.232,294.263 291,295.5C 290.169,302.856 290.335,310.189 291.5,317.5C 292.386,316.675 292.719,315.675 292.5,314.5C 293.397,315.598 294.23,315.598 295,314.5C 295.464,315.094 295.631,315.761 295.5,316.5C 295.595,319.697 294.928,322.697 293.5,325.5C 292.326,326.514 291.66,327.847 291.5,329.5C 290.709,331.691 290.709,333.691 291.5,335.5C 292.695,335.322 293.862,334.989 295,334.5C 296.63,335.713 298.464,336.546 300.5,337C 298.808,338.401 298.141,340.234 298.5,342.5C 295.158,345.173 291.492,347.339 287.5,349C 284.998,350.496 283.331,352.663 282.5,355.5C 278.39,357.445 274.056,358.611 269.5,359C 264.086,362.374 258.419,365.207 252.5,367.5C 248.149,366.533 245.815,368.2 245.5,372.5C 246.833,372.5 248.167,372.5 249.5,372.5C 260.607,371.547 271.607,369.547 282.5,366.5C 284.483,366.157 285.817,366.824 286.5,368.5C 285.5,368.833 284.833,369.5 284.5,370.5C 284.783,371.289 285.283,371.956 286,372.5C 290.837,371.739 295.671,371.406 300.5,371.5C 301.696,371.846 301.696,372.346 300.5,373C 297.964,373.186 295.631,373.686 293.5,374.5C 280.367,374.936 267.2,376.27 254,378.5C 245.181,377.764 236.347,377.431 227.5,377.5C 221.402,376.891 215.735,377.891 210.5,380.5C 206.818,380.335 203.152,380.501 199.5,381C 200.416,381.278 201.082,381.778 201.5,382.5C 200.167,382.5 198.833,382.5 197.5,382.5C 197.5,388.167 197.5,393.833 197.5,399.5C 195.75,395.817 195.083,391.817 195.5,387.5C 195.768,385.901 195.434,384.568 194.5,383.5C 194.334,378.821 194.501,374.155 195,369.5C 195.77,368.402 196.603,368.402 197.5,369.5C 197.338,371.527 197.505,373.527 198,375.5C 198.494,373.866 198.66,372.199 198.5,370.5C 205.877,371.311 212.877,370.144 219.5,367C 222.748,363.427 225.581,359.593 228,355.5C 230.159,347.968 232.326,340.635 234.5,333.5C 235.492,333.328 236.158,333.662 236.5,334.5C 234.856,339.294 233.523,344.294 232.5,349.5C 233.374,351.747 233.708,354.08 233.5,356.5C 232.542,356.953 231.708,357.619 231,358.5C 230.433,361.168 229.933,363.834 229.5,366.5C 237.679,367.903 244.013,365.237 248.5,358.5C 250.771,356.734 252.937,354.734 255,352.5C 256.274,346.599 258.108,340.932 260.5,335.5C 262.308,334.082 262.975,332.082 262.5,329.5C 263.01,326.017 263.677,322.684 264.5,319.5C 266.256,320.552 266.923,322.219 266.5,324.5C 267.791,324.263 268.791,324.596 269.5,325.5C 269.167,326.167 268.833,326.833 268.5,327.5C 266.787,328.635 266.12,330.302 266.5,332.5C 265.301,336.099 264.301,339.765 263.5,343.5C 262.2,346.024 262.2,348.691 263.5,351.5C 264.298,351.043 264.631,350.376 264.5,349.5C 266.179,349.715 267.179,349.048 267.5,347.5C 270.185,345.538 273.185,344.038 276.5,343C 278.499,340.745 279.832,338.245 280.5,335.5C 282.223,333.22 282.889,330.553 282.5,327.5C 283.833,321.833 283.833,316.167 282.5,310.5C 283.906,310.027 284.573,309.027 284.5,307.5C 285.102,303.13 285.769,298.797 286.5,294.5C 287.047,291.394 288.047,288.394 289.5,285.5C 291.03,283.654 293.03,282.654 295.5,282.5C 297.199,282.66 298.866,282.494 300.5,282C 301.834,279.913 303.667,278.413 306,277.5C 306.49,278.793 306.657,280.127 306.5,281.5 Z"/></g>
<g><path style="opacity:1" fill="#4e4b4e" d="M 233.5,356.5 C 233.25,359.214 233.083,361.881 233,364.5C 238.304,362.722 243.471,360.722 248.5,358.5C 244.013,365.237 237.679,367.903 229.5,366.5C 229.933,363.834 230.433,361.168 231,358.5C 231.708,357.619 232.542,356.953 233.5,356.5 Z"/></g>
<g><path style="opacity:1" fill="#9e9ea0" d="M 263.5,343.5 C 263.205,345.735 263.539,347.735 264.5,349.5C 264.631,350.376 264.298,351.043 263.5,351.5C 262.2,348.691 262.2,346.024 263.5,343.5 Z"/></g>
<g><path style="opacity:1" fill="#a2a2a6" d="M 267.5,347.5 C 267.179,349.048 266.179,349.715 264.5,349.5C 265.29,348.599 266.29,347.932 267.5,347.5 Z"/></g>
<g><path style="opacity:1" fill="#777777" d="M 282.5,327.5 C 282.889,330.553 282.223,333.22 280.5,335.5C 280.802,332.627 281.469,329.961 282.5,327.5 Z"/></g>
<g><path style="opacity:1" fill="#c0c0c1" d="M 268.5,327.5 C 268.204,329.403 267.537,331.07 266.5,332.5C 266.12,330.302 266.787,328.635 268.5,327.5 Z"/></g>
<g><path style="opacity:1" fill="#505052" d="M 295.5,359.5 C 296.873,359.343 298.207,359.51 299.5,360C 298.304,360.654 298.304,361.154 299.5,361.5C 300.107,361.376 300.44,361.043 300.5,360.5C 301.708,359.766 303.041,359.433 304.5,359.5C 305.833,359.5 306.5,360.167 306.5,361.5C 300.315,365.007 293.648,367.341 286.5,368.5C 285.817,366.824 284.483,366.157 282.5,366.5C 284.843,365.656 287.176,364.656 289.5,363.5C 291.027,363.573 292.027,362.906 292.5,361.5C 293.222,360.449 294.222,359.782 295.5,359.5 Z"/></g>
<g><path style="opacity:1" fill="#817f83" d="M 252.5,367.5 C 250.618,368.751 248.618,369.918 246.5,371C 247.737,371.232 248.737,371.732 249.5,372.5C 248.167,372.5 246.833,372.5 245.5,372.5C 245.815,368.2 248.149,366.533 252.5,367.5 Z"/></g>
<g><path style="opacity:1" fill="#e7e7e8" d="M 286.5,368.5 C 291.64,369.488 296.974,369.821 302.5,369.5C 296.69,370.49 290.69,370.823 284.5,370.5C 284.833,369.5 285.5,368.833 286.5,368.5 Z"/></g>
<g><path style="opacity:1" fill="#4a494a" d="M 309.5,371.5 C 307.62,371.229 306.287,371.896 305.5,373.5C 301.566,374.36 297.566,374.693 293.5,374.5C 295.631,373.686 297.964,373.186 300.5,373C 301.696,372.346 301.696,371.846 300.5,371.5C 295.671,371.406 290.837,371.739 286,372.5C 285.283,371.956 284.783,371.289 284.5,370.5C 290.69,370.823 296.69,370.49 302.5,369.5C 307.556,367.15 312.89,365.816 318.5,365.5C 318.719,366.675 318.386,367.675 317.5,368.5C 314.812,369.513 312.146,370.513 309.5,371.5 Z"/></g>
<g><path style="opacity:1" fill="#e2e2e2" d="M 309.5,371.5 C 308.486,372.674 307.153,373.34 305.5,373.5C 306.287,371.896 307.62,371.229 309.5,371.5 Z"/></g>
<g><path style="opacity:1" fill="#c3c3c3" d="M 113.5,374.5 C 115.38,374.229 116.713,374.896 117.5,376.5C 115.847,376.34 114.514,375.674 113.5,374.5 Z"/></g>
<g><path style="opacity:1" fill="#5b5b5e" d="M 227.5,377.5 C 225.735,378.461 223.735,378.795 221.5,378.5C 219.214,378.595 217.214,379.262 215.5,380.5C 213.833,380.5 212.167,380.5 210.5,380.5C 215.735,377.891 221.402,376.891 227.5,377.5 Z"/></g>
<g><path style="opacity:1" fill="#dbdbdd" d="M 221.5,378.5 C 219.898,380.074 217.898,380.741 215.5,380.5C 217.214,379.262 219.214,378.595 221.5,378.5 Z"/></g>
<g><path style="opacity:1" fill="#615f62" d="M 210.5,380.5 C 207.781,381.913 204.781,382.58 201.5,382.5C 201.082,381.778 200.416,381.278 199.5,381C 203.152,380.501 206.818,380.335 210.5,380.5 Z"/></g>
<g><path style="opacity:1" fill="#989898" d="M 117.5,376.5 C 117.833,376.5 118.167,376.5 118.5,376.5C 118.706,379.495 118.04,382.162 116.5,384.5C 117.183,381.665 117.516,378.999 117.5,376.5 Z"/></g>
<g><path style="opacity:1" fill="#a9a8a9" d="M 201.5,382.5 C 200.791,383.404 199.791,383.737 198.5,383.5C 198.821,389.026 198.488,394.36 197.5,399.5C 197.5,393.833 197.5,388.167 197.5,382.5C 198.833,382.5 200.167,382.5 201.5,382.5 Z"/></g>
<g><path style="opacity:1" fill="#919090" d="M 194.5,383.5 C 194.232,385.099 194.566,386.432 195.5,387.5C 195.083,391.817 195.75,395.817 197.5,399.5C 196.698,400.885 196.031,400.718 195.5,399C 194.815,396.205 194.315,393.372 194,390.5C 193.79,392.058 193.29,393.391 192.5,394.5C 192.646,390.613 193.313,386.946 194.5,383.5 Z"/></g>
<g><path style="opacity:1" fill="#717071" d="M 184.5,402.5 C 183.833,399.833 183.167,397.167 182.5,394.5C 182.192,392.076 182.526,389.743 183.5,387.5C 184.494,392.456 184.827,397.456 184.5,402.5 Z"/></g>
<g><path style="opacity:1" fill="#1f1d1d" d="M 173.5,423.5 C 173.5,423.833 173.5,424.167 173.5,424.5C 172.791,425.404 171.791,425.737 170.5,425.5C 170.666,420.156 170.499,414.823 170,409.5C 168.294,410.308 167.461,411.641 167.5,413.5C 166.596,414.209 166.263,415.209 166.5,416.5C 166.5,416.833 166.5,417.167 166.5,417.5C 165.566,416.432 165.232,415.099 165.5,413.5C 165.167,412.167 164.833,412.167 164.5,413.5C 164.167,413.5 163.833,413.5 163.5,413.5C 163.67,412.178 163.337,411.011 162.5,410C 165.546,405.637 167.546,400.803 168.5,395.5C 169.192,396.025 169.692,396.692 170,397.5C 169.008,394.43 169.341,391.43 171,388.5C 171.2,395.883 171.7,403.216 172.5,410.5C 170.985,413.737 171.319,416.737 173.5,419.5C 172.833,420.5 172.167,421.5 171.5,422.5C 171.957,423.298 172.624,423.631 173.5,423.5 Z"/></g>
<g><path style="opacity:1" fill="#4f4f4f" d="M 182.5,395.5 C 182.085,402.24 181.419,408.906 180.5,415.5C 179.833,415.167 179.167,414.833 178.5,414.5C 178.669,407.789 180.002,401.455 182.5,395.5 Z"/></g>
<g><path style="opacity:1" fill="#b0b0b0" d="M 189.5,403.5 C 190.209,402.596 191.209,402.263 192.5,402.5C 191.895,404.481 190.895,404.815 189.5,403.5 Z"/></g>
<g><path style="opacity:1" fill="#dcdcdc" d="M 198.5,404.5 C 199.794,406.68 199.461,408.68 197.5,410.5C 197.833,408.5 198.167,406.5 198.5,404.5 Z"/></g>
<g><path style="opacity:1" fill="#5e5e5e" d="M 198.5,404.5 C 198.167,406.5 197.833,408.5 197.5,410.5C 195.14,408.41 195.14,406.077 197.5,403.5C 198.107,403.624 198.44,403.957 198.5,404.5 Z"/></g>
<g><path style="opacity:1" fill="#f9faf9" d="M 184.5,410.5 C 185.167,410.833 185.833,411.167 186.5,411.5C 185.377,412.757 184.711,412.424 184.5,410.5 Z"/></g>
<g><path style="opacity:1" fill="#908f90" d="M 126.5,416.5 C 126.167,416.5 125.833,416.5 125.5,416.5C 125.447,413.939 126.447,411.939 128.5,410.5C 128.833,411.167 129.167,411.833 129.5,412.5C 128.714,414.041 127.714,415.374 126.5,416.5 Z"/></g>
<g><path style="opacity:1" fill="#878787" d="M 116.5,384.5 C 118.307,395.378 118.974,406.378 118.5,417.5C 117.824,413.487 116.824,409.487 115.5,405.5C 117.757,399.949 117.757,394.116 115.5,388C 115.514,386.615 115.848,385.449 116.5,384.5 Z"/></g>
<g><path style="opacity:1" fill="#a8a8a8" d="M 178.5,414.5 C 179.167,414.833 179.833,415.167 180.5,415.5C 180.719,416.675 180.386,417.675 179.5,418.5C 178.702,418.043 178.369,417.376 178.5,416.5C 178.5,415.833 178.5,415.167 178.5,414.5 Z"/></g>
<g><path style="opacity:1" fill="#e4e4e4" d="M 164.5,413.5 C 164.833,413.5 165.167,413.5 165.5,413.5C 165.232,415.099 165.566,416.432 166.5,417.5C 166.44,418.043 166.107,418.376 165.5,418.5C 164.749,417.624 164.249,416.624 164,415.5C 163.828,421.681 163.328,427.681 162.5,433.5C 162.177,426.978 162.51,420.645 163.5,414.5C 164.167,414.5 164.5,414.167 164.5,413.5 Z"/></g>
<g><path style="opacity:1" fill="#888888" d="M 167.5,413.5 C 169.847,414.607 170.18,416.274 168.5,418.5C 167.833,417.833 167.167,417.167 166.5,416.5C 166.263,415.209 166.596,414.209 167.5,413.5 Z"/></g>
<g><path style="opacity:1" fill="#f1f0f0" d="M 170.5,425.5 C 169.833,423.167 169.167,420.833 168.5,418.5C 170.18,416.274 169.847,414.607 167.5,413.5C 167.461,411.641 168.294,410.308 170,409.5C 170.499,414.823 170.666,420.156 170.5,425.5 Z"/></g>
<g><path style="opacity:1" fill="#b0b0b0" d="M 126.5,416.5 C 128.176,417.183 128.843,418.517 128.5,420.5C 127.655,419.329 126.989,417.995 126.5,416.5 Z"/></g>
<g><path style="opacity:1" fill="#646464" d="M 118.5,417.5 C 119.165,419.369 119.831,421.369 120.5,423.5C 121.183,423.137 121.85,422.804 122.5,422.5C 121.817,424.176 120.483,424.843 118.5,424.5C 117.918,422.002 117.918,419.669 118.5,417.5 Z"/></g>
<g><path style="opacity:1" fill="#8e8e8e" d="M 125.5,416.5 C 125.771,418.38 125.104,419.713 123.5,420.5C 123.66,418.847 124.326,417.514 125.5,416.5 Z"/></g>
<g><path style="opacity:1" fill="#5a585a" d="M 132.5,419.5 C 131.167,420.167 131.167,420.833 132.5,421.5C 132.631,422.239 132.464,422.906 132,423.5C 131.346,422.304 130.846,422.304 130.5,423.5C 131.09,424.799 132.09,425.632 133.5,426C 131.808,427.401 131.141,429.234 131.5,431.5C 129.918,428.124 129.251,424.458 129.5,420.5C 130.053,418.448 131.053,418.115 132.5,419.5 Z"/></g>
<g><path style="opacity:1" fill="#e8e8e8" d="M 175.5,422.5 C 175.167,423.5 174.5,424.167 173.5,424.5C 173.5,424.167 173.5,423.833 173.5,423.5C 173.842,422.662 174.508,422.328 175.5,422.5 Z"/></g>
<g><path style="opacity:1" fill="#9b9b9b" d="M 131.5,431.5 C 132.165,435.151 132.499,438.985 132.5,443C 132.571,450.053 131.904,456.886 130.5,463.5C 131.196,452.848 131.53,442.181 131.5,431.5 Z"/></g>
<g><path style="opacity:1" fill="#969696" d="M 162.5,434.5 C 162.357,436.262 162.691,437.929 163.5,439.5C 162.4,443.939 161.4,448.272 160.5,452.5C 160.652,446.301 161.318,440.301 162.5,434.5 Z"/></g>
<g><path style="opacity:1" fill="#7d7b7b" d="M 159.5,461.5 C 160.069,465.329 159.402,468.663 157.5,471.5C 157.5,468.5 157.5,465.5 157.5,462.5C 157.5,461.833 157.167,461.5 156.5,461.5C 156.238,460.022 156.571,458.689 157.5,457.5C 158.172,458.949 158.839,460.282 159.5,461.5 Z"/></g>
<g><path style="opacity:1" fill="#b5b5b5" d="M 156.5,462.5 C 156.833,462.5 157.167,462.5 157.5,462.5C 157.5,465.5 157.5,468.5 157.5,471.5C 156.833,470.167 156.167,468.833 155.5,467.5C 155.629,465.784 155.962,464.117 156.5,462.5 Z"/></g>
<g><path style="opacity:1" fill="#cccccc" d="M 146.5,476.5 C 146.5,476.833 146.5,477.167 146.5,477.5C 145.833,476.833 145.167,476.167 144.5,475.5C 144.334,471.486 144.501,467.486 145,463.5C 146.367,467.7 146.867,472.033 146.5,476.5 Z"/></g>
<g><path style="opacity:1" fill="#717171" d="M 130.5,463.5 C 130.821,465.048 131.821,465.715 133.5,465.5C 133.5,473.167 133.5,480.833 133.5,488.5C 132.508,481.352 132.175,474.019 132.5,466.5C 131.5,466.5 130.5,466.5 129.5,466.5C 129.263,465.209 129.596,464.209 130.5,463.5 Z"/></g>
<g><path style="opacity:1" fill="#7d7d7d" d="M 155.5,468.5 C 155.5,471.833 155.5,475.167 155.5,478.5C 154.325,478.281 153.325,478.614 152.5,479.5C 151.994,482.391 150.994,485.058 149.5,487.5C 148.914,487.291 148.414,486.957 148,486.5C 147.498,483.487 146.998,480.487 146.5,477.5C 146.5,477.167 146.5,476.833 146.5,476.5C 147.963,479.203 148.796,482.203 149,485.5C 150.375,483.063 150.875,480.397 150.5,477.5C 151.833,477.5 153.167,477.5 154.5,477.5C 154.19,474.287 154.523,471.287 155.5,468.5 Z"/></g>
<g><path style="opacity:1" fill="#cbcbcb" d="M 144.5,476.5 C 144.829,482.537 144.496,488.537 143.5,494.5C 142.818,493.757 142.151,493.091 141.5,492.5C 143.004,487.191 144.004,481.857 144.5,476.5 Z"/></g>
<g><path style="opacity:1" fill="#d1d1d1" d="M 141.5,494.5 C 141.88,496.698 141.213,498.365 139.5,499.5C 139.796,497.597 140.463,495.93 141.5,494.5 Z"/></g>
<g><path style="opacity:1" fill="#ababab" d="M 134.5,500.5 C 135.467,501.806 136.801,502.473 138.5,502.5C 137.432,503.434 136.099,503.768 134.5,503.5C 134.5,502.5 134.5,501.5 134.5,500.5 Z"/></g>
</svg>
