<?xml version="1.0" encoding="UTF-8"?>
<!DOCTYPE svg PUBLIC "-//W3C//DTD SVG 1.1//EN" "http://www.w3.org/Graphics/SVG/1.1/DTD/svg11.dtd">
<svg xmlns="http://www.w3.org/2000/svg" version="1.1" width="400px" height="400px" style="shape-rendering:geometricPrecision; text-rendering:geometricPrecision; image-rendering:optimizeQuality; fill-rule:evenodd; clip-rule:evenodd" xmlns:xlink="http://www.w3.org/1999/xlink">
<g><path style="opacity:1" fill="#514f62" d="M 278.5,106.5 C 276.005,106.969 273.339,106.969 270.5,106.5C 270.5,104.167 270.5,101.833 270.5,99.5C 268.167,99.5 265.833,99.5 263.5,99.5C 263.5,92.5 263.5,85.5 263.5,78.5C 261.208,78.7564 259.041,78.4231 257,77.5C 256.51,78.7932 256.343,80.1266 256.5,81.5C 256.5,82.8333 256.5,84.1667 256.5,85.5C 251.5,85.5 246.5,85.5 241.5,85.5C 241.664,82.8127 241.497,80.146 241,77.5C 236.599,78.4667 232.099,78.8 227.5,78.5C 227.5,75.8333 227.5,73.1667 227.5,70.5C 222.833,70.5 218.167,70.5 213.5,70.5C 213.5,73.1667 213.5,75.8333 213.5,78.5C 211.287,77.3947 209.12,77.3947 207,78.5C 206.308,77.9747 205.808,77.3081 205.5,76.5C 205.84,72.7355 206.34,68.4022 207,63.5C 207.561,62.9781 208.228,62.6448 209,62.5C 215.158,63.1081 221.325,63.7747 227.5,64.5C 228.833,65.8333 228.833,67.1667 227.5,68.5C 228.289,70.4879 229.455,70.8213 231,69.5C 234.411,70.2931 237.911,70.7931 241.5,71C 241.888,72.8082 241.888,74.4748 241.5,76C 246.155,76.4992 250.821,76.6658 255.5,76.5C 254.89,70.1379 257.557,68.1379 263.5,70.5C 263.773,73.1369 264.106,75.4702 264.5,77.5C 266.8,77.1321 268.967,77.1321 271,77.5C 271.811,84.4143 271.645,91.2476 270.5,98C 271,98.5 271.5,99 272,99.5C 273.583,99.507 275.249,99.1737 277,98.5C 277.5,99 278,99.5 278.5,100C 278.264,102.118 278.264,104.284 278.5,106.5 Z"/></g>
<g><path style="opacity:1" fill="#1e1e1e" d="M 256.5,81.5 C 257.721,80.9717 258.887,80.305 260,79.5C 260.167,79.8333 260.333,80.1667 260.5,80.5C 260.826,85.0458 260.826,90.0458 260.5,95.5C 258.692,95.4914 257.025,95.9914 255.5,97C 260.116,98.0765 263.449,100.743 265.5,105C 266.449,105.617 267.282,105.451 268,104.5C 269.654,107.232 272.154,108.565 275.5,108.5C 275.664,111.187 275.497,113.854 275,116.5C 274.667,116.167 274.333,115.833 274,115.5C 273.727,117.101 273.227,118.601 272.5,120C 273.833,120.667 275.167,121.333 276.5,122C 275.253,123.494 275.253,124.994 276.5,126.5C 276.06,125.047 276.726,123.881 278.5,123C 278.167,122.667 277.833,122.333 277.5,122C 280.259,121.023 282.259,121.856 283.5,124.5C 283.712,131.742 283.379,139.075 282.5,146.5C 280.224,147.213 277.891,147.713 275.5,148C 274.243,153.01 274.243,158.01 275.5,163C 276.46,164.419 277.293,165.919 278,167.5C 279.566,168.061 280.899,167.394 282,165.5C 282.333,166.167 282.667,166.833 283,167.5C 284.721,165.289 286.721,163.289 289,161.5C 289.317,163.301 289.984,163.634 291,162.5C 291.186,165.036 291.686,167.369 292.5,169.5C 290.167,170.167 287.833,170.833 285.5,171.5C 284.676,175.312 284.176,179.312 284,183.5C 281.959,184.423 279.792,184.756 277.5,184.5C 277.826,188.884 277.492,193.217 276.5,197.5C 274.827,199.086 272.827,199.753 270.5,199.5C 270.5,201.833 270.5,204.167 270.5,206.5C 269.778,206.082 269.278,205.416 269,204.5C 265.164,206.389 260.997,207.055 256.5,206.5C 255.167,208.833 255.167,211.167 256.5,213.5C 249.492,213.334 242.492,213.5 235.5,214C 234.577,216.041 234.244,218.208 234.5,220.5C 232.167,220.5 229.833,220.5 227.5,220.5C 227.5,222.833 227.5,225.167 227.5,227.5C 229.833,227.5 232.167,227.5 234.5,227.5C 234.5,229.833 234.5,232.167 234.5,234.5C 239.159,235.37 243.992,236.036 249,236.5C 252.484,235.667 255.984,235.501 259.5,236C 260.345,237.558 259.679,238.558 257.5,239C 257.833,239.333 258.167,239.667 258.5,240C 256.315,239.812 254.315,239.646 252.5,239.5C 251.476,240.853 250.143,241.52 248.5,241.5C 248.5,243.833 248.5,246.167 248.5,248.5C 239.499,248.472 230.666,247.472 222,245.5C 220.18,246.604 218.68,248.104 217.5,250C 218.747,251.494 218.747,252.994 217.5,254.5C 210.883,255.296 204.217,255.796 197.5,256C 197.5,257 197.5,258 197.5,259C 195.975,260.009 194.308,260.509 192.5,260.5C 192.714,258.856 192.38,257.356 191.5,256C 182.049,255.934 172.882,254.767 164,252.5C 163.667,252.833 163.333,253.167 163,253.5C 161.823,251.824 160.323,250.491 158.5,249.5C 155.31,245.65 154.977,241.65 157.5,237.5C 156.094,234.663 155.261,231.663 155,228.5C 153.925,230.83 152.425,232.163 150.5,232.5C 149.692,234.423 149.192,236.423 149,238.5C 148.744,235.443 148.244,232.443 147.5,229.5C 146.271,228.719 144.938,228.219 143.5,228C 148.399,226.014 148.399,224.514 143.5,223.5C 140.138,225.122 136.638,224.789 133,222.5C 129.797,223.99 128.631,226.323 129.5,229.5C 129.113,230.72 128.28,231.387 127,231.5C 124.295,230.047 123.462,228.047 124.5,225.5C 124.311,221.685 123.311,218.352 121.5,215.5C 121.672,214.508 121.338,213.842 120.5,213.5C 120.5,212.167 120.5,210.833 120.5,209.5C 116.37,209.751 112.37,209.751 108.5,209.5C 109.833,208.167 111.167,206.833 112.5,205.5C 111.691,203.929 111.357,202.262 111.5,200.5C 109.5,200.167 107.5,199.833 105.5,199.5C 105.5,196.833 105.5,194.167 105.5,191.5C 107.597,191.003 109.43,190.67 111,190.5C 111.5,184.175 111.666,177.842 111.5,171.5C 114.5,171.167 115.833,172.5 115.5,175.5C 116.833,175.5 118.167,175.5 119.5,175.5C 119.854,183.855 120.521,192.188 121.5,200.5C 123.147,202.568 124.981,203.568 127,203.5C 127.49,202.207 127.657,200.873 127.5,199.5C 127.5,197.167 127.5,194.833 127.5,192.5C 130.187,192.664 132.854,192.497 135.5,192C 135.742,189.928 135.409,187.761 134.5,185.5C 137.167,185.5 139.833,185.5 142.5,185.5C 142.5,180.833 142.5,176.167 142.5,171.5C 144.5,171.5 146.5,171.5 148.5,171.5C 148.5,176.167 148.5,180.833 148.5,185.5C 150.604,185.201 152.604,185.534 154.5,186.5C 155.439,190.765 155.772,195.098 155.5,199.5C 158.167,199.5 160.833,199.5 163.5,199.5C 163.5,197.167 163.5,194.833 163.5,192.5C 165.833,192.5 168.167,192.5 170.5,192.5C 170.5,187.833 170.5,183.167 170.5,178.5C 168.5,178.5 166.5,178.5 164.5,178.5C 164.795,180.735 164.461,182.735 163.5,184.5C 163.5,182.167 163.5,179.833 163.5,177.5C 169.5,178.833 171.833,176.5 170.5,170.5C 171.376,170.369 172.043,170.702 172.5,171.5C 171.626,173.747 171.292,176.08 171.5,178.5C 173.833,178.5 176.167,178.5 178.5,178.5C 176.762,172.073 179.095,169.406 185.5,170.5C 185.954,172.259 185.954,174.259 185.5,176.5C 184.701,179.43 184.368,182.43 184.5,185.5C 187.533,185.868 190.2,185.202 192.5,183.5C 192.5,183.833 192.5,184.167 192.5,184.5C 192.446,187.047 192.112,189.547 191.5,192C 194.146,192.497 196.813,192.664 199.5,192.5C 199.5,194.833 199.5,197.167 199.5,199.5C 204.167,199.5 208.833,199.5 213.5,199.5C 214.486,195.03 214.819,190.363 214.5,185.5C 216.833,185.5 219.167,185.5 221.5,185.5C 221.474,179.904 222.14,174.737 223.5,170C 223.387,168.72 222.72,167.887 221.5,167.5C 216.326,170.356 213.993,168.689 214.5,162.5C 212.167,162.5 209.833,162.5 207.5,162.5C 207.5,161.5 207.5,160.5 207.5,159.5C 208.833,159.5 210.167,159.5 211.5,159.5C 211.5,158.5 211.5,157.5 211.5,156.5C 212.167,156.5 212.833,156.5 213.5,156.5C 214.563,154.044 215.896,151.711 217.5,149.5C 220.833,149.5 224.167,149.5 227.5,149.5C 227.5,144.833 227.5,140.167 227.5,135.5C 226.209,135.737 225.209,135.404 224.5,134.5C 225.167,134.5 225.833,134.5 226.5,134.5C 229.167,134.5 231.833,134.5 234.5,134.5C 234.5,130.167 234.5,125.833 234.5,121.5C 230.5,121.5 226.5,121.5 222.5,121.5C 220.453,121.511 218.453,121.844 216.5,122.5C 215.287,122.253 214.62,121.586 214.5,120.5C 218.833,120.5 223.167,120.5 227.5,120.5C 227.5,118.167 227.5,115.833 227.5,113.5C 229.833,113.5 232.167,113.5 234.5,113.5C 234.5,106.5 234.5,99.5 234.5,92.5C 232.167,92.5 229.833,92.5 227.5,92.5C 227.5,90.1667 227.5,87.8333 227.5,85.5C 225.5,85.5 223.5,85.5 221.5,85.5C 221.5,82.8333 221.5,80.1667 221.5,77.5C 218.467,77.1315 215.8,77.7982 213.5,79.5C 213.5,79.1667 213.5,78.8333 213.5,78.5C 213.5,75.8333 213.5,73.1667 213.5,70.5C 218.167,70.5 222.833,70.5 227.5,70.5C 227.5,73.1667 227.5,75.8333 227.5,78.5C 232.099,78.8 236.599,78.4667 241,77.5C 241.497,80.146 241.664,82.8127 241.5,85.5C 246.5,85.5 251.5,85.5 256.5,85.5C 256.5,84.1667 256.5,82.8333 256.5,81.5 Z M 164.5,228.5 C 168.833,228.5 173.167,228.5 177.5,228.5C 177.5,232.833 177.5,237.167 177.5,241.5C 173.167,241.5 168.833,241.5 164.5,241.5C 164.5,237.167 164.5,232.833 164.5,228.5 Z"/></g>
<g><path style="opacity:1" fill="#1f1e26" d="M 278.5,106.5 C 279.167,106.5 279.833,106.5 280.5,106.5C 279.791,107.404 278.791,107.737 277.5,107.5C 277.5,111.833 277.5,116.167 277.5,120.5C 279.833,120.5 282.167,120.5 284.5,120.5C 284.19,117.287 284.523,114.287 285.5,111.5C 286.558,113.772 286.558,116.106 285.5,118.5C 285.64,120.03 286.307,121.03 287.5,121.5C 287.013,122.473 286.513,123.473 286,124.5C 285.5,132.493 285.334,140.493 285.5,148.5C 282.833,148.5 280.167,148.5 277.5,148.5C 277.5,153.5 277.5,158.5 277.5,163.5C 280.167,163.5 282.833,163.5 285.5,163.5C 285.5,161.167 285.5,158.833 285.5,156.5C 287.833,156.5 290.167,156.5 292.5,156.5C 292.5,160.833 292.5,165.167 292.5,169.5C 291.686,167.369 291.186,165.036 291,162.5C 289.984,163.634 289.317,163.301 289,161.5C 286.721,163.289 284.721,165.289 283,167.5C 282.667,166.833 282.333,166.167 282,165.5C 280.899,167.394 279.566,168.061 278,167.5C 277.293,165.919 276.46,164.419 275.5,163C 274.243,158.01 274.243,153.01 275.5,148C 277.891,147.713 280.224,147.213 282.5,146.5C 283.379,139.075 283.712,131.742 283.5,124.5C 282.259,121.856 280.259,121.023 277.5,122C 277.833,122.333 278.167,122.667 278.5,123C 276.726,123.881 276.06,125.047 276.5,126.5C 275.253,124.994 275.253,123.494 276.5,122C 275.167,121.333 273.833,120.667 272.5,120C 273.227,118.601 273.727,117.101 274,115.5C 274.333,115.833 274.667,116.167 275,116.5C 275.497,113.854 275.664,111.187 275.5,108.5C 272.154,108.565 269.654,107.232 268,104.5C 267.282,105.451 266.449,105.617 265.5,105C 263.449,100.743 260.116,98.0765 255.5,97C 257.025,95.9914 258.692,95.4914 260.5,95.5C 260.826,90.0458 260.826,85.0458 260.5,80.5C 260.333,80.1667 260.167,79.8333 260,79.5C 258.887,80.305 257.721,80.9717 256.5,81.5C 256.343,80.1266 256.51,78.7932 257,77.5C 259.041,78.4231 261.208,78.7564 263.5,78.5C 263.5,85.5 263.5,92.5 263.5,99.5C 265.833,99.5 268.167,99.5 270.5,99.5C 270.5,101.833 270.5,104.167 270.5,106.5C 273.339,106.969 276.005,106.969 278.5,106.5 Z"/></g>
<g><path style="opacity:1" fill="#514e63" d="M 214.5,120.5 C 213.307,120.03 212.64,119.03 212.5,117.5C 212.69,115.144 213.857,113.477 216,112.5C 221.259,114.046 222.759,112.213 220.5,107C 222.5,106.667 224.5,106.333 226.5,106C 226.957,105.586 227.291,105.086 227.5,104.5C 227.167,103.167 226.833,101.833 226.5,100.5C 224.929,99.6906 223.262,99.3573 221.5,99.5C 220.705,95.2147 220.372,90.8814 220.5,86.5C 214.244,86.9352 211.911,84.6019 213.5,79.5C 215.8,77.7982 218.467,77.1315 221.5,77.5C 221.5,80.1667 221.5,82.8333 221.5,85.5C 223.5,85.5 225.5,85.5 227.5,85.5C 227.5,87.8333 227.5,90.1667 227.5,92.5C 229.833,92.5 232.167,92.5 234.5,92.5C 234.5,99.5 234.5,106.5 234.5,113.5C 232.167,113.5 229.833,113.5 227.5,113.5C 227.5,115.833 227.5,118.167 227.5,120.5C 223.167,120.5 218.833,120.5 214.5,120.5 Z"/></g>
<g><path style="opacity:1" fill="#595669" d="M 127.5,134.5 C 125.5,134.5 123.5,134.5 121.5,134.5C 121.5,125.167 121.5,115.833 121.5,106.5C 125.182,106.665 128.848,106.499 132.5,106C 130.866,105.506 129.199,105.34 127.5,105.5C 127.5,101.167 127.5,96.8333 127.5,92.5C 129.833,92.5 132.167,92.5 134.5,92.5C 134.5,90.1667 134.5,87.8333 134.5,85.5C 130.649,84.9709 127.149,85.6375 124,87.5C 123.692,86.6919 123.192,86.0253 122.5,85.5C 121.526,87.7427 121.192,90.076 121.5,92.5C 118.661,92.9688 115.995,92.9688 113.5,92.5C 113.301,89.9887 112.968,87.822 112.5,86C 113.025,85.3076 113.692,84.8076 114.5,84.5C 116.451,85.2561 118.284,85.5894 120,85.5C 120.692,84.9747 121.192,84.3081 121.5,83.5C 121.413,81.2966 121.413,79.1299 121.5,77C 125.377,77.0069 129.377,76.8403 133.5,76.5C 133.338,74.4727 133.505,72.4727 134,70.5C 134.414,70.0426 134.914,69.7093 135.5,69.5C 142.327,69.4263 149.327,69.593 156.5,70C 157.833,72.6667 157.833,75.3333 156.5,78C 151.845,78.4992 147.179,78.6658 142.5,78.5C 142.666,85.5079 142.5,92.5079 142,99.5C 139.822,99.9355 137.322,100.436 134.5,101C 135.239,103.235 135.239,105.235 134.5,107C 132.527,107.495 130.527,107.662 128.5,107.5C 128.536,116.741 128.203,125.741 127.5,134.5 Z"/></g>
<g><path style="opacity:1" fill="#1e1e20" d="M 127.5,134.5 C 128.5,134.5 129.5,134.5 130.5,134.5C 129.791,135.404 128.791,135.737 127.5,135.5C 127.5,137.5 127.5,139.5 127.5,141.5C 129.833,141.5 132.167,141.5 134.5,141.5C 134.5,139.5 134.5,137.5 134.5,135.5C 133.209,135.737 132.209,135.404 131.5,134.5C 133.027,134.573 134.027,133.906 134.5,132.5C 136.456,134.148 138.789,134.815 141.5,134.5C 141.5,139.167 141.5,143.833 141.5,148.5C 143.833,148.5 146.167,148.5 148.5,148.5C 148.217,149.289 147.717,149.956 147,150.5C 145.627,150.596 144.127,150.43 142.5,150C 141.705,151.917 141.538,154.083 142,156.5C 141.014,157.171 139.847,157.171 138.5,156.5C 137.761,156.631 137.094,156.464 136.5,156C 137.793,155.51 139.127,155.343 140.5,155.5C 141.906,150.069 139.906,147.735 134.5,148.5C 134.232,151.119 134.565,153.619 135.5,156C 132.854,156.497 130.187,156.664 127.5,156.5C 127.5,160.833 127.5,165.167 127.5,169.5C 128.791,169.263 129.791,169.596 130.5,170.5C 129.5,170.5 128.5,170.5 127.5,170.5C 125.5,170.5 123.5,170.5 121.5,170.5C 121.5,180.167 121.5,189.833 121.5,199.5C 123.5,199.5 125.5,199.5 127.5,199.5C 127.657,200.873 127.49,202.207 127,203.5C 124.981,203.568 123.147,202.568 121.5,200.5C 120.521,192.188 119.854,183.855 119.5,175.5C 118.167,175.5 116.833,175.5 115.5,175.5C 115.833,172.5 114.5,171.167 111.5,171.5C 111.666,177.842 111.5,184.175 111,190.5C 109.43,190.67 107.597,191.003 105.5,191.5C 105.5,194.167 105.5,196.833 105.5,199.5C 107.5,199.833 109.5,200.167 111.5,200.5C 111.357,202.262 111.691,203.929 112.5,205.5C 111.167,206.833 109.833,208.167 108.5,209.5C 112.37,209.751 116.37,209.751 120.5,209.5C 120.5,210.833 120.5,212.167 120.5,213.5C 115.833,213.5 111.167,213.5 106.5,213.5C 106.5,211.167 106.5,208.833 106.5,206.5C 104.05,206.298 101.717,206.631 99.5,207.5C 98.4324,206.566 97.099,206.232 95.5,206.5C 94.5,206.5 93.5,206.5 92.5,206.5C 92.5,204.833 92.5,203.167 92.5,201.5C 92.5,200.167 91.8333,199.5 90.5,199.5C 92.4095,192.444 93.0762,185.111 92.5,177.5C 90.1667,177.5 87.8333,177.5 85.5,177.5C 85.5,175.167 85.5,172.833 85.5,170.5C 82.7212,170.279 80.0545,170.612 77.5,171.5C 76.0813,170.549 74.4147,170.216 72.5,170.5C 73.9187,169.549 75.5853,169.216 77.5,169.5C 77.5,167.5 77.5,165.5 77.5,163.5C 80.1667,163.5 82.8333,163.5 85.5,163.5C 85.5,156.167 85.5,148.833 85.5,141.5C 82.8127,141.664 80.146,141.497 77.5,141C 77.9863,138.973 77.9863,136.807 77.5,134.5C 80.1667,134.5 82.8333,134.5 85.5,134.5C 85.3718,129.901 85.0384,125.568 84.5,121.5C 84.5,120.833 84.8333,120.5 85.5,120.5C 87.6074,121.468 89.9407,121.802 92.5,121.5C 92.5,116.5 92.5,111.5 92.5,106.5C 94.8333,106.5 97.1667,106.5 99.5,106.5C 99.5,104.5 99.5,102.5 99.5,100.5C 96.7892,100.185 94.4559,100.852 92.5,102.5C 92.3433,101.127 92.51,99.7932 93,98.5C 95.0408,99.4231 97.2075,99.7564 99.5,99.5C 99.2625,96.7884 99.2625,94.2884 99.5,92C 104.08,92.3779 108.746,92.5446 113.5,92.5C 115.995,92.9688 118.661,92.9688 121.5,92.5C 121.192,90.076 121.526,87.7427 122.5,85.5C 123.192,86.0253 123.692,86.6919 124,87.5C 127.149,85.6375 130.649,84.9709 134.5,85.5C 134.5,87.8333 134.5,90.1667 134.5,92.5C 132.167,92.5 129.833,92.5 127.5,92.5C 127.5,96.8333 127.5,101.167 127.5,105.5C 129.199,105.34 130.866,105.506 132.5,106C 128.848,106.499 125.182,106.665 121.5,106.5C 121.5,115.833 121.5,125.167 121.5,134.5C 123.5,134.5 125.5,134.5 127.5,134.5 Z"/></g>
<g><path style="opacity:1" fill="#534f62" d="M 101.5,93.5 C 105.514,93.3345 109.514,93.5012 113.5,94C 113.146,95.6255 113.146,97.4588 113.5,99.5C 109.167,99.5 104.833,99.5 100.5,99.5C 100.325,97.3792 100.659,95.3792 101.5,93.5 Z"/></g>
<g><path style="opacity:1" fill="#4f4d5f" d="M 285.5,111.5 C 284.523,114.287 284.19,117.287 284.5,120.5C 282.167,120.5 279.833,120.5 277.5,120.5C 277.5,116.167 277.5,111.833 277.5,107.5C 278.791,107.737 279.791,107.404 280.5,106.5C 281.498,106.413 282.665,106.08 284,105.5C 285.562,107.504 286.062,109.504 285.5,111.5 Z"/></g>
<g><path style="opacity:1" fill="#524e61" d="M 85.5,120.5 C 84.6169,115.23 84.7835,110.23 86,105.5C 87.7261,106.576 89.5594,106.743 91.5,106C 91.6191,104.855 91.9524,103.688 92.5,102.5C 94.4559,100.852 96.7892,100.185 99.5,100.5C 99.5,102.5 99.5,104.5 99.5,106.5C 97.1667,106.5 94.8333,106.5 92.5,106.5C 92.5,111.5 92.5,116.5 92.5,121.5C 89.9407,121.802 87.6074,121.468 85.5,120.5 Z"/></g>
<g><path style="opacity:1" fill="#61596d" d="M 306.5,124.5 C 305.493,124.452 305.16,125.452 305.5,127.5C 303.833,127.5 302.167,127.5 300.5,127.5C 300.178,125.278 300.845,123.444 302.5,122C 301.423,121.53 300.423,121.697 299.5,122.5C 298.262,122.19 298.262,121.69 299.5,121C 301.657,120.922 303.657,120.755 305.5,120.5C 307.534,121.574 307.867,122.907 306.5,124.5 Z"/></g>
<g><path style="opacity:1" fill="#525064" d="M 291.5,184.5 C 289.5,184.5 287.5,184.5 285.5,184.5C 285.5,180.167 285.5,175.833 285.5,171.5C 287.833,170.833 290.167,170.167 292.5,169.5C 292.5,165.167 292.5,160.833 292.5,156.5C 290.167,156.5 287.833,156.5 285.5,156.5C 285.5,158.833 285.5,161.167 285.5,163.5C 282.833,163.5 280.167,163.5 277.5,163.5C 277.5,158.5 277.5,153.5 277.5,148.5C 280.167,148.5 282.833,148.5 285.5,148.5C 285.334,140.493 285.5,132.493 286,124.5C 286.513,123.473 287.013,122.473 287.5,121.5C 288.63,121.531 289.963,121.198 291.5,120.5C 292.308,120.808 292.975,121.308 293.5,122C 293.761,130.375 293.428,138.875 292.5,147.5C 292.833,148.5 293.5,149.167 294.5,149.5C 296.003,148.948 297.669,148.948 299.5,149.5C 299.5,156.5 299.5,163.5 299.5,170.5C 296.927,170.148 294.594,170.648 292.5,172C 292.957,172.414 293.291,172.914 293.5,173.5C 292.896,177.303 292.23,180.969 291.5,184.5 Z"/></g>
<g><path style="opacity:1" fill="#2a272d" d="M 306.5,124.5 C 306.711,127.722 307.044,130.889 307.5,134C 304.811,134.894 302.311,135.394 300,135.5C 299.598,134.128 299.098,132.795 298.5,131.5C 299.407,128.579 299.74,125.579 299.5,122.5C 300.423,121.697 301.423,121.53 302.5,122C 300.845,123.444 300.178,125.278 300.5,127.5C 302.167,127.5 303.833,127.5 305.5,127.5C 305.16,125.452 305.493,124.452 306.5,124.5 Z"/></g>
<g><path style="opacity:1" fill="#5f5c6e" d="M 222.5,121.5 C 226.5,121.5 230.5,121.5 234.5,121.5C 234.5,125.833 234.5,130.167 234.5,134.5C 231.833,134.5 229.167,134.5 226.5,134.5C 226.676,130.711 226.676,126.711 226.5,122.5C 224.901,122.768 223.568,122.434 222.5,121.5 Z"/></g>
<g><path style="opacity:1" fill="#52505f" d="M 131.5,134.5 C 132.209,135.404 133.209,135.737 134.5,135.5C 134.5,137.5 134.5,139.5 134.5,141.5C 132.167,141.5 129.833,141.5 127.5,141.5C 127.5,139.5 127.5,137.5 127.5,135.5C 128.791,135.737 129.791,135.404 130.5,134.5C 130.833,133.167 131.167,133.167 131.5,134.5 Z"/></g>
<g><path style="opacity:1" fill="#534f63" d="M 327.5,139.5 C 324.159,141.461 320.492,141.961 316.5,141C 315.033,139.902 314.199,138.402 314,136.5C 313.517,137.448 313.351,138.448 313.5,139.5C 311.823,135.805 313.156,133.805 317.5,133.5C 320.826,134.047 324.16,134.547 327.5,135C 327.736,136.451 327.736,137.951 327.5,139.5 Z"/></g>
<g><path style="opacity:1" fill="#524f64" d="M 84.5,121.5 C 85.0384,125.568 85.3718,129.901 85.5,134.5C 82.8333,134.5 80.1667,134.5 77.5,134.5C 77.9863,136.807 77.9863,138.973 77.5,141C 80.146,141.497 82.8127,141.664 85.5,141.5C 85.5,148.833 85.5,156.167 85.5,163.5C 82.8333,163.5 80.1667,163.5 77.5,163.5C 77.5,165.5 77.5,167.5 77.5,169.5C 75.5853,169.216 73.9187,169.549 72.5,170.5C 71.5029,171.713 70.5029,171.546 69.5,170C 70.8333,168 70.8333,166 69.5,164C 71.9375,162.994 74.4375,162.494 77,162.5C 76.726,155.869 76.5594,149.203 76.5,142.5C 73.3595,143.092 71.0261,142.092 69.5,139.5C 69.816,135.729 70.4826,131.729 71.5,127.5C 73.2781,127.431 75.1114,127.097 77,126.5C 77.7203,124.888 77.5536,123.388 76.5,122C 77,121.5 77.5,121 78,120.5C 80.1926,120.917 82.3592,121.251 84.5,121.5 Z"/></g>
<g><path style="opacity:1" fill="#4f4c5e" d="M 307.5,142.5 C 309.5,142.5 311.5,142.5 313.5,142.5C 313.5,146.833 313.5,151.167 313.5,155.5C 311.801,155.34 310.134,155.506 308.5,156C 309.448,156.483 310.448,156.649 311.5,156.5C 310.081,157.451 308.415,157.784 306.5,157.5C 306.179,152.305 306.513,147.305 307.5,142.5 Z"/></g>
<g><path style="opacity:1" fill="#514f67" d="M 334.5,141.5 C 334.5,146.167 334.5,150.833 334.5,155.5C 332.167,155.5 329.833,155.5 327.5,155.5C 327.5,151.167 327.5,146.833 327.5,142.5C 329.415,142.784 331.081,142.451 332.5,141.5C 333.396,140.494 334.062,140.494 334.5,141.5 Z"/></g>
<g><path style="opacity:1" fill="#524c60" d="M 148.5,148.5 C 146.167,148.5 143.833,148.5 141.5,148.5C 141.5,143.833 141.5,139.167 141.5,134.5C 138.789,134.815 136.456,134.148 134.5,132.5C 134.178,131.142 134.178,129.475 134.5,127.5C 136.833,127.5 139.167,127.5 141.5,127.5C 141.338,129.527 141.505,131.527 142,133.5C 144.042,133.818 146.209,133.985 148.5,134C 151.114,138.91 151.114,143.743 148.5,148.5 Z"/></g>
<g><path style="opacity:1" fill="#4e4b5e" d="M 224.5,134.5 C 225.209,135.404 226.209,135.737 227.5,135.5C 227.5,140.167 227.5,144.833 227.5,149.5C 224.167,149.5 220.833,149.5 217.5,149.5C 216.504,149.586 215.671,149.252 215,148.5C 214.505,146.527 214.338,144.527 214.5,142.5C 214.369,141.624 214.702,140.957 215.5,140.5C 217.098,141.485 218.765,141.651 220.5,141C 221.274,138.595 221.774,136.095 222,133.5C 222.951,133.884 223.784,134.217 224.5,134.5 Z"/></g>
<g><path style="opacity:1" fill="#363240" d="M 327.5,139.5 C 328.552,141.256 330.219,141.923 332.5,141.5C 331.081,142.451 329.415,142.784 327.5,142.5C 327.5,146.833 327.5,151.167 327.5,155.5C 329.833,155.5 332.167,155.5 334.5,155.5C 334.5,150.833 334.5,146.167 334.5,141.5C 335.487,146.305 335.821,151.305 335.5,156.5C 332.833,156.5 330.167,156.5 327.5,156.5C 327.357,158.262 327.691,159.929 328.5,161.5C 327.923,163.55 326.59,164.55 324.5,164.5C 324.082,163.778 323.416,163.278 322.5,163C 323.793,162.51 325.127,162.343 326.5,162.5C 326.5,160.5 326.5,158.5 326.5,156.5C 324.167,156.5 321.833,156.5 319.5,156.5C 322.225,155.611 324.559,154.611 326.5,153.5C 326.671,150.081 326.337,146.581 325.5,143C 321.909,142.211 318.409,142.378 315,143.5C 314.501,147.486 314.334,151.486 314.5,155.5C 316.099,155.232 317.432,155.566 318.5,156.5C 317.178,156.33 316.011,156.663 315,157.5C 314.505,159.473 314.338,161.473 314.5,163.5C 313.596,164.209 313.263,165.209 313.5,166.5C 312.833,163.167 312.167,159.833 311.5,156.5C 310.448,156.649 309.448,156.483 308.5,156C 310.134,155.506 311.801,155.34 313.5,155.5C 313.5,151.167 313.5,146.833 313.5,142.5C 311.5,142.5 309.5,142.5 307.5,142.5C 309.249,141.015 311.249,140.015 313.5,139.5C 313.351,138.448 313.517,137.448 314,136.5C 314.199,138.402 315.033,139.902 316.5,141C 320.492,141.961 324.159,141.461 327.5,139.5 Z"/></g>
<g><path style="opacity:1" fill="#1c1d1e" d="M 319.5,156.5 C 319.167,156.5 318.833,156.5 318.5,156.5C 317.432,155.566 316.099,155.232 314.5,155.5C 314.334,151.486 314.501,147.486 315,143.5C 318.409,142.378 321.909,142.211 325.5,143C 326.337,146.581 326.671,150.081 326.5,153.5C 324.559,154.611 322.225,155.611 319.5,156.5 Z"/></g>
<g><path style="opacity:1" fill="#565166" d="M 318.5,156.5 C 318.833,156.5 319.167,156.5 319.5,156.5C 321.833,156.5 324.167,156.5 326.5,156.5C 326.5,158.5 326.5,160.5 326.5,162.5C 325.127,162.343 323.793,162.51 322.5,163C 323.416,163.278 324.082,163.778 324.5,164.5C 323.5,164.5 322.5,164.5 321.5,164.5C 319.393,163.532 317.059,163.198 314.5,163.5C 314.338,161.473 314.505,159.473 315,157.5C 316.011,156.663 317.178,156.33 318.5,156.5 Z"/></g>
<g><path style="opacity:1" fill="#555164" d="M 138.5,156.5 C 137.282,157.161 135.949,157.828 134.5,158.5C 135.136,162.222 135.47,165.889 135.5,169.5C 134.833,169.5 134.5,169.833 134.5,170.5C 133.036,171.405 131.702,171.405 130.5,170.5C 129.791,169.596 128.791,169.263 127.5,169.5C 127.5,165.167 127.5,160.833 127.5,156.5C 130.187,156.664 132.854,156.497 135.5,156C 134.565,153.619 134.232,151.119 134.5,148.5C 139.906,147.735 141.906,150.069 140.5,155.5C 139.127,155.343 137.793,155.51 136.5,156C 137.094,156.464 137.761,156.631 138.5,156.5 Z"/></g>
<g><path style="opacity:1" fill="#3b3945" d="M 214.5,142.5 C 214.338,144.527 214.505,146.527 215,148.5C 215.671,149.252 216.504,149.586 217.5,149.5C 215.896,151.711 214.563,154.044 213.5,156.5C 213.5,154.5 213.5,152.5 213.5,150.5C 209.167,150.5 204.833,150.5 200.5,150.5C 200.5,154.5 200.5,158.5 200.5,162.5C 202.5,162.5 204.5,162.5 206.5,162.5C 206.5,160.5 206.5,158.5 206.5,156.5C 208.167,156.5 209.833,156.5 211.5,156.5C 211.5,157.5 211.5,158.5 211.5,159.5C 210.167,159.5 208.833,159.5 207.5,159.5C 207.5,160.5 207.5,161.5 207.5,162.5C 209.833,162.5 212.167,162.5 214.5,162.5C 213.993,168.689 216.326,170.356 221.5,167.5C 222.72,167.887 223.387,168.72 223.5,170C 222.14,174.737 221.474,179.904 221.5,185.5C 219.167,185.5 216.833,185.5 214.5,185.5C 214.819,190.363 214.486,195.03 213.5,199.5C 213.5,194.5 213.5,189.5 213.5,184.5C 215.833,184.5 218.167,184.5 220.5,184.5C 220.5,180.167 220.5,175.833 220.5,171.5C 218.5,171.5 216.5,171.5 214.5,171.5C 214.737,172.791 214.404,173.791 213.5,174.5C 213.5,173.167 213.5,171.833 213.5,170.5C 212.167,170.5 210.833,170.5 209.5,170.5C 209.899,169.479 211.233,169.146 213.5,169.5C 213.5,167.5 213.5,165.5 213.5,163.5C 210.833,163.5 208.167,163.5 205.5,163.5C 203.54,164.138 201.707,164.138 200,163.5C 198.497,158.84 198.331,154.173 199.5,149.5C 204.12,148.507 208.786,148.173 213.5,148.5C 213.579,147.07 213.246,145.736 212.5,144.5C 212.855,143.478 213.522,142.811 214.5,142.5 Z"/></g>
<g><path style="opacity:1" fill="#534e65" d="M 213.5,156.5 C 212.833,156.5 212.167,156.5 211.5,156.5C 209.833,156.5 208.167,156.5 206.5,156.5C 206.5,158.5 206.5,160.5 206.5,162.5C 204.5,162.5 202.5,162.5 200.5,162.5C 200.5,158.5 200.5,154.5 200.5,150.5C 204.833,150.5 209.167,150.5 213.5,150.5C 213.5,152.5 213.5,154.5 213.5,156.5 Z"/></g>
<g><path style="opacity:1" fill="#504d60" d="M 205.5,163.5 C 208.167,163.5 210.833,163.5 213.5,163.5C 213.5,165.5 213.5,167.5 213.5,169.5C 211.233,169.146 209.899,169.479 209.5,170.5C 208.791,171.404 207.791,171.737 206.5,171.5C 206.721,168.721 206.388,166.054 205.5,163.5 Z"/></g>
<g><path style="opacity:1" fill="#262426" d="M 314.5,163.5 C 317.059,163.198 319.393,163.532 321.5,164.5C 323.272,167.817 322.439,170.15 319,171.5C 317.171,170.534 315.338,170.367 313.5,171C 313.034,169.701 313.034,168.201 313.5,166.5C 313.263,165.209 313.596,164.209 314.5,163.5 Z"/></g>
<g><path style="opacity:1" fill="#454053" d="M 185.5,170.5 C 179.095,169.406 176.762,172.073 178.5,178.5C 176.167,178.5 173.833,178.5 171.5,178.5C 171.292,176.08 171.626,173.747 172.5,171.5C 172.043,170.702 171.376,170.369 170.5,170.5C 172.566,170.195 174.733,169.861 177,169.5C 177.743,167.559 177.576,165.726 176.5,164C 177,163.5 177.5,163 178,162.5C 180.476,162.768 182.976,163.102 185.5,163.5C 186.822,165.865 186.822,168.198 185.5,170.5 Z"/></g>
<g><path style="opacity:1" fill="#4b485b" d="M 163.5,184.5 C 164.461,182.735 164.795,180.735 164.5,178.5C 166.5,178.5 168.5,178.5 170.5,178.5C 170.5,183.167 170.5,187.833 170.5,192.5C 168.167,192.5 165.833,192.5 163.5,192.5C 163.5,194.833 163.5,197.167 163.5,199.5C 160.833,199.5 158.167,199.5 155.5,199.5C 155.772,195.098 155.439,190.765 154.5,186.5C 152.604,185.534 150.604,185.201 148.5,185.5C 148.5,180.833 148.5,176.167 148.5,171.5C 146.5,171.5 144.5,171.5 142.5,171.5C 142.5,176.167 142.5,180.833 142.5,185.5C 139.833,185.5 137.167,185.5 134.5,185.5C 135.409,187.761 135.742,189.928 135.5,192C 132.854,192.497 130.187,192.664 127.5,192.5C 127.5,194.833 127.5,197.167 127.5,199.5C 125.5,199.5 123.5,199.5 121.5,199.5C 121.5,189.833 121.5,180.167 121.5,170.5C 123.5,170.5 125.5,170.5 127.5,170.5C 127.334,175.511 127.501,180.511 128,185.5C 130.069,184.736 132.236,184.236 134.5,184C 134.304,179.548 134.304,175.048 134.5,170.5C 135.167,170.5 135.5,170.167 135.5,169.5C 137.379,170.341 139.379,170.675 141.5,170.5C 141.336,167.813 141.503,165.146 142,162.5C 144.186,163.022 146.519,163.022 149,162.5C 149.5,163 150,163.5 150.5,164C 150.333,165.833 150.167,167.667 150,169.5C 152.577,169.26 155.077,169.76 157.5,171C 156.872,175.229 156.539,179.729 156.5,184.5C 158.833,184.5 161.167,184.5 163.5,184.5 Z M 127.5,170.5 C 128.5,170.5 129.5,170.5 130.5,170.5C 131.702,171.405 133.036,171.405 134.5,170.5C 134.304,175.048 134.304,179.548 134.5,184C 132.236,184.236 130.069,184.736 128,185.5C 127.501,180.511 127.334,175.511 127.5,170.5 Z"/></g>
<g><path style="opacity:1" fill="#524e62" d="M 63.5,173.5 C 62.5655,174.568 62.2322,175.901 62.5,177.5C 58.0597,177.943 53.7264,177.943 49.5,177.5C 49.3244,175.009 49.3244,172.509 49.5,170C 53.8333,169.333 58.1667,169.333 62.5,170C 63.1667,171 63.8333,172 64.5,173C 64.2716,173.399 63.9382,173.565 63.5,173.5 Z"/></g>
<g><path style="opacity:1" fill="#4c4959" d="M 46.5,177.5 C 47.209,178.404 48.209,178.737 49.5,178.5C 49.5,182.833 49.5,187.167 49.5,191.5C 48.209,191.263 47.209,191.596 46.5,192.5C 45.0057,193.399 43.5057,193.065 42,191.5C 41.3333,187.167 41.3333,182.833 42,178.5C 43.5141,176.777 45.0141,176.444 46.5,177.5 Z"/></g>
<g><path style="opacity:1" fill="#575568" d="M 70.5,192.5 C 70.5,192.833 70.5,193.167 70.5,193.5C 68.2919,193.701 65.9586,193.367 63.5,192.5C 62.9735,187.193 63.6402,182.193 65.5,177.5C 66.1847,176.846 67.1847,176.846 68.5,177.5C 69.91,177.868 70.91,178.701 71.5,180C 71.6841,184.321 71.3507,188.488 70.5,192.5 Z"/></g>
<g><path style="opacity:1" fill="#1e1d22" d="M 63.5,173.5 C 63.1568,175.483 63.8235,176.817 65.5,177.5C 63.6402,182.193 62.9735,187.193 63.5,192.5C 63.5,194.167 63.5,195.833 63.5,197.5C 62.5489,196.081 62.2155,194.415 62.5,192.5C 57.8333,192.5 53.1667,192.5 48.5,192.5C 47.8333,192.5 47.1667,192.5 46.5,192.5C 47.209,191.596 48.209,191.263 49.5,191.5C 49.5,187.167 49.5,182.833 49.5,178.5C 48.209,178.737 47.209,178.404 46.5,177.5C 47.5,177.5 48.5,177.5 49.5,177.5C 53.7264,177.943 58.0597,177.943 62.5,177.5C 62.2322,175.901 62.5655,174.568 63.5,173.5 Z"/></g>
<g><path style="opacity:1" fill="#4f4c5b" d="M 185.5,176.5 C 187.46,177.448 189.46,177.614 191.5,177C 192.167,177.667 192.833,178.333 193.5,179C 193.088,180.564 192.755,182.064 192.5,183.5C 190.2,185.202 187.533,185.868 184.5,185.5C 184.368,182.43 184.701,179.43 185.5,176.5 Z"/></g>
<g><path style="opacity:1" fill="#555266" d="M 90.5,199.5 C 89.3115,200.048 88.1448,200.381 87,200.5C 87.2626,205.717 85.0959,207.717 80.5,206.5C 80.5476,205.493 79.5476,205.16 77.5,205.5C 77.5,203.5 77.5,201.5 77.5,199.5C 80.1194,199.768 82.6194,199.435 85,198.5C 84.6419,195.966 84.4752,193.633 84.5,191.5C 85.0715,190.027 85.0715,188.36 84.5,186.5C 81.9208,186.917 79.7542,186.25 78,184.5C 77.7181,180.961 77.2181,177.461 76.5,174C 76.7432,173.098 77.0766,172.265 77.5,171.5C 80.0545,170.612 82.7212,170.279 85.5,170.5C 85.5,172.833 85.5,175.167 85.5,177.5C 87.8333,177.5 90.1667,177.5 92.5,177.5C 93.0762,185.111 92.4095,192.444 90.5,199.5 Z"/></g>
<g><path style="opacity:1" fill="#5e5b6b" d="M 321.5,194.5 C 321.649,193.448 321.483,192.448 321,191.5C 316.167,192.808 311.334,192.808 306.5,191.5C 306.062,191.565 305.728,191.399 305.5,191C 306.167,189 306.833,187 307.5,185C 312.167,184.333 316.833,184.333 321.5,185C 322.818,188.269 322.818,191.435 321.5,194.5 Z"/></g>
<g><path style="opacity:1" fill="#535165" d="M 213.5,199.5 C 208.833,199.5 204.167,199.5 199.5,199.5C 199.5,197.167 199.5,194.833 199.5,192.5C 196.813,192.664 194.146,192.497 191.5,192C 192.112,189.547 192.446,187.047 192.5,184.5C 196.683,184.73 201.016,184.73 205.5,184.5C 205.699,182.04 206.365,179.707 207.5,177.5C 209.021,177.12 210.687,176.954 212.5,177C 212.884,176.049 213.217,175.216 213.5,174.5C 214.404,173.791 214.737,172.791 214.5,171.5C 216.5,171.5 218.5,171.5 220.5,171.5C 220.5,175.833 220.5,180.167 220.5,184.5C 218.167,184.5 215.833,184.5 213.5,184.5C 213.5,189.5 213.5,194.5 213.5,199.5 Z"/></g>
<g><path style="opacity:1" fill="#4b485c" d="M 48.5,192.5 C 53.1667,192.5 57.8333,192.5 62.5,192.5C 62.2155,194.415 62.5489,196.081 63.5,197.5C 64.7383,197.81 64.7383,198.31 63.5,199C 58.8452,199.499 54.1785,199.666 49.5,199.5C 49.702,197.05 49.3686,194.717 48.5,192.5 Z"/></g>
<g><path style="opacity:1" fill="#1d1c1e" d="M 84.5,191.5 C 84.4752,193.633 84.6419,195.966 85,198.5C 82.6194,199.435 80.1194,199.768 77.5,199.5C 77.5,201.5 77.5,203.5 77.5,205.5C 79.5476,205.16 80.5476,205.493 80.5,206.5C 76.9682,207.083 73.3015,206.917 69.5,206C 70.0453,201.784 70.3786,197.617 70.5,193.5C 70.5,193.167 70.5,192.833 70.5,192.5C 75.8977,192.476 80.5643,192.142 84.5,191.5 Z"/></g>
<g><path style="opacity:1" fill="#f9faf9" d="M 90.5,199.5 C 91.8333,199.5 92.5,200.167 92.5,201.5C 91.5,201.167 90.8333,200.5 90.5,199.5 Z"/></g>
<g><path style="opacity:1" fill="#524e60" d="M 93.5,199.5 C 95.5,199.5 97.5,199.5 99.5,199.5C 99.5,201.5 99.5,203.5 99.5,205.5C 94.5,206.5 92.5,204.5 93.5,199.5 Z"/></g>
<g><path style="opacity:1" fill="#534f60" d="M 299.5,200.5 C 301.833,200.5 304.167,200.5 306.5,200.5C 306.5,202.167 306.5,203.833 306.5,205.5C 303.812,205.834 301.479,205.168 299.5,203.5C 298.167,202.5 298.167,201.5 299.5,200.5 Z"/></g>
<g><path style="opacity:1" fill="#222128" d="M 306.5,191.5 C 311.334,192.808 316.167,192.808 321,191.5C 321.483,192.448 321.649,193.448 321.5,194.5C 322.833,195.833 322.833,197.167 321.5,198.5C 319.052,199.473 316.385,199.806 313.5,199.5C 313.185,202.211 313.852,204.544 315.5,206.5C 314.504,206.414 313.671,206.748 313,207.5C 308.251,206.695 303.418,206.195 298.5,206C 299.252,205.329 299.586,204.496 299.5,203.5C 301.479,205.168 303.812,205.834 306.5,205.5C 306.5,203.833 306.5,202.167 306.5,200.5C 304.167,200.5 301.833,200.5 299.5,200.5C 299.62,199.414 300.287,198.747 301.5,198.5C 303.135,199.046 304.801,199.38 306.5,199.5C 306.5,196.833 306.5,194.167 306.5,191.5 Z"/></g>
<g><path style="opacity:1" fill="#33313f" d="M 285.5,171.5 C 285.5,175.833 285.5,180.167 285.5,184.5C 287.5,184.5 289.5,184.5 291.5,184.5C 290.828,185.267 289.995,185.934 289,186.5C 287.989,185.663 286.822,185.33 285.5,185.5C 285.5,190.167 285.5,194.833 285.5,199.5C 282.833,199.5 280.167,199.5 277.5,199.5C 277.5,201.833 277.5,204.167 277.5,206.5C 275.167,206.5 272.833,206.5 270.5,206.5C 270.5,204.167 270.5,201.833 270.5,199.5C 272.827,199.753 274.827,199.086 276.5,197.5C 277.492,193.217 277.826,188.884 277.5,184.5C 279.792,184.756 281.959,184.423 284,183.5C 284.176,179.312 284.676,175.312 285.5,171.5 Z"/></g>
<g><path style="opacity:1" fill="#525064" d="M 278.5,185.5 C 280.5,185.5 282.5,185.5 284.5,185.5C 284.5,189.833 284.5,194.167 284.5,198.5C 282.533,198.739 280.699,198.406 279,197.5C 278.501,193.514 278.334,189.514 278.5,185.5 Z"/></g>
<g><path style="opacity:1" fill="#5d5969" d="M 321.5,198.5 C 322.473,200.948 322.806,203.615 322.5,206.5C 319.995,207.417 317.662,207.417 315.5,206.5C 313.852,204.544 313.185,202.211 313.5,199.5C 316.385,199.806 319.052,199.473 321.5,198.5 Z"/></g>
<g><path style="opacity:1" fill="#f0f0f0" d="M 95.5,206.5 C 97.099,206.232 98.4324,206.566 99.5,207.5C 99.5,208.167 99.5,208.833 99.5,209.5C 98.2597,208.341 96.9264,207.341 95.5,206.5 Z"/></g>
<g><path style="opacity:1" fill="#4e4d60" d="M 270.5,206.5 C 270.151,208.891 270.484,211.058 271.5,213C 267.911,213.207 264.411,213.707 261,214.5C 259.365,213.151 257.865,213.318 256.5,215C 256.833,215.333 257.167,215.667 257.5,216C 256.833,217.667 256.167,219.333 255.5,221C 250.81,221.503 246.143,222.17 241.5,223C 242.833,224 242.833,225 241.5,226C 249.08,227.347 256.413,227.847 263.5,227.5C 263.5,229.833 263.5,232.167 263.5,234.5C 253.833,234.5 244.167,234.5 234.5,234.5C 234.5,232.167 234.5,229.833 234.5,227.5C 232.167,227.5 229.833,227.5 227.5,227.5C 227.5,225.167 227.5,222.833 227.5,220.5C 229.833,220.5 232.167,220.5 234.5,220.5C 234.244,218.208 234.577,216.041 235.5,214C 242.492,213.5 249.492,213.334 256.5,213.5C 255.167,211.167 255.167,208.833 256.5,206.5C 260.997,207.055 265.164,206.389 269,204.5C 269.278,205.416 269.778,206.082 270.5,206.5 Z"/></g>
<g><path style="opacity:1" fill="#504d62" d="M 120.5,213.5 C 121.338,213.842 121.672,214.508 121.5,215.5C 121.713,222.211 121.38,228.877 120.5,235.5C 117.746,235.216 115.08,234.549 112.5,233.5C 112.833,232.167 113.167,230.833 113.5,229.5C 110.938,228.359 108.272,227.526 105.5,227C 105.665,225.883 105.998,224.716 106.5,223.5C 104.563,221.784 102.563,221.451 100.5,222.5C 100.5,221.833 100.167,221.5 99.5,221.5C 99.5,217.5 99.5,213.5 99.5,209.5C 99.5,208.833 99.5,208.167 99.5,207.5C 101.717,206.631 104.05,206.298 106.5,206.5C 106.5,208.833 106.5,211.167 106.5,213.5C 111.167,213.5 115.833,213.5 120.5,213.5 Z"/></g>
<g><path style="opacity:1" fill="#595567" d="M 85.5,224.5 C 84.596,225.209 84.2627,226.209 84.5,227.5C 79.5,227.5 74.5,227.5 69.5,227.5C 70.7525,225.661 70.7525,223.828 69.5,222C 70,221.5 70.5,221 71,220.5C 75.4684,220.545 79.9684,220.545 84.5,220.5C 86.1887,221.775 86.522,223.108 85.5,224.5 Z"/></g>
<g><path style="opacity:1" fill="#1c1b1d" d="M 99.5,221.5 C 100.167,221.5 100.5,221.833 100.5,222.5C 99.6993,224.042 99.366,225.708 99.5,227.5C 97.3792,227.325 95.3792,227.659 93.5,228.5C 93.5,227.833 93.1667,227.5 92.5,227.5C 92.5,227.167 92.5,226.833 92.5,226.5C 91.5836,220.768 93.9169,219.101 99.5,221.5 Z"/></g>
<g><path style="opacity:1" fill="#515060" d="M 227.5,227.5 C 227.5,229.833 227.5,232.167 227.5,234.5C 225.5,234.5 223.5,234.5 221.5,234.5C 221.5,232.167 221.5,229.833 221.5,227.5C 223.5,227.5 225.5,227.5 227.5,227.5 Z"/></g>
<g><path style="opacity:1" fill="#2d2a34" d="M 85.5,224.5 C 85.4614,225.756 85.9614,226.756 87,227.5C 88.5695,227.33 90.4028,226.997 92.5,226.5C 92.5,226.833 92.5,227.167 92.5,227.5C 93.1667,227.5 93.5,227.833 93.5,228.5C 92.7635,230.663 92.4301,232.996 92.5,235.5C 91.8897,237.85 91.5563,237.517 91.5,234.5C 89.5,234.5 87.5,234.5 85.5,234.5C 85.5,236.5 85.5,238.5 85.5,240.5C 87.4147,240.216 89.0813,240.549 90.5,241.5C 88.5,241.5 86.5,241.5 84.5,241.5C 84.2575,236.832 84.9242,232.666 86.5,229C 83.805,228.746 81.305,228.579 79,228.5C 74.7044,228.795 72.3711,231.129 72,235.5C 71.2208,232.903 70.7208,232.903 70.5,235.5C 68.283,234.631 65.9496,234.298 63.5,234.5C 63.3367,232.143 63.5034,229.81 64,227.5C 65.7067,226.862 67.54,226.862 69.5,227.5C 74.5,227.5 79.5,227.5 84.5,227.5C 84.2627,226.209 84.596,225.209 85.5,224.5 Z"/></g>
<g><path style="opacity:1" fill="#232228" d="M 270.5,227.5 C 270.5,229.833 270.5,232.167 270.5,234.5C 268.167,234.5 265.833,234.5 263.5,234.5C 263.5,232.167 263.5,229.833 263.5,227.5C 265.963,226.377 268.296,226.377 270.5,227.5 Z"/></g>
<g><path style="opacity:1" fill="#545266" d="M 122.5,249.5 C 121.761,249.631 121.094,249.464 120.5,249C 120.984,244.392 120.984,239.892 120.5,235.5C 121.967,238.258 122.633,237.925 122.5,234.5C 124.167,234.5 125.833,234.5 127.5,234.5C 127.5,239.167 127.5,243.833 127.5,248.5C 125.585,248.216 123.919,248.549 122.5,249.5 Z"/></g>
<g><path style="opacity:1" fill="#4d4759" d="M 263.5,243.5 C 263.577,242.25 264.244,241.417 265.5,241C 263.75,239.246 263.083,237.079 263.5,234.5C 265.833,234.5 268.167,234.5 270.5,234.5C 270.5,232.167 270.5,229.833 270.5,227.5C 272.641,227.251 274.807,226.917 277,226.5C 277.692,227.025 278.192,227.692 278.5,228.5C 278.537,230.322 278.204,232.322 277.5,234.5C 275.473,234.338 273.473,234.505 271.5,235C 270.761,236.765 270.761,238.765 271.5,241C 268.983,241.374 266.316,242.208 263.5,243.5 Z"/></g>
<g><path style="opacity:1" fill="#181a1a" d="M 84.5,241.5 C 80.1426,241.599 75.4759,241.599 70.5,241.5C 70.5,239.5 70.5,237.5 70.5,235.5C 70.7208,232.903 71.2208,232.903 72,235.5C 72.3711,231.129 74.7044,228.795 79,228.5C 81.305,228.579 83.805,228.746 86.5,229C 84.9242,232.666 84.2575,236.832 84.5,241.5 Z"/></g>
<g><path style="opacity:1" fill="#565363" d="M 92.5,235.5 C 93.5983,236.601 93.765,237.934 93,239.5C 92.5831,240.756 91.7498,241.423 90.5,241.5C 89.0813,240.549 87.4147,240.216 85.5,240.5C 85.5,238.5 85.5,236.5 85.5,234.5C 87.5,234.5 89.5,234.5 91.5,234.5C 91.5563,237.517 91.8897,237.85 92.5,235.5 Z"/></g>
<g><path style="opacity:1" fill="#121114" d="M 105.5,233.5 C 106.473,235.948 106.806,238.615 106.5,241.5C 103.813,241.664 101.146,241.497 98.5,241C 98.7451,238.911 98.7451,236.911 98.5,235C 101.036,234.814 103.369,234.314 105.5,233.5 Z"/></g>
<g><path style="opacity:1" fill="#1e1e22" d="M 121.5,215.5 C 123.311,218.352 124.311,221.685 124.5,225.5C 123.462,228.047 124.295,230.047 127,231.5C 128.28,231.387 129.113,230.72 129.5,229.5C 128.631,226.323 129.797,223.99 133,222.5C 136.638,224.789 140.138,225.122 143.5,223.5C 148.399,224.514 148.399,226.014 143.5,228C 144.938,228.219 146.271,228.719 147.5,229.5C 148.244,232.443 148.744,235.443 149,238.5C 149.192,236.423 149.692,234.423 150.5,232.5C 152.425,232.163 153.925,230.83 155,228.5C 155.261,231.663 156.094,234.663 157.5,237.5C 154.977,241.65 155.31,245.65 158.5,249.5C 160.323,250.491 161.823,251.824 163,253.5C 163.333,253.167 163.667,252.833 164,252.5C 172.882,254.767 182.049,255.934 191.5,256C 192.38,257.356 192.714,258.856 192.5,260.5C 194.308,260.509 195.975,260.009 197.5,259C 197.5,258 197.5,257 197.5,256C 204.217,255.796 210.883,255.296 217.5,254.5C 218.747,252.994 218.747,251.494 217.5,250C 218.68,248.104 220.18,246.604 222,245.5C 230.666,247.472 239.499,248.472 248.5,248.5C 248.5,246.167 248.5,243.833 248.5,241.5C 250.143,241.52 251.476,240.853 252.5,239.5C 254.315,239.646 256.315,239.812 258.5,240C 258.167,239.667 257.833,239.333 257.5,239C 259.679,238.558 260.345,237.558 259.5,236C 255.984,235.501 252.484,235.667 249,236.5C 243.992,236.036 239.159,235.37 234.5,234.5C 244.167,234.5 253.833,234.5 263.5,234.5C 263.083,237.079 263.75,239.246 265.5,241C 264.244,241.417 263.577,242.25 263.5,243.5C 263.5,245.5 263.5,247.5 263.5,249.5C 261.167,249.5 258.833,249.5 256.5,249.5C 258.265,248.539 260.265,248.205 262.5,248.5C 262.5,246.5 262.5,244.5 262.5,242.5C 258.167,242.5 253.833,242.5 249.5,242.5C 249.5,244.5 249.5,246.5 249.5,248.5C 252.925,248.367 253.258,249.033 250.5,250.5C 249.833,250.5 249.5,250.833 249.5,251.5C 240.43,249.569 231.097,248.903 221.5,249.5C 221.5,251.833 221.5,254.167 221.5,256.5C 214.167,256.5 206.833,256.5 199.5,256.5C 199.5,258.833 199.5,261.167 199.5,263.5C 182.331,262.895 165.331,263.562 148.5,265.5C 148.5,265.167 148.5,264.833 148.5,264.5C 149.833,264.167 149.833,263.833 148.5,263.5C 148.5,261.167 148.5,258.833 148.5,256.5C 143.833,256.5 139.167,256.5 134.5,256.5C 134.5,254.167 134.5,251.833 134.5,249.5C 131.5,249.5 128.5,249.5 125.5,249.5C 124.5,249.5 123.5,249.5 122.5,249.5C 123.919,248.549 125.585,248.216 127.5,248.5C 127.5,243.833 127.5,239.167 127.5,234.5C 125.833,234.5 124.167,234.5 122.5,234.5C 122.633,237.925 121.967,238.258 120.5,235.5C 121.38,228.877 121.713,222.211 121.5,215.5 Z M 138.5,227.5 C 139.5,227.5 140.5,227.5 141.5,227.5C 141.5,232.167 141.5,236.833 141.5,241.5C 139.5,241.5 137.5,241.5 135.5,241.5C 135.5,237.167 135.5,232.833 135.5,228.5C 136.791,228.737 137.791,228.404 138.5,227.5 Z"/></g>
<g><path style="opacity:1" fill="#585268" d="M 256.5,249.5 C 254.621,250.341 252.621,250.675 250.5,250.5C 253.258,249.033 252.925,248.367 249.5,248.5C 249.5,246.5 249.5,244.5 249.5,242.5C 253.833,242.5 258.167,242.5 262.5,242.5C 262.5,244.5 262.5,246.5 262.5,248.5C 260.265,248.205 258.265,248.539 256.5,249.5 Z"/></g>
<g><path style="opacity:1" fill="#575567" d="M 125.5,249.5 C 128.5,249.5 131.5,249.5 134.5,249.5C 134.5,251.833 134.5,254.167 134.5,256.5C 139.167,256.5 143.833,256.5 148.5,256.5C 148.5,258.833 148.5,261.167 148.5,263.5C 148.5,263.833 148.5,264.167 148.5,264.5C 144.039,264.223 139.706,264.056 135.5,264C 134.004,261.799 133.004,259.299 132.5,256.5C 130.997,257.052 129.331,257.052 127.5,256.5C 127.815,253.789 127.148,251.456 125.5,249.5 Z"/></g>
<g><path style="opacity:1" fill="#5b5a6c" d="M 249.5,251.5 C 251.118,253.521 250.618,255.521 248,257.5C 241.582,256.357 235.082,256.19 228.5,257C 228.579,258.907 228.246,260.907 227.5,263C 220.908,264.329 214.241,264.829 207.5,264.5C 207.852,267.073 207.352,269.406 206,271.5C 188.069,271.461 169.569,271.295 150.5,271C 149.833,270.667 149.167,270.333 148.5,270C 149.413,268.586 149.413,267.086 148.5,265.5C 165.331,263.562 182.331,262.895 199.5,263.5C 199.5,261.167 199.5,258.833 199.5,256.5C 206.833,256.5 214.167,256.5 221.5,256.5C 221.5,254.167 221.5,251.833 221.5,249.5C 231.097,248.903 240.43,249.569 249.5,251.5 Z"/></g>
<g><path style="opacity:1" fill="#282526" d="M 306.5,269.5 C 309.065,269.593 311.565,269.927 314,270.5C 313.458,273.948 313.625,277.448 314.5,281C 314.577,283.051 314.077,284.884 313,286.5C 308.454,285.435 304.121,285.435 300,286.5C 299.5,286 299,285.5 298.5,285C 298.673,282.74 298.673,280.407 298.5,278C 300.962,276.784 303.629,276.118 306.5,276C 305.377,274.125 305.377,271.958 306.5,269.5 Z"/></g>
<g><path style="opacity:1" fill="#212022" d="M 141.5,291.5 C 144.276,292.114 146.943,292.281 149.5,292C 150.343,294.117 150.677,296.45 150.5,299C 147.45,300.601 144.116,300.601 140.5,299C 141.073,296.565 141.407,294.065 141.5,291.5 Z"/></g>
</svg>
