<?xml version="1.0" encoding="UTF-8"?>
<!DOCTYPE svg PUBLIC "-//W3C//DTD SVG 1.1//EN" "http://www.w3.org/Graphics/SVG/1.1/DTD/svg11.dtd">
<svg xmlns="http://www.w3.org/2000/svg" version="1.1" width="1024px" height="1024px" style="shape-rendering:geometricPrecision; text-rendering:geometricPrecision; image-rendering:optimizeQuality; fill-rule:evenodd; clip-rule:evenodd" xmlns:xlink="http://www.w3.org/1999/xlink">
<g><path style="opacity:1" fill="#959695" d="M 409.5,138.5 C 411.76,139.238 411.927,140.238 410,141.5C 408.272,140.648 408.105,139.648 409.5,138.5 Z"/></g>
<g><path style="opacity:1" fill="#696a69" d="M 411.5,153.5 C 413.76,154.238 413.927,155.238 412,156.5C 410.272,155.648 410.105,154.648 411.5,153.5 Z"/></g>
<g><path style="opacity:1" fill="#696a69" d="M 414.5,176.5 C 416.76,177.238 416.927,178.238 415,179.5C 413.272,178.648 413.105,177.648 414.5,176.5 Z"/></g>
<g><path style="opacity:1" fill="#000000" d="M 398.5,185.5 C 397.243,186.623 397.576,187.289 399.5,187.5C 399.5,189.167 399.5,190.833 399.5,192.5C 398.243,193.623 398.576,194.289 400.5,194.5C 400.942,198.154 401.276,201.821 401.5,205.5C 400.243,206.623 400.576,207.289 402.5,207.5C 402.5,209.167 402.5,210.833 402.5,212.5C 401.243,213.623 401.576,214.289 403.5,214.5C 403.5,216.167 403.5,217.833 403.5,219.5C 402.243,220.623 402.576,221.289 404.5,221.5C 404.5,223.167 404.5,224.833 404.5,226.5C 403.243,227.623 403.576,228.289 405.5,228.5C 405.215,230.288 405.548,231.955 406.5,233.5C 411.413,235.792 416.413,237.792 421.5,239.5C 424.665,241.624 428.165,243.291 432,244.5C 432.399,244.272 432.565,243.938 432.5,243.5C 433.167,243.5 433.833,243.5 434.5,243.5C 435.736,245.043 437.402,246.043 439.5,246.5C 440.107,246.376 440.44,246.043 440.5,245.5C 442.167,246.167 443.833,246.833 445.5,247.5C 447.395,249.098 449.562,250.432 452,251.5C 452.399,251.272 452.565,250.938 452.5,250.5C 467.915,256.029 483.248,261.862 498.5,268C 500.644,268.792 501.977,270.292 502.5,272.5C 502.062,272.435 501.728,272.601 501.5,273C 502.647,275.687 503.98,277.521 505.5,278.5C 508.405,283.307 511.072,288.307 513.5,293.5C 513.062,293.435 512.728,293.601 512.5,294C 513.647,296.687 514.98,298.521 516.5,299.5C 520.431,304.77 524.764,309.77 529.5,314.5C 529.062,314.435 528.728,314.601 528.5,315C 529.789,316.802 531.456,317.969 533.5,318.5C 538.229,323.224 542.563,328.224 546.5,333.5C 545.094,333.973 544.427,334.973 544.5,336.5C 543.083,339.669 541.417,342.669 539.5,345.5C 538.293,345.378 537.626,346.378 537.5,348.5C 537.008,350.819 536.008,352.819 534.5,354.5C 532.615,355.846 531.282,358.179 530.5,361.5C 530.008,363.819 529.008,365.819 527.5,367.5C 527.565,367.062 527.399,366.728 527,366.5C 526.626,367.416 526.126,368.25 525.5,369C 525.728,369.399 526.062,369.565 526.5,369.5C 525.441,372.869 523.108,374.536 519.5,374.5C 518.377,373.243 517.711,373.576 517.5,375.5C 509.577,377.814 501.577,379.814 493.5,381.5C 492.377,380.243 491.711,380.576 491.5,382.5C 477.668,385.555 464.001,389.222 450.5,393.5C 450.44,392.957 450.107,392.624 449.5,392.5C 445.777,393.823 442.444,395.49 439.5,397.5C 436.888,398.371 434.221,399.037 431.5,399.5C 431.565,399.062 431.399,398.728 431,398.5C 430.219,399.944 430.386,401.277 431.5,402.5C 432.107,402.376 432.44,402.043 432.5,401.5C 433.5,401.5 434.5,401.5 435.5,401.5C 435.711,403.424 436.377,403.757 437.5,402.5C 440.833,402.833 444.167,403.167 447.5,403.5C 447.711,405.424 448.377,405.757 449.5,404.5C 451.527,404.338 453.527,404.505 455.5,405C 463.368,413.036 471.368,420.869 479.5,428.5C 480.373,430.886 481.873,432.886 484,434.5C 484.399,434.272 484.565,433.938 484.5,433.5C 486.446,434.254 487.279,435.588 487,437.5C 479.143,449.232 471.31,460.899 463.5,472.5C 462.094,472.973 461.427,473.973 461.5,475.5C 461.5,475.833 461.5,476.167 461.5,476.5C 458.962,478.001 456.962,480.168 455.5,483C 455.728,483.399 456.062,483.565 456.5,483.5C 440.415,508.671 424.082,533.671 407.5,558.5C 405.003,559.129 403.67,560.796 403.5,563.5C 401.872,566.419 400.538,569.419 399.5,572.5C 398.307,572.97 397.64,573.97 397.5,575.5C 397.52,576.726 397.853,577.726 398.5,578.5C 398.5,580.833 398.5,583.167 398.5,585.5C 396.824,586.183 396.157,587.517 396.5,589.5C 396.232,591.099 396.566,592.432 397.5,593.5C 397.5,600.833 397.5,608.167 397.5,615.5C 396.307,615.97 395.64,616.97 395.5,618.5C 395.52,619.726 395.853,620.726 396.5,621.5C 396.5,624.833 396.5,628.167 396.5,631.5C 395.275,632.152 394.608,633.319 394.5,635C 394.514,636.385 394.848,637.551 395.5,638.5C 395.5,642.5 395.5,646.5 395.5,650.5C 394.351,650.791 393.684,651.624 393.5,653C 393.528,654.07 393.861,654.903 394.5,655.5C 394.665,659.182 394.499,662.848 394,666.5C 393.586,666.957 393.086,667.291 392.5,667.5C 387.438,663.441 383.105,658.774 379.5,653.5C 379.938,653.565 380.272,653.399 380.5,653C 379.529,651.519 378.196,650.685 376.5,650.5C 375.167,648.833 373.833,647.167 372.5,645.5C 372.938,645.565 373.272,645.399 373.5,645C 370.333,641.833 367.167,638.667 364,635.5C 363.601,635.728 363.435,636.062 363.5,636.5C 347.533,619.697 331.7,602.697 316,585.5C 312.991,577.309 310.491,568.975 308.5,560.5C 308.938,560.565 309.272,560.399 309.5,560C 308.773,558.601 308.273,557.101 308,555.5C 306.953,552.141 305.453,549.141 303.5,546.5C 302.766,545.292 302.433,543.959 302.5,542.5C 302.938,542.565 303.272,542.399 303.5,542C 301.975,538.427 300.642,534.76 299.5,531C 299.164,529.97 298.497,529.47 297.5,529.5C 294.897,520.69 291.897,512.024 288.5,503.5C 289.043,503.44 289.376,503.107 289.5,502.5C 287.235,496.204 285.068,489.871 283,483.5C 282.617,482.944 282.117,482.611 281.5,482.5C 278.547,475.814 275.881,468.98 273.5,462C 274.479,459.567 275.145,457.067 275.5,454.5C 277.424,454.289 277.757,453.623 276.5,452.5C 276.674,450.139 277.007,447.806 277.5,445.5C 279.424,445.289 279.757,444.623 278.5,443.5C 278.5,442.5 278.5,441.5 278.5,440.5C 280.424,440.289 280.757,439.623 279.5,438.5C 280.038,434.476 280.705,430.476 281.5,426.5C 283.424,426.289 283.757,425.623 282.5,424.5C 283.038,420.476 283.705,416.476 284.5,412.5C 286.424,412.289 286.757,411.623 285.5,410.5C 285.674,408.139 286.007,405.806 286.5,403.5C 288.424,403.289 288.757,402.623 287.5,401.5C 287.674,399.139 288.007,396.806 288.5,394.5C 290.424,394.289 290.757,393.623 289.5,392.5C 289.674,390.139 290.007,387.806 290.5,385.5C 292.424,385.289 292.757,384.623 291.5,383.5C 291.674,381.139 292.007,378.806 292.5,376.5C 294.424,376.289 294.757,375.623 293.5,374.5C 293.674,372.139 294.007,369.806 294.5,367.5C 296.424,367.289 296.757,366.623 295.5,365.5C 296.008,361.803 296.674,358.136 297.5,354.5C 299.424,354.289 299.757,353.623 298.5,352.5C 298.674,350.139 299.007,347.806 299.5,345.5C 301.424,345.289 301.757,344.623 300.5,343.5C 300.674,341.139 301.007,338.806 301.5,336.5C 303.424,336.289 303.757,335.623 302.5,334.5C 302.674,332.139 303.007,329.806 303.5,327.5C 305.424,327.289 305.757,326.623 304.5,325.5C 304.674,323.139 305.007,320.806 305.5,318.5C 307.424,318.289 307.757,317.623 306.5,316.5C 307.038,312.476 307.705,308.476 308.5,304.5C 310.424,304.289 310.757,303.623 309.5,302.5C 310.341,297.468 311.341,292.468 312.5,287.5C 314.424,287.289 314.757,286.623 313.5,285.5C 313.838,283.146 314.338,280.813 315,278.5C 331.365,258.643 347.865,238.976 364.5,219.5C 366.929,218.145 368.262,216.478 368.5,214.5C 377.665,203.832 386.665,192.999 395.5,182C 397.934,181.667 398.934,182.834 398.5,185.5 Z M 467.5,288.5 C 468.5,288.5 469.5,288.5 470.5,288.5C 471.833,288.5 473.167,288.5 474.5,288.5C 481.597,288.932 485.93,292.599 487.5,299.5C 487.328,300.492 487.662,301.158 488.5,301.5C 488.5,303.167 488.5,304.833 488.5,306.5C 487.662,306.842 487.328,307.508 487.5,308.5C 485.316,316.192 480.149,320.192 472,320.5C 462.817,320.146 457.651,315.479 456.5,306.5C 456.5,304.833 456.5,303.167 456.5,301.5C 456.977,297.207 458.977,293.873 462.5,291.5C 464.368,290.737 466.035,289.737 467.5,288.5 Z"/></g>
<g><path style="opacity:1" fill="#636463" d="M 415.5,184.5 C 417.76,185.238 417.927,186.238 416,187.5C 414.272,186.648 414.105,185.648 415.5,184.5 Z"/></g>
<g><path style="opacity:1" fill="#767376" d="M 398.5,185.5 C 399.338,185.842 399.672,186.508 399.5,187.5C 397.576,187.289 397.243,186.623 398.5,185.5 Z"/></g>
<g><path style="opacity:1" fill="#0a0a0a" d="M 485.5,190.5 C 486.756,190.461 487.756,190.961 488.5,192C 483.799,208.483 478.799,224.816 473.5,241C 460.725,237.517 448.225,233.017 436,227.5C 435.493,226.004 435.993,224.837 437.5,224C 453.403,212.581 469.403,201.414 485.5,190.5 Z"/></g>
<g><path style="opacity:1" fill="#656569" d="M 399.5,192.5 C 400.338,192.842 400.672,193.508 400.5,194.5C 398.576,194.289 398.243,193.623 399.5,192.5 Z"/></g>
<g><path style="opacity:1" fill="#565756" d="M 358.5,198.5 C 360.76,199.238 360.927,200.238 359,201.5C 357.272,200.648 357.105,199.648 358.5,198.5 Z"/></g>
<g><path style="opacity:1" fill="#5f6063" d="M 401.5,205.5 C 402.338,205.842 402.672,206.508 402.5,207.5C 400.576,207.289 400.243,206.623 401.5,205.5 Z"/></g>
<g><path style="opacity:1" fill="#636363" d="M 402.5,212.5 C 403.338,212.842 403.672,213.508 403.5,214.5C 401.576,214.289 401.243,213.623 402.5,212.5 Z"/></g>
<g><path style="opacity:1" fill="#3e3e3e" d="M 368.5,214.5 C 368.262,216.478 366.929,218.145 364.5,219.5C 365.08,217.251 366.413,215.585 368.5,214.5 Z"/></g>
<g><path style="opacity:1" fill="#555555" d="M 403.5,219.5 C 404.338,219.842 404.672,220.508 404.5,221.5C 402.576,221.289 402.243,220.623 403.5,219.5 Z"/></g>
<g><path style="opacity:1" fill="#5e6163" d="M 404.5,226.5 C 405.338,226.842 405.672,227.508 405.5,228.5C 403.576,228.289 403.243,227.623 404.5,226.5 Z"/></g>
<g><path style="opacity:1" fill="#636463" d="M 326.5,237.5 C 328.76,238.238 328.927,239.238 327,240.5C 325.272,239.648 325.105,238.648 326.5,237.5 Z"/></g>
<g><path style="opacity:1" fill="#343333" d="M 421.5,239.5 C 425.395,240.462 429.061,241.796 432.5,243.5C 432.565,243.938 432.399,244.272 432,244.5C 428.165,243.291 424.665,241.624 421.5,239.5 Z"/></g>
<g><path style="opacity:1" fill="#4d4d4d" d="M 434.5,243.5 C 436.579,243.971 438.579,244.637 440.5,245.5C 440.44,246.043 440.107,246.376 439.5,246.5C 437.402,246.043 435.736,245.043 434.5,243.5 Z"/></g>
<g><path style="opacity:1" fill="#6f706f" d="M 319.5,245.5 C 321.76,246.238 321.927,247.238 320,248.5C 318.272,247.648 318.105,246.648 319.5,245.5 Z"/></g>
<g><path style="opacity:1" fill="#555252" d="M 445.5,247.5 C 448.157,247.935 450.491,248.935 452.5,250.5C 452.565,250.938 452.399,251.272 452,251.5C 449.562,250.432 447.395,249.098 445.5,247.5 Z"/></g>
<g><path style="opacity:1" fill="#6f7069" d="M 313.5,252.5 C 315.76,253.238 315.927,254.238 314,255.5C 312.272,254.648 312.105,253.648 313.5,252.5 Z"/></g>
<g><path style="opacity:1" fill="#626365" d="M 502.5,272.5 C 504.008,274.181 505.008,276.181 505.5,278.5C 503.98,277.521 502.647,275.687 501.5,273C 501.728,272.601 502.062,272.435 502.5,272.5 Z"/></g>
<g><path style="opacity:1" fill="#666668" d="M 313.5,285.5 C 314.757,286.623 314.424,287.289 312.5,287.5C 312.328,286.508 312.662,285.842 313.5,285.5 Z"/></g>
<g><path style="opacity:1" fill="#3c3c3c" d="M 474.5,288.5 C 473.167,288.5 471.833,288.5 470.5,288.5C 470.62,287.414 471.287,286.747 472.5,286.5C 473.713,286.747 474.38,287.414 474.5,288.5 Z"/></g>
<g><path style="opacity:1" fill="#5f5f60" d="M 467.5,288.5 C 466.035,289.737 464.368,290.737 462.5,291.5C 463.382,289.616 464.882,288.283 467,287.5C 467.399,287.728 467.565,288.062 467.5,288.5 Z"/></g>
<g><path style="opacity:1" fill="#696a69" d="M 533.5,294.5 C 535.76,295.238 535.927,296.238 534,297.5C 532.272,296.648 532.105,295.648 533.5,294.5 Z"/></g>
<g><path style="opacity:1" fill="#656566" d="M 513.5,293.5 C 515.008,295.181 516.008,297.181 516.5,299.5C 514.98,298.521 513.647,296.687 512.5,294C 512.728,293.601 513.062,293.435 513.5,293.5 Z"/></g>
<g><path style="opacity:1" fill="#7c7979" d="M 487.5,299.5 C 489.424,299.711 489.757,300.377 488.5,301.5C 487.662,301.158 487.328,300.492 487.5,299.5 Z"/></g>
<g><path style="opacity:1" fill="#565656" d="M 309.5,302.5 C 310.757,303.623 310.424,304.289 308.5,304.5C 308.328,303.508 308.662,302.842 309.5,302.5 Z"/></g>
<g><path style="opacity:1" fill="#686a68" d="M 456.5,301.5 C 456.5,303.167 456.5,304.833 456.5,306.5C 455.351,306.209 454.684,305.376 454.5,304C 454.684,302.624 455.351,301.791 456.5,301.5 Z"/></g>
<g><path style="opacity:1" fill="#595858" d="M 488.5,306.5 C 489.757,307.623 489.424,308.289 487.5,308.5C 487.328,307.508 487.662,306.842 488.5,306.5 Z"/></g>
<g><path style="opacity:1" fill="#737577" d="M 544.5,306.5 C 546.296,307.793 547.963,309.293 549.5,311C 549,311.5 548.5,312 548,312.5C 546.5,311 545,309.5 543.5,308C 544.056,307.617 544.389,307.117 544.5,306.5 Z"/></g>
<g><path style="opacity:1" fill="#6d6e6e" d="M 529.5,314.5 C 531.167,315.5 532.5,316.833 533.5,318.5C 531.456,317.969 529.789,316.802 528.5,315C 528.728,314.601 529.062,314.435 529.5,314.5 Z"/></g>
<g><path style="opacity:1" fill="#666161" d="M 306.5,316.5 C 307.757,317.623 307.424,318.289 305.5,318.5C 305.328,317.508 305.662,316.842 306.5,316.5 Z"/></g>
<g><path style="opacity:1" fill="#575858" d="M 304.5,325.5 C 305.757,326.623 305.424,327.289 303.5,327.5C 303.328,326.508 303.662,325.842 304.5,325.5 Z"/></g>
<g><path style="opacity:1" fill="#838383" d="M 563.5,326.5 C 566.045,327.438 566.545,328.771 565,330.5C 562.988,329.434 562.488,328.1 563.5,326.5 Z"/></g>
<g><path style="opacity:1" fill="#5b5b5c" d="M 546.5,333.5 C 546.573,335.027 545.906,336.027 544.5,336.5C 544.427,334.973 545.094,333.973 546.5,333.5 Z"/></g>
<g><path style="opacity:1" fill="#606264" d="M 302.5,334.5 C 303.757,335.623 303.424,336.289 301.5,336.5C 301.328,335.508 301.662,334.842 302.5,334.5 Z"/></g>
<g><path style="opacity:1" fill="#5e5e60" d="M 300.5,343.5 C 301.757,344.623 301.424,345.289 299.5,345.5C 299.328,344.508 299.662,343.842 300.5,343.5 Z"/></g>
<g><path style="opacity:1" fill="#5a5a5a" d="M 539.5,345.5 C 539.573,347.027 538.906,348.027 537.5,348.5C 537.626,346.378 538.293,345.378 539.5,345.5 Z"/></g>
<g><path style="opacity:1" fill="#565656" d="M 298.5,352.5 C 299.757,353.623 299.424,354.289 297.5,354.5C 297.328,353.508 297.662,352.842 298.5,352.5 Z"/></g>
<g><path style="opacity:1" fill="#4d4d4d" d="M 534.5,354.5 C 533.921,357.331 532.588,359.664 530.5,361.5C 531.282,358.179 532.615,355.846 534.5,354.5 Z"/></g>
<g><path style="opacity:1" fill="#5c5c5c" d="M 295.5,365.5 C 296.757,366.623 296.424,367.289 294.5,367.5C 294.328,366.508 294.662,365.842 295.5,365.5 Z"/></g>
<g><path style="opacity:1" fill="#575757" d="M 527.5,367.5 C 527.672,368.492 527.338,369.158 526.5,369.5C 526.062,369.565 525.728,369.399 525.5,369C 526.126,368.25 526.626,367.416 527,366.5C 527.399,366.728 527.565,367.062 527.5,367.5 Z"/></g>
<g><path style="opacity:1" fill="#6d6d6f" d="M 519.5,374.5 C 519.158,375.338 518.492,375.672 517.5,375.5C 517.711,373.576 518.377,373.243 519.5,374.5 Z"/></g>
<g><path style="opacity:1" fill="#565656" d="M 293.5,374.5 C 294.757,375.623 294.424,376.289 292.5,376.5C 292.328,375.508 292.662,374.842 293.5,374.5 Z"/></g>
<g><path style="opacity:1" fill="#6a6b6b" d="M 493.5,381.5 C 493.158,382.338 492.492,382.672 491.5,382.5C 491.711,380.576 492.377,380.243 493.5,381.5 Z"/></g>
<g><path style="opacity:1" fill="#606161" d="M 291.5,383.5 C 292.757,384.623 292.424,385.289 290.5,385.5C 290.328,384.508 290.662,383.842 291.5,383.5 Z"/></g>
<g><path style="opacity:1" fill="#616161" d="M 289.5,392.5 C 290.757,393.623 290.424,394.289 288.5,394.5C 288.328,393.508 288.662,392.842 289.5,392.5 Z"/></g>
<g><path style="opacity:1" fill="#565656" d="M 450.5,393.5 C 447.061,395.204 443.395,396.538 439.5,397.5C 442.444,395.49 445.777,393.823 449.5,392.5C 450.107,392.624 450.44,392.957 450.5,393.5 Z"/></g>
<g><path style="opacity:1" fill="#767878" d="M 431.5,399.5 C 431.833,400.167 432.167,400.833 432.5,401.5C 432.44,402.043 432.107,402.376 431.5,402.5C 430.386,401.277 430.219,399.944 431,398.5C 431.399,398.728 431.565,399.062 431.5,399.5 Z"/></g>
<g><path style="opacity:1" fill="#696969" d="M 287.5,401.5 C 288.757,402.623 288.424,403.289 286.5,403.5C 286.328,402.508 286.662,401.842 287.5,401.5 Z"/></g>
<g><path style="opacity:1" fill="#5a575b" d="M 435.5,401.5 C 436.492,401.328 437.158,401.662 437.5,402.5C 436.377,403.757 435.711,403.424 435.5,401.5 Z"/></g>
<g><path style="opacity:1" fill="#726e6f" d="M 447.5,403.5 C 448.492,403.328 449.158,403.662 449.5,404.5C 448.377,405.757 447.711,405.424 447.5,403.5 Z"/></g>
<g><path style="opacity:1" fill="#646666" d="M 285.5,410.5 C 286.757,411.623 286.424,412.289 284.5,412.5C 284.328,411.508 284.662,410.842 285.5,410.5 Z"/></g>
<g><path style="opacity:1" fill="#3d3e3d" d="M 487.5,413.5 C 489.76,414.238 489.927,415.238 488,416.5C 486.272,415.648 486.105,414.648 487.5,413.5 Z"/></g>
<g><path style="opacity:1" fill="#5a5a57" d="M 282.5,424.5 C 283.757,425.623 283.424,426.289 281.5,426.5C 281.328,425.508 281.662,424.842 282.5,424.5 Z"/></g>
<g><path style="opacity:1" fill="#757675" d="M 479.5,428.5 C 481.5,429.833 483.167,431.5 484.5,433.5C 484.565,433.938 484.399,434.272 484,434.5C 481.873,432.886 480.373,430.886 479.5,428.5 Z"/></g>
<g><path style="opacity:1" fill="#827d82" d="M 508.5,434.5 C 510.76,435.238 510.927,436.238 509,437.5C 507.272,436.648 507.105,435.648 508.5,434.5 Z"/></g>
<g><path style="opacity:1" fill="#6b6e6e" d="M 279.5,438.5 C 280.757,439.623 280.424,440.289 278.5,440.5C 278.328,439.508 278.662,438.842 279.5,438.5 Z"/></g>
<g><path style="opacity:1" fill="#666466" d="M 278.5,443.5 C 279.757,444.623 279.424,445.289 277.5,445.5C 277.328,444.508 277.662,443.842 278.5,443.5 Z"/></g>
<g><path style="opacity:1" fill="#000000" d="M 568.5,516.5 C 569.373,518.886 570.873,520.886 573,522.5C 573.399,522.272 573.565,521.938 573.5,521.5C 593.799,541.298 613.965,561.298 634,581.5C 646.339,617.018 658.173,652.684 669.5,688.5C 669.062,688.435 668.728,688.601 668.5,689C 670.459,693.71 672.126,698.543 673.5,703.5C 673.747,704.713 674.414,705.38 675.5,705.5C 679.302,717.574 683.302,729.574 687.5,741.5C 686.167,742.5 686.167,743.5 687.5,744.5C 687.5,746.167 687.5,747.833 687.5,749.5C 685.448,750.053 685.115,751.053 686.5,752.5C 686.5,754.167 686.5,755.833 686.5,757.5C 684.448,758.053 684.115,759.053 685.5,760.5C 685.276,764.179 684.942,767.846 684.5,771.5C 682.576,771.711 682.243,772.377 683.5,773.5C 683.5,775.167 683.5,776.833 683.5,778.5C 681.576,778.711 681.243,779.377 682.5,780.5C 682.5,781.833 682.5,783.167 682.5,784.5C 680.576,784.711 680.243,785.377 681.5,786.5C 681.5,787.5 681.5,788.5 681.5,789.5C 679.576,789.711 679.243,790.377 680.5,791.5C 680.5,792.833 680.5,794.167 680.5,795.5C 678.576,795.711 678.243,796.377 679.5,797.5C 679.5,798.833 679.5,800.167 679.5,801.5C 677.576,801.711 677.243,802.377 678.5,803.5C 678.5,804.833 678.5,806.167 678.5,807.5C 676.576,807.711 676.243,808.377 677.5,809.5C 677.5,811.167 677.5,812.833 677.5,814.5C 675.576,814.711 675.243,815.377 676.5,816.5C 676.5,818.167 676.5,819.833 676.5,821.5C 674.448,822.053 674.115,823.053 675.5,824.5C 675.5,825.833 675.5,827.167 675.5,828.5C 673.576,828.711 673.243,829.377 674.5,830.5C 674.5,832.167 674.5,833.833 674.5,835.5C 672.576,835.711 672.243,836.377 673.5,837.5C 673.5,839.167 673.5,840.833 673.5,842.5C 671.576,842.711 671.243,843.377 672.5,844.5C 672.5,846.167 672.5,847.833 672.5,849.5C 670.448,850.053 670.115,851.053 671.5,852.5C 671.756,854.792 671.423,856.959 670.5,859C 611.5,859.667 552.5,859.667 493.5,859C 493.167,858.667 492.833,858.333 492.5,858C 493.697,855.985 495.03,854.151 496.5,852.5C 496.435,852.938 496.601,853.272 497,853.5C 498.167,851.667 499.333,849.833 500.5,848C 500.272,847.601 499.938,847.435 499.5,847.5C 501.782,843.107 504.448,838.941 507.5,835C 523.497,834.5 539.497,834.333 555.5,834.5C 559.445,835.825 563.778,836.492 568.5,836.5C 572.833,836.333 577.167,836.167 581.5,836C 580.789,834.745 579.956,833.579 579,832.5C 578.601,832.728 578.435,833.062 578.5,833.5C 571.865,824.524 565.198,815.524 558.5,806.5C 558.938,806.565 559.272,806.399 559.5,806C 558.756,804.961 557.756,804.461 556.5,804.5C 554.115,802.116 552.115,799.45 550.5,796.5C 550.938,796.565 551.272,796.399 551.5,796C 550.756,794.961 549.756,794.461 548.5,794.5C 547.833,793.5 547.167,792.5 546.5,791.5C 546.938,791.565 547.272,791.399 547.5,791C 546.756,789.961 545.756,789.461 544.5,789.5C 540.115,784.45 536.115,779.116 532.5,773.5C 532.938,773.565 533.272,773.399 533.5,773C 532.756,771.961 531.756,771.461 530.5,771.5C 529.833,770.5 529.167,769.5 528.5,768.5C 528.938,768.565 529.272,768.399 529.5,768C 528.756,766.961 527.756,766.461 526.5,766.5C 523.833,762.833 521.167,759.167 518.5,755.5C 518.938,755.565 519.272,755.399 519.5,755C 518.756,753.961 517.756,753.461 516.5,753.5C 515.833,752.5 515.167,751.5 514.5,750.5C 514.938,750.565 515.272,750.399 515.5,750C 514.756,748.961 513.756,748.461 512.5,748.5C 504.01,738.18 496.01,727.514 488.5,716.5C 497.969,688.927 507.135,661.261 516,633.5C 521.601,616.097 526.101,598.431 529.5,580.5C 530.376,580.631 531.043,580.298 531.5,579.5C 530.902,578.205 530.402,576.872 530,575.5C 528.294,579.079 526.461,582.579 524.5,586C 524.728,586.399 525.062,586.565 525.5,586.5C 524.833,587.833 524.167,589.167 523.5,590.5C 519.481,596.694 515.814,603.194 512.5,610C 512.728,610.399 513.062,610.565 513.5,610.5C 512.383,614.734 510.716,618.734 508.5,622.5C 505.816,626.02 503.482,629.853 501.5,634C 501.728,634.399 502.062,634.565 502.5,634.5C 502.443,635.609 502.11,636.609 501.5,637.5C 499.821,639 498.488,640.833 497.5,643C 497.728,643.399 498.062,643.565 498.5,643.5C 493.242,655.941 488.575,668.607 484.5,681.5C 482.711,683.651 481.378,686.151 480.5,689C 480.728,689.399 481.062,689.565 481.5,689.5C 479.893,695.323 477.893,700.989 475.5,706.5C 474.21,707.058 473.377,708.058 473,709.5C 472.727,711.101 472.227,712.601 471.5,714C 471.728,714.399 472.062,714.565 472.5,714.5C 471.653,718.223 470.653,721.889 469.5,725.5C 468.25,725.577 467.417,726.244 467,727.5C 464.893,735.153 462.393,742.653 459.5,750C 459.728,750.399 460.062,750.565 460.5,750.5C 460.167,751.833 459.833,753.167 459.5,754.5C 458.053,755.622 457.053,757.122 456.5,759C 456.728,759.399 457.062,759.565 457.5,759.5C 456.833,761.833 456.167,764.167 455.5,766.5C 453.576,766.711 453.243,767.377 454.5,768.5C 453.029,773.579 451.363,778.579 449.5,783.5C 447.711,785.651 446.378,788.151 445.5,791C 445.728,791.399 446.062,791.565 446.5,791.5C 445.962,793.117 445.629,794.784 445.5,796.5C 444.503,796.47 443.836,796.97 443.5,798C 442.665,799.131 442.665,799.964 443.5,800.5C 443.037,803.221 442.371,805.888 441.5,808.5C 440.503,808.47 439.836,808.97 439.5,810C 438.025,814.759 436.359,819.426 434.5,824C 434.728,824.399 435.062,824.565 435.5,824.5C 431.992,836.192 427.992,847.692 423.5,859C 405.167,859.667 386.833,859.667 368.5,859C 367.434,857.841 367.767,857.008 369.5,856.5C 369.435,856.938 369.601,857.272 370,857.5C 371.167,856.333 372.333,855.167 373.5,854C 373.272,853.601 372.938,853.435 372.5,853.5C 377.034,847.091 382.034,841.091 387.5,835.5C 387.435,835.938 387.601,836.272 388,836.5C 388.833,835.667 389.667,834.833 390.5,834C 390.272,833.601 389.938,833.435 389.5,833.5C 393.121,828.707 396.954,824.04 401,819.5C 401.499,813.509 401.666,807.509 401.5,801.5C 403.176,800.817 403.843,799.483 403.5,797.5C 403.784,795.585 403.451,793.919 402.5,792.5C 402.5,787.5 402.5,782.5 402.5,777.5C 403.586,777.38 404.253,776.713 404.5,775.5C 404.457,774.584 404.124,773.917 403.5,773.5C 403.5,768.5 403.5,763.5 403.5,758.5C 404.649,758.209 405.316,757.376 405.5,756C 405.472,754.93 405.139,754.097 404.5,753.5C 404.5,750.5 404.5,747.5 404.5,744.5C 405.693,744.03 406.36,743.03 406.5,741.5C 406.48,740.274 406.147,739.274 405.5,738.5C 405.5,735.5 405.5,732.5 405.5,729.5C 406.586,729.38 407.253,728.713 407.5,727.5C 407.457,726.584 407.124,725.917 406.5,725.5C 406.5,722.167 406.5,718.833 406.5,715.5C 407.586,715.38 408.253,714.713 408.5,713.5C 408.457,712.584 408.124,711.917 407.5,711.5C 407.5,708.167 407.5,704.833 407.5,701.5C 408.586,701.38 409.253,700.713 409.5,699.5C 409.457,698.584 409.124,697.917 408.5,697.5C 408.5,692.5 408.5,687.5 408.5,682.5C 409.725,681.848 410.392,680.681 410.5,679C 410.486,677.615 410.152,676.449 409.5,675.5C 409.5,669.167 409.5,662.833 409.5,656.5C 410.586,656.38 411.253,655.713 411.5,654.5C 411.457,653.584 411.124,652.917 410.5,652.5C 410.5,648.167 410.5,643.833 410.5,639.5C 411.586,639.38 412.253,638.713 412.5,637.5C 412.457,636.584 412.124,635.917 411.5,635.5C 411.5,632.5 411.5,629.5 411.5,626.5C 412.586,626.38 413.253,625.713 413.5,624.5C 413.457,623.584 413.124,622.917 412.5,622.5C 412.5,619.5 412.5,616.5 412.5,613.5C 413.649,613.209 414.316,612.376 414.5,611C 414.472,609.93 414.139,609.097 413.5,608.5C 413.5,603.5 413.5,598.5 413.5,593.5C 414.586,593.38 415.253,592.713 415.5,591.5C 415.457,590.584 415.124,589.917 414.5,589.5C 414.5,587.167 414.5,584.833 414.5,582.5C 415.586,582.38 416.253,581.713 416.5,580.5C 416.457,579.584 416.124,578.917 415.5,578.5C 415.34,576.801 415.506,575.134 416,573.5C 422.088,564.929 427.921,556.262 433.5,547.5C 433.435,547.938 433.601,548.272 434,548.5C 435.167,546.667 436.333,544.833 437.5,543C 437.272,542.601 436.938,542.435 436.5,542.5C 439.686,536.782 443.352,531.448 447.5,526.5C 450.687,523.469 453.353,519.969 455.5,516C 455.272,515.601 454.938,515.435 454.5,515.5C 469.255,492.986 484.255,470.653 499.5,448.5C 522.521,471.188 545.521,493.854 568.5,516.5 Z"/></g>
<g><path style="opacity:1" fill="#606060" d="M 276.5,452.5 C 277.757,453.623 277.424,454.289 275.5,454.5C 275.328,453.508 275.662,452.842 276.5,452.5 Z"/></g>
<g><path style="opacity:1" fill="#585858" d="M 463.5,472.5 C 463.573,474.027 462.906,475.027 461.5,475.5C 461.427,473.973 462.094,472.973 463.5,472.5 Z"/></g>
<g><path style="opacity:1" fill="#3e3e3e" d="M 461.5,476.5 C 460.066,479.047 458.4,481.381 456.5,483.5C 456.062,483.565 455.728,483.399 455.5,483C 456.962,480.168 458.962,478.001 461.5,476.5 Z"/></g>
<g><path style="opacity:1" fill="#020202" d="M 754.5,502.5 C 754.565,502.062 754.399,501.728 754,501.5C 751.171,505.46 749.337,509.46 748.5,513.5C 748.107,515.284 747.441,516.95 746.5,518.5C 741.837,522.032 741.503,525.699 745.5,529.5C 746.659,534.468 747.659,539.468 748.5,544.5C 747.243,545.623 747.576,546.289 749.5,546.5C 750.326,550.136 750.992,553.803 751.5,557.5C 750.243,558.623 750.576,559.289 752.5,559.5C 753.326,563.136 753.992,566.803 754.5,570.5C 753.243,571.623 753.576,572.289 755.5,572.5C 756.756,577.782 757.756,583.115 758.5,588.5C 757.243,589.623 757.576,590.289 759.5,590.5C 759.5,591.167 759.5,591.833 759.5,592.5C 758.243,593.623 758.576,594.289 760.5,594.5C 768.323,626.125 775.99,657.792 783.5,689.5C 782.243,690.623 782.576,691.289 784.5,691.5C 785.326,695.136 785.992,698.803 786.5,702.5C 785.243,703.623 785.576,704.289 787.5,704.5C 789.167,711.833 790.833,719.167 792.5,726.5C 791.243,727.623 791.576,728.289 793.5,728.5C 794.495,731.464 794.995,734.464 795,737.5C 791.257,741.344 787.757,745.344 784.5,749.5C 783.761,749.369 783.094,749.536 782.5,750C 781.262,750.69 781.262,751.19 782.5,751.5C 767.875,769.727 752.542,787.394 736.5,804.5C 735.761,804.369 735.094,804.536 734.5,805C 733.262,805.69 733.262,806.19 734.5,806.5C 733.167,808.167 731.833,809.833 730.5,811.5C 728.456,812.031 726.789,813.198 725.5,815C 725.728,815.399 726.062,815.565 726.5,815.5C 725.5,816.833 724.5,818.167 723.5,819.5C 721.456,820.031 719.789,821.198 718.5,823C 718.728,823.399 719.062,823.565 719.5,823.5C 714.204,830.131 708.537,836.465 702.5,842.5C 700.456,843.031 698.789,844.198 697.5,846C 697.728,846.399 698.062,846.565 698.5,846.5C 695.5,849.833 692.5,853.167 689.5,856.5C 688.391,856.443 687.391,856.11 686.5,855.5C 686.833,853.5 687.167,851.5 687.5,849.5C 689.424,849.289 689.757,848.623 688.5,847.5C 688.5,846.167 688.5,844.833 688.5,843.5C 690.424,843.289 690.757,842.623 689.5,841.5C 689.5,840.167 689.5,838.833 689.5,837.5C 691.424,837.289 691.757,836.623 690.5,835.5C 690.5,833.833 690.5,832.167 690.5,830.5C 692.424,830.289 692.757,829.623 691.5,828.5C 691.5,826.833 691.5,825.167 691.5,823.5C 693.424,823.289 693.757,822.623 692.5,821.5C 692.5,819.833 692.5,818.167 692.5,816.5C 694.424,816.289 694.757,815.623 693.5,814.5C 693.724,810.821 694.058,807.154 694.5,803.5C 696.424,803.289 696.757,802.623 695.5,801.5C 695.5,799.833 695.5,798.167 695.5,796.5C 697.424,796.289 697.757,795.623 696.5,794.5C 696.5,793.167 696.5,791.833 696.5,790.5C 698.424,790.289 698.757,789.623 697.5,788.5C 697.501,783.997 698.334,779.663 700,775.5C 703.732,771.938 707.232,768.271 710.5,764.5C 710.435,764.938 710.601,765.272 711,765.5C 712.5,764 714,762.5 715.5,761C 715.272,760.601 714.938,760.435 714.5,760.5C 716.862,757.808 719.196,755.141 721.5,752.5C 721.435,752.938 721.601,753.272 722,753.5C 722.833,752.667 723.667,751.833 724.5,751C 724.272,750.601 723.938,750.435 723.5,750.5C 725.529,748.142 727.529,745.808 729.5,743.5C 729.435,743.938 729.601,744.272 730,744.5C 732.167,742.333 734.333,740.167 736.5,738C 736.272,737.601 735.938,737.435 735.5,737.5C 739.164,733.668 742.664,729.668 746,725.5C 746.483,724.552 746.649,723.552 746.5,722.5C 747.757,721.377 747.424,720.711 745.5,720.5C 744.704,715.853 744.037,711.186 743.5,706.5C 744.757,705.377 744.424,704.711 742.5,704.5C 742.5,702.833 742.5,701.167 742.5,699.5C 743.757,698.377 743.424,697.711 741.5,697.5C 741.5,695.833 741.5,694.167 741.5,692.5C 742.757,691.377 742.424,690.711 740.5,690.5C 740.5,688.833 740.5,687.167 740.5,685.5C 741.757,684.377 741.424,683.711 739.5,683.5C 739.5,682.167 739.5,680.833 739.5,679.5C 740.757,678.377 740.424,677.711 738.5,677.5C 738.167,674.167 737.833,670.833 737.5,667.5C 738.757,666.377 738.424,665.711 736.5,665.5C 736.5,663.833 736.5,662.167 736.5,660.5C 737.757,659.377 737.424,658.711 735.5,658.5C 735.5,657.5 735.5,656.5 735.5,655.5C 736.757,654.377 736.424,653.711 734.5,653.5C 734.058,649.846 733.724,646.179 733.5,642.5C 734.757,641.377 734.424,640.711 732.5,640.5C 732.5,638.833 732.5,637.167 732.5,635.5C 733.757,634.377 733.424,633.711 731.5,633.5C 731.5,631.833 731.5,630.167 731.5,628.5C 732.757,627.377 732.424,626.711 730.5,626.5C 730.5,625.167 730.5,623.833 730.5,622.5C 731.757,621.377 731.424,620.711 729.5,620.5C 729.5,619.167 729.5,617.833 729.5,616.5C 730.757,615.377 730.424,614.711 728.5,614.5C 728.5,613.167 728.5,611.833 728.5,610.5C 729.757,609.377 729.424,608.711 727.5,608.5C 727.5,607.167 727.5,605.833 727.5,604.5C 728.757,603.377 728.424,602.711 726.5,602.5C 726.5,600.833 726.5,599.167 726.5,597.5C 727.757,596.377 727.424,595.711 725.5,595.5C 725.5,593.5 725.5,591.5 725.5,589.5C 726.885,588.053 726.552,587.053 724.5,586.5C 724.5,585.167 724.5,583.833 724.5,582.5C 725.757,581.377 725.424,580.711 723.5,580.5C 723.5,578.5 723.5,576.5 723.5,574.5C 724.885,573.053 724.552,572.053 722.5,571.5C 722.5,569.5 722.5,567.5 722.5,565.5C 723.757,564.377 723.424,563.711 721.5,563.5C 721.5,561.833 721.5,560.167 721.5,558.5C 722.757,557.377 722.424,556.711 720.5,556.5C 720.5,554.833 720.5,553.167 720.5,551.5C 721.757,550.377 721.424,549.711 719.5,549.5C 719.5,547.833 719.5,546.167 719.5,544.5C 720.757,543.377 720.424,542.711 718.5,542.5C 718.5,540.833 718.5,539.167 718.5,537.5C 719.757,536.377 719.424,535.711 717.5,535.5C 717.5,533.833 717.5,532.167 717.5,530.5C 718.885,529.053 718.552,528.053 716.5,527.5C 716.5,525.5 716.5,523.5 716.5,521.5C 717.124,521.083 717.457,520.416 717.5,519.5C 717.253,518.287 716.586,517.62 715.5,517.5C 715.338,515.473 715.505,513.473 716,511.5C 720.61,508.113 725.443,505.113 730.5,502.5C 730.435,502.938 730.601,503.272 731,503.5C 736.949,500.652 742.115,497.652 746.5,494.5C 749.304,492.595 752.304,490.929 755.5,489.5C 755.435,489.938 755.601,490.272 756,490.5C 757.419,489.54 758.919,488.707 760.5,488C 760.272,487.601 759.938,487.435 759.5,487.5C 760.688,486.636 761.855,485.636 763,484.5C 763.692,485.025 764.192,485.692 764.5,486.5C 761.501,492.139 758.168,497.473 754.5,502.5 Z"/></g>
<g><path style="opacity:1" fill="#5c5e5c" d="M 759.5,487.5 C 759.938,487.435 760.272,487.601 760.5,488C 758.919,488.707 757.419,489.54 756,490.5C 755.601,490.272 755.435,489.938 755.5,489.5C 756.514,488.326 757.847,487.66 759.5,487.5 Z"/></g>
<g><path style="opacity:1" fill="#444443" d="M 281.5,482.5 C 282.117,482.611 282.617,482.944 283,483.5C 285.068,489.871 287.235,496.204 289.5,502.5C 289.376,503.107 289.043,503.44 288.5,503.5C 285.971,496.579 283.637,489.579 281.5,482.5 Z"/></g>
<g><path style="opacity:1" fill="#595958" d="M 584.5,509.5 C 584.5,510.167 584.167,510.5 583.5,510.5C 574.702,502.202 566.035,493.702 557.5,485C 558,484.5 558.5,484 559,483.5C 567.702,492.035 576.202,500.702 584.5,509.5 Z"/></g>
<g><path style="opacity:1" fill="#535353" d="M 746.5,494.5 C 742.115,497.652 736.949,500.652 731,503.5C 730.601,503.272 730.435,502.938 730.5,502.5C 735.516,499.326 740.849,496.659 746.5,494.5 Z"/></g>
<g><path style="opacity:1" fill="#6f706f" d="M 700.5,509.5 C 702.76,510.238 702.927,511.238 701,512.5C 699.272,511.648 699.105,510.648 700.5,509.5 Z"/></g>
<g><path style="opacity:1" fill="#2c2c2c" d="M 754.5,502.5 C 752.75,506.335 750.75,510.001 748.5,513.5C 749.337,509.46 751.171,505.46 754,501.5C 754.399,501.728 754.565,502.062 754.5,502.5 Z"/></g>
<g><path style="opacity:1" fill="#939595" d="M 584.5,509.5 C 586.296,510.793 587.963,512.293 589.5,514C 589,514.5 588.5,515 588,515.5C 586.293,513.963 584.793,512.296 583.5,510.5C 584.167,510.5 584.5,510.167 584.5,509.5 Z"/></g>
<g><path style="opacity:1" fill="#383737" d="M 454.5,515.5 C 454.938,515.435 455.272,515.601 455.5,516C 453.353,519.969 450.687,523.469 447.5,526.5C 449.446,522.561 451.779,518.894 454.5,515.5 Z"/></g>
<g><path style="opacity:1" fill="#696a69" d="M 701.5,518.5 C 703.76,519.238 703.927,520.238 702,521.5C 700.272,520.648 700.105,519.648 701.5,518.5 Z"/></g>
<g><path style="opacity:1" fill="#757575" d="M 568.5,516.5 C 570.5,517.833 572.167,519.5 573.5,521.5C 573.565,521.938 573.399,522.272 573,522.5C 570.873,520.886 569.373,518.886 568.5,516.5 Z"/></g>
<g><path style="opacity:1" fill="#8a8a8a" d="M 715.5,517.5 C 716.586,517.62 717.253,518.287 717.5,519.5C 717.457,520.416 717.124,521.083 716.5,521.5C 715.566,520.432 715.232,519.099 715.5,517.5 Z"/></g>
<g><path style="opacity:1" fill="#4b4c4b" d="M 746.5,518.5 C 744.46,522.026 744.127,525.692 745.5,529.5C 741.503,525.699 741.837,522.032 746.5,518.5 Z"/></g>
<g><path style="opacity:1" fill="#696a69" d="M 702.5,527.5 C 704.76,528.238 704.927,529.238 703,530.5C 701.272,529.648 701.105,528.648 702.5,527.5 Z"/></g>
<g><path style="opacity:1" fill="#777978" d="M 716.5,527.5 C 718.552,528.053 718.885,529.053 717.5,530.5C 716.596,529.791 716.263,528.791 716.5,527.5 Z"/></g>
<g><path style="opacity:1" fill="#7b7b7b" d="M 717.5,535.5 C 719.424,535.711 719.757,536.377 718.5,537.5C 717.662,537.158 717.328,536.492 717.5,535.5 Z"/></g>
<g><path style="opacity:1" fill="#2f2d2c" d="M 297.5,529.5 C 298.497,529.47 299.164,529.97 299.5,531C 300.642,534.76 301.975,538.427 303.5,542C 303.272,542.399 302.938,542.565 302.5,542.5C 300.657,538.316 298.99,533.982 297.5,529.5 Z"/></g>
<g><path style="opacity:1" fill="#7c7d7c" d="M 704.5,543.5 C 706.76,544.238 706.927,545.238 705,546.5C 703.272,545.648 703.105,544.648 704.5,543.5 Z"/></g>
<g><path style="opacity:1" fill="#707072" d="M 718.5,542.5 C 720.424,542.711 720.757,543.377 719.5,544.5C 718.662,544.158 718.328,543.492 718.5,542.5 Z"/></g>
<g><path style="opacity:1" fill="#5b5a59" d="M 748.5,544.5 C 749.338,544.842 749.672,545.508 749.5,546.5C 747.576,546.289 747.243,545.623 748.5,544.5 Z"/></g>
<g><path style="opacity:1" fill="#404040" d="M 436.5,542.5 C 436.938,542.435 437.272,542.601 437.5,543C 436.333,544.833 435.167,546.667 434,548.5C 433.601,548.272 433.435,547.938 433.5,547.5C 434.11,545.566 435.11,543.899 436.5,542.5 Z"/></g>
<g><path style="opacity:1" fill="#727272" d="M 719.5,549.5 C 721.424,549.711 721.757,550.377 720.5,551.5C 719.662,551.158 719.328,550.492 719.5,549.5 Z"/></g>
<g><path style="opacity:1" fill="#535353" d="M 303.5,546.5 C 305.453,549.141 306.953,552.141 308,555.5C 308.273,557.101 308.773,558.601 309.5,560C 309.272,560.399 308.938,560.565 308.5,560.5C 306.462,556.06 304.796,551.393 303.5,546.5 Z"/></g>
<g><path style="opacity:1" fill="#566463" d="M 705.5,552.5 C 707.76,553.238 707.927,554.238 706,555.5C 704.272,554.648 704.105,553.648 705.5,552.5 Z"/></g>
<g><path style="opacity:1" fill="#777579" d="M 720.5,556.5 C 722.424,556.711 722.757,557.377 721.5,558.5C 720.662,558.158 720.328,557.492 720.5,556.5 Z"/></g>
<g><path style="opacity:1" fill="#626563" d="M 751.5,557.5 C 752.338,557.842 752.672,558.508 752.5,559.5C 750.576,559.289 750.243,558.623 751.5,557.5 Z"/></g>
<g><path style="opacity:1" fill="#494849" d="M 407.5,558.5 C 406.396,560.389 405.063,562.055 403.5,563.5C 403.67,560.796 405.003,559.129 407.5,558.5 Z"/></g>
<g><path style="opacity:1" fill="#696a63" d="M 706.5,560.5 C 708.76,561.238 708.927,562.238 707,563.5C 705.272,562.648 705.105,561.648 706.5,560.5 Z"/></g>
<g><path style="opacity:1" fill="#777878" d="M 721.5,563.5 C 723.424,563.711 723.757,564.377 722.5,565.5C 721.662,565.158 721.328,564.492 721.5,563.5 Z"/></g>
<g><path style="opacity:1" fill="#696a69" d="M 707.5,569.5 C 709.76,570.238 709.927,571.238 708,572.5C 706.272,571.648 706.105,570.648 707.5,569.5 Z"/></g>
<g><path style="opacity:1" fill="#565656" d="M 754.5,570.5 C 755.338,570.842 755.672,571.508 755.5,572.5C 753.576,572.289 753.243,571.623 754.5,570.5 Z"/></g>
<g><path style="opacity:1" fill="#6d6d71" d="M 722.5,571.5 C 724.552,572.053 724.885,573.053 723.5,574.5C 722.596,573.791 722.263,572.791 722.5,571.5 Z"/></g>
<g><path style="opacity:1" fill="#747373" d="M 399.5,572.5 C 399.795,574.735 399.461,576.735 398.5,578.5C 397.853,577.726 397.52,576.726 397.5,575.5C 397.64,573.97 398.307,572.97 399.5,572.5 Z"/></g>
<g><path style="opacity:1" fill="#636463" d="M 708.5,578.5 C 710.76,579.238 710.927,580.238 709,581.5C 707.272,580.648 707.105,579.648 708.5,578.5 Z"/></g>
<g><path style="opacity:1" fill="#5f5f5f" d="M 529.5,580.5 C 528.167,582.5 526.833,584.5 525.5,586.5C 525.062,586.565 524.728,586.399 524.5,586C 526.461,582.579 528.294,579.079 530,575.5C 530.402,576.872 530.902,578.205 531.5,579.5C 531.043,580.298 530.376,580.631 529.5,580.5 Z"/></g>
<g><path style="opacity:1" fill="#4b4b4b" d="M 415.5,578.5 C 416.124,578.917 416.457,579.584 416.5,580.5C 416.253,581.713 415.586,582.38 414.5,582.5C 414.232,580.901 414.566,579.568 415.5,578.5 Z"/></g>
<g><path style="opacity:1" fill="#928f8e" d="M 723.5,580.5 C 725.424,580.711 725.757,581.377 724.5,582.5C 723.662,582.158 723.328,581.492 723.5,580.5 Z"/></g>
<g><path style="opacity:1" fill="#8e8f8e" d="M 709.5,586.5 C 711.76,587.238 711.927,588.238 710,589.5C 708.272,588.648 708.105,587.648 709.5,586.5 Z"/></g>
<g><path style="opacity:1" fill="#5e5a5e" d="M 724.5,586.5 C 726.552,587.053 726.885,588.053 725.5,589.5C 724.596,588.791 724.263,587.791 724.5,586.5 Z"/></g>
<g><path style="opacity:1" fill="#514e51" d="M 398.5,585.5 C 398.5,586.833 398.5,588.167 398.5,589.5C 397.833,589.5 397.167,589.5 396.5,589.5C 396.157,587.517 396.824,586.183 398.5,585.5 Z"/></g>
<g><path style="opacity:1" fill="#585959" d="M 758.5,588.5 C 759.338,588.842 759.672,589.508 759.5,590.5C 757.576,590.289 757.243,589.623 758.5,588.5 Z"/></g>
<g><path style="opacity:1" fill="#9b9b9c" d="M 396.5,589.5 C 397.167,589.5 397.833,589.5 398.5,589.5C 398.768,591.099 398.434,592.432 397.5,593.5C 396.566,592.432 396.232,591.099 396.5,589.5 Z"/></g>
<g><path style="opacity:1" fill="#727171" d="M 414.5,589.5 C 415.124,589.917 415.457,590.584 415.5,591.5C 415.253,592.713 414.586,593.38 413.5,593.5C 413.232,591.901 413.566,590.568 414.5,589.5 Z"/></g>
<g><path style="opacity:1" fill="#636364" d="M 759.5,592.5 C 760.338,592.842 760.672,593.508 760.5,594.5C 758.576,594.289 758.243,593.623 759.5,592.5 Z"/></g>
<g><path style="opacity:1" fill="#8b8b88" d="M 725.5,595.5 C 727.424,595.711 727.757,596.377 726.5,597.5C 725.662,597.158 725.328,596.492 725.5,595.5 Z"/></g>
<g><path style="opacity:1" fill="#6f706f" d="M 711.5,601.5 C 713.76,602.238 713.927,603.238 712,604.5C 710.272,603.648 710.105,602.648 711.5,601.5 Z"/></g>
<g><path style="opacity:1" fill="#343434" d="M 523.5,590.5 C 520.675,597.484 517.341,604.151 513.5,610.5C 513.062,610.565 512.728,610.399 512.5,610C 515.814,603.194 519.481,596.694 523.5,590.5 Z"/></g>
<g><path style="opacity:1" fill="#919191" d="M 726.5,602.5 C 728.424,602.711 728.757,603.377 727.5,604.5C 726.662,604.158 726.328,603.492 726.5,602.5 Z"/></g>
<g><path style="opacity:1" fill="#828281" d="M 727.5,608.5 C 729.424,608.711 729.757,609.377 728.5,610.5C 727.662,610.158 727.328,609.492 727.5,608.5 Z"/></g>
<g><path style="opacity:1" fill="#6e6f72" d="M 413.5,608.5 C 414.139,609.097 414.472,609.93 414.5,611C 414.316,612.376 413.649,613.209 412.5,613.5C 412.216,611.585 412.549,609.919 413.5,608.5 Z"/></g>
<g><path style="opacity:1" fill="#868688" d="M 728.5,614.5 C 730.424,614.711 730.757,615.377 729.5,616.5C 728.662,616.158 728.328,615.492 728.5,614.5 Z"/></g>
<g><path style="opacity:1" fill="#666466" d="M 397.5,615.5 C 397.795,617.735 397.461,619.735 396.5,621.5C 395.853,620.726 395.52,619.726 395.5,618.5C 395.64,616.97 396.307,615.97 397.5,615.5 Z"/></g>
<g><path style="opacity:1" fill="#010101" d="M 337.5,632.5 C 337.062,632.435 336.728,632.601 336.5,633C 338.114,635.127 340.114,636.627 342.5,637.5C 345.833,641.167 349.167,644.833 352.5,648.5C 352.062,648.435 351.728,648.601 351.5,649C 352.789,650.802 354.456,651.969 356.5,652.5C 360.833,657.167 365.167,661.833 369.5,666.5C 369.062,666.435 368.728,666.601 368.5,667C 371.764,670.773 375.43,673.94 379.5,676.5C 382.5,679.833 385.5,683.167 388.5,686.5C 388.062,686.435 387.728,686.601 387.5,687C 388.667,688.167 389.833,689.333 391,690.5C 391.181,693.695 391.681,696.695 392.5,699.5C 392.5,704.167 392.5,708.833 392.5,713.5C 390.448,714.053 390.115,715.053 391.5,716.5C 391.5,719.167 391.5,721.833 391.5,724.5C 390.414,724.62 389.747,725.287 389.5,726.5C 389.543,727.416 389.876,728.083 390.5,728.5C 390.5,731.167 390.5,733.833 390.5,736.5C 389.307,736.97 388.64,737.97 388.5,739.5C 388.52,740.726 388.853,741.726 389.5,742.5C 389.5,746.167 389.5,749.833 389.5,753.5C 388.351,753.791 387.684,754.624 387.5,756C 387.528,757.07 387.861,757.903 388.5,758.5C 388.5,763.167 388.5,767.833 388.5,772.5C 387.252,773.334 386.585,774.667 386.5,776.5C 386.511,778.045 386.844,779.378 387.5,780.5C 387.5,786.167 387.5,791.833 387.5,797.5C 386.188,799.743 385.522,802.41 385.5,805.5C 385.503,808.355 385.836,811.022 386.5,813.5C 384.213,817.122 381.547,820.455 378.5,823.5C 376.804,823.685 375.471,824.519 374.5,826C 374.728,826.399 375.062,826.565 375.5,826.5C 373.408,829.681 371.075,832.681 368.5,835.5C 367.761,835.369 367.094,835.536 366.5,836C 365.262,836.69 365.262,837.19 366.5,837.5C 365.5,838.833 364.5,840.167 363.5,841.5C 362.761,841.369 362.094,841.536 361.5,842C 360.262,842.69 360.262,843.19 361.5,843.5C 360.5,844.833 359.5,846.167 358.5,847.5C 357.761,847.369 357.094,847.536 356.5,848C 355.262,848.69 355.262,849.19 356.5,849.5C 354.42,853.086 351.754,856.253 348.5,859C 331.503,859.5 314.503,859.667 297.5,859.5C 296.833,858.167 296.167,858.167 295.5,859.5C 294.475,859.103 294.308,858.437 295,857.5C 301.033,850.637 307.199,843.97 313.5,837.5C 313.435,837.938 313.601,838.272 314,838.5C 316.5,836 319,833.5 321.5,831C 321.272,830.601 320.938,830.435 320.5,830.5C 322.795,827.703 325.295,825.036 328,822.5C 329.302,819.625 330.135,816.625 330.5,813.5C 332.424,813.289 332.757,812.623 331.5,811.5C 334.627,797.863 337.627,784.197 340.5,770.5C 342.424,770.289 342.757,769.623 341.5,768.5C 341.5,767.833 341.5,767.167 341.5,766.5C 343.424,766.289 343.757,765.623 342.5,764.5C 342.674,762.139 343.007,759.806 343.5,757.5C 345.424,757.289 345.757,756.623 344.5,755.5C 345.648,750.57 346.315,745.57 346.5,740.5C 347.757,739.377 347.424,738.711 345.5,738.5C 345.5,737.5 345.5,736.5 345.5,735.5C 346.757,734.377 346.424,733.711 344.5,733.5C 343.5,728.165 342.5,722.832 341.5,717.5C 342.757,716.377 342.424,715.711 340.5,715.5C 340.5,714.5 340.5,713.5 340.5,712.5C 341.757,711.377 341.424,710.711 339.5,710.5C 339.037,707.518 338.704,704.518 338.5,701.5C 339.757,700.377 339.424,699.711 337.5,699.5C 337.5,698.167 337.5,696.833 337.5,695.5C 338.757,694.377 338.424,693.711 336.5,693.5C 335.704,688.853 335.037,684.186 334.5,679.5C 335.757,678.377 335.424,677.711 333.5,677.5C 333.5,676.167 333.5,674.833 333.5,673.5C 334.757,672.377 334.424,671.711 332.5,671.5C 331.371,665.187 330.371,658.854 329.5,652.5C 330.757,651.377 330.424,650.711 328.5,650.5C 327.038,643.191 325.705,635.858 324.5,628.5C 325.757,627.377 325.424,626.711 323.5,626.5C 323.489,624.453 323.156,622.453 322.5,620.5C 322.556,619.263 323.056,618.263 324,617.5C 328.337,622.669 332.837,627.669 337.5,632.5 Z"/></g>
<g><path style="opacity:1" fill="#6d696a" d="M 729.5,620.5 C 731.424,620.711 731.757,621.377 730.5,622.5C 729.662,622.158 729.328,621.492 729.5,620.5 Z"/></g>
<g><path style="opacity:1" fill="#6c6b6b" d="M 412.5,622.5 C 413.124,622.917 413.457,623.584 413.5,624.5C 413.253,625.713 412.586,626.38 411.5,626.5C 411.232,624.901 411.566,623.568 412.5,622.5 Z"/></g>
<g><path style="opacity:1" fill="#8c8c8c" d="M 323.5,626.5 C 325.424,626.711 325.757,627.377 324.5,628.5C 323.662,628.158 323.328,627.492 323.5,626.5 Z"/></g>
<g><path style="opacity:1" fill="#6f6c6c" d="M 730.5,626.5 C 732.424,626.711 732.757,627.377 731.5,628.5C 730.662,628.158 730.328,627.492 730.5,626.5 Z"/></g>
<g><path style="opacity:1" fill="#2b2c2b" d="M 508.5,622.5 C 507.008,626.818 505.008,630.818 502.5,634.5C 502.062,634.565 501.728,634.399 501.5,634C 503.482,629.853 505.816,626.02 508.5,622.5 Z"/></g>
<g><path style="opacity:1" fill="#797979" d="M 731.5,633.5 C 733.424,633.711 733.757,634.377 732.5,635.5C 731.662,635.158 731.328,634.492 731.5,633.5 Z"/></g>
<g><path style="opacity:1" fill="#595758" d="M 337.5,632.5 C 339.5,633.833 341.167,635.5 342.5,637.5C 340.114,636.627 338.114,635.127 336.5,633C 336.728,632.601 337.062,632.435 337.5,632.5 Z"/></g>
<g><path style="opacity:1" fill="#5d5c5e" d="M 396.5,631.5 C 396.802,634.059 396.468,636.393 395.5,638.5C 394.848,637.551 394.514,636.385 394.5,635C 394.608,633.319 395.275,632.152 396.5,631.5 Z"/></g>
<g><path style="opacity:1" fill="#838282" d="M 411.5,635.5 C 412.124,635.917 412.457,636.584 412.5,637.5C 412.253,638.713 411.586,639.38 410.5,639.5C 410.232,637.901 410.566,636.568 411.5,635.5 Z"/></g>
<g><path style="opacity:1" fill="#5f5d5d" d="M 501.5,637.5 C 501.008,639.819 500.008,641.819 498.5,643.5C 498.062,643.565 497.728,643.399 497.5,643C 498.488,640.833 499.821,639 501.5,637.5 Z"/></g>
<g><path style="opacity:1" fill="#3d3c3b" d="M 372.5,645.5 C 369.167,642.833 366.167,639.833 363.5,636.5C 363.435,636.062 363.601,635.728 364,635.5C 367.167,638.667 370.333,641.833 373.5,645C 373.272,645.399 372.938,645.565 372.5,645.5 Z"/></g>
<g><path style="opacity:1" fill="#909090" d="M 732.5,640.5 C 734.424,640.711 734.757,641.377 733.5,642.5C 732.662,642.158 732.328,641.492 732.5,640.5 Z"/></g>
<g><path style="opacity:1" fill="#6f6f6f" d="M 352.5,648.5 C 354.167,649.5 355.5,650.833 356.5,652.5C 354.456,651.969 352.789,650.802 351.5,649C 351.728,648.601 352.062,648.435 352.5,648.5 Z"/></g>
<g><path style="opacity:1" fill="#606360" d="M 328.5,650.5 C 330.424,650.711 330.757,651.377 329.5,652.5C 328.662,652.158 328.328,651.492 328.5,650.5 Z"/></g>
<g><path style="opacity:1" fill="#6e6e6e" d="M 376.5,650.5 C 378.196,650.685 379.529,651.519 380.5,653C 380.272,653.399 379.938,653.565 379.5,653.5C 378.167,652.833 377.167,651.833 376.5,650.5 Z"/></g>
<g><path style="opacity:1" fill="#797979" d="M 395.5,650.5 C 395.784,652.415 395.451,654.081 394.5,655.5C 393.861,654.903 393.528,654.07 393.5,653C 393.684,651.624 394.351,650.791 395.5,650.5 Z"/></g>
<g><path style="opacity:1" fill="#7d7f7f" d="M 734.5,653.5 C 736.424,653.711 736.757,654.377 735.5,655.5C 734.662,655.158 734.328,654.492 734.5,653.5 Z"/></g>
<g><path style="opacity:1" fill="#6f6f72" d="M 410.5,652.5 C 411.124,652.917 411.457,653.584 411.5,654.5C 411.253,655.713 410.586,656.38 409.5,656.5C 409.232,654.901 409.566,653.568 410.5,652.5 Z"/></g>
<g><path style="opacity:1" fill="#6c6a68" d="M 735.5,658.5 C 737.424,658.711 737.757,659.377 736.5,660.5C 735.662,660.158 735.328,659.492 735.5,658.5 Z"/></g>
<g><path style="opacity:1" fill="#7c7a7c" d="M 736.5,665.5 C 738.424,665.711 738.757,666.377 737.5,667.5C 736.662,667.158 736.328,666.492 736.5,665.5 Z"/></g>
<g><path style="opacity:1" fill="#363636" d="M 369.5,666.5 C 373.167,669.5 376.5,672.833 379.5,676.5C 375.43,673.94 371.764,670.773 368.5,667C 368.728,666.601 369.062,666.435 369.5,666.5 Z"/></g>
<g><path style="opacity:1" fill="#6f707c" d="M 316.5,671.5 C 318.76,672.238 318.927,673.238 317,674.5C 315.272,673.648 315.105,672.648 316.5,671.5 Z"/></g>
<g><path style="opacity:1" fill="#606063" d="M 332.5,671.5 C 334.424,671.711 334.757,672.377 333.5,673.5C 332.662,673.158 332.328,672.492 332.5,671.5 Z"/></g>
<g><path style="opacity:1" fill="#565656" d="M 333.5,677.5 C 335.424,677.711 335.757,678.377 334.5,679.5C 333.662,679.158 333.328,678.492 333.5,677.5 Z"/></g>
<g><path style="opacity:1" fill="#706f70" d="M 738.5,677.5 C 740.424,677.711 740.757,678.377 739.5,679.5C 738.662,679.158 738.328,678.492 738.5,677.5 Z"/></g>
<g><path style="opacity:1" fill="#737273" d="M 409.5,675.5 C 410.152,676.449 410.486,677.615 410.5,679C 410.392,680.681 409.725,681.848 408.5,682.5C 408.198,679.941 408.532,677.607 409.5,675.5 Z"/></g>
<g><path style="opacity:1" fill="#454444" d="M 484.5,681.5 C 483.871,684.397 482.871,687.064 481.5,689.5C 481.062,689.565 480.728,689.399 480.5,689C 481.378,686.151 482.711,683.651 484.5,681.5 Z"/></g>
<g><path style="opacity:1" fill="#6c6c6c" d="M 739.5,683.5 C 741.424,683.711 741.757,684.377 740.5,685.5C 739.662,685.158 739.328,684.492 739.5,683.5 Z"/></g>
<g><path style="opacity:1" fill="#5f5f5f" d="M 783.5,689.5 C 784.338,689.842 784.672,690.508 784.5,691.5C 782.576,691.289 782.243,690.623 783.5,689.5 Z"/></g>
<g><path style="opacity:1" fill="#646467" d="M 740.5,690.5 C 742.424,690.711 742.757,691.377 741.5,692.5C 740.662,692.158 740.328,691.492 740.5,690.5 Z"/></g>
<g><path style="opacity:1" fill="#838383" d="M 336.5,693.5 C 338.424,693.711 338.757,694.377 337.5,695.5C 336.662,695.158 336.328,694.492 336.5,693.5 Z"/></g>
<g><path style="opacity:1" fill="#575657" d="M 388.5,686.5 C 393.284,689.836 394.617,694.169 392.5,699.5C 391.681,696.695 391.181,693.695 391,690.5C 389.833,689.333 388.667,688.167 387.5,687C 387.728,686.601 388.062,686.435 388.5,686.5 Z"/></g>
<g><path style="opacity:1" fill="#616160" d="M 741.5,697.5 C 743.424,697.711 743.757,698.377 742.5,699.5C 741.662,699.158 741.328,698.492 741.5,697.5 Z"/></g>
<g><path style="opacity:1" fill="#7d7c7a" d="M 337.5,699.5 C 339.424,699.711 339.757,700.377 338.5,701.5C 337.662,701.158 337.328,700.492 337.5,699.5 Z"/></g>
<g><path style="opacity:1" fill="#494949" d="M 669.5,688.5 C 671.871,693.941 673.871,699.608 675.5,705.5C 674.414,705.38 673.747,704.713 673.5,703.5C 672.126,698.543 670.459,693.71 668.5,689C 668.728,688.601 669.062,688.435 669.5,688.5 Z"/></g>
<g><path style="opacity:1" fill="#6b6b6b" d="M 408.5,697.5 C 409.124,697.917 409.457,698.584 409.5,699.5C 409.253,700.713 408.586,701.38 407.5,701.5C 407.232,699.901 407.566,698.568 408.5,697.5 Z"/></g>
<g><path style="opacity:1" fill="#606160" d="M 786.5,702.5 C 787.338,702.842 787.672,703.508 787.5,704.5C 785.576,704.289 785.243,703.623 786.5,702.5 Z"/></g>
<g><path style="opacity:1" fill="#777777" d="M 742.5,704.5 C 744.424,704.711 744.757,705.377 743.5,706.5C 742.662,706.158 742.328,705.492 742.5,704.5 Z"/></g>
<g><path style="opacity:1" fill="#6f706f" d="M 728.5,707.5 C 730.76,708.238 730.927,709.238 729,710.5C 727.272,709.648 727.105,708.648 728.5,707.5 Z"/></g>
<g><path style="opacity:1" fill="#4e4f4f" d="M 475.5,706.5 C 474.871,709.397 473.871,712.064 472.5,714.5C 472.062,714.565 471.728,714.399 471.5,714C 472.227,712.601 472.727,711.101 473,709.5C 473.377,708.058 474.21,707.058 475.5,706.5 Z"/></g>
<g><path style="opacity:1" fill="#949494" d="M 339.5,710.5 C 341.424,710.711 341.757,711.377 340.5,712.5C 339.662,712.158 339.328,711.492 339.5,710.5 Z"/></g>
<g><path style="opacity:1" fill="#8a888a" d="M 392.5,713.5 C 392.737,714.791 392.404,715.791 391.5,716.5C 390.115,715.053 390.448,714.053 392.5,713.5 Z"/></g>
<g><path style="opacity:1" fill="#6f6e70" d="M 407.5,711.5 C 408.124,711.917 408.457,712.584 408.5,713.5C 408.253,714.713 407.586,715.38 406.5,715.5C 406.232,713.901 406.566,712.568 407.5,711.5 Z"/></g>
<g><path style="opacity:1" fill="#7f7f7e" d="M 340.5,715.5 C 342.424,715.711 342.757,716.377 341.5,717.5C 340.662,717.158 340.328,716.492 340.5,715.5 Z"/></g>
<g><path style="opacity:1" fill="#828283" d="M 745.5,720.5 C 747.424,720.711 747.757,721.377 746.5,722.5C 745.662,722.158 745.328,721.492 745.5,720.5 Z"/></g>
<g><path style="opacity:1" fill="#565756" d="M 720.5,725.5 C 722.76,726.238 722.927,727.238 721,728.5C 719.272,727.648 719.105,726.648 720.5,725.5 Z"/></g>
<g><path style="opacity:1" fill="#7a7b7b" d="M 391.5,724.5 C 391.768,726.099 391.434,727.432 390.5,728.5C 389.876,728.083 389.543,727.416 389.5,726.5C 389.747,725.287 390.414,724.62 391.5,724.5 Z"/></g>
<g><path style="opacity:1" fill="#454445" d="M 469.5,725.5 C 466.675,733.979 463.675,742.313 460.5,750.5C 460.062,750.565 459.728,750.399 459.5,750C 462.393,742.653 464.893,735.153 467,727.5C 467.417,726.244 468.25,725.577 469.5,725.5 Z"/></g>
<g><path style="opacity:1" fill="#5a595a" d="M 792.5,726.5 C 793.338,726.842 793.672,727.508 793.5,728.5C 791.576,728.289 791.243,727.623 792.5,726.5 Z"/></g>
<g><path style="opacity:1" fill="#5b5a5b" d="M 406.5,725.5 C 407.124,725.917 407.457,726.584 407.5,727.5C 407.253,728.713 406.586,729.38 405.5,729.5C 405.232,727.901 405.566,726.568 406.5,725.5 Z"/></g>
<g><path style="opacity:1" fill="#838383" d="M 344.5,733.5 C 346.424,733.711 346.757,734.377 345.5,735.5C 344.662,735.158 344.328,734.492 344.5,733.5 Z"/></g>
<g><path style="opacity:1" fill="#787878" d="M 345.5,738.5 C 347.424,738.711 347.757,739.377 346.5,740.5C 345.662,740.158 345.328,739.492 345.5,738.5 Z"/></g>
<g><path style="opacity:1" fill="#666566" d="M 708.5,738.5 C 710.892,739.742 710.725,741.075 708,742.5C 706.413,741.154 706.58,739.821 708.5,738.5 Z"/></g>
<g><path style="opacity:1" fill="#727272" d="M 390.5,736.5 C 390.795,738.735 390.461,740.735 389.5,742.5C 388.853,741.726 388.52,740.726 388.5,739.5C 388.64,737.97 389.307,736.97 390.5,736.5 Z"/></g>
<g><path style="opacity:1" fill="#565554" d="M 735.5,737.5 C 735.938,737.435 736.272,737.601 736.5,738C 734.333,740.167 732.167,742.333 730,744.5C 729.601,744.272 729.435,743.938 729.5,743.5C 731.167,741.167 733.167,739.167 735.5,737.5 Z"/></g>
<g><path style="opacity:1" fill="#5f5e5f" d="M 405.5,738.5 C 406.147,739.274 406.48,740.274 406.5,741.5C 406.36,743.03 405.693,744.03 404.5,744.5C 404.205,742.265 404.539,740.265 405.5,738.5 Z"/></g>
<g><path style="opacity:1" fill="#959595" d="M 687.5,741.5 C 688.833,742.5 688.833,743.5 687.5,744.5C 686.167,743.5 686.167,742.5 687.5,741.5 Z"/></g>
<g><path style="opacity:1" fill="#828382" d="M 810.5,742.5 C 812.76,743.238 812.927,744.238 811,745.5C 809.272,744.648 809.105,743.648 810.5,742.5 Z"/></g>
<g><path style="opacity:1" fill="#625f60" d="M 512.5,748.5 C 513.756,748.461 514.756,748.961 515.5,750C 515.272,750.399 514.938,750.565 514.5,750.5C 513.5,750.167 512.833,749.5 512.5,748.5 Z"/></g>
<g><path style="opacity:1" fill="#7e7e7e" d="M 687.5,749.5 C 687.737,750.791 687.404,751.791 686.5,752.5C 685.115,751.053 685.448,750.053 687.5,749.5 Z"/></g>
<g><path style="opacity:1" fill="#626363" d="M 784.5,749.5 C 784.167,750.5 783.5,751.167 782.5,751.5C 781.262,751.19 781.262,750.69 782.5,750C 783.094,749.536 783.761,749.369 784.5,749.5 Z"/></g>
<g><path style="opacity:1" fill="#696a69" d="M 495.5,751.5 C 497.76,752.238 497.927,753.238 496,754.5C 494.272,753.648 494.105,752.648 495.5,751.5 Z"/></g>
<g><path style="opacity:1" fill="#7c7878" d="M 723.5,750.5 C 723.938,750.435 724.272,750.601 724.5,751C 723.667,751.833 722.833,752.667 722,753.5C 721.601,753.272 721.435,752.938 721.5,752.5C 721.833,751.5 722.5,750.833 723.5,750.5 Z"/></g>
<g><path style="opacity:1" fill="#6f706f" d="M 802.5,751.5 C 804.76,752.238 804.927,753.238 803,754.5C 801.272,753.648 801.105,752.648 802.5,751.5 Z"/></g>
<g><path style="opacity:1" fill="#5d5c5c" d="M 516.5,753.5 C 517.756,753.461 518.756,753.961 519.5,755C 519.272,755.399 518.938,755.565 518.5,755.5C 517.5,755.167 516.833,754.5 516.5,753.5 Z"/></g>
<g><path style="opacity:1" fill="#666766" d="M 344.5,755.5 C 345.757,756.623 345.424,757.289 343.5,757.5C 343.328,756.508 343.662,755.842 344.5,755.5 Z"/></g>
<g><path style="opacity:1" fill="#787879" d="M 389.5,753.5 C 389.784,755.415 389.451,757.081 388.5,758.5C 387.861,757.903 387.528,757.07 387.5,756C 387.684,754.624 388.351,753.791 389.5,753.5 Z"/></g>
<g><path style="opacity:1" fill="#70706e" d="M 404.5,753.5 C 405.139,754.097 405.472,754.93 405.5,756C 405.316,757.376 404.649,758.209 403.5,758.5C 403.216,756.585 403.549,754.919 404.5,753.5 Z"/></g>
<g><path style="opacity:1" fill="#585558" d="M 459.5,754.5 C 459.204,756.403 458.537,758.07 457.5,759.5C 457.062,759.565 456.728,759.399 456.5,759C 457.053,757.122 458.053,755.622 459.5,754.5 Z"/></g>
<g><path style="opacity:1" fill="#777778" d="M 686.5,757.5 C 686.737,758.791 686.404,759.791 685.5,760.5C 684.115,759.053 684.448,758.053 686.5,757.5 Z"/></g>
<g><path style="opacity:1" fill="#706f70" d="M 714.5,760.5 C 714.938,760.435 715.272,760.601 715.5,761C 714,762.5 712.5,764 711,765.5C 710.601,765.272 710.435,764.938 710.5,764.5C 711.5,762.833 712.833,761.5 714.5,760.5 Z"/></g>
<g><path style="opacity:1" fill="#5c5c5f" d="M 342.5,764.5 C 343.757,765.623 343.424,766.289 341.5,766.5C 341.328,765.508 341.662,764.842 342.5,764.5 Z"/></g>
<g><path style="opacity:1" fill="#828382" d="M 789.5,766.5 C 791.76,767.238 791.927,768.238 790,769.5C 788.272,768.648 788.105,767.648 789.5,766.5 Z"/></g>
<g><path style="opacity:1" fill="#666666" d="M 455.5,766.5 C 455.672,767.492 455.338,768.158 454.5,768.5C 453.243,767.377 453.576,766.711 455.5,766.5 Z"/></g>
<g><path style="opacity:1" fill="#686564" d="M 526.5,766.5 C 527.756,766.461 528.756,766.961 529.5,768C 529.272,768.399 528.938,768.565 528.5,768.5C 527.5,768.167 526.833,767.5 526.5,766.5 Z"/></g>
<g><path style="opacity:1" fill="#636363" d="M 341.5,768.5 C 342.757,769.623 342.424,770.289 340.5,770.5C 340.328,769.508 340.662,768.842 341.5,768.5 Z"/></g>
<g><path style="opacity:1" fill="#5e5d5d" d="M 530.5,771.5 C 531.756,771.461 532.756,771.961 533.5,773C 533.272,773.399 532.938,773.565 532.5,773.5C 531.5,773.167 530.833,772.5 530.5,771.5 Z"/></g>
<g><path style="opacity:1" fill="#5f5d5f" d="M 684.5,771.5 C 684.672,772.492 684.338,773.158 683.5,773.5C 682.243,772.377 682.576,771.711 684.5,771.5 Z"/></g>
<g><path style="opacity:1" fill="#696a69" d="M 781.5,775.5 C 783.76,776.238 783.927,777.238 782,778.5C 780.272,777.648 780.105,776.648 781.5,775.5 Z"/></g>
<g><path style="opacity:1" fill="#828283" d="M 403.5,773.5 C 404.124,773.917 404.457,774.584 404.5,775.5C 404.253,776.713 403.586,777.38 402.5,777.5C 402.232,775.901 402.566,774.568 403.5,773.5 Z"/></g>
<g><path style="opacity:1" fill="#818181" d="M 388.5,772.5 C 388.806,775.385 388.473,778.052 387.5,780.5C 386.844,779.378 386.511,778.045 386.5,776.5C 386.585,774.667 387.252,773.334 388.5,772.5 Z"/></g>
<g><path style="opacity:1" fill="#8a868a" d="M 683.5,778.5 C 683.672,779.492 683.338,780.158 682.5,780.5C 681.243,779.377 681.576,778.711 683.5,778.5 Z"/></g>
<g><path style="opacity:1" fill="#7c7d7c" d="M 773.5,784.5 C 775.76,785.238 775.927,786.238 774,787.5C 772.272,786.648 772.105,785.648 773.5,784.5 Z"/></g>
<g><path style="opacity:1" fill="#858788" d="M 682.5,784.5 C 682.672,785.492 682.338,786.158 681.5,786.5C 680.243,785.377 680.576,784.711 682.5,784.5 Z"/></g>
<g><path style="opacity:1" fill="#505152" d="M 449.5,783.5 C 448.871,786.397 447.871,789.064 446.5,791.5C 446.062,791.565 445.728,791.399 445.5,791C 446.378,788.151 447.711,785.651 449.5,783.5 Z"/></g>
<g><path style="opacity:1" fill="#6a666a" d="M 697.5,788.5 C 698.757,789.623 698.424,790.289 696.5,790.5C 696.328,789.508 696.662,788.842 697.5,788.5 Z"/></g>
<g><path style="opacity:1" fill="#72706f" d="M 544.5,789.5 C 545.756,789.461 546.756,789.961 547.5,791C 547.272,791.399 546.938,791.565 546.5,791.5C 545.5,791.167 544.833,790.5 544.5,789.5 Z"/></g>
<g><path style="opacity:1" fill="#595955" d="M 681.5,789.5 C 681.672,790.492 681.338,791.158 680.5,791.5C 679.243,790.377 679.576,789.711 681.5,789.5 Z"/></g>
<g><path style="opacity:1" fill="#696a69" d="M 765.5,793.5 C 767.76,794.238 767.927,795.238 766,796.5C 764.272,795.648 764.105,794.648 765.5,793.5 Z"/></g>
<g><path style="opacity:1" fill="#7c707c" d="M 529.5,794.5 C 531.76,795.238 531.927,796.238 530,797.5C 528.272,796.648 528.105,795.648 529.5,794.5 Z"/></g>
<g><path style="opacity:1" fill="#5c5d5d" d="M 548.5,794.5 C 549.756,794.461 550.756,794.961 551.5,796C 551.272,796.399 550.938,796.565 550.5,796.5C 549.5,796.167 548.833,795.5 548.5,794.5 Z"/></g>
<g><path style="opacity:1" fill="#817f81" d="M 696.5,794.5 C 697.757,795.623 697.424,796.289 695.5,796.5C 695.328,795.508 695.662,794.842 696.5,794.5 Z"/></g>
<g><path style="opacity:1" fill="#909091" d="M 402.5,792.5 C 403.451,793.919 403.784,795.585 403.5,797.5C 402.833,797.5 402.167,797.5 401.5,797.5C 401.216,795.585 401.549,793.919 402.5,792.5 Z"/></g>
<g><path style="opacity:1" fill="#818181" d="M 680.5,795.5 C 680.672,796.492 680.338,797.158 679.5,797.5C 678.243,796.377 678.576,795.711 680.5,795.5 Z"/></g>
<g><path style="opacity:1" fill="#585855" d="M 445.5,796.5 C 445.011,797.995 444.345,799.329 443.5,800.5C 442.665,799.964 442.665,799.131 443.5,798C 443.836,796.97 444.503,796.47 445.5,796.5 Z"/></g>
<g><path style="opacity:1" fill="#4b4a4a" d="M 401.5,797.5 C 402.167,797.5 402.833,797.5 403.5,797.5C 403.843,799.483 403.176,800.817 401.5,801.5C 401.5,800.167 401.5,798.833 401.5,797.5 Z"/></g>
<g><path style="opacity:1" fill="#7d7c80" d="M 679.5,801.5 C 679.672,802.492 679.338,803.158 678.5,803.5C 677.243,802.377 677.576,801.711 679.5,801.5 Z"/></g>
<g><path style="opacity:1" fill="#6e6e74" d="M 695.5,801.5 C 696.757,802.623 696.424,803.289 694.5,803.5C 694.328,802.508 694.662,801.842 695.5,801.5 Z"/></g>
<g><path style="opacity:1" fill="#686b6d" d="M 759.5,800.5 C 761.892,801.742 761.725,803.075 759,804.5C 757.413,803.154 757.58,801.821 759.5,800.5 Z"/></g>
<g><path style="opacity:1" fill="#585859" d="M 387.5,797.5 C 387.821,803.026 387.488,808.36 386.5,813.5C 385.836,811.022 385.503,808.355 385.5,805.5C 385.522,802.41 386.188,799.743 387.5,797.5 Z"/></g>
<g><path style="opacity:1" fill="#5c5f60" d="M 556.5,804.5 C 557.756,804.461 558.756,804.961 559.5,806C 559.272,806.399 558.938,806.565 558.5,806.5C 557.5,806.167 556.833,805.5 556.5,804.5 Z"/></g>
<g><path style="opacity:1" fill="#5c5c5d" d="M 736.5,804.5 C 736.167,805.5 735.5,806.167 734.5,806.5C 733.262,806.19 733.262,805.69 734.5,805C 735.094,804.536 735.761,804.369 736.5,804.5 Z"/></g>
<g><path style="opacity:1" fill="#595b5a" d="M 678.5,807.5 C 678.672,808.492 678.338,809.158 677.5,809.5C 676.243,808.377 676.576,807.711 678.5,807.5 Z"/></g>
<g><path style="opacity:1" fill="#6f706f" d="M 751.5,809.5 C 753.76,810.238 753.927,811.238 752,812.5C 750.272,811.648 750.105,810.648 751.5,809.5 Z"/></g>
<g><path style="opacity:1" fill="#3f3c3d" d="M 441.5,808.5 C 439.676,813.981 437.676,819.314 435.5,824.5C 435.062,824.565 434.728,824.399 434.5,824C 436.359,819.426 438.025,814.759 439.5,810C 439.836,808.97 440.503,808.47 441.5,808.5 Z"/></g>
<g><path style="opacity:1" fill="#565657" d="M 331.5,811.5 C 332.757,812.623 332.424,813.289 330.5,813.5C 330.328,812.508 330.662,811.842 331.5,811.5 Z"/></g>
<g><path style="opacity:1" fill="#434343" d="M 730.5,811.5 C 729.5,813.167 728.167,814.5 726.5,815.5C 726.062,815.565 725.728,815.399 725.5,815C 726.789,813.198 728.456,812.031 730.5,811.5 Z"/></g>
<g><path style="opacity:1" fill="#626262" d="M 677.5,814.5 C 677.672,815.492 677.338,816.158 676.5,816.5C 675.243,815.377 675.576,814.711 677.5,814.5 Z"/></g>
<g><path style="opacity:1" fill="#696869" d="M 693.5,814.5 C 694.757,815.623 694.424,816.289 692.5,816.5C 692.328,815.508 692.662,814.842 693.5,814.5 Z"/></g>
<g><path style="opacity:1" fill="#888686" d="M 312.5,813.5 C 313.289,813.783 313.956,814.283 314.5,815C 311.333,818.167 308.167,821.333 305,824.5C 304.5,824 304,823.5 303.5,823C 306.704,819.964 309.704,816.797 312.5,813.5 Z"/></g>
<g><path style="opacity:1" fill="#6f6a69" d="M 546.5,816.5 C 548.76,817.238 548.927,818.238 547,819.5C 545.272,818.648 545.105,817.648 546.5,816.5 Z"/></g>
<g><path style="opacity:1" fill="#a0a09f" d="M 500.5,817.5 C 504.048,817.095 507.381,817.595 510.5,819C 507.367,820.57 504.033,820.903 500.5,820C 499.402,819.23 499.402,818.397 500.5,817.5 Z"/></g>
<g><path style="opacity:1" fill="#929293" d="M 524.5,817.5 C 524.5,818.5 524.5,819.5 524.5,820.5C 512.5,819.5 512.5,818.5 524.5,817.5 Z"/></g>
<g><path style="opacity:1" fill="#4b4a4b" d="M 524.5,817.5 C 536.5,818.5 536.5,819.5 524.5,820.5C 524.5,819.5 524.5,818.5 524.5,817.5 Z"/></g>
<g><path style="opacity:1" fill="#7c7d7c" d="M 742.5,819.5 C 744.76,820.238 744.927,821.238 743,822.5C 741.272,821.648 741.105,820.648 742.5,819.5 Z"/></g>
<g><path style="opacity:1" fill="#737373" d="M 676.5,821.5 C 676.737,822.791 676.404,823.791 675.5,824.5C 674.115,823.053 674.448,822.053 676.5,821.5 Z"/></g>
<g><path style="opacity:1" fill="#61605f" d="M 692.5,821.5 C 693.757,822.623 693.424,823.289 691.5,823.5C 691.328,822.508 691.662,821.842 692.5,821.5 Z"/></g>
<g><path style="opacity:1" fill="#525252" d="M 723.5,819.5 C 722.5,821.167 721.167,822.5 719.5,823.5C 719.062,823.565 718.728,823.399 718.5,823C 719.789,821.198 721.456,820.031 723.5,819.5 Z"/></g>
<g><path style="opacity:1" fill="#696968" d="M 378.5,823.5 C 377.833,824.833 376.833,825.833 375.5,826.5C 375.062,826.565 374.728,826.399 374.5,826C 375.471,824.519 376.804,823.685 378.5,823.5 Z"/></g>
<g><path style="opacity:1" fill="#616161" d="M 675.5,828.5 C 675.672,829.492 675.338,830.158 674.5,830.5C 673.243,829.377 673.576,828.711 675.5,828.5 Z"/></g>
<g><path style="opacity:1" fill="#747174" d="M 691.5,828.5 C 692.757,829.623 692.424,830.289 690.5,830.5C 690.328,829.508 690.662,828.842 691.5,828.5 Z"/></g>
<g><path style="opacity:1" fill="#545454" d="M 293.5,833.5 C 295.892,834.742 295.725,836.075 293,837.5C 291.413,836.154 291.58,834.821 293.5,833.5 Z"/></g>
<g><path style="opacity:1" fill="#757576" d="M 320.5,830.5 C 320.938,830.435 321.272,830.601 321.5,831C 319,833.5 316.5,836 314,838.5C 313.601,838.272 313.435,837.938 313.5,837.5C 315.5,834.833 317.833,832.5 320.5,830.5 Z"/></g>
<g><path style="opacity:1" fill="#585858" d="M 389.5,833.5 C 389.938,833.435 390.272,833.601 390.5,834C 389.667,834.833 388.833,835.667 388,836.5C 387.601,836.272 387.435,835.938 387.5,835.5C 387.833,834.5 388.5,833.833 389.5,833.5 Z"/></g>
<g><path style="opacity:1" fill="#555354" d="M 555.5,834.5 C 563.352,834.825 571.018,834.492 578.5,833.5C 578.435,833.062 578.601,832.728 579,832.5C 579.956,833.579 580.789,834.745 581.5,836C 577.167,836.167 572.833,836.333 568.5,836.5C 563.778,836.492 559.445,835.825 555.5,834.5 Z"/></g>
<g><path style="opacity:1" fill="#676767" d="M 368.5,835.5 C 368.167,836.5 367.5,837.167 366.5,837.5C 365.262,837.19 365.262,836.69 366.5,836C 367.094,835.536 367.761,835.369 368.5,835.5 Z"/></g>
<g><path style="opacity:1" fill="#6c6c6c" d="M 674.5,835.5 C 674.672,836.492 674.338,837.158 673.5,837.5C 672.243,836.377 672.576,835.711 674.5,835.5 Z"/></g>
<g><path style="opacity:1" fill="#7c7c7c" d="M 690.5,835.5 C 691.757,836.623 691.424,837.289 689.5,837.5C 689.328,836.508 689.662,835.842 690.5,835.5 Z"/></g>
<g><path style="opacity:1" fill="#676d69" d="M 727.5,836.5 C 729.892,837.742 729.725,839.075 727,840.5C 725.413,839.154 725.58,837.821 727.5,836.5 Z"/></g>
<g><path style="opacity:1" fill="#5a5a5a" d="M 363.5,841.5 C 363.167,842.5 362.5,843.167 361.5,843.5C 360.262,843.19 360.262,842.69 361.5,842C 362.094,841.536 362.761,841.369 363.5,841.5 Z"/></g>
<g><path style="opacity:1" fill="#57575b" d="M 689.5,841.5 C 690.757,842.623 690.424,843.289 688.5,843.5C 688.328,842.508 688.662,841.842 689.5,841.5 Z"/></g>
<g><path style="opacity:1" fill="#6f706f" d="M 284.5,843.5 C 286.76,844.238 286.927,845.238 285,846.5C 283.272,845.648 283.105,844.648 284.5,843.5 Z"/></g>
<g><path style="opacity:1" fill="#7c7c7e" d="M 673.5,842.5 C 673.672,843.492 673.338,844.158 672.5,844.5C 671.243,843.377 671.576,842.711 673.5,842.5 Z"/></g>
<g><path style="opacity:1" fill="#555555" d="M 702.5,842.5 C 701.5,844.167 700.167,845.5 698.5,846.5C 698.062,846.565 697.728,846.399 697.5,846C 698.789,844.198 700.456,843.031 702.5,842.5 Z"/></g>
<g><path style="opacity:1" fill="#605f60" d="M 358.5,847.5 C 358.167,848.5 357.5,849.167 356.5,849.5C 355.262,849.19 355.262,848.69 356.5,848C 357.094,847.536 357.761,847.369 358.5,847.5 Z"/></g>
<g><path style="opacity:1" fill="#5a5a57" d="M 688.5,847.5 C 689.757,848.623 689.424,849.289 687.5,849.5C 687.328,848.508 687.662,847.842 688.5,847.5 Z"/></g>
<g><path style="opacity:1" fill="#7c7d7f" d="M 672.5,849.5 C 672.737,850.791 672.404,851.791 671.5,852.5C 670.115,851.053 670.448,850.053 672.5,849.5 Z"/></g>
<g><path style="opacity:1" fill="#454544" d="M 499.5,847.5 C 499.938,847.435 500.272,847.601 500.5,848C 499.333,849.833 498.167,851.667 497,853.5C 496.601,853.272 496.435,852.938 496.5,852.5C 497.11,850.566 498.11,848.899 499.5,847.5 Z"/></g>
<g><path style="opacity:1" fill="#6a6667" d="M 715.5,849.5 C 716.289,849.783 716.956,850.283 717.5,851C 716,852.5 714.5,854 713,855.5C 712.5,855 712,854.5 711.5,854C 713.041,852.629 714.375,851.129 715.5,849.5 Z"/></g>
<g><path style="opacity:1" fill="#6c6c6e" d="M 372.5,853.5 C 372.938,853.435 373.272,853.601 373.5,854C 372.333,855.167 371.167,856.333 370,857.5C 369.601,857.272 369.435,856.938 369.5,856.5C 370.167,855.167 371.167,854.167 372.5,853.5 Z"/></g>
<g><path style="opacity:1" fill="#5f625f" d="M 686.5,855.5 C 687.391,856.11 688.391,856.443 689.5,856.5C 687.987,859.048 686.987,858.715 686.5,855.5 Z"/></g>
<g><path style="opacity:1" fill="#70726f" d="M 297.5,859.5 C 296.833,860.833 296.167,860.833 295.5,859.5C 296.167,858.167 296.833,858.167 297.5,859.5 Z"/></g>
<g><path style="opacity:1" fill="#6f707c" d="M 704.5,861.5 C 706.76,862.238 706.927,863.238 705,864.5C 703.272,863.648 703.105,862.648 704.5,861.5 Z"/></g>
<g><path style="opacity:1" fill="#828382" d="M 697.5,869.5 C 699.76,870.238 699.927,871.238 698,872.5C 696.272,871.648 696.105,870.648 697.5,869.5 Z"/></g>
<g><path style="opacity:1" fill="#7d7c7d" d="M 291.5,873.5 C 291.5,874.5 291.5,875.5 291.5,876.5C 281.002,876.974 270.669,876.474 260.5,875C 270.669,873.526 281.002,873.026 291.5,873.5 Z"/></g>
<g><path style="opacity:1" fill="#565656" d="M 291.5,873.5 C 339.644,873.005 387.644,873.505 435.5,875C 387.644,876.495 339.644,876.995 291.5,876.5C 291.5,875.5 291.5,874.5 291.5,873.5 Z"/></g>
<g><path style="opacity:1" fill="#31323d" d="M 463.5,873.5 C 465.76,874.238 465.927,875.238 464,876.5C 462.272,875.648 462.105,874.648 463.5,873.5 Z"/></g>
<g><path style="opacity:1" fill="#323132" d="M 492.5,873.5 C 498.683,873.047 504.683,873.547 510.5,875C 504.674,876.617 498.674,876.95 492.5,876C 491.402,875.23 491.402,874.397 492.5,873.5 Z"/></g>
<g><path style="opacity:1" fill="#313132" d="M 517.5,873.5 C 522.796,874.688 522.796,875.522 517.5,876C 516.402,875.23 516.402,874.397 517.5,873.5 Z"/></g>
<g><path style="opacity:1" fill="#313132" d="M 523.5,873.5 C 525.75,873.181 527.75,873.681 529.5,875C 527.728,876.487 525.728,876.82 523.5,876C 522.402,875.23 522.402,874.397 523.5,873.5 Z"/></g>
<g><path style="opacity:1" fill="#3b3b3c" d="M 544.5,873.5 C 565.651,873.012 586.651,873.512 607.5,875C 586.649,876.653 565.649,876.987 544.5,876C 543.402,875.23 543.402,874.397 544.5,873.5 Z"/></g>
<g><path style="opacity:1" fill="#3b3c3c" d="M 628.5,873.5 C 638.333,873.028 648,873.528 657.5,875C 647.994,876.637 638.328,876.97 628.5,876C 627.402,875.23 627.402,874.397 628.5,873.5 Z"/></g>
<g><path style="opacity:1" fill="#353435" d="M 660.5,873.5 C 667.677,873.04 674.677,873.54 681.5,875C 674.669,876.625 667.669,876.958 660.5,876C 659.402,875.23 659.402,874.397 660.5,873.5 Z"/></g>
<g><path style="opacity:1" fill="#353535" d="M 688.5,873.5 C 690.75,873.181 692.75,873.681 694.5,875C 692.728,876.487 690.728,876.82 688.5,876C 687.402,875.23 687.402,874.397 688.5,873.5 Z"/></g>
</svg>
