<?xml version="1.0" standalone="no"?>
<!DOCTYPE svg PUBLIC "-//W3C//DTD SVG 20010904//EN"
 "http://www.w3.org/TR/2001/REC-SVG-20010904/DTD/svg10.dtd">
<svg version="1.0" xmlns="http://www.w3.org/2000/svg"
 width="1536.000000pt" height="1024.000000pt" viewBox="0 0 1536.000000 1024.000000"
 preserveAspectRatio="xMidYMid meet">

<g transform="translate(0.000000,1024.000000) scale(0.100000,-0.100000)"
fill="#000000" stroke="none">
<path d="M6593 7633 c-23 -35 -29 -173 -14 -286 13 -92 52 -251 80 -330 11
-28 22 -70 26 -91 4 -22 13 -49 21 -60 18 -26 18 -50 -3 -128 -16 -64 -23
-243 -11 -303 13 -65 40 -124 73 -159 14 -15 25 -31 25 -36 0 -17 -34 -90 -42
-90 -5 0 -8 -7 -8 -15 0 -9 -7 -30 -17 -48 -15 -30 -39 -106 -48 -152 -21
-115 -26 -153 -31 -239 -2 -54 -7 -103 -10 -108 -3 -5 -1 -15 5 -22 8 -10 8
-22 1 -41 -10 -26 -58 -101 -82 -127 -25 -27 -53 -81 -138 -263 -56 -122 -77
-182 -99 -280 -12 -55 -29 -131 -38 -170 -18 -72 -27 -365 -12 -365 3 0 10
-21 14 -47 11 -75 43 -195 54 -206 6 -6 11 -20 11 -32 0 -12 5 -26 12 -33 7
-7 8 -12 2 -12 -5 0 -4 -4 2 -8 5 -4 17 -25 25 -47 9 -22 20 -39 25 -38 6 1
11 -7 11 -19 1 -11 13 -35 27 -53 14 -19 26 -36 26 -39 0 -19 189 -186 211
-186 5 0 27 -11 48 -25 21 -14 46 -27 57 -30 45 -10 153 -44 173 -54 11 -7 51
-14 89 -17 82 -6 103 -9 122 -16 20 -8 145 -36 190 -43 19 -3 59 -11 88 -17
42 -9 55 -9 61 1 6 10 17 9 47 -5 21 -9 46 -18 54 -20 8 -2 19 -9 25 -16 10
-13 190 -78 217 -78 7 0 26 -7 41 -15 15 -8 45 -17 65 -20 20 -3 64 -12 97
-20 181 -42 240 -49 470 -49 321 -1 434 11 685 77 216 57 316 94 450 165 149
79 195 132 195 220 0 52 -2 56 -44 93 -91 81 -161 77 -376 -26 -289 -138 -400
-173 -647 -205 -84 -11 -285 -9 -343 4 -11 3 -59 12 -107 22 -49 9 -88 21 -88
26 0 4 -12 8 -27 9 -30 1 -25 3 20 13 17 4 27 13 27 25 0 14 6 17 25 13 33 -6
60 15 43 35 -6 8 -7 13 -2 12 5 -1 12 0 17 1 12 4 26 7 37 9 6 0 10 5 10 10 0
5 14 23 30 39 19 19 30 25 30 16 0 -8 6 -14 14 -14 9 0 12 7 9 20 -4 14 4 25
28 39 19 12 30 21 25 21 -5 0 -1 9 9 20 12 13 14 20 6 20 -7 0 2 16 21 36 18
19 32 40 30 46 -2 7 2 7 12 -1 13 -11 14 -9 10 16 -3 19 -2 24 5 14 7 -11 12
-8 26 13 9 14 21 24 25 21 12 -8 41 6 34 16 -3 5 -10 9 -15 9 -6 0 -7 -5 -3
-12 4 -7 3 -8 -4 -4 -9 5 -8 12 1 26 14 23 23 25 30 8 4 -10 7 -10 18 0 23 22
49 15 49 -14 0 -14 4 -23 10 -19 5 3 7 12 4 19 -3 8 6 23 20 34 26 20 34 42
16 42 -5 0 -10 -6 -10 -14 0 -15 -29 -30 -39 -21 -3 3 1 10 9 15 7 4 15 19 17
32 3 22 2 22 -9 3 -20 -35 -46 -57 -57 -50 -6 3 -11 1 -11 -6 0 -7 -2 -10 -5
-7 -11 10 7 37 21 31 25 -10 14 12 -13 24 -22 11 -28 10 -39 -5 -12 -15 -13
-16 -14 0 0 12 -6 15 -22 10 -18 -4 -20 -2 -16 16 4 12 2 22 -3 22 -15 0 -10
22 9 36 15 12 15 15 2 24 -13 8 -13 10 3 10 9 0 17 5 17 11 0 6 -7 9 -15 5 -8
-3 -15 -1 -15 4 0 6 9 10 20 10 13 0 22 9 26 25 6 25 15 31 27 19 10 -10 -4
-34 -17 -27 -6 4 -5 -1 3 -11 13 -16 16 -12 36 40 19 52 24 57 54 59 18 2 38
8 44 15 9 10 7 11 -11 5 -22 -6 -23 -5 -12 15 7 12 8 20 3 17 -5 -3 -10 12
-10 35 -2 31 1 39 13 34 12 -5 12 -2 3 16 -11 20 -13 20 -24 4 -12 -15 -14
-14 -23 14 -7 18 -7 28 -2 25 6 -4 10 -13 10 -21 0 -8 4 -12 10 -9 14 9 8 74
-7 68 -6 -2 -10 4 -10 14 1 11 -4 18 -14 17 -11 -1 -15 5 -12 17 5 19 6 19 23
-1 9 -11 24 -20 31 -20 11 0 14 -10 11 -40 -3 -34 -2 -39 12 -34 17 7 21 20 7
26 -13 4 2 81 16 85 10 4 10 -3 1 -27 -12 -35 5 -115 22 -105 6 4 10 2 10 -4
0 -5 -6 -12 -12 -14 -10 -4 -10 -6 -1 -6 14 -1 38 38 29 47 -3 3 -6 -1 -6 -8
0 -11 -3 -11 -12 -2 -10 10 -10 15 2 23 13 8 13 9 -2 7 -17 -3 -18 -1 -18 29
0 15 1 15 13 -2 9 -11 19 -15 27 -10 9 6 11 4 5 -6 -7 -12 -5 -12 6 -1 8 7 14
26 15 42 1 26 -1 28 -22 19 -21 -7 -23 -6 -13 9 8 13 21 16 50 14 21 -2 39 0
39 5 0 9 -14 13 -55 14 -18 0 -17 2 5 14 14 8 19 14 13 15 -22 0 -14 20 7 20
11 0 20 7 20 15 0 8 5 15 11 15 5 0 7 -4 4 -10 -3 -5 -1 -10 4 -10 6 0 11 7
11 15 0 9 6 18 14 21 8 3 12 12 9 20 -3 9 2 14 16 14 30 0 26 15 -4 16 -14 1
-22 -2 -19 -7 9 -16 -5 -10 -26 11 -24 24 -25 31 -5 24 15 -6 16 -3 19 61 1
12 7 19 17 17 22 -3 18 42 -4 46 -9 2 -17 8 -17 13 0 6 -4 7 -10 4 -5 -3 -10
-1 -10 4 0 6 -7 11 -16 11 -9 0 -18 9 -21 20 -3 11 -13 20 -22 20 -12 0 -13
-2 -3 -9 10 -6 10 -10 -1 -20 -12 -9 -16 -8 -21 5 -3 9 -4 19 -2 23 3 4 -9 13
-25 20 -21 9 -29 20 -29 39 0 21 -2 24 -10 12 -5 -8 -10 -10 -10 -5 0 6 -5 3
-10 -5 -7 -11 -10 -7 -10 17 0 36 -15 51 -25 26 -3 -10 -1 -19 4 -21 6 -2 11
-9 11 -15 0 -8 -3 -8 -12 1 -9 9 -15 7 -25 -6 -11 -14 -11 -11 0 18 8 20 12
50 9 68 -2 19 0 32 6 32 6 0 9 -12 6 -26 -3 -18 -1 -25 8 -22 7 3 13 16 13 30
1 14 9 33 18 42 16 17 18 16 25 -5 5 -13 11 -18 15 -12 4 6 0 16 -8 23 -8 7
-12 17 -9 22 8 13 -4 58 -17 58 -6 0 -6 -7 1 -20 11 -21 3 -47 -23 -69 -12
-10 -15 -8 -13 13 0 13 4 22 8 20 4 -2 9 0 12 5 4 5 -4 11 -16 13 -20 3 -20 4
-6 18 8 9 19 27 23 40 7 24 7 24 -8 5 -15 -20 -16 -20 -40 3 -18 17 -26 20
-29 10 -3 -7 -5 2 -5 20 0 18 3 29 6 24 3 -4 17 -2 31 5 16 8 20 13 10 14 -8
1 -19 3 -25 4 -5 2 -16 3 -22 4 -7 0 -13 8 -13 16 0 8 -9 15 -20 15 -11 0 -20
5 -20 10 0 6 9 19 20 30 11 11 20 25 20 30 0 6 5 9 11 8 26 -6 17 18 -11 29
-22 8 -32 8 -40 -1 -5 -7 -7 -16 -3 -20 4 -4 -1 -4 -12 0 -17 6 -18 5 -8 -7 9
-12 6 -14 -20 -15 -18 -1 -24 1 -14 3 9 2 17 11 17 18 0 11 -11 13 -50 9 -50
-6 -66 6 -34 24 15 8 15 10 0 15 -18 7 -18 7 -20 -50 -2 -25 2 -39 8 -36 18
12 -22 -39 -43 -54 -12 -8 -18 -19 -15 -25 5 -8 1 -9 -10 -5 -14 6 -15 3 -6
-14 8 -13 8 -24 2 -32 -6 -7 -12 -23 -14 -36 -2 -17 -14 -29 -36 -38 -25 -10
-32 -10 -26 -2 5 9 2 10 -10 6 -10 -4 -16 -2 -15 6 3 23 -1 37 -11 37 -5 0
-10 -7 -10 -15 0 -8 -5 -15 -11 -15 -5 0 -7 5 -3 11 4 7 7 25 6 40 0 16 4 31
9 34 5 4 9 19 9 34 0 16 7 34 15 41 8 7 15 20 15 30 0 10 -7 23 -15 30 -8 7
-15 18 -15 24 0 15 36 46 53 46 6 0 -1 -9 -16 -19 -16 -10 -24 -21 -19 -25 5
-3 15 1 22 9 7 8 17 15 23 15 7 0 7 -4 -1 -12 -7 -7 -12 -19 -12 -27 1 -12 6
-9 21 9 15 18 19 32 14 57 -4 20 -2 33 5 33 5 0 9 -3 8 -7 -4 -14 22 -53 35
-53 8 0 12 -11 11 -28 -1 -18 3 -29 12 -29 7 0 11 4 8 9 -8 12 -15 72 -8 65 4
-3 18 5 32 19 15 13 32 24 39 24 7 0 13 7 13 15 0 13 -4 12 -22 -5 -12 -11
-24 -17 -27 -14 -3 3 2 12 13 19 10 8 15 18 11 24 -3 6 -1 11 4 11 6 0 11 5
11 11 0 8 -5 8 -15 -1 -8 -7 -15 -18 -15 -25 0 -8 -9 -11 -22 -9 -21 4 -22 4
-3 -5 l20 -10 -20 0 c-12 -1 -16 -4 -9 -9 9 -5 8 -11 -2 -20 -10 -9 -14 -9
-14 -1 0 7 -9 9 -27 4 -21 -5 -24 -4 -16 7 12 15 13 49 2 42 -5 -2 -6 -12 -3
-22 5 -14 3 -14 -6 2 -10 15 -14 16 -21 5 -4 -7 -12 -10 -16 -5 -4 4 1 14 11
22 14 10 15 14 6 14 -8 0 -24 -12 -37 -26 -36 -43 -85 -12 -62 39 9 20 17 23
56 20 42 -3 44 -3 38 19 -6 19 -5 21 6 11 17 -16 26 -16 32 0 3 9 -5 14 -25
15 -17 1 -38 12 -47 23 -26 32 -59 10 -52 -34 1 -4 -4 -18 -11 -30 -7 -12 -13
-26 -14 -32 -1 -5 -7 -21 -12 -35 l-11 -25 0 26 c-1 26 -28 59 -48 59 -6 0
-13 4 -15 10 -1 5 -13 7 -25 4 -13 -4 -21 -10 -18 -14 3 -5 0 -12 -6 -16 -8
-4 -9 -3 -5 4 4 7 3 12 -2 12 -6 0 -8 9 -5 20 3 11 9 17 14 14 5 -3 9 0 9 5 0
6 -6 11 -14 11 -8 0 -13 8 -11 18 2 9 4 22 5 27 1 6 5 1 9 -9 5 -13 10 -16 14
-9 4 6 0 19 -9 27 -8 9 -12 16 -8 16 3 0 0 8 -7 17 -8 9 -9 14 -4 11 6 -4 17
-3 24 1 15 10 2 72 -17 79 -8 2 -10 -3 -5 -15 3 -10 3 -15 -2 -11 -4 4 -14 3
-22 -4 -19 -16 -6 19 20 52 12 15 18 18 14 8 -4 -10 -2 -18 3 -18 6 0 10 8 10
18 0 9 5 24 11 32 8 11 9 5 4 -23 -4 -27 -3 -37 4 -32 6 3 11 11 11 16 0 5 6
16 13 24 10 11 16 10 35 -8 12 -11 22 -15 22 -8 0 6 -7 14 -15 17 -8 4 -15 11
-15 17 0 7 4 7 12 -1 20 -20 28 -13 21 20 -4 21 -3 29 5 24 16 -10 25 13 12
29 -13 15 -35 10 -25 -5 3 -5 -4 -14 -16 -21 -25 -13 -42 3 -35 33 2 10 0 21
-5 24 -5 3 -7 10 -4 15 4 5 1 9 -4 9 -6 0 -11 -4 -11 -10 0 -5 -8 -10 -17 -10
-15 1 -14 4 7 21 l25 21 10 -24 c6 -15 16 -23 25 -20 11 4 11 1 -2 -12 -20
-20 -13 -47 10 -39 11 5 12 8 4 11 -27 9 9 31 39 25 34 -7 41 16 8 24 -21 6
-21 7 -4 20 17 12 18 13 1 13 -9 0 -15 4 -11 10 3 5 13 6 23 3 15 -6 15 -5 3
11 -13 16 -15 15 -30 -7 -14 -20 -21 -22 -51 -16 -19 4 -38 5 -42 3 -5 -3 -8
0 -8 5 0 6 15 12 33 13 57 2 62 4 59 17 -2 8 4 21 13 31 9 10 15 23 13 30 -2
7 3 15 10 17 7 3 10 -1 6 -10 -3 -8 -1 -18 4 -21 15 -9 23 23 12 45 -13 23 -6
37 24 49 l21 9 -22 0 c-16 1 -21 6 -17 16 4 8 1 15 -5 15 -6 0 -11 7 -11 15 0
8 -7 15 -15 15 -8 0 -15 -5 -15 -10 0 -6 -10 -8 -24 -4 -25 6 -66 -10 -66 -25
0 -5 9 -7 20 -4 11 3 20 9 20 14 0 5 5 9 12 9 18 0 -12 -26 -39 -35 -17 -5
-23 -2 -23 9 0 18 -6 20 -23 6 -80 -65 -77 -64 -91 -44 -15 19 -11 40 11 62
12 12 17 8 14 -10 0 -5 12 -8 29 -8 16 0 30 5 30 11 0 5 -10 9 -22 7 -20 -3
-23 2 -26 40 -2 23 1 42 7 42 5 0 29 18 52 40 24 22 47 40 51 40 4 0 8 9 8 20
0 12 5 17 13 14 8 -3 13 4 14 17 1 12 8 26 15 30 7 5 8 9 3 9 -6 0 -11 9 -11
20 0 11 7 20 15 20 11 0 10 4 -5 15 -18 14 -18 14 4 8 22 -5 32 12 11 19 -7 2
-4 10 7 18 10 9 15 10 10 3 -10 -17 12 -55 27 -48 7 4 4 0 -7 -9 -18 -14 -18
-16 0 -33 14 -14 17 -14 12 -3 -7 18 18 57 29 46 4 -4 2 -11 -6 -15 -9 -6 -10
-19 -5 -47 6 -31 8 -35 14 -19 4 11 3 23 -2 26 -12 8 0 36 18 43 13 5 12 9 -2
31 -9 14 -14 28 -11 31 3 3 8 -4 12 -15 3 -12 11 -21 18 -21 8 0 8 3 -1 12 -7
7 -12 23 -11 38 0 14 3 19 6 13 6 -16 33 8 33 29 0 7 8 24 17 38 12 17 13 25
5 28 -7 2 -10 8 -6 13 3 5 -2 9 -10 9 -12 0 -14 -7 -9 -30 4 -24 2 -30 -11
-30 -9 0 -20 -10 -25 -22 -8 -22 -8 -22 -18 -3 -11 22 -7 45 9 45 6 0 6 -6 -2
-15 -9 -11 -9 -15 -1 -15 18 0 24 29 10 48 -11 14 -11 15 1 5 22 -20 29 -15
20 15 -6 22 -4 29 6 29 8 0 14 -4 14 -9 0 -4 7 -8 15 -8 8 0 15 -6 15 -14 0
-8 7 -17 16 -20 14 -5 13 -9 -7 -24 -15 -13 -19 -21 -11 -26 7 -4 12 -1 12 6
0 7 11 18 24 24 20 9 26 9 31 -4 6 -16 15 -12 20 10 9 36 18 58 26 58 4 0 11
16 15 35 3 19 11 33 17 32 6 -1 13 6 15 16 2 10 0 17 -5 16 -23 -4 -31 3 -26
22 4 12 0 25 -8 29 -9 6 -3 8 18 8 22 -1 34 -8 42 -24 5 -12 20 -28 33 -34
l23 -11 -23 18 c-13 10 -20 22 -16 26 12 12 26 8 18 -5 -5 -10 -4 -10 6 -1 11
10 11 15 -1 29 -12 14 -10 19 14 40 16 13 23 26 16 29 -7 5 -5 15 5 31 18 26
20 38 7 30 -5 -3 -12 2 -15 11 -4 9 -1 20 6 25 10 6 9 8 -4 8 -11 0 -15 5 -12
14 3 8 1 17 -5 21 -7 3 -8 0 -5 -9 4 -9 1 -16 -6 -16 -10 0 -10 -3 0 -15 6 -8
9 -19 5 -25 -4 -6 -1 -17 5 -25 13 -15 4 -20 -27 -16 -7 1 -13 -3 -13 -9 0 -5
9 -10 19 -10 10 0 21 -6 23 -12 6 -16 -24 -46 -40 -40 -7 2 -12 -1 -12 -8 0
-6 5 -8 10 -5 6 3 10 2 10 -4 0 -18 -20 -23 -26 -6 -5 11 -10 13 -19 5 -16
-14 -27 12 -19 45 3 13 2 29 -2 36 -10 17 -11 69 -1 69 4 0 4 8 -1 18 -5 9 -8
28 -6 41 4 19 2 22 -10 12 -11 -9 -15 -9 -18 1 -3 7 -21 12 -48 11 -36 -1 -49
-6 -67 -29 -13 -16 -23 -36 -23 -44 0 -13 -1 -13 -10 0 -6 9 -10 10 -10 3 0
-20 20 -26 26 -8 6 13 8 14 15 3 10 -16 12 -34 2 -25 -3 4 -15 0 -25 -10 -17
-15 -18 -15 -18 0 0 20 -6 21 -24 5 -11 -10 -6 -15 23 -26 61 -24 101 -23 111
1 5 12 9 17 9 10 1 -6 4 -20 7 -30 4 -13 3 -14 -4 -5 -7 11 -10 10 -16 -3 -3
-9 -3 -22 1 -27 3 -7 1 -8 -5 -4 -7 4 -12 2 -12 -3 0 -6 4 -11 9 -11 6 0 3
-12 -5 -27 -7 -16 -14 -32 -14 -38 0 -14 18 7 22 27 2 13 7 15 18 8 13 -9 12
-13 -7 -29 -28 -24 -29 -35 -3 -28 27 7 43 -15 31 -44 l-9 -24 -7 27 c-4 17
-15 28 -28 30 -18 2 -22 10 -23 41 -1 33 -14 69 -14 38 0 -7 -4 -9 -10 -6 -9
6 -14 -8 -11 -27 0 -5 -6 -8 -14 -8 -8 0 -15 4 -15 8 0 5 -13 23 -29 40 -25
29 -30 31 -42 16 -7 -8 -13 -24 -14 -35 -3 -43 -27 -37 -30 8 -4 57 -4 56 -20
43 -11 -9 -15 -9 -15 -1 0 7 -4 9 -10 6 -16 -10 -12 -21 13 -34 l22 -11 -22 6
c-16 4 -23 1 -23 -9 0 -9 6 -17 13 -20 9 -4 9 -7 0 -18 -18 -18 -27 -4 -26 36
1 19 -3 32 -8 29 -5 -3 -9 -12 -9 -20 0 -12 -2 -12 -14 -2 -8 7 -10 15 -5 16
5 2 6 9 2 15 -4 6 -8 20 -8 31 -2 17 -1 17 10 2 20 -27 27 -18 8 11 -13 19
-14 28 -5 31 7 2 10 8 6 13 -3 5 0 9 5 9 6 0 11 7 11 15 0 9 10 19 22 24 16 6
22 16 23 36 0 16 6 30 13 33 6 2 12 -3 12 -12 0 -9 -4 -16 -10 -16 -5 0 -10
-5 -10 -11 0 -6 6 -7 13 -2 6 4 4 -5 -6 -20 -15 -23 -15 -27 -2 -27 8 0 15 6
15 14 0 25 22 30 40 9 9 -11 25 -23 36 -27 17 -5 20 -2 18 16 -1 13 -3 27 -3
32 -1 6 -7 2 -14 -9 -8 -10 -19 -15 -24 -12 -13 8 -15 77 -2 77 5 0 9 -7 9
-15 0 -19 27 -19 46 -1 16 16 19 40 4 31 -5 -3 -10 -2 -10 4 0 5 -9 13 -20 16
-11 3 -20 11 -20 16 0 6 4 8 9 5 5 -4 20 -2 33 3 l23 10 -22 0 c-13 1 -23 5
-23 11 0 5 -6 7 -13 4 -8 -3 -19 2 -26 10 -10 11 -18 13 -31 6 -12 -6 -20 -6
-22 0 -3 9 -12 5 -68 -28 -12 -8 -19 -9 -16 -3 4 6 3 11 -3 11 -5 0 -15 -8
-20 -17 -8 -13 -9 13 -5 90 l6 107 -32 31 c-27 27 -36 31 -67 26 -62 -10 -198
-111 -400 -294 l-92 -84 -68 21 c-98 30 -238 37 -341 16 l-83 -17 -100 90
c-183 165 -338 271 -395 271 -15 0 -30 -10 -41 -27z m1757 -277 c0 -3 -4 -8
-10 -11 -5 -3 -10 -1 -10 4 0 6 5 11 10 11 6 0 10 -2 10 -4z m174 -90 c-3 -8
-12 -12 -20 -9 -17 6 -9 23 11 23 8 0 12 -6 9 -14z m-4 -76 c0 -5 -5 -10 -11
-10 -5 0 -7 5 -4 10 3 6 8 10 11 10 2 0 4 -4 4 -10z m94 -58 c-8 -7 -12 -17
-10 -21 3 -4 -6 -8 -19 -9 l-24 -2 25 25 c15 15 22 30 18 42 -6 16 -5 16 8 -1
13 -17 14 -22 2 -34z m-640 13 c-4 -8 -11 -15 -16 -15 -6 0 -5 6 2 15 7 8 14
15 16 15 2 0 1 -7 -2 -15z m238 -44 c4 -26 1 -30 -24 -33 -15 -3 -28 -1 -28 4
0 4 7 8 15 8 20 0 19 19 -1 27 -13 5 -13 7 -2 14 24 15 36 9 40 -20z m188 -21
c0 -20 -5 -30 -15 -30 -18 0 -18 1 -5 34 13 34 20 33 20 -4z m25 -10 c3 -5 1
-10 -4 -10 -6 0 -11 5 -11 10 0 6 2 10 4 10 3 0 8 -4 11 -10z m12 -42 c-3 -8
-6 -5 -6 6 -1 11 2 17 5 13 3 -3 4 -12 1 -19z m183 12 c0 -5 -2 -10 -4 -10 -3
0 -8 5 -11 10 -3 6 -1 10 4 10 6 0 11 -4 11 -10z m-120 -36 c0 -8 8 -14 18
-14 10 0 23 -13 31 -31 12 -27 12 -33 0 -40 -12 -8 -12 -11 1 -19 13 -9 13
-11 0 -19 -18 -12 -25 -7 -44 31 -20 39 -20 54 -1 34 8 -8 15 -24 15 -35 0
-12 4 -21 10 -21 5 0 7 7 3 16 -3 9 0 19 6 24 20 12 -9 52 -32 46 -11 -3 -17
-2 -14 1 3 3 2 16 -4 30 -6 16 -6 22 1 18 6 -3 10 -13 10 -21z m120 -20 c0 -6
-6 -11 -12 -11 -7 0 -13 13 -14 29 -1 25 0 26 12 10 7 -9 14 -22 14 -28z
m-148 18 c-7 -2 -10 -8 -6 -13 3 -5 0 -9 -5 -9 -12 0 -15 23 -5 33 4 4 12 4
17 0 8 -5 7 -8 -1 -11z m-102 -26 c0 -2 -7 -6 -15 -10 -8 -3 -15 -1 -15 4 0 6
7 10 15 10 8 0 15 -2 15 -4z m32 -58 c-8 -8 -9 -4 -5 13 4 13 8 18 11 10 2 -7
-1 -18 -6 -23z m-82 -20 c0 -24 -19 -33 -27 -13 -3 10 0 21 8 26 11 7 11 9 1
9 -7 0 -10 5 -6 11 8 14 24 -8 24 -33z m137 36 c-3 -3 -12 -4 -19 -1 -8 3 -5
6 6 6 11 1 17 -2 13 -5z m143 -6 c0 -4 -4 -8 -9 -8 -6 0 -12 4 -15 8 -3 5 1 9
9 9 8 0 15 -4 15 -9z m-220 -12 c0 -3 -4 -8 -10 -11 -5 -3 -10 -1 -10 4 0 6 5
11 10 11 6 0 10 -2 10 -4z m-370 -26 c0 -5 -5 -10 -11 -10 -5 0 -7 5 -4 10 3
6 8 10 11 10 2 0 4 -4 4 -10z m351 -23 c-10 -9 -11 -8 -5 6 3 10 9 15 12 12 3
-3 0 -11 -7 -18z m44 13 c-3 -5 -12 -10 -18 -10 -7 0 -6 4 3 10 19 12 23 12
15 0z m-289 -27 c1 -14 -5 -23 -13 -23 -8 0 -11 -5 -8 -10 4 -6 -5 -5 -19 2
-43 19 -33 61 14 56 18 -2 25 -9 26 -25z m-126 -24 c0 -17 4 -28 10 -24 6 3
10 1 10 -4 0 -16 -11 -14 -47 8 -23 14 -33 16 -37 8 -2 -7 -5 -2 -5 11 -1 13
3 20 9 17 6 -3 10 -1 10 4 0 6 11 11 25 11 21 0 25 -5 25 -31z m400 12 c0 -15
-31 -22 -48 -11 -14 9 -13 10 6 5 13 -4 22 -2 22 4 0 6 5 11 10 11 6 0 10 -4
10 -9z m-180 -21 c0 -5 -5 -10 -11 -10 -5 0 -7 5 -4 10 3 6 8 10 11 10 2 0 4
-4 4 -10z m197 -40 c12 0 9 -7 -10 -26 -15 -15 -24 -31 -20 -38 3 -6 0 -5 -8
2 -12 11 -12 14 1 22 13 9 13 10 0 10 -13 1 -13 2 1 13 9 7 15 18 13 25 -1 7
0 8 3 2 2 -5 12 -10 20 -10z m-60 -6 c-3 -3 -12 -4 -19 -1 -8 3 -5 6 6 6 11 1
17 -2 13 -5z m-140 -59 c0 -8 -6 -15 -14 -15 -7 0 -13 7 -13 15 0 8 6 15 13
15 8 0 14 -7 14 -15z m38 -7 c6 -4 2 -8 -7 -8 -10 0 -18 7 -18 17 0 9 3 12 8
7 4 -5 12 -12 17 -16z m160 12 c3 -5 1 -10 -4 -10 -6 0 -11 5 -11 10 0 6 2 10
4 10 3 0 8 -4 11 -10z m-175 -50 c0 -5 -7 -10 -16 -10 -8 0 -12 5 -9 10 3 6
10 10 16 10 5 0 9 -4 9 -10z m-96 -59 c3 -5 0 -11 -7 -14 -8 -3 -14 1 -14 9 0
16 13 19 21 5z m146 -1 c0 -5 -7 -10 -16 -10 -8 0 -12 5 -9 10 3 6 10 10 16
10 5 0 9 -4 9 -10z m-590 -80 c0 -5 -4 -10 -10 -10 -5 0 -10 5 -10 10 0 6 5
10 10 10 6 0 10 -4 10 -10z m344 -146 c9 -8 16 -20 16 -25 0 -17 -41 -50 -52
-43 -7 4 -23 8 -36 9 -33 1 -44 23 -25 52 18 27 73 32 97 7z m291 -24 c3 -5 1
-10 -4 -10 -6 0 -11 5 -11 10 0 6 2 10 4 10 3 0 8 -4 11 -10z m12 -47 c1 -19
-1 -22 -8 -12 -7 11 -9 11 -9 -3 0 -10 -4 -18 -9 -18 -12 0 -1 43 13 52 6 4
11 8 11 8 0 0 1 -12 2 -27z m-107 -23 c0 -5 -5 -10 -11 -10 -5 0 -7 5 -4 10 3
6 8 10 11 10 2 0 4 -4 4 -10z m-131 -53 c13 4 13 2 -2 -7 -19 -12 -37 -6 -37
13 0 8 3 8 11 0 6 -6 19 -9 28 -6z m171 -26 c0 -5 -8 -11 -17 -14 -10 -2 -25
-8 -34 -11 -10 -5 -19 -1 -22 9 -5 12 -1 14 18 11 14 -3 27 0 30 5 8 12 25 12
25 0z m-190 -15 c0 -8 -4 -17 -9 -21 -12 -7 -24 12 -16 25 9 15 25 12 25 -4z
m50 -46 c0 -5 -4 -10 -10 -10 -5 0 -10 5 -10 10 0 6 5 10 10 10 6 0 10 -4 10
-10z m180 -21 c0 -4 -7 -6 -15 -3 -8 4 -15 10 -15 15 0 4 7 6 15 3 8 -4 15
-10 15 -15z m-645 -19 c-3 -5 -10 -10 -16 -10 -5 0 -9 5 -9 10 0 6 7 10 16 10
8 0 12 -4 9 -10z m440 -50 c3 -5 1 -10 -4 -10 -6 0 -11 5 -11 10 0 6 2 10 4
10 3 0 8 -4 11 -10z m115 -24 c0 -2 -7 -7 -16 -10 -8 -3 -12 -2 -9 4 6 10 25
14 25 6z m-100 -76 c0 -10 -8 -21 -17 -24 -15 -6 -15 -8 -3 -16 17 -11 9 -13
-14 -4 -20 8 -20 23 0 52 17 25 34 21 34 -8z m-93 -36 c-3 -4 -2 -15 3 -24 9
-17 -4 -30 -31 -30 -21 0 4 59 25 60 5 0 6 -3 3 -6z m-53 -39 c-4 -8 -10 -15
-15 -15 -4 0 -6 7 -3 15 4 8 10 15 15 15 4 0 6 -7 3 -15z m201 5 c3 -5 2 -10
-4 -10 -5 0 -13 5 -16 10 -3 6 -2 10 4 10 5 0 13 -4 16 -10z m215 -104 c0 -3
-4 -8 -10 -11 -5 -3 -10 -1 -10 4 0 6 5 11 10 11 6 0 10 -2 10 -4z m-300 -25
c0 -6 -4 -13 -10 -16 -5 -3 -10 1 -10 9 0 9 5 16 10 16 6 0 10 -4 10 -9z m137
-77 c-3 -3 -12 -4 -19 -1 -8 3 -5 6 6 6 11 1 17 -2 13 -5z m3 -50 c0 -3 -6
-12 -14 -20 -16 -15 -32 -2 -21 16 7 11 35 14 35 4z m280 -28 c0 -3 -4 -8 -10
-11 -5 -3 -10 -1 -10 4 0 6 5 11 10 11 6 0 10 -2 10 -4z m-150 -16 c0 -5 -4
-10 -10 -10 -5 0 -10 5 -10 10 0 6 5 10 10 10 6 0 10 -4 10 -10z m-156 -26
c13 -5 14 -9 5 -20 -9 -11 -15 -11 -25 -3 -8 6 -11 15 -8 20 6 11 8 11 28 3z
m503 -26 c-3 -8 -6 -5 -6 6 -1 11 2 17 5 13 3 -3 4 -12 1 -19z m-432 -48 c8
-13 -5 -13 -25 0 -13 8 -13 10 2 10 9 0 20 -4 23 -10z m259 -87 c-3 -50 -3
-50 -13 -34 -6 9 -11 10 -15 2 -4 -6 -2 -11 4 -11 6 0 15 -10 20 -22 8 -22 9
-22 9 5 1 15 6 27 12 27 6 0 9 -7 5 -15 -3 -8 -1 -15 4 -15 6 0 10 4 10 8 0 5
7 9 15 9 8 0 12 -4 10 -8 -10 -15 29 -19 44 -4 15 15 14 15 -4 9 -18 -7 -19
-6 -6 10 8 9 23 15 32 13 10 -3 20 -1 23 4 2 5 3 4 2 -3 -2 -7 -9 -12 -15 -10
-7 1 -10 -2 -7 -7 17 -27 -26 -57 -58 -39 -12 7 -18 4 -23 -9 -4 -10 -13 -24
-20 -31 -11 -11 -13 -11 -13 1 0 17 -44 59 -53 50 -4 -3 -7 3 -7 14 0 11 7 26
15 33 8 7 12 16 9 21 -4 6 12 34 22 39 0 0 0 -17 -2 -37z m188 -31 c-7 -2 -9
-9 -6 -14 4 -7 2 -8 -4 -4 -6 4 -9 13 -6 21 4 8 11 12 17 8 8 -5 7 -8 -1 -11z
m-17 -31 c3 -5 1 -12 -5 -16 -5 -3 -10 1 -10 9 0 18 6 21 15 7z m-447 -32 c-3
-8 -7 -3 -11 10 -4 17 -3 21 5 13 5 -5 8 -16 6 -23z m352 -9 c0 -5 -5 -10 -11
-10 -5 0 -7 5 -4 10 3 6 8 10 11 10 2 0 4 -4 4 -10z m-316 -43 c-9 -30 -11
-32 -29 -17 -14 12 -14 15 1 31 21 23 37 15 28 -14z m38 -29 c-9 -9 -12 -7
-12 12 0 19 3 21 12 12 9 -9 9 -15 0 -24z m145 -4 c-3 -3 -12 -4 -19 -1 -8 3
-5 6 6 6 11 1 17 -2 13 -5z m103 -34 c0 -5 -5 -10 -11 -10 -5 0 -7 5 -4 10 3
6 8 10 11 10 2 0 4 -4 4 -10z m24 -15 c-4 -8 -2 -15 2 -15 5 0 9 -17 10 -38 1
-20 -1 -29 -3 -19 -5 19 -28 23 -38 7 -13 -21 -25 -9 -25 25 0 28 4 35 19 35
11 0 23 5 26 10 9 15 15 12 9 -5z m60 1 c-21 -15 -30 -14 -19 3 3 6 14 11 23
11 13 0 13 -2 -4 -14z m-154 0 c0 -3 -4 -8 -10 -11 -5 -3 -10 -1 -10 4 0 6 5
11 10 11 6 0 10 -2 10 -4z m-242 -27 c-2 -6 -8 -10 -13 -10 -5 0 -11 4 -13 10
-2 6 4 11 13 11 9 0 15 -5 13 -11z m465 -36 c-7 -2 -13 -9 -13 -14 0 -4 7 -6
15 -3 11 5 13 2 9 -10 -8 -20 -23 -21 -30 -1 -4 8 -14 15 -23 16 -12 0 -12 2
4 9 11 5 27 9 35 9 10 -1 11 -2 3 -6z m-68 -25 c5 4 5 1 1 -5 -10 -19 -36 -16
-36 3 0 13 3 14 13 5 8 -6 18 -7 22 -3z m137 -30 c-8 -8 -8 -16 0 -32 10 -19
10 -20 -5 -7 -20 16 -22 37 -4 44 20 9 22 8 9 -5z m48 -8 c0 -5 -7 -10 -16
-10 -9 0 -12 -5 -8 -12 4 -7 3 -8 -4 -4 -6 4 -9 13 -5 21 6 17 33 21 33 5z
m-67 -31 c18 -33 23 -74 7 -64 -5 3 -10 17 -10 31 0 14 -7 27 -15 30 -8 4 -15
12 -15 20 0 23 14 16 33 -17z m-125 1 c-7 -11 -16 -20 -20 -20 -5 0 -3 9 4 20
7 11 16 20 20 20 5 0 3 -9 -4 -20z m62 -35 c0 -11 -14 7 -31 40 -7 13 -3 12
10 -5 11 -14 21 -29 21 -35z m20 49 c0 -8 -19 -13 -24 -6 -3 5 1 9 9 9 8 0 15
-2 15 -3z m-200 -19 c0 -8 -2 -15 -4 -15 -2 0 -6 7 -10 15 -3 8 -1 15 4 15 6
0 10 -7 10 -15z m307 -4 c0 -11 -5 -18 -9 -15 -4 3 -5 11 -1 19 7 21 12 19 10
-4z m-82 -11 c3 -5 1 -10 -4 -10 -6 0 -11 5 -11 10 0 6 2 10 4 10 3 0 8 -4 11
-10z m-65 -47 c0 -7 7 -13 16 -13 10 0 14 -6 11 -14 -6 -16 16 -40 27 -29 4 4
4 1 1 -8 -7 -18 33 -81 55 -86 13 -4 13 -3 0 6 -9 6 -13 23 -12 45 1 19 -2 37
-8 41 -5 3 -10 10 -10 16 0 5 8 4 18 -2 13 -8 16 -21 14 -50 -3 -31 -1 -39 12
-39 9 0 15 -6 14 -12 -2 -7 5 -12 14 -12 10 1 15 -2 12 -8 -3 -5 -14 -6 -25
-3 -11 4 -19 2 -19 -4 0 -6 12 -11 28 -12 l27 -1 -28 -10 c-24 -9 -32 -7 -48
10 -10 12 -19 26 -19 31 0 5 -4 12 -9 15 -5 4 -7 -3 -4 -14 4 -15 1 -19 -9
-15 -14 6 -20 45 -6 45 5 0 3 9 -4 20 -19 31 -27 24 -21 -17 3 -21 2 -35 -2
-31 -5 4 -14 3 -21 -2 -8 -8 -17 -6 -29 7 -16 16 -16 17 2 24 11 4 27 19 36
33 16 24 16 25 0 19 -12 -5 -15 -2 -10 10 3 9 3 17 -1 17 -4 0 -8 12 -9 27 0
14 -8 30 -17 35 -9 5 -13 14 -10 20 8 13 34 -18 34 -39z m282 -33 c-5 -36 -7
-35 -16 3 -4 19 -3 27 7 27 9 0 12 -9 9 -30z m-142 0 c0 -5 -2 -10 -4 -10 -3
0 -8 5 -11 10 -3 6 -1 10 4 10 6 0 11 -4 11 -10z m170 -25 c0 -5 -5 -3 -10 5
-5 8 -10 20 -10 25 0 6 5 3 10 -5 5 -8 10 -19 10 -25z m-525 3 c-1 -13 -3 -29
-4 -35 -1 -15 -27 -17 -36 -3 -10 16 4 48 23 53 9 3 18 5 18 6 1 0 0 -9 -1
-21z m-545 -2 c0 -3 -4 -8 -10 -11 -5 -3 -10 -1 -10 4 0 6 5 11 10 11 6 0 10
-2 10 -4z m724 -25 c16 -17 16 -19 -4 -24 -11 -3 -23 -1 -26 4 -3 5 3 9 12 9
16 0 16 1 -2 15 -10 8 -14 15 -8 15 6 0 19 -8 28 -19z m185 4 c5 2 7 -6 6 -18
-3 -29 -3 -29 -16 -21 -8 4 -7 9 2 15 10 6 11 9 2 9 -7 0 -13 8 -12 18 0 10 3
12 6 4 2 -6 8 -10 12 -7z m40 -21 c-15 -18 -22 -13 -13 10 3 9 10 13 16 10 5
-3 4 -12 -3 -20z m56 6 c3 -5 1 -10 -4 -10 -6 0 -11 5 -11 10 0 6 2 10 4 10 3
0 8 -4 11 -10z m-15 -44 c0 -3 -4 -8 -10 -11 -5 -3 -10 -1 -10 4 0 6 5 11 10
11 6 0 10 -2 10 -4z m41 -10 c5 3 9 0 9 -6 0 -7 -7 -10 -15 -6 -8 3 -15 0 -15
-6 0 -6 -2 -9 -5 -6 -3 3 -2 13 2 24 4 11 8 13 11 6 2 -7 8 -10 13 -6z m30
-29 c-10 -9 -11 -8 -5 6 3 10 9 15 12 12 3 -3 0 -11 -7 -18z m-267 -8 c-3 -5
-10 -7 -15 -3 -5 3 -7 10 -3 15 3 5 10 7 15 3 5 -3 7 -10 3 -15z m281 -19 c3
-5 -1 -10 -9 -10 -9 0 -16 5 -16 10 0 6 4 10 9 10 6 0 13 -4 16 -10z m-93 -26
c-3 -18 -7 -22 -13 -13 -4 7 -3 19 3 26 15 18 16 17 10 -13z m-115 -6 c-3 -8
-6 -5 -6 6 -1 11 2 17 5 13 3 -3 4 -12 1 -19z m-53 -10 c-8 -29 -26 -40 -39
-27 -6 6 -5 13 5 19 8 5 11 10 5 10 -12 0 16 20 28 20 5 0 5 -10 1 -22z m116
2 c0 -5 -5 -10 -11 -10 -5 0 -7 5 -4 10 3 6 8 10 11 10 2 0 4 -4 4 -10z m35
-30 c-3 -5 -11 -10 -16 -10 -6 0 -7 5 -4 10 3 6 11 10 16 10 6 0 7 -4 4 -10z
m-135 -19 c0 -6 -4 -13 -10 -16 -5 -3 -10 1 -10 9 0 9 5 16 10 16 6 0 10 -4
10 -9z m80 5 c0 -3 -4 -8 -10 -11 -5 -3 -10 -1 -10 4 0 6 5 11 10 11 6 0 10
-2 10 -4z m-50 -16 c0 -5 -4 -10 -10 -10 -5 0 -10 5 -10 10 0 6 5 10 10 10 6
0 10 -4 10 -10z m104 -6 c3 -8 2 -12 -4 -9 -6 3 -10 10 -10 16 0 14 7 11 14
-7z m-164 -8 c0 -2 -7 -7 -16 -10 -8 -3 -12 -2 -9 4 6 10 25 14 25 6z m-613
-38 c-3 -8 -6 -5 -6 6 -1 11 2 17 5 13 3 -3 4 -12 1 -19z m653 -102 c0 -8 3
-22 7 -32 4 -12 3 -15 -5 -10 -7 4 -12 16 -12 26 0 10 -8 21 -17 23 -14 4 -12
5 5 6 13 1 22 -5 22 -13z m-17 -66 c-2 -14 -11 -32 -20 -40 -14 -13 -15 -13
-9 3 3 10 9 37 13 60 5 32 8 37 13 22 4 -11 5 -31 3 -45z m-38 20 c3 -5 1 -10
-4 -10 -6 0 -11 5 -11 10 0 6 2 10 4 10 3 0 8 -4 11 -10z m85 -27 c-1 -24 -2
-26 -11 -10 -5 9 -7 22 -4 27 10 17 15 11 15 -17z m-23 -23 c-3 -13 0 -20 9
-20 8 0 14 -5 14 -11 0 -7 -10 -9 -25 -5 -22 6 -25 3 -25 -19 0 -14 -2 -25 -4
-25 -2 0 -12 -3 -21 -6 -13 -5 -12 0 6 35 11 22 26 41 31 41 6 0 8 7 4 15 -3
8 0 15 5 15 6 0 9 -9 6 -20z m-241 -339 c-11 -18 -39 -13 -32 5 3 9 6 21 6 27
0 6 7 4 16 -5 9 -9 13 -21 10 -27z"/>
<path d="M8705 4840 c-3 -5 -1 -10 4 -10 6 0 11 5 11 10 0 6 -2 10 -4 10 -3 0
-8 -4 -11 -10z"/>
<path d="M8585 7620 c-10 -11 -14 -20 -9 -20 5 0 17 9 27 20 9 11 13 20 8 20
-4 0 -16 -9 -26 -20z"/>
<path d="M9065 7540 c-3 -5 -14 -10 -24 -10 -10 0 -18 -7 -18 -15 0 -9 6 -14
13 -11 17 7 24 -15 12 -38 -7 -12 -7 -16 0 -12 6 3 14 2 17 -4 5 -8 11 -7 21
1 21 17 17 31 -5 19 -18 -9 -19 -7 -14 27 3 21 11 41 17 45 8 5 7 8 -1 8 -6 0
-15 -4 -18 -10z"/>
<path d="M8494 7529 c-3 -6 -13 -8 -21 -5 -9 4 -13 1 -11 -10 2 -8 7 -14 12
-14 5 1 12 -3 15 -9 8 -12 51 -3 51 10 0 5 9 9 20 9 21 0 28 19 8 21 -7 1 -25
3 -40 5 -15 1 -30 -2 -34 -7z"/>
<path d="M9115 7510 c-3 -6 1 -7 9 -4 18 7 21 14 7 14 -6 0 -13 -4 -16 -10z"/>
<path d="M8961 7474 c-6 -15 -9 -29 -7 -32 3 -2 10 8 16 23 6 15 9 29 7 31 -2
2 -9 -8 -16 -22z"/>
<path d="M9130 7481 c0 -6 5 -13 10 -16 6 -3 10 1 10 9 0 9 -4 16 -10 16 -5 0
-10 -4 -10 -9z"/>
<path d="M9101 7456 c-9 -10 -9 -16 -1 -21 17 -10 37 12 24 25 -8 8 -15 6 -23
-4z"/>
<path d="M8415 7450 c-19 -8 -19 -9 3 -9 12 -1 22 4 22 9 0 6 -1 10 -2 9 -2 0
-12 -4 -23 -9z"/>
<path d="M8470 7430 c0 -5 5 -10 11 -10 5 0 7 5 4 10 -3 6 -8 10 -11 10 -2 0
-4 -4 -4 -10z"/>
<path d="M9350 7410 c0 -5 5 -10 10 -10 6 0 10 5 10 10 0 6 -4 10 -10 10 -5 0
-10 -4 -10 -10z"/>
<path d="M9005 7370 c4 -6 11 -8 16 -5 14 9 11 15 -7 15 -8 0 -12 -5 -9 -10z"/>
<path d="M8699 7353 c-11 -15 -11 -16 0 -6 11 9 20 9 44 -3 23 -12 28 -13 24
-2 -2 7 -10 12 -16 11 -6 -2 -11 2 -11 7 0 16 -26 11 -41 -7z"/>
<path d="M8885 7360 c-3 -5 -1 -10 4 -10 6 0 11 5 11 10 0 6 -2 10 -4 10 -3 0
-8 -4 -11 -10z"/>
<path d="M8815 7351 c-3 -6 -11 -9 -16 -6 -5 4 -9 1 -9 -4 0 -13 10 -14 30 -1
8 5 12 12 8 15 -3 4 -9 1 -13 -4z"/>
<path d="M8657 7325 c-15 -11 -16 -14 -2 -25 13 -10 18 -11 28 -1 9 10 8 11
-5 6 -10 -4 -18 -3 -18 3 0 6 6 12 13 15 6 2 10 7 7 10 -3 3 -13 0 -23 -8z"/>
<path d="M8735 7320 c-3 -5 -2 -17 3 -26 8 -14 10 -12 10 9 0 29 -3 33 -13 17z"/>
<path d="M9201 7308 c-1 -9 -6 -19 -11 -21 -6 -3 -5 -4 2 -3 7 2 19 -4 26 -13
11 -14 12 -13 4 4 -5 11 -12 27 -15 35 -4 12 -6 12 -6 -2z"/>
<path d="M8446 7297 c3 -10 9 -15 12 -12 3 3 0 11 -7 18 -10 9 -11 8 -5 -6z"/>
<path d="M8640 7280 c0 -5 5 -10 11 -10 5 0 7 5 4 10 -3 6 -8 10 -11 10 -2 0
-4 -4 -4 -10z"/>
<path d="M9245 7280 c3 -5 8 -10 11 -10 2 0 4 5 4 10 0 6 -5 10 -11 10 -5 0
-7 -4 -4 -10z"/>
<path d="M9247 7249 c7 -7 15 -10 18 -7 3 3 -2 9 -12 12 -14 6 -15 5 -6 -5z"/>
<path d="M8270 7239 c0 -5 5 -7 10 -4 6 3 10 8 10 11 0 2 -4 4 -10 4 -5 0 -10
-5 -10 -11z"/>
<path d="M9207 7239 c7 -7 15 -10 18 -7 3 3 -2 9 -12 12 -14 6 -15 5 -6 -5z"/>
<path d="M8673 7207 c6 -15 3 -17 -16 -13 -12 3 -17 3 -11 1 6 -3 9 -16 7 -29
-3 -13 0 -27 6 -30 5 -4 7 -14 4 -23 -5 -13 -3 -13 20 2 29 19 34 27 15 24
-29 -3 -38 2 -38 24 0 16 3 18 9 9 6 -10 10 -8 14 9 4 13 1 28 -5 34 -8 7 -9
5 -5 -8z"/>
<path d="M9437 7153 c-4 -3 -7 -11 -7 -17 0 -6 5 -5 12 2 6 6 9 14 7 17 -3 3
-9 2 -12 -2z"/>
<path d="M8410 7142 c0 -5 7 -15 15 -22 8 -7 15 -9 15 -6 0 4 -7 14 -15 22 -8
9 -15 11 -15 6z"/>
<path d="M8469 7143 c-1 -5 -3 -19 -4 -32 -2 -22 -1 -23 10 -8 6 9 16 13 20 9
4 -4 2 3 -4 16 -12 22 -20 28 -22 15z"/>
<path d="M8500 7141 c0 -5 5 -13 10 -16 6 -3 10 -2 10 4 0 5 -4 13 -10 16 -5
3 -10 2 -10 -4z"/>
<path d="M8745 7100 c-3 -5 3 -10 15 -10 12 0 18 5 15 10 -3 6 -10 10 -15 10
-5 0 -12 -4 -15 -10z"/>
<path d="M8750 7069 c0 -5 5 -7 10 -4 6 3 10 8 10 11 0 2 -4 4 -10 4 -5 0 -10
-5 -10 -11z"/>
<path d="M8640 7035 c0 -8 4 -15 8 -15 5 0 9 7 9 15 0 8 -4 15 -9 15 -4 0 -8
-7 -8 -15z"/>
<path d="M8750 7026 c0 -2 9 -6 20 -9 11 -3 18 -1 14 4 -5 9 -34 13 -34 5z"/>
<path d="M8896 6943 c17 -13 17 -13 -1 -13 -10 0 -16 -3 -12 -6 9 -10 45 6 51
23 5 13 4 14 -9 3 -8 -7 -15 -8 -15 -3 0 5 -7 10 -16 10 -14 0 -14 -2 2 -14z"/>
<path d="M8815 6940 c-11 -5 -14 -9 -7 -9 7 -1 10 -6 7 -11 -4 -6 -11 -8 -16
-5 -5 4 -9 1 -9 -4 0 -17 21 -13 36 6 7 10 16 15 20 11 4 -4 2 -14 -5 -21 -9
-12 -7 -13 13 -10 24 5 24 6 9 29 -17 26 -19 27 -48 14z"/>
<path d="M9170 6941 c0 -6 5 -13 10 -16 6 -3 10 1 10 9 0 9 -4 16 -10 16 -5 0
-10 -4 -10 -9z"/>
<path d="M8783 6875 c0 -8 4 -15 9 -15 4 0 8 4 8 9 0 6 -4 12 -8 15 -5 3 -9
-1 -9 -9z"/>
<path d="M8608 6813 c7 -3 16 -2 19 1 4 3 -2 6 -13 5 -11 0 -14 -3 -6 -6z"/>
<path d="M8965 6760 c-3 -5 1 -10 10 -10 9 0 13 5 10 10 -3 6 -8 10 -10 10 -2
0 -7 -4 -10 -10z"/>
<path d="M8456 6701 c-3 -5 5 -8 18 -7 13 0 22 4 19 9 -6 10 -31 9 -37 -2z"/>
<path d="M8615 6690 c3 -5 8 -10 11 -10 2 0 4 5 4 10 0 6 -5 10 -11 10 -5 0
-7 -4 -4 -10z"/>
<path d="M8660 6674 c0 -8 5 -12 10 -9 6 4 8 11 5 16 -9 14 -15 11 -15 -7z"/>
<path d="M8440 6669 c0 -5 5 -7 10 -4 6 3 10 8 10 11 0 2 -4 4 -10 4 -5 0 -10
-5 -10 -11z"/>
<path d="M8875 6665 c4 -11 10 -28 12 -37 6 -20 12 -22 33 -8 13 8 12 10 -2
10 -20 0 -24 15 -8 23 6 3 5 4 -2 3 -7 -2 -19 4 -26 13 -12 14 -13 14 -7 -4z"/>
<path d="M8332 6645 c6 -14 15 -25 19 -25 5 0 3 11 -3 25 -6 14 -15 25 -19 25
-5 0 -3 -11 3 -25z"/>
<path d="M8770 6660 c0 -5 5 -10 10 -10 6 0 10 5 10 10 0 6 -4 10 -10 10 -5 0
-10 -4 -10 -10z"/>
<path d="M8832 6640 c7 -11 17 -20 22 -20 5 0 1 9 -9 20 -10 11 -20 20 -22 20
-2 0 2 -9 9 -20z"/>
<path d="M8530 6620 c0 -5 5 -10 10 -10 6 0 10 -6 10 -14 0 -8 5 -18 10 -21 6
-3 10 3 10 14 0 11 -9 25 -20 31 -14 7 -20 7 -20 0z"/>
<path d="M8823 6598 c-1 -9 2 -20 8 -23 5 -3 6 1 2 11 -5 14 -3 15 15 5 18 -9
22 -9 22 2 0 8 -10 17 -23 19 -17 3 -23 0 -24 -14z"/>
<path d="M8908 6593 c7 -3 16 -2 19 1 4 3 -2 6 -13 5 -11 0 -14 -3 -6 -6z"/>
<path d="M8937 6583 c-4 -3 -7 -11 -7 -17 0 -6 5 -5 12 2 6 6 9 14 7 17 -3 3
-9 2 -12 -2z"/>
<path d="M8348 6553 c-2 -16 -8 -27 -15 -25 -20 3 -15 -27 8 -51 l20 -22 17
21 c10 11 23 19 31 16 10 -3 11 2 6 18 -5 15 -4 20 4 16 6 -4 11 -2 11 3 0 18
-18 13 -41 -11 -21 -23 -21 -23 -10 -1 6 12 11 32 11 45 l-1 23 -15 -25 c-14
-23 -14 -23 -9 -2 4 12 2 22 -4 22 -5 0 -11 -12 -13 -27z m7 -42 c-3 -6 -11
-11 -17 -11 -6 0 -6 6 2 15 14 17 26 13 15 -4z"/>
<path d="M8730 6559 c0 -5 -4 -8 -9 -4 -5 3 -12 1 -15 -4 -4 -5 2 -8 11 -6 10
2 21 4 26 4 11 1 8 21 -3 21 -5 0 -10 -5 -10 -11z"/>
<path d="M8890 6554 c0 -8 5 -12 10 -9 6 3 10 10 10 16 0 5 -4 9 -10 9 -5 0
-10 -7 -10 -16z"/>
<path d="M8797 6540 c6 -7 9 -19 6 -26 -3 -8 0 -14 7 -14 16 0 8 43 -10 48
-12 3 -12 2 -3 -8z"/>
<path d="M8830 6533 c0 -12 7 -23 15 -27 13 -5 14 -2 4 17 -17 32 -19 33 -19
10z"/>
<path d="M8490 6529 c0 -5 5 -7 10 -4 6 3 10 8 10 11 0 2 -4 4 -10 4 -5 0 -10
-5 -10 -11z"/>
<path d="M8520 6500 c0 -5 5 -10 11 -10 5 0 7 5 4 10 -3 6 -8 10 -11 10 -2 0
-4 -4 -4 -10z"/>
<path d="M8587 6478 c-10 -11 -16 -22 -13 -26 4 -3 13 3 21 14 8 11 15 14 15
7 0 -7 4 -13 9 -13 5 0 7 9 4 20 -6 24 -13 24 -36 -2z"/>
<path d="M8640 6490 c0 -5 5 -10 10 -10 6 0 10 5 10 10 0 6 -4 10 -10 10 -5 0
-10 -4 -10 -10z"/>
<path d="M8659 6471 c-14 -31 -45 -47 -53 -27 -2 6 -5 3 -5 -6 -2 -29 52 -18
60 12 4 14 8 21 8 15 1 -11 21 15 21 28 0 18 -20 4 -31 -22z"/>
<path d="M8777 6472 c1 -8 3 -18 3 -23 0 -6 8 -5 20 1 11 6 20 18 19 28 0 10
-3 12 -6 5 -5 -14 -29 -17 -36 -5 -2 4 -2 1 0 -6z"/>
<path d="M8724 6469 c-4 -8 -3 -9 5 -5 7 4 15 -2 20 -16 7 -15 10 -17 10 -7 1
23 -25 44 -35 28z"/>
<path d="M8568 6433 c7 -3 16 -2 19 1 4 3 -2 6 -13 5 -11 0 -14 -3 -6 -6z"/>
<path d="M8720 6430 c0 -5 5 -10 11 -10 5 0 7 5 4 10 -3 6 -8 10 -11 10 -2 0
-4 -4 -4 -10z"/>
<path d="M8488 6375 c2 -19 9 -35 15 -35 6 0 7 3 4 7 -4 3 -2 12 4 20 9 9 8
13 0 13 -6 0 -11 7 -11 15 0 8 -4 15 -8 15 -4 0 -6 -16 -4 -35z"/>
<path d="M8560 6400 c0 -5 6 -10 14 -10 8 0 18 5 21 10 3 6 -3 10 -14 10 -12
0 -21 -4 -21 -10z"/>
<path d="M8600 6392 c-8 -9 -15 -20 -15 -25 0 -5 -8 -15 -18 -22 -13 -9 -15
-14 -5 -17 7 -3 -2 -7 -19 -10 -18 -2 -33 0 -33 5 0 5 -7 4 -15 -3 -12 -10
-16 -9 -21 4 -7 19 -23 22 -20 4 3 -14 16 -48 24 -62 3 -5 0 -6 -6 -2 -7 4
-12 1 -12 -8 0 -8 -2 -20 -3 -28 -2 -7 -2 -10 0 -5 3 4 10 4 15 1 6 -4 8 -2 4
4 -3 6 -1 14 5 18 8 4 9 -3 4 -25 -7 -34 -1 -39 21 -16 10 9 13 23 9 36 -6 19
-4 21 14 16 11 -3 21 -2 21 3 0 12 -28 20 -45 14 -29 -12 -15 14 15 26 38 16
66 -1 50 -30 -13 -25 -13 -60 1 -60 7 0 9 10 4 28 -6 26 -6 26 9 7 16 -19 16
-19 9 10 -6 28 -5 29 12 15 17 -14 18 -14 6 8 -12 22 -11 23 7 18 11 -4 24 0
32 9 8 10 9 15 1 15 -6 0 -11 -4 -11 -10 0 -5 -4 -10 -8 -10 -10 0 -34 72 -27
79 3 2 5 -1 5 -7 0 -7 4 -12 10 -12 5 0 7 7 4 15 -4 8 -1 15 5 15 6 0 11 -8
11 -17 0 -15 2 -16 10 -3 5 8 10 10 10 4 0 -6 -10 -19 -22 -28 -21 -15 -21
-16 -4 -14 11 2 29 18 40 37 l20 34 -22 -5 c-12 -4 -25 -2 -28 3 -8 14 -27 10
-44 -9z"/>
<path d="M8716 6397 c3 -8 11 -14 19 -14 11 0 12 4 4 14 -6 7 -15 13 -20 13
-5 0 -6 -6 -3 -13z"/>
<path d="M8410 6369 c0 -5 5 -7 10 -4 6 3 10 8 10 11 0 2 -4 4 -10 4 -5 0 -10
-5 -10 -11z"/>
<path d="M8765 6370 c-3 -5 -1 -10 4 -10 6 0 11 5 11 10 0 6 -2 10 -4 10 -3 0
-8 -4 -11 -10z"/>
<path d="M8131 6334 c0 -11 3 -14 6 -6 3 7 2 16 -1 19 -3 4 -6 -2 -5 -13z"/>
<path d="M8695 6340 c-3 -5 -1 -10 4 -10 6 0 11 5 11 10 0 6 -2 10 -4 10 -3 0
-8 -4 -11 -10z"/>
<path d="M8418 6323 c7 -3 16 -2 19 1 4 3 -2 6 -13 5 -11 0 -14 -3 -6 -6z"/>
<path d="M8387 6303 c6 -15 29 -18 37 -4 3 5 -5 11 -18 13 -17 4 -23 1 -19 -9z"/>
<path d="M8436 6293 c-10 -10 -7 -33 5 -33 5 0 8 4 5 9 -4 5 -1 11 6 13 8 3 9
6 1 11 -5 4 -13 4 -17 0z"/>
<path d="M8535 6290 c-3 -5 -1 -10 4 -10 6 0 11 5 11 10 0 6 -2 10 -4 10 -3 0
-8 -4 -11 -10z"/>
<path d="M8335 6230 c-9 -15 4 -30 26 -30 23 0 26 25 3 34 -21 8 -22 8 -29 -4z"/>
<path d="M8390 6229 c0 -5 5 -7 10 -4 6 3 10 8 10 11 0 2 -4 4 -10 4 -5 0 -10
-5 -10 -11z"/>
<path d="M8427 6216 c-4 -10 -11 -14 -17 -11 -13 8 -13 -5 0 -25 9 -13 10 -13
10 0 1 8 7 2 14 -15 7 -16 11 -36 8 -44 -3 -9 -1 -12 6 -7 6 3 10 19 10 35 -1
15 3 34 7 42 5 8 4 10 0 6 -5 -4 -14 2 -20 14 -11 19 -13 19 -18 5z"/>
<path d="M9400 6201 c0 -5 5 -13 10 -16 6 -3 10 -2 10 4 0 5 -4 13 -10 16 -5
3 -10 2 -10 -4z"/>
<path d="M8380 6150 c0 -5 5 -10 11 -10 5 0 7 5 4 10 -3 6 -8 10 -11 10 -2 0
-4 -4 -4 -10z"/>
<path d="M8410 6140 c0 -5 5 -10 10 -10 6 0 10 5 10 10 0 6 -4 10 -10 10 -5 0
-10 -4 -10 -10z"/>
<path d="M8748 6120 c5 -35 8 -37 15 -10 3 10 -1 24 -7 29 -10 8 -11 3 -8 -19z"/>
<path d="M8694 6117 c-8 -21 -3 -29 13 -19 8 5 9 13 3 22 -7 12 -10 12 -16 -3z"/>
<path d="M8415 6110 c3 -5 8 -10 11 -10 2 0 4 5 4 10 0 6 -5 10 -11 10 -5 0
-7 -4 -4 -10z"/>
<path d="M8807 6106 c-4 -10 -1 -13 8 -9 8 3 12 9 9 14 -7 12 -11 11 -17 -5z"/>
<path d="M8585 6090 c-3 -5 -1 -10 4 -10 6 0 11 5 11 10 0 6 -2 10 -4 10 -3 0
-8 -4 -11 -10z"/>
<path d="M8640 6059 c0 -5 5 -7 10 -4 6 3 10 8 10 11 0 2 -4 4 -10 4 -5 0 -10
-5 -10 -11z"/>
<path d="M8696 6056 c3 -8 1 -17 -5 -21 -14 -8 -14 -35 0 -35 5 0 7 5 4 10 -3
6 -1 10 4 10 6 0 11 11 11 25 0 14 -4 25 -10 25 -5 0 -7 -6 -4 -14z"/>
<path d="M8326 6031 c-3 -5 1 -11 9 -14 9 -4 12 -1 8 9 -6 16 -10 17 -17 5z"/>
<path d="M9010 6001 c4 -9 9 -20 10 -26 4 -23 10 -16 10 12 0 19 -5 30 -14 30
-11 0 -12 -5 -6 -16z"/>
<path d="M9145 5960 c-3 -5 -1 -10 4 -10 6 0 11 5 11 10 0 6 -2 10 -4 10 -3 0
-8 -4 -11 -10z"/>
<path d="M8304 5935 c-4 -8 -10 -13 -14 -10 -5 3 -6 -4 -3 -15 7 -27 23 -25
24 3 1 16 2 18 6 5 2 -10 9 -18 15 -18 6 0 5 -7 -3 -17 -13 -15 -11 -16 11
-10 14 4 31 7 38 7 6 0 12 7 12 15 0 8 -4 15 -10 15 -5 0 -10 -5 -10 -11 0 -5
-5 -7 -11 -4 -6 4 -8 13 -5 21 3 9 -1 14 -12 14 -15 0 -15 2 -2 10 12 8 11 10
-8 10 -12 0 -25 -7 -28 -15z"/>
<path d="M8610 5925 c-11 -13 -10 -14 4 -9 9 3 16 10 16 15 0 13 -6 11 -20 -6z"/>
<path d="M8490 5909 c0 -5 5 -7 10 -4 6 3 10 8 10 11 0 2 -4 4 -10 4 -5 0 -10
-5 -10 -11z"/>
<path d="M8255 5889 c-11 -16 -1 -19 13 -3 7 8 8 14 3 14 -5 0 -13 -5 -16 -11z"/>
<path d="M9030 5880 c8 -5 20 -10 25 -10 6 0 3 5 -5 10 -8 5 -19 10 -25 10 -5
0 -3 -5 5 -10z"/>
<path d="M8418 5868 c-9 -5 -9 -8 -1 -8 6 0 18 -2 26 -5 7 -3 14 0 14 8 0 15
-19 18 -39 5z"/>
<path d="M8666 5867 c3 -10 9 -15 12 -12 3 3 0 11 -7 18 -10 9 -11 8 -5 -6z"/>
<path d="M8530 5860 c0 -5 9 -12 21 -15 13 -4 18 -12 15 -21 -3 -9 -1 -12 4
-9 17 11 11 30 -15 42 -14 6 -25 7 -25 3z"/>
<path d="M8600 5863 c8 -3 22 -11 30 -17 13 -10 13 -9 1 7 -7 9 -21 17 -30 16
-13 0 -14 -1 -1 -6z"/>
<path d="M8701 5854 c0 -11 3 -14 6 -6 3 7 2 16 -1 19 -3 4 -6 -2 -5 -13z"/>
<path d="M8396 5841 c-3 -5 1 -11 9 -15 8 -3 15 -1 15 4 0 13 -18 22 -24 11z"/>
<path d="M8676 5827 c3 -10 9 -15 12 -12 3 3 0 11 -7 18 -10 9 -11 8 -5 -6z"/>
<path d="M8650 5809 c0 -5 5 -7 10 -4 6 3 10 8 10 11 0 2 -4 4 -10 4 -5 0 -10
-5 -10 -11z"/>
<path d="M9350 5800 c0 -5 5 -10 10 -10 6 0 10 5 10 10 0 6 -4 10 -10 10 -5 0
-10 -4 -10 -10z"/>
<path d="M8617 5789 c7 -7 15 -10 18 -7 3 3 -2 9 -12 12 -14 6 -15 5 -6 -5z"/>
<path d="M8855 5770 c-3 -5 -1 -10 4 -10 6 0 11 5 11 10 0 6 -2 10 -4 10 -3 0
-8 -4 -11 -10z"/>
<path d="M8930 5769 c0 -5 5 -7 10 -4 6 3 10 8 10 11 0 2 -4 4 -10 4 -5 0 -10
-5 -10 -11z"/>
<path d="M8505 5760 c-3 -5 3 -10 15 -10 12 0 18 5 15 10 -3 6 -10 10 -15 10
-5 0 -12 -4 -15 -10z"/>
<path d="M8590 5760 c0 -6 7 -10 15 -10 8 0 15 2 15 4 0 2 -7 6 -15 10 -8 3
-15 1 -15 -4z"/>
<path d="M8926 5742 c-3 -6 -1 -14 5 -17 14 -9 20 -2 10 14 -6 8 -11 9 -15 3z"/>
<path d="M8797 5734 c-7 -8 3 -34 13 -34 4 0 10 7 13 14 4 11 1 13 -10 9 -11
-4 -14 -2 -9 5 8 13 3 16 -7 6z"/>
<path d="M9023 5703 c-1 -17 2 -21 7 -13 4 7 12 10 18 6 5 -3 16 2 23 12 11
14 11 15 -1 5 -11 -10 -17 -10 -29 1 -14 13 -16 11 -18 -11z"/>
<path d="M8530 5709 c0 -6 7 -8 16 -5 14 5 15 4 4 -9 -7 -8 -8 -15 -2 -15 12
0 23 26 15 34 -10 10 -33 7 -33 -5z"/>
<path d="M8885 5711 c-3 -5 5 -11 17 -13 19 -2 22 -8 20 -33 l-3 -30 13 25
c12 21 11 27 -4 42 -20 20 -34 23 -43 9z"/>
<path d="M8379 5701 c7 -5 10 -14 6 -21 -6 -9 -9 -9 -16 1 -6 10 -9 10 -9 2 0
-17 14 -23 29 -13 16 9 7 40 -11 40 -10 0 -10 -2 1 -9z"/>
<path d="M8410 5700 c0 -5 7 -7 15 -4 8 4 15 8 15 10 0 2 -7 4 -15 4 -8 0 -15
-4 -15 -10z"/>
<path d="M8465 5700 c4 -6 11 -8 16 -5 5 4 12 -1 15 -9 8 -20 24 -21 24 -2 0
7 -10 16 -22 20 -33 8 -40 7 -33 -4z"/>
<path d="M8955 5700 c3 -5 8 -10 11 -10 2 0 4 5 4 10 0 6 -5 10 -11 10 -5 0
-7 -4 -4 -10z"/>
<path d="M8810 5679 c0 -5 5 -7 10 -4 6 3 10 8 10 11 0 2 -4 4 -10 4 -5 0 -10
-5 -10 -11z"/>
<path d="M8895 5680 c-3 -5 -1 -10 4 -10 6 0 11 5 11 10 0 6 -2 10 -4 10 -3 0
-8 -4 -11 -10z"/>
<path d="M8858 5673 c7 -3 16 -2 19 1 4 3 -2 6 -13 5 -11 0 -14 -3 -6 -6z"/>
<path d="M8970 5670 c20 -13 33 -13 25 0 -3 6 -14 10 -23 10 -15 0 -15 -2 -2
-10z"/>
<path d="M9075 5590 c-3 -5 -1 -10 4 -10 6 0 11 5 11 10 0 6 -2 10 -4 10 -3 0
-8 -4 -11 -10z"/>
<path d="M8470 5560 c0 -5 5 -10 11 -10 6 0 8 -7 5 -16 -3 -8 -2 -12 4 -9 16
10 12 45 -5 45 -8 0 -15 -4 -15 -10z"/>
<path d="M8585 5560 c-3 -5 -1 -10 4 -10 6 0 11 5 11 10 0 6 -2 10 -4 10 -3 0
-8 -4 -11 -10z"/>
<path d="M8798 5549 c-24 -13 -23 -24 2 -26 11 -1 25 7 30 18 12 22 -3 26 -32
8z"/>
<path d="M9045 5530 c-3 -6 1 -7 9 -4 18 7 21 14 7 14 -6 0 -13 -4 -16 -10z"/>
<path d="M8466 5506 c7 -19 20 -21 30 -3 4 6 4 9 -1 5 -4 -4 -14 -3 -22 4 -11
8 -12 7 -7 -6z"/>
<path d="M8800 5487 c0 -8 -12 -19 -26 -25 -14 -7 -22 -17 -18 -23 4 -8 9 -7
14 1 4 7 15 10 23 7 10 -4 17 2 21 16 8 31 7 37 -4 37 -5 0 -10 -6 -10 -13z"/>
<path d="M8496 5475 c-3 -8 -1 -15 4 -15 6 0 10 7 10 15 0 8 -2 15 -4 15 -2 0
-6 -7 -10 -15z"/>
<path d="M8983 5478 c-5 -7 -10 -26 -11 -43 -2 -23 1 -26 10 -17 6 6 13 25 14
42 2 33 1 36 -13 18z"/>
<path d="M8826 5435 c4 -8 11 -15 16 -15 6 0 5 6 -2 15 -7 8 -14 15 -16 15 -2
0 -1 -7 2 -15z"/>
<path d="M9067 5426 c-4 -10 -1 -13 8 -9 8 3 12 9 9 14 -7 12 -11 11 -17 -5z"/>
<path d="M8448 5388 c-2 -21 -1 -38 3 -38 11 0 16 34 9 55 -6 16 -8 12 -12
-17z"/>
<path d="M9022 5411 c-6 -4 -13 -18 -14 -32 -2 -25 -3 -25 -31 -11 -32 16 -46
10 -27 -13 10 -13 10 -19 -4 -33 -18 -20 -22 -37 -6 -27 14 9 12 -9 -2 -24
-11 -10 -10 -11 5 -6 9 4 17 16 17 26 0 10 5 19 10 19 6 0 10 -4 10 -10 0 -5
4 -10 10 -10 5 0 7 7 3 15 -3 9 -2 15 3 14 5 -1 17 -1 28 0 14 1 16 4 7 14 -7
9 -8 24 -1 47 11 38 10 42 -8 31z"/>
<path d="M8811 5400 c0 -8 4 -22 9 -30 12 -18 12 -2 0 25 -6 13 -9 15 -9 5z"/>
<path d="M9060 5380 c-13 -11 -19 -20 -13 -20 5 0 18 9 28 20 10 11 16 20 13
20 -3 0 -15 -9 -28 -20z"/>
<path d="M8890 5381 c0 -6 4 -13 10 -16 6 -3 7 1 4 9 -7 18 -14 21 -14 7z"/>
<path d="M9136 5363 c-6 -14 -5 -15 5 -6 7 7 10 15 7 18 -3 3 -9 -2 -12 -12z"/>
<path d="M8922 5333 c-15 -11 -26 -12 -35 -5 -9 8 -12 5 -12 -13 0 -16 4 -20
11 -14 6 5 14 6 17 3 3 -3 16 3 28 15 28 26 22 34 -9 14z"/>
<path d="M8438 5333 c-16 -4 -34 -33 -20 -33 12 0 48 28 42 32 -3 3 -12 3 -22
1z"/>
<path d="M9076 5304 c-7 -19 0 -34 17 -34 8 0 8 3 0 11 -6 6 -9 18 -6 25 3 8
3 14 0 14 -3 0 -8 -7 -11 -16z"/>
<path d="M9100 5306 c0 -7 6 -19 14 -25 11 -9 15 -7 19 8 3 12 -1 22 -10 25
-21 8 -23 8 -23 -8z"/>
<path d="M9010 5306 c0 -11 30 -39 36 -34 2 3 -5 13 -16 23 -11 10 -20 15 -20
11z"/>
<path d="M9167 5291 c-3 -14 0 -17 14 -14 10 3 15 11 12 19 -7 20 -20 17 -26
-5z"/>
<path d="M8987 5273 c-12 -12 -7 -22 8 -17 8 4 15 10 15 15 0 11 -14 12 -23 2z"/>
<path d="M9056 5254 c-8 -22 -7 -34 3 -34 5 0 9 11 9 25 0 29 -3 31 -12 9z"/>
<path d="M8897 5253 c-4 -3 -7 -16 -7 -27 0 -16 2 -18 9 -7 7 11 11 10 19 -5
6 -10 12 -17 15 -14 7 8 -29 61 -36 53z"/>
<path d="M9165 5250 c-3 -5 -1 -10 4 -10 6 0 11 5 11 10 0 6 -2 10 -4 10 -3 0
-8 -4 -11 -10z"/>
<path d="M9080 5242 c0 -12 19 -26 26 -19 2 2 -2 10 -11 17 -9 8 -15 8 -15 2z"/>
<path d="M8944 5204 c-1 -13 2 -21 7 -18 11 6 12 31 2 37 -5 3 -9 -6 -9 -19z"/>
<path d="M8841 5184 c0 -11 3 -14 6 -6 3 7 2 16 -1 19 -3 4 -6 -2 -5 -13z"/>
<path d="M8970 5190 c0 -4 9 -10 20 -13 11 -3 20 -2 20 3 0 4 -9 10 -20 13
-11 3 -20 2 -20 -3z"/>
<path d="M9117 5193 c-4 -3 -7 -16 -6 -27 0 -19 1 -19 10 3 10 24 8 36 -4 24z"/>
<path d="M8895 5169 c-4 -11 -4 -23 -1 -26 3 -4 6 1 6 10 0 9 5 19 12 23 8 5
9 0 6 -14 -4 -12 -2 -20 3 -16 5 3 9 -3 10 -13 0 -11 3 -13 6 -5 8 21 -6 62
-22 62 -7 0 -17 -9 -20 -21z"/>
<path d="M9040 5175 c10 -12 10 -18 0 -31 -12 -13 -10 -14 14 -3 23 11 25 14
10 22 -13 8 -14 11 -3 18 10 6 8 9 -10 9 -20 0 -21 -2 -11 -15z"/>
<path d="M9091 5164 c0 -12 -8 -24 -16 -28 -8 -3 -15 -11 -15 -18 0 -7 9 -4
21 9 12 12 19 28 16 39 -4 17 -5 16 -6 -2z"/>
<path d="M8950 5152 c0 -7 4 -11 9 -8 15 9 41 -5 41 -22 0 -8 3 -12 7 -9 3 4
1 18 -7 31 -13 26 -50 32 -50 8z"/>
<path d="M9116 5133 c6 -4 14 -15 17 -23 5 -11 6 -9 4 4 -1 11 -9 21 -17 23
-10 3 -11 2 -4 -4z"/>
<path d="M9092 5072 c-3 -54 20 -103 31 -63 3 13 1 19 -5 14 -7 -4 -8 -1 -3 8
5 7 10 22 10 33 2 18 1 18 -12 1 -12 -18 -13 -18 -13 2 0 12 5 23 11 25 8 3 7
7 -2 15 -12 9 -15 3 -17 -35z"/>
<path d="M8930 5100 c0 -5 5 -10 10 -10 6 0 10 5 10 10 0 6 -4 10 -10 10 -5 0
-10 -4 -10 -10z"/>
<path d="M9045 5092 c-5 -4 -11 -16 -13 -27 -2 -15 0 -17 6 -6 7 9 12 10 16 2
12 -19 26 -12 26 14 0 24 -15 32 -35 17z"/>
<path d="M8995 5080 c-3 -5 -1 -10 4 -10 6 0 11 5 11 10 0 6 -2 10 -4 10 -3 0
-8 -4 -11 -10z"/>
<path d="M9160 5070 c0 -5 5 -10 10 -10 6 0 10 5 10 10 0 6 -4 10 -10 10 -5 0
-10 -4 -10 -10z"/>
<path d="M9054 5017 c-8 -8 -5 -16 10 -29 18 -15 19 -19 6 -29 -13 -9 -13 -10
0 -6 8 2 16 15 18 29 4 30 -18 51 -34 35z"/>
<path d="M9101 4964 c0 -11 3 -14 6 -6 3 7 2 16 -1 19 -3 4 -6 -2 -5 -13z"/>
<path d="M9065 4891 c-3 -6 -10 -9 -15 -6 -4 2 -12 -13 -18 -35 -8 -33 -7 -40
5 -40 8 0 12 4 8 10 -6 10 13 50 30 62 5 4 7 10 3 13 -3 4 -9 1 -13 -4z"/>
<path d="M9102 4760 c7 -10 14 -18 15 -16 6 6 -9 36 -18 36 -5 0 -4 -9 3 -20z"/>
<path d="M9100 4701 c0 -5 7 -15 17 -22 15 -13 15 -12 4 9 -12 23 -21 28 -21
13z"/>
<path d="M9263 4680 c3 -11 1 -23 -4 -26 -5 -3 -9 -11 -8 -17 0 -9 2 -9 6 1 2
6 13 12 23 12 22 0 45 26 31 35 -6 3 -20 8 -32 10 -17 3 -20 0 -16 -15z"/>
<path d="M9180 4630 c0 -5 5 -10 11 -10 5 0 7 5 4 10 -3 6 -8 10 -11 10 -2 0
-4 -4 -4 -10z"/>
<path d="M9211 4628 c-1 -10 6 -18 14 -18 8 0 15 5 15 11 0 5 -4 8 -9 5 -5 -4
-12 0 -14 6 -3 8 -6 6 -6 -4z"/>
<path d="M9202 4580 c14 -22 24 -19 15 5 -4 8 -11 15 -17 15 -6 0 -6 -7 2 -20z"/>
<path d="M8985 4570 c3 -5 8 -10 11 -10 2 0 4 5 4 10 0 6 -5 10 -11 10 -5 0
-7 -4 -4 -10z"/>
<path d="M8935 4530 c-3 -5 -2 -10 4 -10 5 0 13 5 16 10 3 6 2 10 -4 10 -5 0
-13 -4 -16 -10z"/>
<path d="M8856 4451 c-4 -5 -4 -16 -1 -25 3 -9 7 -23 10 -31 4 -13 8 -13 25
-3 11 7 20 17 20 22 0 4 -7 3 -15 -4 -13 -10 -15 -9 -16 11 -1 13 -1 27 0 32
1 10 -17 9 -23 -2z"/>
<path d="M8901 4444 c0 -11 3 -14 6 -6 3 7 2 16 -1 19 -3 4 -6 -2 -5 -13z"/>
<path d="M9045 4430 c-3 -5 -1 -10 4 -10 6 0 11 5 11 10 0 6 -2 10 -4 10 -3 0
-8 -4 -11 -10z"/>
<path d="M8920 4392 c0 -5 7 -9 15 -9 8 0 12 4 9 9 -3 4 -9 8 -15 8 -5 0 -9
-4 -9 -8z"/>
<path d="M8865 4349 c-9 -14 -2 -20 14 -10 8 6 9 11 3 15 -6 3 -14 1 -17 -5z"/>
<path d="M8780 4305 c0 -8 -4 -15 -10 -15 -5 0 -10 -5 -10 -11 0 -5 6 -7 13
-3 8 5 7 2 -2 -9 -8 -10 -11 -21 -7 -25 4 -4 12 1 17 11 6 9 14 15 20 12 5 -4
9 1 9 10 0 9 -4 13 -10 10 -14 -9 -13 8 2 23 9 9 8 12 -5 12 -9 0 -17 -7 -17
-15z"/>
<path d="M8847 4279 c7 -7 15 -10 18 -7 3 3 -2 9 -12 12 -14 6 -15 5 -6 -5z"/>
<path d="M8794 4229 c-3 -6 -1 -16 5 -22 8 -8 11 -5 11 11 0 24 -5 28 -16 11z"/>
<path d="M8800 4179 c0 -5 5 -7 10 -4 6 3 10 8 10 11 0 2 -4 4 -10 4 -5 0 -10
-5 -10 -11z"/>
<path d="M9000 4089 c0 -5 5 -7 10 -4 6 3 10 8 10 11 0 2 -4 4 -10 4 -5 0 -10
-5 -10 -11z"/>
<path d="M8935 4079 c-4 -6 -5 -12 -2 -15 2 -3 7 2 10 11 7 17 1 20 -8 4z"/>
<path d="M8755 4010 c-3 -5 -2 -10 4 -10 5 0 13 5 16 10 3 6 2 10 -4 10 -5 0
-13 -4 -16 -10z"/>
<path d="M8770 3975 c7 -9 15 -13 17 -11 7 7 -7 26 -19 26 -6 0 -6 -6 2 -15z"/>
<path d="M8741 3956 c-7 -8 -10 -20 -6 -27 4 -6 2 -15 -5 -19 -8 -5 -9 -10 -2
-14 7 -4 15 9 21 31 12 42 9 50 -8 29z"/>
<path d="M8655 3911 c-3 -6 0 -8 9 -5 8 3 16 -1 19 -10 4 -14 5 -14 3 0 -1 20
-21 30 -31 15z"/>
</g>
</svg>
