<?xml version="1.0" encoding="UTF-8"?>
<!DOCTYPE svg PUBLIC "-//W3C//DTD SVG 1.1//EN" "http://www.w3.org/Graphics/SVG/1.1/DTD/svg11.dtd">
<svg xmlns="http://www.w3.org/2000/svg" version="1.1" width="736px" height="736px" style="shape-rendering:geometricPrecision; text-rendering:geometricPrecision; image-rendering:optimizeQuality; fill-rule:evenodd; clip-rule:evenodd" xmlns:xlink="http://www.w3.org/1999/xlink">
<g><path style="opacity:1" fill="#000000" d="M 274.5,190.5 C 284.839,190.334 295.172,190.5 305.5,191C 306.482,198.747 306.815,206.58 306.5,214.5C 309.777,214.216 312.943,214.549 316,215.5C 316.5,229.496 316.667,243.496 316.5,257.5C 320.437,257.207 324.27,257.54 328,258.5C 328.5,273.163 328.667,287.83 328.5,302.5C 332.833,302.5 337.167,302.5 341.5,302.5C 341.167,287.818 341.501,273.152 342.5,258.5C 345.084,257.607 347.751,257.274 350.5,257.5C 350.5,250.5 350.5,243.5 350.5,236.5C 354.514,236.666 358.514,236.499 362.5,236C 362.387,232.716 362.72,229.383 363.5,226C 373.828,225.5 384.161,225.334 394.5,225.5C 394.5,229.167 394.5,232.833 394.5,236.5C 398.457,236.177 402.29,236.177 406,236.5C 406.5,243.492 406.666,250.492 406.5,257.5C 421.833,257.5 437.167,257.5 452.5,257.5C 452.5,254.5 452.5,251.5 452.5,248.5C 455.833,248.5 459.167,248.5 462.5,248.5C 462.176,244.445 462.509,240.445 463.5,236.5C 464.167,236.167 464.833,235.833 465.5,235.5C 475.192,235.261 484.692,235.594 494,236.5C 494.5,262.165 494.667,287.831 494.5,313.5C 497.833,313.5 501.167,313.5 504.5,313.5C 504.579,339.228 504.579,364.894 504.5,390.5C 501.167,390.5 497.833,390.5 494.5,390.5C 494.5,394.5 494.5,398.5 494.5,402.5C 490.894,402.211 487.394,402.544 484,403.5C 484.206,407.024 484.373,410.357 484.5,413.5C 487.777,413.216 490.943,413.549 494,414.5C 494.333,421.5 494.667,428.5 495,435.5C 498.057,436.451 501.223,436.784 504.5,436.5C 504.5,443.833 504.5,451.167 504.5,458.5C 508.5,458.5 512.5,458.5 516.5,458.5C 516.5,465.833 516.5,473.167 516.5,480.5C 520.182,480.335 523.848,480.501 527.5,481C 528.833,487.333 528.833,493.667 527.5,500C 523.848,500.499 520.182,500.665 516.5,500.5C 516.5,504.5 516.5,508.5 516.5,512.5C 509.468,512.83 502.468,512.497 495.5,511.5C 494.352,507.853 494.352,504.186 495.5,500.5C 488.167,500.5 480.833,500.5 473.5,500.5C 473.5,497.167 473.5,493.833 473.5,490.5C 470.15,490.665 466.817,490.498 463.5,490C 462.549,486.943 462.216,483.777 462.5,480.5C 458.894,480.789 455.394,480.456 452,479.5C 451.501,475.514 451.334,471.514 451.5,467.5C 439.833,467.5 428.167,467.5 416.5,467.5C 416.797,471.767 416.464,475.934 415.5,480C 405.167,480.333 394.833,480.667 384.5,481C 383.167,487 383.167,493 384.5,499C 381.042,500.415 377.375,500.915 373.5,500.5C 373.5,511.5 373.5,522.5 373.5,533.5C 369.5,533.5 365.5,533.5 361.5,533.5C 361.5,537.5 361.5,541.5 361.5,545.5C 351.534,546.591 341.534,546.758 331.5,546C 329.611,542.164 328.945,537.997 329.5,533.5C 325.563,533.793 321.73,533.46 318,532.5C 317.5,510.836 317.333,489.169 317.5,467.5C 313.833,467.5 310.167,467.5 306.5,467.5C 306.5,463.833 306.5,460.167 306.5,456.5C 299.468,456.83 292.468,456.497 285.5,455.5C 284.583,452.242 284.249,448.909 284.5,445.5C 280.167,445.5 275.833,445.5 271.5,445.5C 271.5,449.167 271.5,452.833 271.5,456.5C 268.167,456.5 264.833,456.5 261.5,456.5C 261.666,464.174 261.5,471.841 261,479.5C 257.943,480.451 254.777,480.784 251.5,480.5C 251.666,486.842 251.5,493.175 251,499.5C 247.333,500.167 243.667,500.833 240,501.5C 239.501,505.152 239.335,508.818 239.5,512.5C 232.5,512.5 225.5,512.5 218.5,512.5C 218.5,508.5 218.5,504.5 218.5,500.5C 214.563,500.793 210.73,500.46 207,499.5C 206.167,482.157 206.334,464.824 207.5,447.5C 210.98,447.012 214.48,446.679 218,446.5C 218.168,435.818 218.668,425.151 219.5,414.5C 222.758,413.583 226.091,413.249 229.5,413.5C 229.5,399.167 229.5,384.833 229.5,370.5C 233.182,370.665 236.848,370.499 240.5,370C 240.148,362.48 239.981,354.98 240,347.5C 243.73,346.54 247.563,346.207 251.5,346.5C 251.205,339.774 251.538,333.108 252.5,326.5C 256.107,325.511 259.774,325.177 263.5,325.5C 263.335,321.818 263.501,318.152 264,314.5C 266.719,313.556 269.552,313.223 272.5,313.5C 272.333,273.165 272.5,232.832 273,192.5C 273.717,191.956 274.217,191.289 274.5,190.5 Z M 406.5,312.5 C 410.167,312.5 413.833,312.5 417.5,312.5C 417.5,323.833 417.5,335.167 417.5,346.5C 413.833,346.5 410.167,346.5 406.5,346.5C 406.5,335.167 406.5,323.833 406.5,312.5 Z M 461.5,312.5 C 465.437,312.207 469.27,312.54 473,313.5C 473.5,324.495 473.667,335.495 473.5,346.5C 469.5,346.5 465.5,346.5 461.5,346.5C 461.5,335.167 461.5,323.833 461.5,312.5 Z"/></g>
</svg>
