<?xml version="1.0" standalone="no"?>
<!DOCTYPE svg PUBLIC "-//W3C//DTD SVG 20010904//EN"
 "http://www.w3.org/TR/2001/REC-SVG-20010904/DTD/svg10.dtd">
<svg version="1.0" xmlns="http://www.w3.org/2000/svg"
 width="736.000000pt" height="920.000000pt" viewBox="0 0 736.000000 920.000000"
 preserveAspectRatio="xMidYMid meet">

<g transform="translate(0.000000,920.000000) scale(0.100000,-0.100000)"
fill="#000000" stroke="none">
<path d="M3486 9029 c-10 -6 -43 -12 -74 -13 -60 -1 -67 -7 -77 -68 -5 -34
-10 -38 -60 -57 -30 -11 -84 -25 -120 -31 -173 -28 -388 -96 -533 -169 -135
-68 -204 -127 -372 -321 -41 -47 -106 -119 -146 -160 -71 -75 -96 -114 -135
-211 -11 -29 -26 -57 -34 -63 -10 -8 -16 -44 -21 -113 -4 -57 -11 -103 -17
-103 -10 0 -2 -226 13 -340 23 -170 89 -478 100 -460 3 5 6 -8 6 -28 0 -22 28
-103 68 -202 38 -91 93 -226 123 -300 123 -308 173 -417 255 -555 71 -117 114
-166 184 -206 76 -44 110 -119 139 -309 25 -164 17 -390 -14 -390 -21 0 -226
31 -271 40 -33 7 -148 11 -291 11 -234 -1 -238 -1 -340 -32 -57 -17 -128 -42
-157 -55 -78 -36 -286 -162 -378 -229 -141 -104 -275 -253 -260 -291 6 -15 8
-15 34 1 15 10 57 48 95 86 63 64 101 88 114 75 9 -8 -16 -88 -34 -107 -8 -10
-18 -43 -23 -75 -4 -33 -20 -86 -35 -119 -29 -64 -76 -203 -120 -350 -15 -49
-47 -144 -72 -210 -84 -218 -94 -249 -128 -375 -55 -205 -72 -299 -115 -625
-19 -147 -36 -215 -129 -510 -46 -145 -87 -334 -101 -470 -15 -142 -12 -561 5
-736 20 -198 42 -331 45 -274 l2 40 8 -47 c5 -27 18 -63 30 -82 11 -19 39 -72
62 -118 97 -200 155 -286 221 -330 87 -59 167 -73 279 -49 142 31 405 229 479
361 11 19 28 49 39 65 11 17 26 45 34 62 18 40 28 41 51 7 38 -58 45 -416 10
-529 -17 -58 -18 -65 -7 -65 5 0 13 12 19 28 l12 27 -6 -27 c-5 -26 -3 -28 25
-28 30 0 30 1 35 58 3 31 11 92 18 135 11 63 11 93 0 165 -26 181 -31 248 -22
326 7 60 14 83 29 95 11 9 25 27 33 41 l12 25 15 -35 c8 -20 15 -78 17 -135 3
-100 19 -287 33 -380 5 -31 3 -72 -5 -110 -6 -33 -12 -76 -13 -95 0 -19 -7
-44 -15 -54 -21 -27 -19 -36 8 -36 20 0 24 10 44 93 28 114 29 207 4 427 -11
91 -25 234 -32 318 l-13 154 -45 -51 c-25 -27 -63 -64 -84 -82 l-38 -32 5 27
c3 16 44 68 101 129 136 143 221 268 271 398 9 24 35 82 57 129 21 47 71 159
109 250 38 91 78 183 87 205 10 22 28 67 41 100 37 96 52 129 65 145 7 8 32
60 55 115 23 55 50 118 59 140 29 63 87 223 111 307 13 43 27 78 31 78 5 0 6
-8 2 -17 -3 -10 -4 -16 -1 -13 3 3 36 82 73 175 105 264 137 323 222 414 40
44 89 89 108 101 19 11 37 30 40 40 4 11 11 20 16 20 6 0 7 -5 4 -10 -7 -11
136 52 173 76 28 18 90 101 98 132 5 17 -1 31 -19 50 -13 15 -31 41 -40 57
-17 35 -47 147 -47 179 0 12 -23 46 -54 79 -53 57 -55 58 -102 55 -47 -3 -49
-4 -66 -48 -13 -35 -17 -78 -17 -189 -1 -183 -13 -255 -57 -327 -23 -39 -29
-54 -17 -50 14 6 14 4 2 -10 -8 -10 -15 -12 -17 -5 -2 7 -20 -2 -43 -20 -21
-17 -39 -26 -39 -21 0 6 18 24 40 42 24 19 51 56 72 97 32 65 32 67 39 262 4
108 11 208 17 222 12 30 5 45 -23 52 -11 2 5 5 36 6 95 2 111 8 142 58 15 24
25 50 21 56 -3 7 1 3 10 -7 13 -16 13 -21 3 -30 -8 -6 -21 -23 -29 -37 -16
-25 -15 -27 28 -82 46 -60 77 -82 99 -73 19 7 24 -4 14 -29 -6 -17 -8 -17 -8
-2 -1 9 -8 17 -16 17 -20 0 -19 -37 1 -108 37 -128 93 -184 136 -134 19 21 25
57 33 182 3 52 8 109 10 125 5 24 -8 53 -66 153 -39 67 -78 126 -87 131 -23
12 -224 32 -287 29 -62 -3 -308 12 -315 19 -9 10 485 -5 548 -17 72 -14 79
-21 158 -160 27 -47 52 -86 55 -88 7 -3 36 -93 69 -208 23 -83 53 -126 83
-122 38 5 48 43 44 163 -2 61 0 124 5 140 7 26 1 45 -42 130 -60 118 -136 257
-168 308 -27 42 -48 49 -182 52 -52 2 -111 4 -130 4 -25 1 -31 4 -21 10 13 8
130 7 249 -3 34 -3 42 -1 38 10 -3 8 -1 14 4 14 6 0 10 -6 10 -13 0 -8 9 -22
21 -33 35 -32 206 -346 241 -444 28 -76 72 -130 108 -130 31 0 60 23 60 47 0
8 -13 45 -29 81 -16 37 -41 110 -56 162 -15 52 -34 111 -42 130 -22 51 -104
180 -114 180 -5 0 -9 5 -9 10 0 18 -107 177 -131 194 -17 12 -46 16 -107 16
-82 0 -83 0 -71 -22 l12 -21 -29 22 c-27 21 -36 22 -119 17 -49 -3 -112 -2
-140 3 -52 9 -33 14 43 11 47 -2 49 1 24 38 -22 32 -46 91 -40 97 2 2 19 -27
38 -66 18 -38 36 -66 40 -62 20 21 -30 267 -74 366 -45 104 -78 199 -87 256
-36 228 -54 291 -117 420 -36 71 -103 145 -144 158 -27 9 -29 11 -10 12 107 5
239 -237 276 -508 9 -59 19 -117 23 -128 7 -17 97 -100 155 -142 24 -18 225
-22 236 -5 4 6 27 24 52 41 25 17 65 52 89 77 25 25 48 41 51 36 7 -11 132
129 179 200 16 25 59 81 95 125 72 88 149 192 167 227 11 22 10 22 -17 -2 -61
-53 -74 -63 -74 -52 0 6 24 30 54 54 30 24 64 60 76 81 12 20 24 37 26 37 3 0
2 -4 -1 -10 -3 -5 -4 -10 -1 -10 3 0 13 15 22 32 15 30 18 31 24 13 7 -18 9
-17 21 10 7 17 28 55 46 86 65 112 125 291 138 409 4 30 13 87 21 125 9 39 17
140 19 225 3 85 8 202 12 260 4 58 6 123 5 145 -4 67 -42 316 -58 390 -31 133
-183 420 -269 505 -59 58 -77 94 -22 44 l32 -29 -34 38 c-34 36 -48 47 -36 27
14 -23 -7 -7 -72 54 -101 94 -119 108 -223 168 -137 78 -181 95 -243 92 -79
-3 -262 -31 -384 -58 -59 -14 -153 -34 -208 -46 -55 -12 -111 -25 -125 -30
-14 -4 -59 -16 -100 -25 -96 -22 -110 -30 -197 -110 -71 -65 -155 -179 -221
-300 -48 -88 -204 -403 -225 -454 -28 -69 -40 -149 -33 -231 14 -154 99 -619
115 -630 4 -3 11 -25 14 -49 3 -24 24 -79 46 -121 22 -43 47 -95 55 -116 43
-118 100 -240 126 -272 16 -20 27 -38 24 -41 -3 -3 -12 3 -20 13 -16 22 -19 5
-5 -22 6 -9 40 -80 77 -157 36 -77 86 -167 109 -200 47 -65 181 -202 190 -194
5 6 -17 130 -40 218 -7 31 -17 83 -20 116 -6 51 -4 63 10 75 16 14 17 13 10
-10 -17 -52 4 -167 49 -274 19 -46 19 -49 5 -40 -15 9 -3 -65 22 -131 48 -130
81 -356 84 -580 2 -104 7 -189 12 -189 74 13 93 14 93 7 0 -5 -33 -15 -74 -21
-80 -14 -105 -32 -125 -91 -15 -45 -13 -51 5 -21 l15 25 -5 -25 c-3 -14 -8
-34 -11 -45 -6 -19 -1 -20 112 -20 65 -1 141 -5 168 -11 42 -8 23 -10 -112
-10 -132 1 -165 -2 -177 -14 -9 -8 -23 -53 -32 -100 -21 -114 -42 -193 -52
-199 -5 -3 -17 -31 -27 -61 -10 -30 -59 -138 -110 -240 -108 -216 -155 -344
-155 -421 0 -34 11 -86 30 -139 16 -46 28 -86 26 -88 -7 -6 -43 53 -57 93 -7
23 -13 82 -13 137 l0 97 -24 -41 c-13 -23 -68 -134 -122 -245 -145 -297 -228
-434 -369 -608 -154 -190 -302 -323 -642 -580 -272 -206 -273 -207 -352 -305
-127 -158 -190 -361 -199 -640 l-2 -65 -6 80 -6 80 -2 -67 c-2 -83 12 -193 43
-323 13 -55 26 -120 30 -145 10 -67 -9 -37 -23 35 -21 110 -40 180 -41 155 -2
-44 36 -223 62 -290 14 -36 43 -107 66 -158 23 -51 41 -99 41 -107 0 -36 33
-94 58 -103 119 -42 178 -50 220 -28 17 9 38 16 47 16 34 0 197 126 281 217
51 55 90 90 97 86 7 -3 9 -3 5 1 -4 5 12 31 36 60 23 28 48 66 55 84 7 17 18
32 23 32 5 0 6 -4 3 -10 -3 -5 -2 -10 3 -10 22 0 1 -54 -36 -94 -22 -24 -51
-61 -65 -82 -30 -47 -205 -220 -277 -275 -29 -21 -48 -39 -44 -39 5 0 2 -4 -6
-10 -21 -13 -123 -22 -250 -23 -61 0 -110 -2 -110 -4 0 -2 21 -40 46 -84 26
-44 44 -82 41 -85 -3 -3 -12 5 -20 18 -35 57 -97 170 -97 178 0 4 -12 34 -26
66 -29 65 -63 166 -99 294 -13 47 -37 130 -53 185 -16 55 -32 109 -35 120 -14
47 9 -235 29 -368 3 -20 2 -37 -4 -37 -22 0 -53 407 -55 715 0 228 11 373 42
529 10 50 19 98 19 106 0 34 121 409 181 563 7 19 7 27 0 27 -13 0 -7 88 16
260 38 276 97 504 203 790 45 118 93 265 107 325 31 126 55 189 125 330 28 55
68 147 90 205 31 81 54 122 99 180 33 41 58 76 56 78 -4 4 -62 -25 -97 -50
-18 -12 -25 -25 -22 -36 5 -14 4 -14 -4 -3 -9 12 -18 8 -54 -21 -54 -44 -138
-127 -202 -196 -26 -29 -50 -51 -53 -48 -8 7 96 121 171 189 100 90 131 112
250 183 61 36 138 83 171 104 33 21 82 46 110 56 27 9 63 25 80 36 29 17 75
27 47 10 -13 -9 93 -4 147 7 19 3 62 3 95 -2 110 -15 300 -48 333 -58 33 -10
222 -27 288 -25 39 1 40 2 48 46 15 81 -2 383 -29 515 -38 191 -50 227 -81
253 -15 13 -49 43 -75 67 -27 24 -48 42 -48 40 0 -5 51 -92 76 -130 9 -14 12
-25 6 -25 -6 0 -34 42 -63 93 -29 50 -78 130 -109 177 -31 47 -66 101 -78 120
-12 19 -22 31 -22 27 0 -20 79 -160 173 -305 33 -51 58 -95 55 -98 -3 -3 -16
11 -28 31 -12 20 -25 34 -28 31 -6 -6 -24 24 -98 159 -100 182 -175 350 -234
525 -17 52 -37 100 -45 105 -10 8 -67 131 -109 235 -3 8 -4 -1 -1 -20 l5 -35
-15 40 c-58 149 -138 557 -160 810 -14 169 -10 414 9 432 3 4 3 -58 0 -138 -6
-122 6 -365 21 -444 2 -11 4 -33 6 -50 3 -49 18 188 23 360 3 124 8 178 25
239 26 94 82 227 92 220 4 -2 -5 -32 -21 -67 -47 -100 -80 -240 -79 -332 l1
-80 18 70 c69 278 184 471 442 742 l50 53 -34 -5 c-32 -5 -32 -5 7 10 22 8 62
35 89 60 26 25 52 45 57 45 16 0 9 -19 -9 -24 -23 -8 -70 -56 -54 -56 6 0 17
7 26 15 16 16 41 21 32 6 -3 -5 15 -3 41 5 148 45 639 149 768 163 l70 7 -90
9 c-125 11 -335 -8 -477 -44 -105 -26 -267 -96 -283 -121 -3 -5 -11 -10 -17
-10 -27 0 34 47 107 81 179 84 475 135 657 111 40 -5 71 -5 77 1 5 5 25 0 49
-12 23 -12 59 -21 81 -21 l41 0 -38 35 c-48 44 -34 46 15 1 26 -22 52 -35 81
-39 23 -3 42 -4 42 -2 0 5 -173 114 -297 189 -62 37 -115 72 -119 78 -15 24
370 -209 419 -253 18 -17 61 -29 100 -29 29 0 11 17 -52 50 -27 14 -98 55
-158 91 -59 36 -137 81 -173 100 -36 19 -67 37 -70 40 -10 13 -85 19 -104 8z
m-76 -59 c8 -5 11 -10 5 -10 -5 0 -17 5 -25 10 -8 5 -10 10 -5 10 6 0 17 -5
25 -10z m120 -72 c0 -8 -87 40 -95 52 -3 5 17 -3 45 -18 27 -15 50 -30 50 -34z
m41 -25 c13 -17 13 -17 -6 -3 -11 8 -22 16 -24 17 -2 2 0 3 6 3 6 0 17 -8 24
-17z m68 -39 c14 -12 -19 -1 -35 12 -18 14 -18 14 6 3 14 -6 27 -13 29 -15z
m-446 -51 c-7 -2 -21 -2 -30 0 -10 3 -4 5 12 5 17 0 24 -2 18 -5z m-85 -10
c-10 -2 -26 -2 -35 0 -10 3 -2 5 17 5 19 0 27 -2 18 -5z m-65 -10 c-7 -2 -19
-2 -25 0 -7 3 -2 5 12 5 14 0 19 -2 13 -5z m-43 -7 c0 -2 -11 -6 -25 -8 -13
-3 -22 -1 -19 3 5 9 44 13 44 5z m-64 -13 c-9 -9 -95 -32 -116 -32 -8 1 10 9
40 19 59 19 88 24 76 13z m399 -9 c-33 -7 -69 -13 -80 -12 -30 1 75 26 110 26
19 0 7 -5 -30 -14z m-535 -29 c0 -2 -26 -16 -57 -31 -32 -15 -61 -29 -65 -31
-5 -2 -8 -1 -8 2 0 3 28 19 63 35 67 32 67 32 67 25z m934 -10 c11 -8 16 -15
10 -15 -5 0 -18 7 -28 15 -11 8 -16 15 -10 15 5 0 18 -7 28 -15z m-679 -15
c-28 -12 -37 -12 -30 0 3 6 16 10 28 9 21 0 21 -1 2 -9z m750 -20 c3 -6 -1 -7
-9 -4 -18 7 -21 14 -7 14 6 0 13 -4 16 -10z m63 -87 c25 -21 56 -48 71 -61
l26 -24 -35 23 c-19 13 -37 26 -40 29 -3 3 -22 20 -43 38 -21 17 -35 32 -31
32 4 0 27 -17 52 -37z m152 -54 c0 -6 -4 -7 -10 -4 -5 3 -10 11 -10 16 0 6 5
7 10 4 6 -3 10 -11 10 -16z m50 -50 c0 -5 -9 -1 -20 8 -11 10 -20 22 -20 27 0
5 9 1 20 -9 11 -10 20 -22 20 -26z m-1610 18 c0 -2 -10 -12 -22 -23 l-23 -19
19 23 c18 21 26 27 26 19z m1724 -123 c18 -25 18 -25 -3 -12 -11 7 -23 18 -25
25 -9 22 8 14 28 -13z m-1826 2 c-7 -8 -15 -12 -17 -11 -5 6 10 25 20 25 5 0
4 -6 -3 -14z m1810 -61 c-3 -3 -9 2 -12 12 -6 14 -5 15 5 6 7 -7 10 -15 7 -18z
m52 10 c7 -9 8 -15 2 -15 -5 0 -12 7 -16 15 -3 8 -4 15 -2 15 2 0 9 -7 16 -15z
m18 -120 c-3 -3 -9 2 -12 12 -6 14 -5 15 5 6 7 -7 10 -15 7 -18z m52 15 c0 -5
-2 -10 -4 -10 -3 0 -8 5 -11 10 -3 6 -1 10 4 10 6 0 11 -4 11 -10z m-65 -50
c3 -5 1 -10 -4 -10 -6 0 -11 5 -11 10 0 6 2 10 4 10 3 0 8 -4 11 -10z m-2152
-35 c-3 -9 -8 -14 -10 -11 -3 3 -2 9 2 15 9 16 15 13 8 -4z m77 -35 c-6 -12
-14 -20 -17 -17 -2 3 1 14 8 26 17 26 24 19 9 -9z m2208 -16 c-4 -3 -12 5 -18
18 -12 22 -12 22 6 6 10 -10 15 -20 12 -24z m-2307 3 c-10 -9 -11 -8 -5 6 3
10 9 15 12 12 3 -3 0 -11 -7 -18z m129 -17 c-6 -11 -13 -20 -16 -20 -2 0 0 9
6 20 6 11 13 20 16 20 2 0 0 -9 -6 -20z m2109 -35 c0 -5 -6 1 -14 15 -8 14
-14 30 -14 35 0 6 6 -1 14 -15 8 -14 14 -29 14 -35z m-2263 -16 c-18 -41 -21
-29 -4 18 7 19 14 30 16 25 1 -4 -4 -24 -12 -43z m80 0 c-9 -19 -15 -29 -16
-22 0 15 22 64 27 60 2 -2 -3 -19 -11 -38z m2346 -24 c6 -11 -4 -5 -21 13 -17
18 -31 36 -31 39 0 11 41 -31 52 -52z m-48 -35 c5 -17 4 -20 -2 -10 -5 8 -13
26 -16 40 -5 17 -4 20 2 10 5 -8 13 -26 16 -40z m-2327 -2 c-3 -8 -6 -5 -6 6
-1 11 2 17 5 13 3 -3 4 -12 1 -19z m-96 -124 c-5 -21 -9 -30 -10 -19 -1 24 10
67 15 62 3 -2 0 -22 -5 -43z m2388 -9 l0 -20 -9 20 c-5 11 -9 29 -9 40 l0 20
9 -20 c5 -11 9 -29 9 -40z m70 -4 c1 -35 -5 -22 -12 24 -5 28 -4 34 3 20 5
-11 9 -31 9 -44z m-62 -68 c-3 -10 -5 -2 -5 17 0 19 2 27 5 18 2 -10 2 -26 0
-35z m170 15 c-3 -8 -6 -5 -6 6 -1 11 2 17 5 13 3 -3 4 -12 1 -19z m-100 -60
c-2 -13 -4 -3 -4 22 0 25 2 35 4 23 2 -13 2 -33 0 -45z m89 16 c-4 -9 -9 -15
-11 -12 -3 3 -3 13 1 22 4 9 9 15 11 12 3 -3 3 -13 -1 -22z m-2629 -86 c-2
-18 -4 -6 -4 27 0 33 2 48 4 33 2 -15 2 -42 0 -60z m10 -145 c-3 -10 -5 -2 -5
17 0 19 2 27 5 18 2 -10 2 -26 0 -35z m2500 -80 c-2 -16 -4 -3 -4 27 0 30 2
43 4 28 2 -16 2 -40 0 -55z m-666 -103 c53 0 89 -4 89 -10 0 -5 9 -10 20 -10
13 0 20 -7 20 -20 0 -11 5 -20 10 -20 25 0 47 -18 52 -41 2 -8 9 -20 16 -27 7
-8 10 -18 6 -23 -3 -5 -2 -9 3 -8 29 5 33 -4 33 -73 0 -51 3 -68 10 -58 6 9
10 10 10 3 0 -6 -4 -15 -10 -18 -5 -3 -10 -24 -10 -46 0 -26 -7 -46 -20 -59
-11 -11 -15 -20 -8 -20 6 0 1 -9 -11 -19 -12 -10 -20 -25 -19 -32 2 -8 -3 -13
-9 -11 -7 1 -13 -5 -13 -13 0 -8 -8 -15 -17 -15 -9 0 -14 -3 -10 -6 9 -9 -19
-34 -37 -34 -9 0 -16 -4 -16 -8 0 -31 -246 -45 -274 -16 -9 8 -18 15 -21 14
-20 -1 -25 2 -25 15 0 8 -3 14 -7 14 -23 -4 -33 3 -33 22 0 11 -4 17 -10 14
-5 -3 -10 0 -10 7 0 8 -9 20 -20 28 -12 8 -20 26 -20 42 0 15 -4 28 -10 28 -5
0 -10 22 -10 49 0 29 -5 51 -12 53 -8 3 -9 11 -3 24 4 10 10 35 12 54 3 19 9
37 14 38 5 2 9 17 9 33 0 16 5 29 10 29 6 0 10 5 10 10 0 6 16 26 35 46 19 19
35 32 35 29 0 -3 6 0 14 7 8 7 12 16 9 21 -2 4 12 7 31 7 19 0 37 4 41 10 4 6
15 6 31 0 14 -6 66 -10 115 -10z m2 13 c-7 -2 -21 -2 -30 0 -10 3 -4 5 12 5
17 0 24 -2 18 -5z m-1746 -35 c-3 -8 -6 -5 -6 6 -1 11 2 17 5 13 3 -3 4 -12 1
-19z m22 -98 c0 -10 -3 -8 -9 5 -12 27 -12 43 0 25 5 -8 9 -22 9 -30z m841 20
c13 0 13 -1 0 -10 -12 -8 -9 -10 13 -10 16 0 35 -7 44 -15 8 -8 19 -13 24 -10
5 4 9 -1 9 -10 0 -19 25 -47 34 -38 3 4 6 -6 6 -20 0 -20 5 -27 20 -27 17 0
20 -7 21 -52 1 -42 3 -48 9 -28 5 16 8 -13 8 -80 0 -67 -3 -96 -8 -80 -7 21
-8 19 -9 -17 -1 -24 -6 -43 -12 -43 -5 0 -7 -4 -4 -10 3 -5 -1 -10 -9 -10 -9
0 -16 -7 -16 -16 0 -21 -24 -44 -47 -45 -10 0 -13 -3 -6 -6 18 -7 -9 -33 -34
-33 -15 0 -16 -2 -3 -10 12 -8 11 -10 -7 -10 -13 0 -23 -4 -23 -10 0 -6 -53
-10 -140 -10 -87 0 -140 4 -140 10 0 6 -6 10 -14 10 -8 0 -18 9 -21 20 -3 11
-15 20 -26 20 -12 0 -19 7 -19 18 0 10 -9 24 -20 32 -11 8 -20 21 -20 30 0 9
-9 22 -20 30 -20 14 -29 37 -10 25 6 -3 10 -2 10 4 0 5 -4 12 -9 15 -4 3 -11
31 -14 63 -3 32 -9 67 -13 77 -5 14 -4 17 4 12 8 -5 12 4 13 31 0 30 2 34 9
18 7 -16 9 -14 9 15 1 26 4 31 11 20 8 -12 10 -11 10 8 0 12 5 22 10 22 6 0
10 9 10 20 0 11 5 20 10 20 6 0 10 7 10 15 0 8 3 15 8 16 30 3 46 10 62 29 13
15 20 17 23 8 4 -9 6 -7 6 4 1 20 70 27 171 16 36 -4 72 -7 80 -8z m-823 -152
c-3 -8 -6 -5 -6 6 -1 11 2 17 5 13 3 -3 4 -12 1 -19z m2350 0 c-3 -8 -6 -5 -6
6 -1 11 2 17 5 13 3 -3 4 -12 1 -19z m-40 -400 c-3 -8 -6 -5 -6 6 -1 11 2 17
5 13 3 -3 4 -12 1 -19z m10 -130 c-3 -8 -6 -5 -6 6 -1 11 2 17 5 13 3 -3 4
-12 1 -19z m-50 -20 c-3 -7 -5 -2 -5 12 0 14 2 19 5 13 2 -7 2 -19 0 -25z m20
-80 c-3 -7 -5 -2 -5 12 0 14 2 19 5 13 2 -7 2 -19 0 -25z m-2100 0 c-3 -8 -6
-5 -6 6 -1 11 2 17 5 13 3 -3 4 -12 1 -19z m50 -50 c-3 -8 -6 -5 -6 6 -1 11 2
17 5 13 3 -3 4 -12 1 -19z m1980 -3 c0 -8 -4 -15 -9 -15 -10 0 -11 14 -1 23 9
10 10 9 10 -8z m70 -47 c-3 -8 -6 -5 -6 6 -1 11 2 17 5 13 3 -3 4 -12 1 -19z
m-105 -25 c-6 -2 -9 -10 -6 -15 4 -7 2 -8 -5 -4 -13 9 -5 26 12 25 9 0 8 -2
-1 -6z m110 -65 c-6 -6 -8 5 -7 29 3 50 7 56 12 14 3 -18 0 -38 -5 -43z
m-1542 -154 c0 -3 -7 -1 -15 6 -8 7 -15 17 -15 22 0 5 7 3 15 -6 8 -8 15 -18
15 -22z m40 -45 c0 -6 -4 -7 -10 -4 -5 3 -10 11 -10 16 0 6 5 7 10 4 6 -3 10
-11 10 -16z m1198 -9 c-7 -11 -16 -20 -20 -20 -5 0 -3 9 4 20 7 11 16 20 20
20 5 0 3 -9 -4 -20z m-64 -5 c-4 -8 -11 -15 -16 -15 -6 0 -5 6 2 15 7 8 14 15
16 15 2 0 1 -7 -2 -15z m-1116 -30 c-3 -3 -9 2 -12 12 -6 14 -5 15 5 6 7 -7
10 -15 7 -18z m1128 -37 c-15 -18 -38 -46 -51 -63 -13 -16 -25 -25 -25 -19 0
5 8 19 18 30 10 10 28 34 40 52 13 17 28 32 34 32 5 0 -2 -15 -16 -32z m-1501
-78 c3 -5 1 -10 -4 -10 -6 0 -11 5 -11 10 0 6 2 10 4 10 3 0 8 -4 11 -10z m66
-27 c13 -16 12 -17 -3 -4 -17 13 -22 21 -14 21 2 0 10 -8 17 -17z m406 -95
c-3 -8 -6 -5 -6 6 -1 11 2 17 5 13 3 -3 4 -12 1 -19z m-257 -45 c0 -3 -13 5
-30 17 -16 12 -30 26 -30 31 0 5 14 -3 30 -18 17 -14 30 -28 30 -30z m1105 17
c3 -5 1 -10 -4 -10 -6 0 -11 5 -11 10 0 6 2 10 4 10 3 0 8 -4 11 -10z m-1145
-74 c0 -12 -5 -7 -19 24 -11 24 -11 24 3 6 9 -11 16 -24 16 -30z m80 34 c0 -5
-2 -10 -4 -10 -3 0 -8 5 -11 10 -3 6 -1 10 4 10 6 0 11 -4 11 -10z m17 -92
c-3 -7 -5 -2 -5 12 0 14 2 19 5 13 2 -7 2 -19 0 -25z m973 28 c0 -2 -8 -10
-17 -17 -16 -13 -17 -12 -4 4 13 16 21 21 21 13z m-49 -53 c-16 -28 -61 -77
-61 -66 0 10 59 83 67 83 2 0 -1 -8 -6 -17z m-894 -85 c-3 -8 -6 -5 -6 6 -1
11 2 17 5 13 3 -3 4 -12 1 -19z m10 -55 c-3 -10 -5 -4 -5 12 0 17 2 24 5 18 2
-7 2 -21 0 -30z m10 -55 c-3 -8 -6 -5 -6 6 -1 11 2 17 5 13 3 -3 4 -12 1 -19z
m440 -74 c-3 -3 -12 -4 -19 -1 -8 3 -5 6 6 6 11 1 17 -2 13 -5z m-138 -89 c0
-5 -4 -3 -9 5 -5 8 -9 22 -9 30 0 16 17 -16 18 -35z m141 -76 c6 -22 14 -47
17 -55 3 -8 1 -14 -5 -14 -6 0 -15 23 -21 50 -12 58 -13 60 -6 60 2 0 9 -18
15 -41z m-123 9 c-3 -8 -6 -5 -6 6 -1 11 2 17 5 13 3 -3 4 -12 1 -19z m20
-105 c-3 -10 -5 -4 -5 12 0 17 2 24 5 18 2 -7 2 -21 0 -30z m100 -5 c-3 -8 -6
-5 -6 6 -1 11 2 17 5 13 3 -3 4 -12 1 -19z m-33 -53 c-4 -8 -11 -15 -16 -15
-6 0 -5 6 2 15 7 8 14 15 16 15 2 0 1 -7 -2 -15z m-1186 -32 c-10 -2 -26 -2
-35 0 -10 3 -2 5 17 5 19 0 27 -2 18 -5z m-211 -39 c-3 -3 -12 -4 -19 -1 -8 3
-5 6 6 6 11 1 17 -2 13 -5z m-102 -44 c-3 -5 -12 -10 -18 -10 -7 0 -6 4 3 10
19 12 23 12 15 0z m1889 -35 c-14 -19 -29 -35 -31 -35 -5 0 7 18 36 53 26 31
23 18 -5 -18z m-1938 10 c-11 -8 -25 -15 -30 -15 -6 1 0 7 14 15 32 19 40 18
16 0z m-60 -40 c-11 -8 -24 -15 -30 -15 -5 0 -1 7 10 15 10 8 24 14 29 14 6 0
1 -6 -9 -14z m2009 -61 c9 -15 12 -23 6 -20 -11 7 -35 46 -28 46 3 0 12 -12
22 -26z m-2135 -8 c0 -2 -7 -7 -16 -10 -8 -3 -12 -2 -9 4 6 10 25 14 25 6z
m-45 -24 c-39 -33 -129 -96 -114 -78 11 12 112 86 118 86 3 0 1 -4 -4 -8z
m1888 -29 c-7 -2 -19 -2 -25 0 -7 3 -2 5 12 5 14 0 19 -2 13 -5z m507 -7 c0
-2 -7 -9 -15 -16 -13 -11 -14 -10 -9 4 5 14 24 23 24 12z m-2379 -39 c-10 -9
-11 -8 -5 6 3 10 9 15 12 12 3 -3 0 -11 -7 -18z m129 0 c0 -2 -15 -16 -32 -33
l-33 -29 29 33 c28 30 36 37 36 29z m-287 -35 c-10 -10 -20 -17 -22 -16 -6 5
20 34 30 34 5 0 1 -8 -8 -18z m2484 -49 c-3 -10 -5 -2 -5 17 0 19 2 27 5 18 2
-10 2 -26 0 -35z m-2517 24 c0 -2 -17 -19 -37 -38 l-38 -34 34 38 c33 34 41
42 41 34z m240 -21 c0 -2 -7 -9 -15 -16 -13 -11 -14 -10 -9 4 5 14 24 23 24
12z m-40 -39 c0 -2 -17 -19 -37 -38 l-38 -34 34 38 c33 34 41 42 41 34z m2126
-59 c23 -45 12 -43 -13 3 -12 21 -17 37 -12 33 5 -3 16 -19 25 -36z m-283 -15
c-7 -2 -19 -2 -25 0 -7 3 -2 5 12 5 14 0 19 -2 13 -5z m-2203 -37 c0 -3 -4 -8
-10 -11 -5 -3 -10 -1 -10 4 0 6 5 11 10 11 6 0 10 -2 10 -4z m2710 -52 c21
-48 26 -75 11 -58 -10 11 -42 104 -35 104 3 0 14 -21 24 -46z m-2476 27 c3 -5
-2 -15 -12 -22 -15 -12 -16 -12 -5 2 7 9 10 19 6 22 -3 4 -4 7 0 7 3 0 8 -4
11 -9z m2054 -27 c-4 -3 -12 5 -18 18 -12 22 -12 22 6 6 10 -10 15 -20 12 -24z
m272 -49 c0 -5 -5 -3 -10 5 -5 8 -10 20 -10 25 0 6 5 3 10 -5 5 -8 10 -19 10
-25z m-535 -73 c-9 -9 -55 29 -55 45 0 13 7 10 30 -12 16 -16 28 -31 25 -33z
m731 -7 c9 -39 0 -30 -15 15 -6 19 -7 30 -2 25 5 -6 13 -23 17 -40z m-951 17
c-3 -3 -11 0 -18 7 -9 10 -8 11 6 5 10 -3 15 -9 12 -12z m265 -38 c0 -2 -17
-4 -37 -3 -29 0 -33 2 -18 8 18 7 55 4 55 -5z m-163 0 c-3 -3 -12 -4 -19 -1
-8 3 -5 6 6 6 11 1 17 -2 13 -5z m184 -65 c-24 -21 -46 -37 -49 -34 -7 6 69
74 83 74 6 0 -10 -18 -34 -40z m-217 -3 c-10 -8 -21 -12 -24 -10 -5 6 21 24
34 24 6 0 1 -6 -10 -14z m43 -73 c-3 -10 -5 -2 -5 17 0 19 2 27 5 18 2 -10 2
-26 0 -35z m310 21 c-3 -3 -12 -4 -19 -1 -8 3 -5 6 6 6 11 1 17 -2 13 -5z
m530 0 c-3 -3 -12 -4 -19 -1 -8 3 -5 6 6 6 11 1 17 -2 13 -5z m-580 -66 c-3
-8 -6 -5 -6 6 -1 11 2 17 5 13 3 -3 4 -12 1 -19z m10 -40 c-3 -8 -6 -5 -6 6
-1 11 2 17 5 13 3 -3 4 -12 1 -19z m272 -18 c6 -19 7 -30 2 -25 -5 6 -13 24
-17 40 -9 39 0 30 15 -15z m-241 -52 c16 -44 9 -45 -11 -3 -9 19 -13 35 -9 35
4 0 13 -14 20 -32z m307 -36 c13 -7 15 -11 6 -12 -17 0 -61 39 -61 54 0 6 8 1
18 -10 9 -12 26 -26 37 -32z m-2438 -4 c-3 -8 -6 -5 -6 6 -1 11 2 17 5 13 3
-3 4 -12 1 -19z m-66 -45 c-10 -17 -10 -16 -11 3 0 23 13 41 18 25 2 -6 -1
-18 -7 -28z m2329 18 c0 -13 -29 -41 -42 -41 -6 0 0 11 13 24 28 28 29 29 29
17z m-449 -107 c-5 -16 -10 -21 -10 -12 -1 18 10 51 15 45 2 -1 -1 -16 -5 -33z
m-1844 -6 c-3 -8 -6 -5 -6 6 -1 11 2 17 5 13 3 -3 4 -12 1 -19z m2201 2 c-7
-10 -14 -17 -17 -15 -4 4 18 35 25 35 2 0 -1 -9 -8 -20z m-2297 -63 c-8 -8
-11 -7 -11 4 0 20 13 34 18 19 3 -7 -1 -17 -7 -23z m2234 -17 c-10 -11 -23
-20 -29 -20 -6 1 0 10 13 20 30 26 39 26 16 0z m-65 -40 c-8 -5 -19 -10 -25
-10 -5 0 -3 5 5 10 8 5 20 10 25 10 6 0 3 -5 -5 -10z m-296 -14 c-3 -8 -13
-17 -22 -21 -13 -5 -13 -2 3 15 21 24 26 25 19 6z m86 -99 c0 -1 -25 -27 -56
-57 -31 -30 -52 -46 -46 -34 15 29 102 107 102 91z m-1923 -74 c-3 -10 -5 -4
-5 12 0 17 2 24 5 18 2 -7 2 -21 0 -30z m-141 -49 c-8 -21 -15 -34 -15 -28 -1
15 20 76 25 71 2 -2 -2 -21 -10 -43z m130 -20 c-4 -14 -9 -24 -12 -21 -3 2 -2
17 2 31 3 15 9 25 11 22 3 -3 2 -17 -1 -32z m-89 4 c-3 -8 -6 -5 -6 6 -1 11 2
17 5 13 3 -3 4 -12 1 -19z m1871 -28 c-7 -10 -14 -17 -17 -15 -4 4 18 35 25
35 2 0 -1 -9 -8 -20z m-1887 -91 l-11 -34 5 34 c3 18 6 45 6 60 l2 26 4 -26
c2 -15 -1 -42 -6 -60z m1840 8 c-10 -9 -11 -8 -5 6 3 10 9 15 12 12 3 -3 0
-11 -7 -18z m-1912 -41 c-6 -26 -13 -45 -16 -43 -2 3 1 26 8 51 6 26 13 45 16
43 2 -3 -1 -26 -8 -51z m1985 -11 c-9 -14 -19 -23 -22 -20 -5 4 26 45 35 45 2
0 -4 -11 -13 -25z m-2007 -87 c-3 -7 -5 -2 -5 12 0 14 2 19 5 13 2 -7 2 -19 0
-25z m1876 7 c-3 -9 -8 -14 -10 -11 -3 3 -2 9 2 15 9 16 15 13 8 -4z m-1796
-27 c-3 -8 -6 -5 -6 6 -1 11 2 17 5 13 3 -3 4 -12 1 -19z m1873 18 c0 -3 -4
-8 -10 -11 -5 -3 -10 -1 -10 4 0 6 5 11 10 11 6 0 10 -2 10 -4z m-1883 -68
c-3 -7 -5 -2 -5 12 0 14 2 19 5 13 2 -7 2 -19 0 -25z m1766 -28 c-3 -12 -8
-19 -11 -16 -5 6 5 36 12 36 2 0 2 -9 -1 -20z m-1866 -32 c-3 -8 -6 -5 -6 6
-1 11 2 17 5 13 3 -3 4 -12 1 -19z m-10 -100 c-3 -7 -5 -2 -5 12 0 14 2 19 5
13 2 -7 2 -19 0 -25z m-20 -140 c-3 -7 -5 -2 -5 12 0 14 2 19 5 13 2 -7 2 -19
0 -25z m-10 -80 c-3 -7 -5 -2 -5 12 0 14 2 19 5 13 2 -7 2 -19 0 -25z m1720
-100 c-3 -8 -6 -5 -6 6 -1 11 2 17 5 13 3 -3 4 -12 1 -19z m-1650 -60 c-3 -8
-6 -5 -6 6 -1 11 2 17 5 13 3 -3 4 -12 1 -19z m1626 -13 c-3 -9 -8 -14 -10
-11 -3 3 -2 9 2 15 9 16 15 13 8 -4z m-1716 -17 c-3 -8 -6 -5 -6 6 -1 11 2 17
5 13 3 -3 4 -12 1 -19z m40 -30 c-3 -8 -6 -5 -6 6 -1 11 2 17 5 13 3 -3 4 -12
1 -19z m1644 -21 c-10 -9 -11 -8 -5 6 3 10 9 15 12 12 3 -3 0 -11 -7 -18z
m-1659 -39 c-6 -6 -7 0 -4 19 5 21 7 23 10 9 2 -10 0 -22 -6 -28z m-25 -115
c-3 -10 -5 -4 -5 12 0 17 2 24 5 18 2 -7 2 -21 0 -30z m-110 -215 c-3 -8 -6
-5 -6 6 -1 11 2 17 5 13 3 -3 4 -12 1 -19z m62 -32 c-9 -8 -10 -7 -5 7 3 10 7
26 7 35 1 9 4 6 6 -7 3 -13 -1 -28 -8 -35z m52 -79 c-10 -9 -11 -8 -5 6 3 10
9 15 12 12 3 -3 0 -11 -7 -18z m-35 -55 c-17 -16 -18 -16 -5 5 7 12 15 20 18
17 3 -2 -3 -12 -13 -22z m-79 -54 c-3 -8 -6 -5 -6 6 -1 11 2 17 5 13 3 -3 4
-12 1 -19z m46 -10 c-21 -43 -27 -49 -18 -18 7 23 23 50 30 50 2 0 -4 -15 -12
-32z m1492 13 c3 -5 1 -12 -5 -16 -5 -3 -10 1 -10 9 0 18 6 21 15 7z m-1578
-23 c-3 -8 -6 -5 -6 6 -1 11 2 17 5 13 3 -3 4 -12 1 -19z m-47 -75 c-4 -42 -5
-44 -8 -15 -3 30 2 62 10 62 2 0 1 -21 -2 -47z m37 5 c-3 -7 -5 -2 -5 12 0 14
2 19 5 13 2 -7 2 -19 0 -25z m64 1 c-5 -13 -10 -19 -10 -12 -1 15 10 45 15 40
3 -2 0 -15 -5 -28z m1484 -8 c3 -5 1 -12 -5 -16 -5 -3 -10 1 -10 9 0 18 6 21
15 7z m-1608 -468 c-2 -16 -4 -5 -4 22 0 28 2 40 4 28 2 -13 2 -35 0 -50z m6
-63 c-3 -12 -8 -19 -11 -16 -5 6 5 36 12 36 2 0 2 -9 -1 -20z m34 -2 c-3 -8
-6 -5 -6 6 -1 11 2 17 5 13 3 -3 4 -12 1 -19z m62 -243 c0 -5 -4 -3 -9 5 -5 8
-9 22 -9 30 0 16 17 -16 18 -35z m1071 -8 c0 -2 -12 -14 -27 -28 l-28 -24 24
28 c23 25 31 32 31 24z m-1063 -49 c-3 -7 -5 -2 -5 12 0 14 2 19 5 13 2 -7 2
-19 0 -25z m-90 -40 c-2 -13 -4 -5 -4 17 -1 22 1 32 4 23 2 -10 2 -28 0 -40z
m70 -20 c-3 -8 -6 -5 -6 6 -1 11 2 17 5 13 3 -3 4 -12 1 -19z m-60 -55 c-3
-10 -5 -2 -5 17 0 19 2 27 5 18 2 -10 2 -26 0 -35z m83 2 c0 -14 -2 -25 -4
-25 -2 0 -6 11 -8 25 -3 14 -1 25 3 25 5 0 9 -11 9 -25z m1147 -77 c-3 -8 -6
-5 -6 6 -1 11 2 17 5 13 3 -3 4 -12 1 -19z m10 -60 c-3 -8 -6 -5 -6 6 -1 11 2
17 5 13 3 -3 4 -12 1 -19z m-1076 -44 c5 -15 8 -29 5 -31 -2 -2 -8 10 -14 26
-13 38 -5 41 9 5z m1088 -26 l-2 -43 -6 35 c-7 33 -5 50 5 50 2 0 3 -19 3 -42z
m-434 12 c-10 -11 -22 -20 -27 -20 -10 0 24 38 36 39 5 1 1 -8 -9 -19z m442
-112 c-2 -13 -4 -5 -4 17 -1 22 1 32 4 23 2 -10 2 -28 0 -40z m-1057 -3 c0 -5
-5 -3 -10 5 -5 8 -10 20 -10 25 0 6 5 3 10 -5 5 -8 10 -19 10 -25z m430 -10
c0 -2 -10 -9 -22 -15 -22 -11 -22 -10 -4 4 21 17 26 19 26 11z m10 -40 c-7 -8
-20 -15 -28 -15 -13 0 -12 3 4 15 25 19 40 19 24 0z m637 -160 c0 -47 0 -47
-7 15 -4 36 -8 85 -7 110 0 41 1 39 7 -15 4 -33 8 -82 7 -110z m-1032 145 c3
-6 -1 -7 -9 -4 -18 7 -21 14 -7 14 6 0 13 -4 16 -10z m15 -135 c0 -5 -5 -3
-10 5 -5 8 -10 20 -10 25 0 6 5 3 10 -5 5 -8 10 -19 10 -25z m1007 -117 c-3
-7 -5 -2 -5 12 0 14 2 19 5 13 2 -7 2 -19 0 -25z m-13 -57 c-4 -17 -9 -30 -11
-27 -3 2 -2 19 2 36 9 41 17 33 9 -9z"/>
<path d="M3845 8740 c27 -12 43 -12 25 0 -8 5 -22 9 -30 9 -10 0 -8 -3 5 -9z"/>
<path d="M3909 8722 c50 -35 179 -100 175 -87 -6 13 -74 72 -108 92 -12 7 -37
12 -56 12 l-35 0 24 -17z"/>
<path d="M4044 8696 c54 -43 217 -196 299 -280 72 -74 104 -115 162 -209 19
-33 42 -66 50 -74 9 -8 12 -19 9 -24 -3 -6 31 -48 75 -94 45 -47 90 -99 101
-117 24 -40 27 -132 5 -185 -17 -39 -31 -41 -17 -2 5 13 12 45 16 71 10 65
-14 115 -97 203 l-66 70 20 -54 c11 -30 31 -102 45 -160 l25 -106 -6 -419 c-3
-231 -8 -422 -10 -425 -3 -2 -5 27 -6 65 l-1 69 -23 -125 c-13 -69 -29 -184
-35 -257 -6 -73 -16 -145 -21 -160 -9 -28 -8 -1 6 152 l5 50 -15 -55 c-34
-129 -13 -463 50 -790 50 -262 91 -401 142 -490 50 -85 301 -308 456 -404 87
-54 264 -123 367 -142 41 -8 116 -24 165 -35 50 -11 142 -31 205 -45 361 -80
448 -114 541 -211 69 -71 111 -139 162 -260 117 -278 170 -546 171 -853 0
-209 -30 -455 -94 -763 -32 -158 -78 -461 -99 -652 -11 -99 -30 -268 -42 -375
-23 -213 -22 -350 6 -575 38 -313 43 -719 10 -925 -8 -52 -15 -98 -15 -102 0
-5 11 -8 25 -8 24 0 25 3 25 63 0 34 7 100 15 147 8 47 15 135 15 195 0 160
-18 445 -31 485 -6 19 -15 78 -19 130 -5 52 -13 115 -17 140 -12 65 2 428 20
545 9 55 23 177 31 270 17 184 39 342 62 445 8 36 19 85 24 110 34 162 60 297
75 375 8 50 21 110 28 135 16 62 16 500 -1 605 -7 44 -18 112 -24 150 -43 280
-177 594 -317 742 -78 84 -201 142 -371 178 -110 23 -250 55 -360 82 -58 14
-127 30 -155 35 -149 28 -328 96 -438 168 -88 58 -276 218 -336 286 -68 77
-121 199 -153 349 -5 28 -14 66 -18 85 -58 264 -71 357 -71 536 1 165 5 198
66 529 23 129 26 163 34 508 l7 327 37 34 c37 34 37 34 37 117 0 104 -23 157
-103 245 -30 33 -83 105 -118 160 -111 175 -128 196 -307 372 -154 151 -182
174 -212 176 l-35 3 39 -31z"/>
<path d="M3841 8717 c2 -2 36 -21 74 -42 51 -28 65 -32 52 -17 -19 21 -97 62
-119 62 -6 0 -9 -1 -7 -3z"/>
<path d="M4005 8640 c12 -20 214 -180 223 -178 6 2 27 -19 47 -45 22 -29 42
-46 50 -43 8 3 22 -8 34 -27 11 -18 31 -43 45 -56 13 -13 23 -28 20 -35 -2 -6
12 -31 32 -54 19 -23 30 -42 24 -42 -7 0 -4 -11 7 -30 9 -16 21 -30 25 -30 4
0 8 -5 8 -11 0 -16 82 -190 88 -185 11 12 -55 170 -86 204 -17 21 -30 43 -27
51 3 8 -2 26 -12 40 -10 14 -18 29 -18 33 0 3 -4 10 -9 15 -5 5 -6 2 -1 -6 5
-9 4 -12 -3 -7 -6 4 -9 12 -7 19 6 14 -115 162 -132 162 -5 0 -32 23 -58 50
-26 28 -42 42 -35 32 28 -38 2 -24 -35 19 -44 54 -205 164 -180 124z m325
-251 c0 -6 -4 -7 -10 -4 -5 3 -10 11 -10 16 0 6 5 7 10 4 6 -3 10 -11 10 -16z"/>
<path d="M4337 8325 c12 -16 31 -39 43 -50 l23 -20 -11 20 c-6 11 -25 34 -43
50 l-32 30 20 -30z"/>
<path d="M2488 8283 c-70 -80 -181 -284 -227 -415 -33 -97 -34 -115 0 -40 42
92 147 298 197 385 52 88 57 101 30 70z"/>
<path d="M4462 8103 c39 -76 75 -137 79 -135 5 1 9 -6 9 -15 0 -10 14 -72 30
-138 27 -105 55 -330 51 -412 0 -12 3 -24 7 -27 5 -3 7 90 5 207 l-4 212 -41
90 c-23 50 -47 94 -55 98 -7 4 -13 15 -13 23 0 18 -39 97 -87 177 -63 105 -52
59 19 -80z"/>
<path d="M2185 7315 c5 -130 21 -219 65 -351 12 -36 24 -64 26 -61 2 2 -10 68
-26 148 -17 79 -39 200 -50 269 l-20 125 5 -130z"/>
<path d="M4627 7320 c-9 -34 -14 -210 -5 -210 8 0 21 177 16 210 l-4 25 -7
-25z"/>
<path d="M2191 7084 c0 -11 3 -14 6 -6 3 7 2 16 -1 19 -3 4 -6 -2 -5 -13z"/>
<path d="M2201 7044 c0 -11 3 -14 6 -6 3 7 2 16 -1 19 -3 4 -6 -2 -5 -13z"/>
<path d="M2214 6995 c4 -16 12 -34 17 -39 5 -6 5 4 -1 24 -12 42 -25 55 -16
15z"/>
<path d="M2276 6822 c48 -145 93 -253 94 -230 0 4 -17 54 -39 110 -21 57 -44
120 -50 140 -7 21 -16 40 -20 43 -5 2 2 -26 15 -63z"/>
<path d="M2398 6564 c14 -36 28 -62 29 -57 4 10 -44 123 -51 123 -2 0 8 -30
22 -66z"/>
<path d="M4519 6463 c-6 -16 -19 -50 -30 -78 -31 -82 -90 -178 -162 -267 -82
-100 -207 -269 -207 -278 0 -4 -15 -24 -32 -43 -18 -20 -40 -45 -48 -57 -55
-79 -189 -230 -265 -301 -38 -35 -71 -67 -73 -71 -2 -5 -8 -8 -13 -8 -5 0 -27
-11 -48 -25 -52 -35 -95 -46 -168 -46 l-62 1 14 -34 c8 -18 21 -65 30 -104 20
-87 11 -130 -40 -189 -19 -23 -35 -43 -35 -45 0 -2 69 -4 153 -3 170 2 181 -1
219 -64 12 -20 23 -38 24 -40 2 -2 24 20 50 48 26 29 66 65 90 82 46 31 49 49
11 67 -12 6 -16 11 -9 11 6 1 21 -8 33 -20 20 -20 22 -20 57 -3 50 23 127 30
148 13 24 -20 13 -88 -29 -173 -19 -39 -45 -93 -57 -119 -13 -27 -33 -60 -46
-74 -22 -24 -28 -42 -37 -123 -6 -49 16 -135 68 -261 25 -61 45 -120 45 -133
0 -34 -35 -66 -74 -66 -33 0 -67 28 -103 86 -10 15 -12 -3 -12 -98 -1 -121
-10 -162 -39 -184 -34 -26 -61 -17 -92 33 -17 26 -30 55 -30 64 0 10 -4 20 -9
24 -10 5 -63 -100 -75 -148 -4 -15 -17 -33 -31 -39 -13 -6 -43 -41 -65 -78
-23 -37 -49 -75 -58 -83 -9 -8 -65 -39 -124 -67 -98 -48 -108 -55 -119 -89
-21 -64 -74 -163 -158 -291 -45 -69 -110 -180 -144 -247 -65 -131 -85 -156
-42 -52 38 91 86 175 182 321 80 122 143 239 143 266 0 23 -50 -19 -116 -96
-84 -99 -103 -138 -309 -662 -32 -80 -66 -164 -76 -187 -11 -23 -19 -45 -19
-48 0 -5 -210 -500 -255 -600 -8 -16 -26 -59 -40 -95 -15 -36 -35 -83 -45
-105 -10 -22 -38 -87 -63 -145 -24 -58 -55 -127 -68 -155 -35 -75 -158 -285
-192 -327 l-30 -38 7 -127 c3 -69 18 -225 31 -345 30 -265 31 -332 5 -440 -11
-46 -20 -89 -20 -95 0 -10 336 -13 1648 -13 l1649 0 16 98 c11 70 15 80 12 37
-3 -33 -8 -77 -11 -97 l-7 -38 48 0 47 0 -6 43 -5 42 11 -42 c11 -42 12 -43
54 -43 24 0 44 2 44 5 0 56 84 536 129 740 16 72 27 132 25 134 -2 2 -11 -14
-21 -35 -22 -48 -22 -49 -28 -42 -3 3 10 43 29 88 55 130 86 249 86 331 0 51
4 75 15 83 10 7 17 39 21 96 4 47 10 90 14 95 4 6 5 44 2 85 -5 65 -7 70 -13
40 -4 -19 -11 -95 -15 -168 -4 -73 -11 -135 -15 -138 -5 -3 -7 14 -4 38 3 24
10 174 15 333 11 311 34 680 50 810 21 160 43 285 52 285 5 0 7 -12 4 -27 -16
-76 -37 -231 -46 -338 -18 -218 -40 -537 -39 -574 l1 -36 8 40 c4 22 22 168
40 325 17 157 40 328 50 380 18 89 18 104 5 250 -8 85 -17 175 -21 200 -4 30
-2 42 5 35 9 -9 19 -100 40 -345 11 -122 13 -397 3 -383 -4 7 -22 -122 -41
-293 -18 -168 -31 -307 -29 -310 3 -2 15 33 27 78 12 46 19 67 17 48 -7 -54
-75 -444 -91 -524 -8 -39 -22 -125 -30 -190 -9 -65 -20 -126 -26 -135 -7 -11
-8 -1 -4 34 7 74 -1 46 -34 -110 -96 -452 -94 -439 -87 -585 3 -74 12 -177 18
-228 l11 -92 147 0 c117 0 154 3 180 17 30 14 40 15 89 3 31 -8 104 -15 163
-17 105 -4 107 -4 111 19 l4 23 2 -22 c1 -22 5 -23 95 -23 l94 0 11 78 c44
295 39 548 -20 1107 -14 135 -9 241 30 600 43 386 66 556 111 795 92 487 104
598 97 884 -7 311 -48 516 -157 773 -127 300 -215 365 -620 452 -588 127 -690
158 -838 254 -142 92 -346 272 -419 370 -62 82 -107 215 -158 469 -42 204 -67
415 -69 565 0 79 -2 143 -4 143 -1 0 -7 -12 -13 -27z m-149 -413 c4 -28 3 -50
-2 -50 -4 0 -8 10 -9 23 0 12 -2 37 -4 55 -5 52 8 28 15 -28z m20 -133 c0 -24
-3 -28 -10 -17 -13 20 -13 63 0 55 6 -3 10 -21 10 -38z m18 -112 l1 -20 -9 20
c-5 11 -8 31 -8 45 l0 25 8 -25 c4 -14 8 -34 8 -45z m-74 -23 c2 -4 10 -75 16
-157 17 -223 36 -273 179 -481 30 -44 75 -103 99 -132 25 -29 43 -55 40 -57
-2 -3 -35 11 -72 29 -38 19 -92 40 -120 46 -28 7 -91 31 -141 55 -115 54 -174
68 -245 56 -66 -11 -237 -70 -337 -116 -57 -26 -87 -34 -145 -36 -40 -1 -84 1
-97 5 -22 8 -23 11 -17 70 3 33 2 79 -3 100 -13 53 1 80 37 73 15 -3 45 1 67
8 22 8 74 21 115 30 104 23 125 32 194 87 100 80 184 166 283 290 101 127 132
154 147 130z m90 -55 c3 -16 1 -25 -5 -22 -5 4 -9 18 -9 32 0 32 7 27 14 -10z
m20 -69 c8 -32 7 -40 -3 -34 -11 7 -21 56 -11 56 4 0 10 -10 14 -22z m13 -100
c-3 -8 -6 -5 -6 6 -1 11 2 17 5 13 3 -3 4 -12 1 -19z m62 -155 c12 -24 17 -43
12 -43 -8 0 -41 70 -41 87 0 10 6 1 29 -44z m81 -132 c-1 -10 -50 53 -50 63 0
6 11 -5 25 -24 14 -19 25 -36 25 -39z m35 -31 c10 -11 16 -20 13 -20 -3 0 -13
9 -23 20 -10 11 -16 20 -13 20 3 0 13 -9 23 -20z m59 -56 c7 -19 2 -18 -19 6
-16 17 -16 20 -3 15 9 -4 19 -13 22 -21z m56 -38 c0 -3 -4 -8 -10 -11 -5 -3
-10 -1 -10 4 0 6 5 11 10 11 6 0 10 -2 10 -4z m25 -26 c3 -5 2 -10 -4 -10 -5
0 -13 5 -16 10 -3 6 -2 10 4 10 5 0 13 -4 16 -10z m68 -62 c10 -10 14 -18 10
-18 -10 0 -63 48 -63 57 0 6 27 -13 53 -39z m96 -81 c1 -4 -12 2 -29 15 -16
12 -30 26 -30 31 0 10 59 -35 59 -46z m-1099 28 c0 -3 -20 -14 -44 -26 -25
-11 -50 -27 -57 -35 -6 -8 -17 -14 -23 -14 -17 1 34 39 79 60 47 22 45 21 45
15z m1156 -66 c3 -6 -5 -3 -20 6 -14 10 -26 19 -26 22 0 7 39 -17 46 -28z m55
-25 c17 -8 28 -18 25 -21 -3 -3 -20 4 -38 16 -39 24 -30 28 13 5z m69 -34 c8
-5 11 -10 5 -10 -5 0 -17 5 -25 10 -8 5 -10 10 -5 10 6 0 17 -5 25 -10z m85
-30 c22 -10 36 -19 30 -19 -13 -1 -83 24 -91 32 -13 13 21 6 61 -13z m165 -50
c20 -6 21 -8 5 -8 -11 0 -31 4 -45 8 -20 6 -21 8 -5 8 11 0 31 -4 45 -8z m85
-20 c13 -5 14 -9 5 -9 -8 0 -24 4 -35 9 -13 5 -14 9 -5 9 8 0 24 -4 35 -9z
m78 -17 c-7 -2 -21 -2 -30 0 -10 3 -4 5 12 5 17 0 24 -2 18 -5z m90 -20 c-7
-2 -21 -2 -30 0 -10 3 -4 5 12 5 17 0 24 -2 18 -5z m141 -32 c3 -4 -6 -6 -19
-3 -14 2 -25 6 -25 8 0 8 39 4 44 -5z m73 -17 c-3 -3 -12 -4 -19 -1 -8 3 -5 6
6 6 11 1 17 -2 13 -5z m73 -14 c11 -8 7 -9 -15 -4 -37 8 -45 14 -19 14 10 0
26 -5 34 -10z m63 -17 c-7 -2 -19 -2 -25 0 -7 3 -2 5 12 5 14 0 19 -2 13 -5z
m97 -23 c13 -9 13 -10 0 -9 -8 0 -24 4 -35 9 l-20 9 20 0 c11 0 27 -4 35 -9z
m97 -47 c-6 -5 -67 21 -67 29 0 4 16 0 35 -9 19 -9 33 -18 32 -20z m69 -40
c-6 -6 -56 20 -56 29 0 5 13 1 30 -8 16 -10 28 -19 26 -21z m68 -64 c25 -28
46 -56 45 -63 0 -6 -6 -2 -12 8 -7 11 -31 39 -54 63 -23 24 -39 43 -34 43 5 0
30 -23 55 -51z m-704 32 c-16 -10 -123 -29 -325 -60 -141 -22 -307 -37 -510
-46 -241 -12 -333 -39 -457 -133 -74 -56 -95 -55 -25 1 72 59 124 86 220 117
87 29 105 31 337 40 232 9 345 21 675 75 101 16 103 16 85 6z m-493 -47 c-3
-3 -12 -4 -19 -1 -8 3 -5 6 6 6 11 1 17 -2 13 -5z m-64 -11 c-7 -2 -19 -2 -25
0 -7 3 -2 5 12 5 14 0 19 -2 13 -5z m-65 -10 c-10 -2 -26 -2 -35 0 -10 3 -2 5
17 5 19 0 27 -2 18 -5z m-545 -40 c-7 -2 -19 -2 -25 0 -7 3 -2 5 12 5 14 0 19
-2 13 -5z m-65 -10 c-10 -2 -26 -2 -35 0 -10 3 -2 5 17 5 19 0 27 -2 18 -5z
m2043 -78 c23 -47 40 -88 37 -90 -3 -3 -13 14 -24 37 -10 24 -31 64 -46 91
-15 26 -23 47 -18 47 5 0 28 -38 51 -85z m-2116 65 c-3 -5 -12 -10 -18 -10 -7
0 -25 -7 -41 -15 -16 -9 -31 -13 -34 -10 -3 3 -3 7 -1 9 3 2 82 31 97 35 2 1
0 -3 -3 -9z m-180 -95 c-16 -13 -34 -24 -40 -25 -5 0 4 11 20 25 17 13 35 24
40 25 6 0 -3 -11 -20 -25z m2365 -129 c0 -6 -7 -1 -15 10 -8 10 -14 26 -14 34
0 16 28 -28 29 -44z m30 -87 c0 -6 -4 -7 -10 -4 -5 3 -10 11 -10 16 0 6 5 7
10 4 6 -3 10 -11 10 -16z m19 -74 l0 -20 -9 20 c-5 11 -9 27 -9 35 -1 13 0 13
9 0 5 -8 9 -24 9 -35z m16 -34 c3 -5 1 -12 -5 -16 -5 -3 -10 1 -10 9 0 18 6
21 15 7z m23 -141 c0 -22 -1 -22 -8 5 -4 17 -8 39 -8 50 0 16 2 15 8 -5 4 -14
8 -36 8 -50z m9 -72 c-3 -7 -5 -2 -5 12 0 14 2 19 5 13 2 -7 2 -19 0 -25z m32
-207 c1 -105 -5 -85 -11 34 -3 55 -2 87 2 70 4 -16 8 -63 9 -104z m-538 -13
c-48 -146 -60 -241 -54 -413 6 -160 -11 -654 -27 -795 -5 -47 -17 -151 -25
-231 -9 -80 -20 -159 -25 -175 -11 -33 -10 -8 16 246 8 85 19 218 24 295 12
188 20 516 11 440 -5 -40 -8 15 -9 172 -1 149 2 233 8 235 6 2 15 32 21 68 12
74 45 191 66 233 27 54 24 19 -6 -75z m-210 15 c-8 -15 -10 -15 -11 -2 0 17
10 32 18 25 2 -3 -1 -13 -7 -23z m-20 -69 c-5 -16 -10 -21 -10 -12 -1 18 10
51 15 45 2 -1 -1 -16 -5 -33z m-22 -98 c-7 -31 -14 -54 -16 -52 -3 2 1 30 7
61 6 31 14 54 17 52 3 -3 -1 -31 -8 -61z m786 -204 c-4 -46 -9 -81 -12 -79 -2
3 -1 56 4 118 4 63 9 98 11 79 2 -19 1 -72 -3 -118z m-641 -157 c11 -215 15
-464 7 -402 -10 66 -25 535 -18 527 2 -3 7 -59 11 -125z m621 -17 c-5 -29 -10
-47 -13 -40 -5 17 8 106 15 99 3 -3 2 -30 -2 -59z m-878 -10 c-3 -7 -5 -2 -5
12 0 14 2 19 5 13 2 -7 2 -19 0 -25z m50 -80 c-3 -8 -6 -5 -6 6 -1 11 2 17 5
13 3 -3 4 -12 1 -19z m804 -50 l-9 -33 -1 32 c-1 17 2 40 6 50 12 30 16 -9 4
-49z m-844 5 c-3 -10 -5 -4 -5 12 0 17 2 24 5 18 2 -7 2 -21 0 -30z m10 -60
c-3 -10 -5 -4 -5 12 0 17 2 24 5 18 2 -7 2 -21 0 -30z m809 -90 c-9 -42 -19
-79 -23 -82 -3 -3 -3 8 0 24 4 17 12 61 19 100 7 38 14 62 16 52 2 -9 -4 -52
-12 -94z m-846 2 c-6 -30 -8 -33 -9 -13 -1 25 8 62 14 56 2 -2 -1 -21 -5 -43z
m47 -37 c-2 -13 -4 -5 -4 17 -1 22 1 32 4 23 2 -10 2 -28 0 -40z m60 -30 c-2
-13 -4 -5 -4 17 -1 22 1 32 4 23 2 -10 2 -28 0 -40z m-120 -10 c-3 -8 -6 -5
-6 6 -1 11 2 17 5 13 3 -3 4 -12 1 -19z m828 -88 c-4 -17 -9 -29 -12 -26 -3 2
-2 19 2 36 4 17 9 29 12 26 3 -2 2 -19 -2 -36z m-844 -21 c-5 -26 -9 -34 -10
-19 -1 27 9 73 15 67 2 -2 0 -23 -5 -48z m129 -103 c0 -52 -6 -43 -13 18 -3
30 -1 43 4 35 5 -8 9 -32 9 -53z m697 32 c-3 -7 -5 -2 -5 12 0 14 2 19 5 13 2
-7 2 -19 0 -25z m-840 -65 c-2 -16 -4 -3 -4 27 0 30 2 43 4 28 2 -16 2 -40 0
-55z m823 -33 c-7 -39 -15 -69 -18 -66 -3 3 1 37 8 76 17 91 26 83 10 -10z
m-833 -72 c-2 -13 -4 -3 -4 22 0 25 2 35 4 23 2 -13 2 -33 0 -45z m130 -65
c-3 -10 -5 -4 -5 12 0 17 2 24 5 18 2 -7 2 -21 0 -30z m680 -10 c-3 -10 -5 -4
-5 12 0 17 2 24 5 18 2 -7 2 -21 0 -30z m-690 -95 c-2 -18 -4 -6 -4 27 0 33 2
48 4 33 2 -15 2 -42 0 -60z m-40 50 c-3 -8 -6 -5 -6 6 -1 11 2 17 5 13 3 -3 4
-12 1 -19z m720 -10 c-3 -7 -5 -2 -5 12 0 14 2 19 5 13 2 -7 2 -19 0 -25z
m-810 -25 c-3 -10 -5 -2 -5 17 0 19 2 27 5 18 2 -10 2 -26 0 -35z m800 -70
c-3 -10 -5 -4 -5 12 0 17 2 24 5 18 2 -7 2 -21 0 -30z m-680 -25 c-3 -7 -5 -2
-5 12 0 14 2 19 5 13 2 -7 2 -19 0 -25z m-130 -80 c-2 -18 -4 -4 -4 32 0 36 2
50 4 33 2 -18 2 -48 0 -65z m40 45 c-3 -10 -5 -2 -5 17 0 19 2 27 5 18 2 -10
2 -26 0 -35z m760 -30 c-3 -10 -5 -2 -5 17 0 19 2 27 5 18 2 -10 2 -26 0 -35z
m-675 -5 c-6 -6 -7 0 -4 19 5 21 7 23 10 9 2 -10 0 -22 -6 -28z m-57 -126 c-4
-35 -9 -61 -12 -58 -3 3 -2 42 3 88 4 46 10 72 12 59 2 -14 1 -54 -3 -89z
m-38 56 c-3 -7 -5 -2 -5 12 0 14 2 19 5 13 2 -7 2 -19 0 -25z m758 -48 c-4
-39 -9 -69 -12 -66 -3 3 -2 37 2 76 4 39 9 69 12 66 3 -3 2 -37 -2 -76z m-18
-177 c-2 -16 -4 -3 -4 27 0 30 2 43 4 28 2 -16 2 -40 0 -55z m-10 -95 c-2 -13
-4 -3 -4 22 0 25 2 35 4 23 2 -13 2 -33 0 -45z m-780 -50 c-2 -13 -4 -3 -4 22
0 25 2 35 4 23 2 -13 2 -33 0 -45z m767 -105 c-5 -80 -1 -180 11 -311 9 -106
15 -196 11 -199 -3 -4 -6 2 -6 13 0 10 -7 91 -15 179 -16 171 -19 298 -9 383
11 87 14 58 8 -65z m-98 -90 c11 -25 14 -57 11 -102 -28 -410 -46 -502 -118
-609 -16 -24 -29 -51 -29 -60 -1 -31 -40 -70 -40 -40 0 7 -17 37 -37 66 l-36
53 11 152 c6 87 19 186 32 232 41 156 83 277 107 305 20 25 33 31 76 39 4 0
15 -15 23 -36z m-696 -253 l-11 -25 6 25 c2 14 5 34 6 45 2 19 2 19 6 0 2 -12
-1 -32 -7 -45z m-33 -102 c-3 -8 -6 -5 -6 6 -1 11 2 17 5 13 3 -3 4 -12 1 -19z
m-56 -143 c-9 -25 -17 -41 -19 -36 -3 10 24 81 31 81 3 0 -3 -20 -12 -45z
m932 -295 c5 -216 5 -218 -3 -45 -4 99 -10 225 -13 280 -4 75 -4 86 3 45 5
-30 11 -156 13 -280z m-916 198 c-3 -7 -5 -2 -5 12 0 14 2 19 5 13 2 -7 2 -19
0 -25z m-16 -64 c-5 -16 -10 -21 -10 -12 -1 18 10 51 15 45 2 -1 -1 -16 -5
-33z m-24 -121 c-3 -10 -5 -4 -5 12 0 17 2 24 5 18 2 -7 2 -21 0 -30z m-13
-87 c-3 -21 -9 -35 -11 -32 -3 3 -2 21 1 42 4 20 10 34 12 31 3 -3 2 -21 -2
-41z m-27 -118 c-3 -8 -6 -5 -6 6 -1 11 2 17 5 13 3 -3 4 -12 1 -19z m-10 -60
c-3 -8 -6 -5 -6 6 -1 11 2 17 5 13 3 -3 4 -12 1 -19z m998 -83 c-4 -42 -9 -74
-12 -71 -3 2 -2 39 2 81 4 42 10 74 12 71 3 -3 2 -39 -2 -81z m-955 3 c0 -34
-2 -59 -4 -57 -8 8 -12 119 -4 119 4 0 8 -28 8 -62z m-53 5 c-3 -10 -5 -2 -5
17 0 19 2 27 5 18 2 -10 2 -26 0 -35z m793 -18 c8 -9 9 -32 5 -69 -6 -50 -10
-56 -38 -65 -16 -6 -54 -11 -82 -11 -55 0 -80 15 -69 43 3 8 -2 29 -11 46 -25
50 2 76 105 104 16 4 71 -25 90 -48z m197 -142 c-3 -10 -5 -2 -5 17 0 19 2 27
5 18 2 -10 2 -26 0 -35z"/>
<path d="M2446 6457 c3 -10 9 -15 12 -12 3 3 0 11 -7 18 -10 9 -11 8 -5 -6z"/>
<path d="M2483 6345 c11 -39 56 -150 56 -139 1 17 -41 138 -52 149 -6 7 -8 3
-4 -10z"/>
<path d="M2576 6107 c3 -10 9 -15 12 -12 3 3 0 11 -7 18 -10 9 -11 8 -5 -6z"/>
<path d="M3766 5462 l-19 -27 26 24 c28 26 32 31 20 31 -5 0 -17 -13 -27 -28z"/>
<path d="M3245 5410 c4 -14 17 -45 28 -70 11 -25 21 -47 22 -50 1 -3 15 -48
33 -101 17 -53 34 -131 38 -174 l7 -78 28 34 c51 61 55 82 36 176 -21 99 -43
151 -77 178 -14 11 -47 40 -74 65 -42 39 -48 42 -41 20z"/>
<path d="M4080 5000 c-84 -16 -209 -100 -269 -180 l-20 -28 84 -127 c47 -70
86 -133 86 -139 1 -6 5 9 9 34 5 29 3 47 -4 52 -12 8 -12 7 27 32 35 21 147
249 155 312 5 47 -7 55 -68 44z m-154 -137 c-18 -33 -21 -26 -6 13 6 15 13 24
16 21 3 -3 -1 -18 -10 -34z m-26 -58 c-7 -9 -15 -13 -18 -10 -3 2 1 11 8 20 7
9 15 13 18 10 3 -2 -1 -11 -8 -20z m-20 -38 c0 -7 -7 -22 -15 -33 -13 -17 -14
-16 -4 14 11 33 19 41 19 19z"/>
<path d="M2107 4919 c-88 -21 -177 -87 -254 -187 -31 -40 -58 -70 -61 -68 -11
12 90 137 146 181 56 43 49 44 -30 3 -39 -21 -93 -63 -143 -113 -67 -67 -90
-100 -143 -200 -34 -66 -64 -131 -66 -145 -1 -15 -10 -37 -19 -50 -18 -29 -69
-181 -63 -188 3 -2 17 22 32 55 15 32 49 98 76 147 26 49 46 91 44 93 -2 2
-16 -10 -30 -28 -15 -17 -29 -29 -31 -27 -3 3 24 39 59 80 108 127 285 271
477 389 55 34 99 63 99 65 0 7 -52 3 -93 -7z"/>
<path d="M2227 4920 c-18 -7 -161 -97 -237 -149 -147 -100 -340 -272 -340
-303 0 -5 -5 -6 -12 -2 -8 5 -9 2 -5 -9 4 -11 -30 -88 -92 -209 l-99 -193 -46
-227 c-45 -224 -53 -272 -36 -233 17 40 9 -2 -15 -80 -14 -44 -25 -90 -25
-103 0 -12 -4 -30 -10 -40 -5 -9 -23 -73 -40 -142 -16 -69 -48 -181 -71 -250
-30 -91 -49 -176 -69 -315 -16 -104 -38 -233 -49 -285 -34 -160 -48 -223 -59
-265 -5 -22 -13 -53 -18 -70 l-7 -30 -6 30 c-5 26 -10 18 -33 -60 -15 -50 -38
-123 -53 -164 -14 -41 -28 -93 -31 -115 -4 -33 2 -23 30 47 78 194 161 286
471 517 248 186 331 254 443 362 l82 80 0 64 c0 35 -4 64 -10 64 -6 0 -8 25
-5 63 16 224 26 482 20 537 -26 265 -46 361 -107 508 -17 40 -29 75 -26 77 31
32 138 -323 138 -461 0 -57 2 -64 15 -51 9 9 16 42 18 88 2 41 1 4 -2 -81 -7
-204 -7 -231 1 -323 5 -51 4 -76 -2 -72 -6 3 -11 21 -12 38 -3 62 -16 -170
-16 -303 l-1 -135 48 52 c143 153 277 362 429 668 63 127 130 252 149 279 19
27 45 76 58 110 27 70 45 108 87 186 115 214 204 461 227 630 11 82 37 178 53
198 8 9 -15 12 -109 12 -65 0 -123 4 -129 9 -30 27 -448 71 -497 51z m186 -17
c-7 -2 -21 -2 -30 0 -10 3 -4 5 12 5 17 0 24 -2 18 -5z m137 -23 c20 -6 21 -8
5 -8 -11 0 -33 4 -50 8 -27 7 -27 8 -5 8 14 0 36 -4 50 -8z m138 -17 c-10 -2
-28 -2 -40 0 -13 2 -5 4 17 4 22 1 32 -1 23 -4z m105 -180 c-7 -2 -19 -2 -25
0 -7 3 -2 5 12 5 14 0 19 -2 13 -5z m-89 -87 c-3 -21 -8 -35 -11 -32 -2 2 -1
20 3 40 3 21 8 35 11 32 2 -2 1 -20 -3 -40z m-111 -376 c-3 -11 -9 -20 -15
-20 -5 0 -4 9 2 20 6 11 12 20 14 20 2 0 2 -9 -1 -20z m-53 -100 c-6 -11 -13
-20 -16 -20 -2 0 0 9 6 20 6 11 13 20 16 20 2 0 0 -9 -6 -20z m-59 -113 c-10
-9 -11 -8 -5 6 3 10 9 15 12 12 3 -3 0 -11 -7 -18z m-885 -34 c9 -21 21 -48
26 -60 6 -11 8 -27 6 -34 -2 -7 -15 17 -28 52 -14 35 -26 67 -28 72 -2 4 -1 7
2 7 3 0 12 -17 22 -37z m834 -83 c0 -5 -5 -10 -11 -10 -5 0 -7 5 -4 10 3 6 8
10 11 10 2 0 4 -4 4 -10z m-30 -57 c-11 -17 -11 -17 -6 0 3 10 6 24 7 30 0 9
2 9 5 0 3 -7 0 -20 -6 -30z m-742 -30 c5 -24 6 -41 2 -38 -4 2 -10 17 -13 32
-3 16 -9 37 -13 48 -5 13 -4 17 3 10 6 -5 15 -29 21 -52z m719 -35 c-3 -8 -6
-5 -6 6 -1 11 2 17 5 13 3 -3 4 -12 1 -19z m-700 -95 c-3 -10 -5 -2 -5 17 0
19 2 27 5 18 2 -10 2 -26 0 -35z m622 -18 c-12 -19 -23 -35 -25 -35 -6 0 14
40 29 58 18 23 16 12 -4 -23z m-911 -6 c-6 -16 -12 -28 -14 -26 -5 5 13 57 20
57 3 0 0 -14 -6 -31z m853 -106 c-12 -20 -14 -14 -5 12 4 9 9 14 11 11 3 -2 0
-13 -6 -23z m-22 -53 c-6 -16 -15 -30 -20 -30 -5 0 -3 14 6 30 9 17 17 30 20
30 2 0 -1 -13 -6 -30z m-84 -170 c-9 -18 -18 -30 -21 -28 -2 3 3 19 12 37 9
18 18 30 21 28 2 -3 -3 -19 -12 -37z m-54 -93 c-10 -9 -11 -8 -5 6 3 10 9 15
12 12 3 -3 0 -11 -7 -18z m-11 -31 c0 -2 -8 -10 -17 -17 -16 -13 -17 -12 -4 4
13 16 21 21 21 13z m-373 -68 c-3 -8 -6 -5 -6 6 -1 11 2 17 5 13 3 -3 4 -12 1
-19z m343 18 c0 -2 -8 -10 -17 -17 -16 -13 -17 -12 -4 4 13 16 21 21 21 13z
m-343 -158 c-2 -13 -4 -5 -4 17 -1 22 1 32 4 23 2 -10 2 -28 0 -40z m261 32
c-7 -10 -14 -18 -15 -16 -6 6 9 36 18 36 5 0 4 -9 -3 -20z m-109 -147 c-36
-47 -69 -83 -69 -75 0 5 17 28 37 50 37 42 57 57 32 25z m-98 -116 l-24 -22
19 27 c10 14 21 24 23 22 3 -3 -6 -15 -18 -27z m-141 -140 c0 -2 -11 -14 -25
-27 -14 -13 -25 -21 -25 -17 0 3 10 15 22 27 21 19 28 24 28 17z m-85 -86
c-35 -32 -127 -101 -124 -93 5 14 112 102 124 102 6 0 6 -3 0 -9z m-187 -150
c-18 -16 -35 -28 -37 -26 -4 5 51 54 62 55 4 0 -7 -13 -25 -29z m-68 -52 c-14
-10 -29 -23 -35 -27 -25 -20 -35 -23 -29 -8 3 8 14 18 24 21 9 3 25 14 35 25
10 11 21 17 24 14 3 -3 -5 -14 -19 -25z m-104 -72 c-11 -7 -27 -20 -37 -29
-10 -9 -30 -24 -46 -33 l-28 -17 30 27 c31 28 86 65 95 64 3 0 -4 -6 -14 -12z"/>
<path d="M1440 4183 c-27 -60 -49 -134 -43 -150 5 -12 3 -14 -7 -8 -10 6 -12
4 -7 -8 3 -9 0 -34 -8 -56 -7 -22 -11 -42 -8 -45 3 -3 -1 -25 -10 -48 -9 -24
-18 -61 -21 -83 -11 -92 -18 -210 -13 -205 7 7 67 331 64 350 -1 8 8 45 20 83
13 37 20 73 17 80 -3 8 4 35 16 62 22 51 22 74 0 28z"/>
<path d="M3700 4068 c0 -24 -5 -61 -10 -83 -5 -22 -7 -41 -6 -43 2 -2 14 13
26 32 17 29 20 44 14 81 -8 59 -24 68 -24 13z"/>
<path d="M1291 3693 c-47 -162 -91 -391 -96 -506 -2 -45 -8 -98 -14 -117 -11
-34 -15 -91 -4 -60 2 8 8 24 13 35 11 28 44 141 80 276 24 91 32 150 39 275 5
87 8 161 6 162 -2 2 -13 -27 -24 -65z m-84 -525 c-3 -8 -6 -5 -6 6 -1 11 2 17
5 13 3 -3 4 -12 1 -19z"/>
<path d="M1197 3453 c-80 -246 -139 -528 -162 -778 -4 -38 -9 -78 -11 -87 -3
-10 -2 -18 3 -18 14 0 53 114 78 231 14 63 31 143 39 179 8 36 22 128 31 205
9 77 27 191 41 254 13 63 22 117 20 119 -2 2 -20 -45 -39 -105z"/>
<path d="M1142 2900 c0 -14 2 -19 5 -12 2 6 2 18 0 25 -3 6 -5 1 -5 -13z"/>
<path d="M1106 2683 c-3 -10 -14 -61 -25 -113 -11 -52 -37 -180 -59 -285 -22
-104 -37 -194 -33 -198 5 -4 15 23 24 60 28 114 68 305 77 363 5 30 14 84 20
119 10 61 8 93 -4 54z"/>
<path d="M1032 2510 c-41 -129 -87 -290 -107 -375 -8 -38 -20 -86 -25 -106
-24 -89 -65 -377 -55 -387 2 -2 7 13 10 34 12 66 45 192 65 247 21 57 38 119
45 163 2 16 9 52 15 79 6 28 11 59 12 70 0 11 18 94 40 184 21 90 37 169 35
175 -2 6 -18 -32 -35 -84z"/>
<path d="M5921 2484 c0 -11 3 -14 6 -6 3 7 2 16 -1 19 -3 4 -6 -2 -5 -13z"/>
<path d="M5936 2448 c-15 -124 -38 -278 -52 -338 -8 -36 -19 -108 -24 -160
-13 -131 -24 -406 -16 -399 3 3 15 120 26 260 24 304 23 293 32 299 4 3 13 51
19 105 6 55 14 105 18 110 8 11 15 175 8 175 -3 0 -8 -24 -11 -52z"/>
<path d="M5912 2400 c0 -14 2 -19 5 -12 2 6 2 18 0 25 -3 6 -5 1 -5 -13z"/>
<path d="M881 2073 c-1 -6 -4 -20 -7 -30 -5 -17 -5 -17 6 0 6 10 9 23 6 30 -3
9 -5 9 -5 0z"/>
<path d="M856 1983 c-29 -94 -57 -364 -46 -452 5 -43 6 -40 13 34 4 44 10 121
13 170 3 50 12 128 19 174 14 79 14 116 1 74z"/>
<path d="M861 1644 c0 -11 3 -14 6 -6 3 7 2 16 -1 19 -3 4 -6 -2 -5 -13z"/>
<path d="M791 1395 c-1 -103 15 -306 28 -350 9 -28 9 -28 10 -5 1 14 4 43 6
65 4 27 3 34 -3 20 -6 -13 -11 28 -16 120 -5 77 -12 163 -16 190 -7 45 -7 41
-9 -40z"/>
<path d="M1995 1006 c-11 -12 -47 -50 -80 -86 -50 -55 -46 -52 25 17 46 45 82
84 80 86 -3 3 -14 -5 -25 -17z"/>
<path d="M6782 975 c7 -74 -18 -806 -29 -857 -5 -21 -20 -45 -35 -58 -30 -23
-38 -60 -14 -60 8 0 17 4 20 8 3 5 18 7 33 5 78 -12 109 145 100 507 -8 290
-32 475 -65 502 -14 12 -15 6 -10 -47z"/>
<path d="M832 990 c0 -14 2 -19 5 -12 2 6 2 18 0 25 -3 6 -5 1 -5 -13z"/>
<path d="M1641 628 c-30 -32 -52 -60 -49 -63 3 -3 29 22 58 55 29 33 51 62 49
63 -2 2 -28 -23 -58 -55z"/>
<path d="M930 653 c0 -17 70 -216 82 -231 14 -16 24 -7 11 10 -6 7 -20 47 -33
88 -22 74 -59 156 -60 133z"/>
<path d="M1545 520 c-7 -11 -115 -83 -190 -127 -24 -14 -33 -23 -22 -23 29 0
80 25 112 56 17 16 32 29 35 29 12 0 83 65 78 70 -3 4 -9 1 -13 -5z"/>
<path d="M1026 385 c4 -8 18 -15 33 -15 25 1 25 1 7 15 -26 19 -47 19 -40 0z"/>
<path d="M1118 373 c7 -3 16 -2 19 1 4 3 -2 6 -13 5 -11 0 -14 -3 -6 -6z"/>
<path d="M5606 203 c-9 -76 -20 -153 -23 -170 -5 -33 -5 -33 36 -33 46 0 45
-3 31 90 -5 35 -10 106 -11 157 -1 51 -5 93 -8 93 -4 0 -15 -62 -25 -137z"/>
<path d="M1957 44 c-11 -11 -8 -44 3 -44 15 0 24 30 13 41 -5 5 -12 6 -16 3z"/>
</g>
</svg>
